<?xml version="1.0" encoding="utf-8" standalone="no"?>
<!DOCTYPE svg PUBLIC "-//W3C//DTD SVG 1.1//EN"
  "http://www.w3.org/Graphics/SVG/1.1/DTD/svg11.dtd">
<svg xmlns:xlink="http://www.w3.org/1999/xlink" width="856.870625pt" height="424.329687pt" viewBox="0 0 856.870625 424.329687" xmlns="http://www.w3.org/2000/svg" version="1.1">
 <metadata>
  <rdf:RDF xmlns:dc="http://purl.org/dc/elements/1.1/" xmlns:cc="http://creativecommons.org/ns#" xmlns:rdf="http://www.w3.org/1999/02/22-rdf-syntax-ns#">
   <cc:Work>
    <dc:type rdf:resource="http://purl.org/dc/dcmitype/StillImage"/>
    <dc:date>2026-05-09T17:07:32.781554</dc:date>
    <dc:format>image/svg+xml</dc:format>
    <dc:creator>
     <cc:Agent>
      <dc:title>Matplotlib v3.10.8, https://matplotlib.org/</dc:title>
     </cc:Agent>
    </dc:creator>
   </cc:Work>
  </rdf:RDF>
 </metadata>
 <defs>
  <style type="text/css">*{stroke-linejoin: round; stroke-linecap: butt}</style>
 </defs>
 <g id="figure_1">
  <g id="patch_1">
   <path d="M 0 424.329687 
L 856.870625 424.329687 
L 856.870625 0 
L 0 0 
z
" style="fill: #ffffff"/>
  </g>
  <g id="axes_1">
   <g id="patch_2">
    <path d="M 45.716875 384.837812 
L 840.126875 384.837812 
L 840.126875 32.837812 
L 45.716875 32.837812 
z
" style="fill: #ffffff"/>
   </g>
   <g id="matplotlib.axis_1">
    <g id="xtick_1">
     <g id="line2d_1">
      <path d="M 45.716875 384.837812 
L 45.716875 32.837812 
" clip-path="url(#pee22393604)" style="fill: none; stroke-dasharray: 0.8,1.32; stroke-dashoffset: 0; stroke: #b0b0b0; stroke-opacity: 0.6; stroke-width: 0.8"/>
     </g>
     <g id="line2d_2">
      <defs>
       <path id="m696470a18a" d="M 0 0 
L 0 3.5 
" style="stroke: #000000; stroke-width: 0.8"/>
      </defs>
      <g>
       <use xlink:href="#m696470a18a" x="45.716875" y="384.837812" style="stroke: #000000; stroke-width: 0.8"/>
      </g>
     </g>
     <g id="text_1">
      <!-- 0 -->
      <g transform="translate(42.535625 399.43625) scale(0.1 -0.1)">
       <defs>
        <path id="DejaVuSans-30" d="M 2034 4250 
Q 1547 4250 1301 3770 
Q 1056 3291 1056 2328 
Q 1056 1369 1301 889 
Q 1547 409 2034 409 
Q 2525 409 2770 889 
Q 3016 1369 3016 2328 
Q 3016 3291 2770 3770 
Q 2525 4250 2034 4250 
z
M 2034 4750 
Q 2819 4750 3233 4129 
Q 3647 3509 3647 2328 
Q 3647 1150 3233 529 
Q 2819 -91 2034 -91 
Q 1250 -91 836 529 
Q 422 1150 422 2328 
Q 422 3509 836 4129 
Q 1250 4750 2034 4750 
z
" transform="scale(0.015625)"/>
       </defs>
       <use xlink:href="#DejaVuSans-30"/>
      </g>
     </g>
    </g>
    <g id="xtick_2">
     <g id="line2d_3">
      <path d="M 204.598875 384.837812 
L 204.598875 32.837812 
" clip-path="url(#pee22393604)" style="fill: none; stroke-dasharray: 0.8,1.32; stroke-dashoffset: 0; stroke: #b0b0b0; stroke-opacity: 0.6; stroke-width: 0.8"/>
     </g>
     <g id="line2d_4">
      <g>
       <use xlink:href="#m696470a18a" x="204.598875" y="384.837812" style="stroke: #000000; stroke-width: 0.8"/>
      </g>
     </g>
     <g id="text_2">
      <!-- 100 -->
      <g transform="translate(195.055125 399.43625) scale(0.1 -0.1)">
       <defs>
        <path id="DejaVuSans-31" d="M 794 531 
L 1825 531 
L 1825 4091 
L 703 3866 
L 703 4441 
L 1819 4666 
L 2450 4666 
L 2450 531 
L 3481 531 
L 3481 0 
L 794 0 
L 794 531 
z
" transform="scale(0.015625)"/>
       </defs>
       <use xlink:href="#DejaVuSans-31"/>
       <use xlink:href="#DejaVuSans-30" transform="translate(63.623047 0)"/>
       <use xlink:href="#DejaVuSans-30" transform="translate(127.246094 0)"/>
      </g>
     </g>
    </g>
    <g id="xtick_3">
     <g id="line2d_5">
      <path d="M 363.480875 384.837812 
L 363.480875 32.837812 
" clip-path="url(#pee22393604)" style="fill: none; stroke-dasharray: 0.8,1.32; stroke-dashoffset: 0; stroke: #b0b0b0; stroke-opacity: 0.6; stroke-width: 0.8"/>
     </g>
     <g id="line2d_6">
      <g>
       <use xlink:href="#m696470a18a" x="363.480875" y="384.837812" style="stroke: #000000; stroke-width: 0.8"/>
      </g>
     </g>
     <g id="text_3">
      <!-- 200 -->
      <g transform="translate(353.937125 399.43625) scale(0.1 -0.1)">
       <defs>
        <path id="DejaVuSans-32" d="M 1228 531 
L 3431 531 
L 3431 0 
L 469 0 
L 469 531 
Q 828 903 1448 1529 
Q 2069 2156 2228 2338 
Q 2531 2678 2651 2914 
Q 2772 3150 2772 3378 
Q 2772 3750 2511 3984 
Q 2250 4219 1831 4219 
Q 1534 4219 1204 4116 
Q 875 4013 500 3803 
L 500 4441 
Q 881 4594 1212 4672 
Q 1544 4750 1819 4750 
Q 2544 4750 2975 4387 
Q 3406 4025 3406 3419 
Q 3406 3131 3298 2873 
Q 3191 2616 2906 2266 
Q 2828 2175 2409 1742 
Q 1991 1309 1228 531 
z
" transform="scale(0.015625)"/>
       </defs>
       <use xlink:href="#DejaVuSans-32"/>
       <use xlink:href="#DejaVuSans-30" transform="translate(63.623047 0)"/>
       <use xlink:href="#DejaVuSans-30" transform="translate(127.246094 0)"/>
      </g>
     </g>
    </g>
    <g id="xtick_4">
     <g id="line2d_7">
      <path d="M 522.362875 384.837812 
L 522.362875 32.837812 
" clip-path="url(#pee22393604)" style="fill: none; stroke-dasharray: 0.8,1.32; stroke-dashoffset: 0; stroke: #b0b0b0; stroke-opacity: 0.6; stroke-width: 0.8"/>
     </g>
     <g id="line2d_8">
      <g>
       <use xlink:href="#m696470a18a" x="522.362875" y="384.837812" style="stroke: #000000; stroke-width: 0.8"/>
      </g>
     </g>
     <g id="text_4">
      <!-- 300 -->
      <g transform="translate(512.819125 399.43625) scale(0.1 -0.1)">
       <defs>
        <path id="DejaVuSans-33" d="M 2597 2516 
Q 3050 2419 3304 2112 
Q 3559 1806 3559 1356 
Q 3559 666 3084 287 
Q 2609 -91 1734 -91 
Q 1441 -91 1130 -33 
Q 819 25 488 141 
L 488 750 
Q 750 597 1062 519 
Q 1375 441 1716 441 
Q 2309 441 2620 675 
Q 2931 909 2931 1356 
Q 2931 1769 2642 2001 
Q 2353 2234 1838 2234 
L 1294 2234 
L 1294 2753 
L 1863 2753 
Q 2328 2753 2575 2939 
Q 2822 3125 2822 3475 
Q 2822 3834 2567 4026 
Q 2313 4219 1838 4219 
Q 1578 4219 1281 4162 
Q 984 4106 628 3988 
L 628 4550 
Q 988 4650 1302 4700 
Q 1616 4750 1894 4750 
Q 2613 4750 3031 4423 
Q 3450 4097 3450 3541 
Q 3450 3153 3228 2886 
Q 3006 2619 2597 2516 
z
" transform="scale(0.015625)"/>
       </defs>
       <use xlink:href="#DejaVuSans-33"/>
       <use xlink:href="#DejaVuSans-30" transform="translate(63.623047 0)"/>
       <use xlink:href="#DejaVuSans-30" transform="translate(127.246094 0)"/>
      </g>
     </g>
    </g>
    <g id="xtick_5">
     <g id="line2d_9">
      <path d="M 681.244875 384.837812 
L 681.244875 32.837812 
" clip-path="url(#pee22393604)" style="fill: none; stroke-dasharray: 0.8,1.32; stroke-dashoffset: 0; stroke: #b0b0b0; stroke-opacity: 0.6; stroke-width: 0.8"/>
     </g>
     <g id="line2d_10">
      <g>
       <use xlink:href="#m696470a18a" x="681.244875" y="384.837812" style="stroke: #000000; stroke-width: 0.8"/>
      </g>
     </g>
     <g id="text_5">
      <!-- 400 -->
      <g transform="translate(671.701125 399.43625) scale(0.1 -0.1)">
       <defs>
        <path id="DejaVuSans-34" d="M 2419 4116 
L 825 1625 
L 2419 1625 
L 2419 4116 
z
M 2253 4666 
L 3047 4666 
L 3047 1625 
L 3713 1625 
L 3713 1100 
L 3047 1100 
L 3047 0 
L 2419 0 
L 2419 1100 
L 313 1100 
L 313 1709 
L 2253 4666 
z
" transform="scale(0.015625)"/>
       </defs>
       <use xlink:href="#DejaVuSans-34"/>
       <use xlink:href="#DejaVuSans-30" transform="translate(63.623047 0)"/>
       <use xlink:href="#DejaVuSans-30" transform="translate(127.246094 0)"/>
      </g>
     </g>
    </g>
    <g id="xtick_6">
     <g id="line2d_11">
      <path d="M 840.126875 384.837812 
L 840.126875 32.837812 
" clip-path="url(#pee22393604)" style="fill: none; stroke-dasharray: 0.8,1.32; stroke-dashoffset: 0; stroke: #b0b0b0; stroke-opacity: 0.6; stroke-width: 0.8"/>
     </g>
     <g id="line2d_12">
      <g>
       <use xlink:href="#m696470a18a" x="840.126875" y="384.837812" style="stroke: #000000; stroke-width: 0.8"/>
      </g>
     </g>
     <g id="text_6">
      <!-- 500 -->
      <g transform="translate(830.583125 399.43625) scale(0.1 -0.1)">
       <defs>
        <path id="DejaVuSans-35" d="M 691 4666 
L 3169 4666 
L 3169 4134 
L 1269 4134 
L 1269 2991 
Q 1406 3038 1543 3061 
Q 1681 3084 1819 3084 
Q 2600 3084 3056 2656 
Q 3513 2228 3513 1497 
Q 3513 744 3044 326 
Q 2575 -91 1722 -91 
Q 1428 -91 1123 -41 
Q 819 9 494 109 
L 494 744 
Q 775 591 1075 516 
Q 1375 441 1709 441 
Q 2250 441 2565 725 
Q 2881 1009 2881 1497 
Q 2881 1984 2565 2268 
Q 2250 2553 1709 2553 
Q 1456 2553 1204 2497 
Q 953 2441 691 2322 
L 691 4666 
z
" transform="scale(0.015625)"/>
       </defs>
       <use xlink:href="#DejaVuSans-35"/>
       <use xlink:href="#DejaVuSans-30" transform="translate(63.623047 0)"/>
       <use xlink:href="#DejaVuSans-30" transform="translate(127.246094 0)"/>
      </g>
     </g>
    </g>
    <g id="text_7">
     <!-- Vreme [ps] -->
     <g transform="translate(409.734375 414.634062) scale(0.12 -0.12)">
      <defs>
       <path id="DejaVuSans-56" d="M 1831 0 
L 50 4666 
L 709 4666 
L 2188 738 
L 3669 4666 
L 4325 4666 
L 2547 0 
L 1831 0 
z
" transform="scale(0.015625)"/>
       <path id="DejaVuSans-72" d="M 2631 2963 
Q 2534 3019 2420 3045 
Q 2306 3072 2169 3072 
Q 1681 3072 1420 2755 
Q 1159 2438 1159 1844 
L 1159 0 
L 581 0 
L 581 3500 
L 1159 3500 
L 1159 2956 
Q 1341 3275 1631 3429 
Q 1922 3584 2338 3584 
Q 2397 3584 2469 3576 
Q 2541 3569 2628 3553 
L 2631 2963 
z
" transform="scale(0.015625)"/>
       <path id="DejaVuSans-65" d="M 3597 1894 
L 3597 1613 
L 953 1613 
Q 991 1019 1311 708 
Q 1631 397 2203 397 
Q 2534 397 2845 478 
Q 3156 559 3463 722 
L 3463 178 
Q 3153 47 2828 -22 
Q 2503 -91 2169 -91 
Q 1331 -91 842 396 
Q 353 884 353 1716 
Q 353 2575 817 3079 
Q 1281 3584 2069 3584 
Q 2775 3584 3186 3129 
Q 3597 2675 3597 1894 
z
M 3022 2063 
Q 3016 2534 2758 2815 
Q 2500 3097 2075 3097 
Q 1594 3097 1305 2825 
Q 1016 2553 972 2059 
L 3022 2063 
z
" transform="scale(0.015625)"/>
       <path id="DejaVuSans-6d" d="M 3328 2828 
Q 3544 3216 3844 3400 
Q 4144 3584 4550 3584 
Q 5097 3584 5394 3201 
Q 5691 2819 5691 2113 
L 5691 0 
L 5113 0 
L 5113 2094 
Q 5113 2597 4934 2840 
Q 4756 3084 4391 3084 
Q 3944 3084 3684 2787 
Q 3425 2491 3425 1978 
L 3425 0 
L 2847 0 
L 2847 2094 
Q 2847 2600 2669 2842 
Q 2491 3084 2119 3084 
Q 1678 3084 1418 2786 
Q 1159 2488 1159 1978 
L 1159 0 
L 581 0 
L 581 3500 
L 1159 3500 
L 1159 2956 
Q 1356 3278 1631 3431 
Q 1906 3584 2284 3584 
Q 2666 3584 2933 3390 
Q 3200 3197 3328 2828 
z
" transform="scale(0.015625)"/>
       <path id="DejaVuSans-20" transform="scale(0.015625)"/>
       <path id="DejaVuSans-5b" d="M 550 4863 
L 1875 4863 
L 1875 4416 
L 1125 4416 
L 1125 -397 
L 1875 -397 
L 1875 -844 
L 550 -844 
L 550 4863 
z
" transform="scale(0.015625)"/>
       <path id="DejaVuSans-70" d="M 1159 525 
L 1159 -1331 
L 581 -1331 
L 581 3500 
L 1159 3500 
L 1159 2969 
Q 1341 3281 1617 3432 
Q 1894 3584 2278 3584 
Q 2916 3584 3314 3078 
Q 3713 2572 3713 1747 
Q 3713 922 3314 415 
Q 2916 -91 2278 -91 
Q 1894 -91 1617 61 
Q 1341 213 1159 525 
z
M 3116 1747 
Q 3116 2381 2855 2742 
Q 2594 3103 2138 3103 
Q 1681 3103 1420 2742 
Q 1159 2381 1159 1747 
Q 1159 1113 1420 752 
Q 1681 391 2138 391 
Q 2594 391 2855 752 
Q 3116 1113 3116 1747 
z
" transform="scale(0.015625)"/>
       <path id="DejaVuSans-73" d="M 2834 3397 
L 2834 2853 
Q 2591 2978 2328 3040 
Q 2066 3103 1784 3103 
Q 1356 3103 1142 2972 
Q 928 2841 928 2578 
Q 928 2378 1081 2264 
Q 1234 2150 1697 2047 
L 1894 2003 
Q 2506 1872 2764 1633 
Q 3022 1394 3022 966 
Q 3022 478 2636 193 
Q 2250 -91 1575 -91 
Q 1294 -91 989 -36 
Q 684 19 347 128 
L 347 722 
Q 666 556 975 473 
Q 1284 391 1588 391 
Q 1994 391 2212 530 
Q 2431 669 2431 922 
Q 2431 1156 2273 1281 
Q 2116 1406 1581 1522 
L 1381 1569 
Q 847 1681 609 1914 
Q 372 2147 372 2553 
Q 372 3047 722 3315 
Q 1072 3584 1716 3584 
Q 2034 3584 2315 3537 
Q 2597 3491 2834 3397 
z
" transform="scale(0.015625)"/>
       <path id="DejaVuSans-5d" d="M 1947 4863 
L 1947 -844 
L 622 -844 
L 622 -397 
L 1369 -397 
L 1369 4416 
L 622 4416 
L 622 4863 
L 1947 4863 
z
" transform="scale(0.015625)"/>
      </defs>
      <use xlink:href="#DejaVuSans-56"/>
      <use xlink:href="#DejaVuSans-72" transform="translate(68.408203 0)"/>
      <use xlink:href="#DejaVuSans-65" transform="translate(107.271484 0)"/>
      <use xlink:href="#DejaVuSans-6d" transform="translate(168.794922 0)"/>
      <use xlink:href="#DejaVuSans-65" transform="translate(266.207031 0)"/>
      <use xlink:href="#DejaVuSans-20" transform="translate(327.730469 0)"/>
      <use xlink:href="#DejaVuSans-5b" transform="translate(359.517578 0)"/>
      <use xlink:href="#DejaVuSans-70" transform="translate(398.53125 0)"/>
      <use xlink:href="#DejaVuSans-73" transform="translate(462.007812 0)"/>
      <use xlink:href="#DejaVuSans-5d" transform="translate(514.107422 0)"/>
     </g>
    </g>
   </g>
   <g id="matplotlib.axis_2">
    <g id="ytick_1">
     <g id="line2d_13">
      <path d="M 45.716875 349.637812 
L 840.126875 349.637812 
" clip-path="url(#pee22393604)" style="fill: none; stroke-dasharray: 0.8,1.32; stroke-dashoffset: 0; stroke: #b0b0b0; stroke-opacity: 0.6; stroke-width: 0.8"/>
     </g>
     <g id="line2d_14">
      <defs>
       <path id="m5d45311ea4" d="M 0 0 
L -3.5 0 
" style="stroke: #000000; stroke-width: 0.8"/>
      </defs>
      <g>
       <use xlink:href="#m5d45311ea4" x="45.716875" y="349.637812" style="stroke: #000000; stroke-width: 0.8"/>
      </g>
     </g>
     <g id="text_8">
      <!-- 0.0 -->
      <g transform="translate(22.81375 353.437031) scale(0.1 -0.1)">
       <defs>
        <path id="DejaVuSans-2e" d="M 684 794 
L 1344 794 
L 1344 0 
L 684 0 
L 684 794 
z
" transform="scale(0.015625)"/>
       </defs>
       <use xlink:href="#DejaVuSans-30"/>
       <use xlink:href="#DejaVuSans-2e" transform="translate(63.623047 0)"/>
       <use xlink:href="#DejaVuSans-30" transform="translate(95.410156 0)"/>
      </g>
     </g>
    </g>
    <g id="ytick_2">
     <g id="line2d_15">
      <path d="M 45.716875 296.837812 
L 840.126875 296.837812 
" clip-path="url(#pee22393604)" style="fill: none; stroke-dasharray: 0.8,1.32; stroke-dashoffset: 0; stroke: #b0b0b0; stroke-opacity: 0.6; stroke-width: 0.8"/>
     </g>
     <g id="line2d_16">
      <g>
       <use xlink:href="#m5d45311ea4" x="45.716875" y="296.837812" style="stroke: #000000; stroke-width: 0.8"/>
      </g>
     </g>
     <g id="text_9">
      <!-- 0.3 -->
      <g transform="translate(22.81375 300.637031) scale(0.1 -0.1)">
       <use xlink:href="#DejaVuSans-30"/>
       <use xlink:href="#DejaVuSans-2e" transform="translate(63.623047 0)"/>
       <use xlink:href="#DejaVuSans-33" transform="translate(95.410156 0)"/>
      </g>
     </g>
    </g>
    <g id="ytick_3">
     <g id="line2d_17">
      <path d="M 45.716875 244.037812 
L 840.126875 244.037812 
" clip-path="url(#pee22393604)" style="fill: none; stroke-dasharray: 0.8,1.32; stroke-dashoffset: 0; stroke: #b0b0b0; stroke-opacity: 0.6; stroke-width: 0.8"/>
     </g>
     <g id="line2d_18">
      <g>
       <use xlink:href="#m5d45311ea4" x="45.716875" y="244.037812" style="stroke: #000000; stroke-width: 0.8"/>
      </g>
     </g>
     <g id="text_10">
      <!-- 0.6 -->
      <g transform="translate(22.81375 247.837031) scale(0.1 -0.1)">
       <defs>
        <path id="DejaVuSans-36" d="M 2113 2584 
Q 1688 2584 1439 2293 
Q 1191 2003 1191 1497 
Q 1191 994 1439 701 
Q 1688 409 2113 409 
Q 2538 409 2786 701 
Q 3034 994 3034 1497 
Q 3034 2003 2786 2293 
Q 2538 2584 2113 2584 
z
M 3366 4563 
L 3366 3988 
Q 3128 4100 2886 4159 
Q 2644 4219 2406 4219 
Q 1781 4219 1451 3797 
Q 1122 3375 1075 2522 
Q 1259 2794 1537 2939 
Q 1816 3084 2150 3084 
Q 2853 3084 3261 2657 
Q 3669 2231 3669 1497 
Q 3669 778 3244 343 
Q 2819 -91 2113 -91 
Q 1303 -91 875 529 
Q 447 1150 447 2328 
Q 447 3434 972 4092 
Q 1497 4750 2381 4750 
Q 2619 4750 2861 4703 
Q 3103 4656 3366 4563 
z
" transform="scale(0.015625)"/>
       </defs>
       <use xlink:href="#DejaVuSans-30"/>
       <use xlink:href="#DejaVuSans-2e" transform="translate(63.623047 0)"/>
       <use xlink:href="#DejaVuSans-36" transform="translate(95.410156 0)"/>
      </g>
     </g>
    </g>
    <g id="ytick_4">
     <g id="line2d_19">
      <path d="M 45.716875 191.237812 
L 840.126875 191.237812 
" clip-path="url(#pee22393604)" style="fill: none; stroke-dasharray: 0.8,1.32; stroke-dashoffset: 0; stroke: #b0b0b0; stroke-opacity: 0.6; stroke-width: 0.8"/>
     </g>
     <g id="line2d_20">
      <g>
       <use xlink:href="#m5d45311ea4" x="45.716875" y="191.237812" style="stroke: #000000; stroke-width: 0.8"/>
      </g>
     </g>
     <g id="text_11">
      <!-- 0.9 -->
      <g transform="translate(22.81375 195.037031) scale(0.1 -0.1)">
       <defs>
        <path id="DejaVuSans-39" d="M 703 97 
L 703 672 
Q 941 559 1184 500 
Q 1428 441 1663 441 
Q 2288 441 2617 861 
Q 2947 1281 2994 2138 
Q 2813 1869 2534 1725 
Q 2256 1581 1919 1581 
Q 1219 1581 811 2004 
Q 403 2428 403 3163 
Q 403 3881 828 4315 
Q 1253 4750 1959 4750 
Q 2769 4750 3195 4129 
Q 3622 3509 3622 2328 
Q 3622 1225 3098 567 
Q 2575 -91 1691 -91 
Q 1453 -91 1209 -44 
Q 966 3 703 97 
z
M 1959 2075 
Q 2384 2075 2632 2365 
Q 2881 2656 2881 3163 
Q 2881 3666 2632 3958 
Q 2384 4250 1959 4250 
Q 1534 4250 1286 3958 
Q 1038 3666 1038 3163 
Q 1038 2656 1286 2365 
Q 1534 2075 1959 2075 
z
" transform="scale(0.015625)"/>
       </defs>
       <use xlink:href="#DejaVuSans-30"/>
       <use xlink:href="#DejaVuSans-2e" transform="translate(63.623047 0)"/>
       <use xlink:href="#DejaVuSans-39" transform="translate(95.410156 0)"/>
      </g>
     </g>
    </g>
    <g id="ytick_5">
     <g id="line2d_21">
      <path d="M 45.716875 138.437812 
L 840.126875 138.437812 
" clip-path="url(#pee22393604)" style="fill: none; stroke-dasharray: 0.8,1.32; stroke-dashoffset: 0; stroke: #b0b0b0; stroke-opacity: 0.6; stroke-width: 0.8"/>
     </g>
     <g id="line2d_22">
      <g>
       <use xlink:href="#m5d45311ea4" x="45.716875" y="138.437812" style="stroke: #000000; stroke-width: 0.8"/>
      </g>
     </g>
     <g id="text_12">
      <!-- 1.2 -->
      <g transform="translate(22.81375 142.237031) scale(0.1 -0.1)">
       <use xlink:href="#DejaVuSans-31"/>
       <use xlink:href="#DejaVuSans-2e" transform="translate(63.623047 0)"/>
       <use xlink:href="#DejaVuSans-32" transform="translate(95.410156 0)"/>
      </g>
     </g>
    </g>
    <g id="ytick_6">
     <g id="line2d_23">
      <path d="M 45.716875 85.637812 
L 840.126875 85.637812 
" clip-path="url(#pee22393604)" style="fill: none; stroke-dasharray: 0.8,1.32; stroke-dashoffset: 0; stroke: #b0b0b0; stroke-opacity: 0.6; stroke-width: 0.8"/>
     </g>
     <g id="line2d_24">
      <g>
       <use xlink:href="#m5d45311ea4" x="45.716875" y="85.637812" style="stroke: #000000; stroke-width: 0.8"/>
      </g>
     </g>
     <g id="text_13">
      <!-- 1.5 -->
      <g transform="translate(22.81375 89.437031) scale(0.1 -0.1)">
       <use xlink:href="#DejaVuSans-31"/>
       <use xlink:href="#DejaVuSans-2e" transform="translate(63.623047 0)"/>
       <use xlink:href="#DejaVuSans-35" transform="translate(95.410156 0)"/>
      </g>
     </g>
    </g>
    <g id="ytick_7">
     <g id="line2d_25">
      <path d="M 45.716875 32.837812 
L 840.126875 32.837812 
" clip-path="url(#pee22393604)" style="fill: none; stroke-dasharray: 0.8,1.32; stroke-dashoffset: 0; stroke: #b0b0b0; stroke-opacity: 0.6; stroke-width: 0.8"/>
     </g>
     <g id="line2d_26">
      <g>
       <use xlink:href="#m5d45311ea4" x="45.716875" y="32.837812" style="stroke: #000000; stroke-width: 0.8"/>
      </g>
     </g>
     <g id="text_14">
      <!-- 1.8 -->
      <g transform="translate(22.81375 36.637031) scale(0.1 -0.1)">
       <defs>
        <path id="DejaVuSans-38" d="M 2034 2216 
Q 1584 2216 1326 1975 
Q 1069 1734 1069 1313 
Q 1069 891 1326 650 
Q 1584 409 2034 409 
Q 2484 409 2743 651 
Q 3003 894 3003 1313 
Q 3003 1734 2745 1975 
Q 2488 2216 2034 2216 
z
M 1403 2484 
Q 997 2584 770 2862 
Q 544 3141 544 3541 
Q 544 4100 942 4425 
Q 1341 4750 2034 4750 
Q 2731 4750 3128 4425 
Q 3525 4100 3525 3541 
Q 3525 3141 3298 2862 
Q 3072 2584 2669 2484 
Q 3125 2378 3379 2068 
Q 3634 1759 3634 1313 
Q 3634 634 3220 271 
Q 2806 -91 2034 -91 
Q 1263 -91 848 271 
Q 434 634 434 1313 
Q 434 1759 690 2068 
Q 947 2378 1403 2484 
z
M 1172 3481 
Q 1172 3119 1398 2916 
Q 1625 2713 2034 2713 
Q 2441 2713 2670 2916 
Q 2900 3119 2900 3481 
Q 2900 3844 2670 4047 
Q 2441 4250 2034 4250 
Q 1625 4250 1398 4047 
Q 1172 3844 1172 3481 
z
" transform="scale(0.015625)"/>
       </defs>
       <use xlink:href="#DejaVuSans-31"/>
       <use xlink:href="#DejaVuSans-2e" transform="translate(63.623047 0)"/>
       <use xlink:href="#DejaVuSans-38" transform="translate(95.410156 0)"/>
      </g>
     </g>
    </g>
    <g id="text_15">
     <!-- Napon [V] -->
     <g transform="translate(16.318125 238.979375) rotate(-90) scale(0.12 -0.12)">
      <defs>
       <path id="DejaVuSans-4e" d="M 628 4666 
L 1478 4666 
L 3547 763 
L 3547 4666 
L 4159 4666 
L 4159 0 
L 3309 0 
L 1241 3903 
L 1241 0 
L 628 0 
L 628 4666 
z
" transform="scale(0.015625)"/>
       <path id="DejaVuSans-61" d="M 2194 1759 
Q 1497 1759 1228 1600 
Q 959 1441 959 1056 
Q 959 750 1161 570 
Q 1363 391 1709 391 
Q 2188 391 2477 730 
Q 2766 1069 2766 1631 
L 2766 1759 
L 2194 1759 
z
M 3341 1997 
L 3341 0 
L 2766 0 
L 2766 531 
Q 2569 213 2275 61 
Q 1981 -91 1556 -91 
Q 1019 -91 701 211 
Q 384 513 384 1019 
Q 384 1609 779 1909 
Q 1175 2209 1959 2209 
L 2766 2209 
L 2766 2266 
Q 2766 2663 2505 2880 
Q 2244 3097 1772 3097 
Q 1472 3097 1187 3025 
Q 903 2953 641 2809 
L 641 3341 
Q 956 3463 1253 3523 
Q 1550 3584 1831 3584 
Q 2591 3584 2966 3190 
Q 3341 2797 3341 1997 
z
" transform="scale(0.015625)"/>
       <path id="DejaVuSans-6f" d="M 1959 3097 
Q 1497 3097 1228 2736 
Q 959 2375 959 1747 
Q 959 1119 1226 758 
Q 1494 397 1959 397 
Q 2419 397 2687 759 
Q 2956 1122 2956 1747 
Q 2956 2369 2687 2733 
Q 2419 3097 1959 3097 
z
M 1959 3584 
Q 2709 3584 3137 3096 
Q 3566 2609 3566 1747 
Q 3566 888 3137 398 
Q 2709 -91 1959 -91 
Q 1206 -91 779 398 
Q 353 888 353 1747 
Q 353 2609 779 3096 
Q 1206 3584 1959 3584 
z
" transform="scale(0.015625)"/>
       <path id="DejaVuSans-6e" d="M 3513 2113 
L 3513 0 
L 2938 0 
L 2938 2094 
Q 2938 2591 2744 2837 
Q 2550 3084 2163 3084 
Q 1697 3084 1428 2787 
Q 1159 2491 1159 1978 
L 1159 0 
L 581 0 
L 581 3500 
L 1159 3500 
L 1159 2956 
Q 1366 3272 1645 3428 
Q 1925 3584 2291 3584 
Q 2894 3584 3203 3211 
Q 3513 2838 3513 2113 
z
" transform="scale(0.015625)"/>
      </defs>
      <use xlink:href="#DejaVuSans-4e"/>
      <use xlink:href="#DejaVuSans-61" transform="translate(74.804688 0)"/>
      <use xlink:href="#DejaVuSans-70" transform="translate(136.083984 0)"/>
      <use xlink:href="#DejaVuSans-6f" transform="translate(199.560547 0)"/>
      <use xlink:href="#DejaVuSans-6e" transform="translate(260.742188 0)"/>
      <use xlink:href="#DejaVuSans-20" transform="translate(324.121094 0)"/>
      <use xlink:href="#DejaVuSans-5b" transform="translate(355.908203 0)"/>
      <use xlink:href="#DejaVuSans-56" transform="translate(394.921875 0)"/>
      <use xlink:href="#DejaVuSans-5d" transform="translate(463.330078 0)"/>
     </g>
    </g>
   </g>
   <g id="line2d_27">
    <path d="M 45.716875 349.637812 
L 45.946936 85.637812 
L 204.757757 85.637812 
L 204.987818 349.637812 
L 363.480875 349.637812 
L 363.710936 85.637812 
L 522.521757 85.637812 
L 522.751818 349.637812 
L 681.244875 349.637812 
L 681.474936 85.637812 
L 840.126875 85.637812 
L 840.126875 85.637812 
" clip-path="url(#pee22393604)" style="fill: none; stroke-dasharray: 5.55,2.4; stroke-dashoffset: 0; stroke: #000000; stroke-width: 1.5"/>
   </g>
   <g id="line2d_28">
    <path d="M 45.716875 85.637871 
L 45.946936 84.546188 
L 46.028284 84.714891 
L 46.50493 85.749129 
L 46.663812 85.731195 
L 46.981576 85.299947 
L 47.458222 84.081575 
L 48.411514 80.715297 
L 50.635862 72.551498 
L 51.906918 68.828533 
L 53.019092 66.221334 
L 53.813502 64.821409 
L 54.44903 64.040119 
L 55.084558 63.582022 
L 55.561204 63.452953 
L 56.03785 63.503873 
L 56.673378 63.838377 
L 57.308906 64.455329 
L 58.103316 65.573672 
L 59.056608 67.336106 
L 60.327664 70.215846 
L 62.075366 74.782947 
L 72.879342 104.145026 
L 77.804684 116.292664 
L 99.889282 170.021481 
L 105.609034 184.862806 
L 110.534376 198.262111 
L 114.983072 211.01562 
L 119.114004 223.522922 
L 123.5627 237.723919 
L 136.114378 278.39044 
L 138.974254 286.548031 
L 141.516366 293.171048 
L 144.058478 299.172018 
L 146.441708 304.23795 
L 148.824938 308.784673 
L 151.208168 312.844438 
L 153.591398 316.454744 
L 155.974628 319.655411 
L 158.357858 322.48661 
L 160.741088 324.987474 
L 163.2832 327.332743 
L 165.825312 329.3861 
L 168.526306 331.290191 
L 171.386182 333.038377 
L 174.40494 334.629824 
L 177.741462 336.134761 
L 181.395748 337.53069 
L 185.367798 338.805489 
L 189.816494 339.994435 
L 194.900718 341.112087 
L 200.62047 342.134651 
L 204.795889 342.857349 
L 205.38693 347.065361 
L 205.863576 350.201531 
L 206.816868 356.745507 
L 207.452396 359.739175 
L 208.087924 361.802608 
L 208.723452 363.187484 
L 209.35898 364.106372 
L 210.15339 364.83753 
L 211.106682 365.340963 
L 212.218856 365.622208 
L 213.33103 365.679575 
L 214.443204 365.534019 
L 215.555378 365.15868 
L 216.50867 364.616967 
L 217.461962 363.842004 
L 218.574136 362.612976 
L 219.68631 361.016932 
L 220.957366 358.745103 
L 222.387304 355.650746 
L 223.976124 351.616599 
L 225.723826 346.567499 
L 227.948174 339.404523 
L 230.649168 329.878188 
L 233.98569 317.236363 
L 238.275504 300.056631 
L 243.995256 276.163505 
L 253.210412 236.54172 
L 258.930164 212.397254 
L 262.425568 198.592116 
L 265.285444 188.173688 
L 267.986438 179.175985 
L 270.52855 171.464774 
L 273.070662 164.445707 
L 275.612774 158.05453 
L 278.313768 151.875756 
L 281.014762 146.254456 
L 283.715756 141.127488 
L 286.575632 136.179889 
L 289.435508 131.676954 
L 292.295384 127.575936 
L 295.314142 123.642672 
L 298.3329 120.078658 
L 301.351658 116.850283 
L 304.529298 113.781281 
L 307.706938 111.018438 
L 311.04346 108.414962 
L 314.379982 106.085938 
L 317.875386 103.9099 
L 321.529672 101.892602 
L 325.34284 100.036575 
L 329.473772 98.278236 
L 333.763586 96.694565 
L 338.371164 95.231041 
L 343.296506 93.899108 
L 348.698494 92.671332 
L 354.577128 91.56538 
L 361.09129 90.568336 
L 363.519007 90.182676 
L 363.710936 89.133616 
L 363.792284 89.310072 
L 364.110048 90.161155 
L 364.26893 90.322714 
L 364.427812 90.281277 
L 364.745576 89.799127 
L 365.222222 88.498585 
L 366.175514 84.958449 
L 368.082098 77.578987 
L 369.03539 74.804411 
L 369.8298 73.195158 
L 370.465328 72.382779 
L 371.100856 71.974837 
L 371.577502 71.916552 
L 372.054148 72.052987 
L 372.689676 72.506095 
L 373.484086 73.446967 
L 374.437378 75.017791 
L 375.549552 77.301377 
L 377.138372 81.10341 
L 379.998248 88.646869 
L 385.876882 104.158419 
L 390.802224 116.436443 
L 400.176262 139.038874 
L 408.914772 160.365508 
L 415.270052 176.459252 
L 420.513158 190.322131 
L 425.120736 203.108492 
L 429.41055 215.660464 
L 433.700364 228.926558 
L 438.466824 244.427874 
L 447.046452 272.498039 
L 450.224092 282.022329 
L 452.925086 289.447142 
L 455.467198 295.806114 
L 457.850428 301.201707 
L 460.233658 306.062796 
L 462.616888 310.416323 
L 465.000118 314.297008 
L 467.383348 317.743536 
L 469.766578 320.79606 
L 472.149808 323.494488 
L 474.69192 326.025801 
L 477.234032 328.241718 
L 479.935026 330.295341 
L 482.794902 332.178859 
L 485.81366 333.89097 
L 488.9913 335.435747 
L 492.486704 336.882033 
L 496.299872 338.212776 
L 500.589686 339.46274 
L 505.356146 340.610084 
L 510.758134 341.673591 
L 516.954532 342.659744 
L 522.559889 343.487681 
L 523.309812 348.591473 
L 525.057514 359.747638 
L 525.693042 362.018815 
L 526.32857 363.551201 
L 526.964098 364.570069 
L 527.758508 365.377017 
L 528.552918 365.870075 
L 529.50621 366.205626 
L 530.618384 366.368541 
L 531.88944 366.315564 
L 533.001614 366.045424 
L 533.954906 365.611911 
L 534.908198 364.957895 
L 535.86149 364.056747 
L 536.973664 362.669589 
L 538.085838 360.912175 
L 539.356894 358.462022 
L 540.786832 355.184417 
L 542.375652 350.974647 
L 544.282236 345.268102 
L 546.506584 337.902165 
L 549.36646 327.608159 
L 552.861864 314.158756 
L 557.469442 295.493667 
L 563.66584 269.388177 
L 578.600748 205.980477 
L 581.778388 193.838963 
L 584.479382 184.354182 
L 587.021494 176.187781 
L 589.563606 168.743851 
L 592.105718 161.969315 
L 594.64783 155.796777 
L 597.348824 149.82358 
L 600.049818 144.384131 
L 602.750812 139.419347 
L 605.610688 134.625825 
L 608.470564 130.261845 
L 611.33044 126.286919 
L 614.349198 122.474609 
L 617.367956 119.020488 
L 620.386714 115.892058 
L 623.564354 112.918515 
L 626.741994 110.242023 
L 630.078516 107.720293 
L 633.57392 105.363458 
L 637.228206 103.177958 
L 641.041374 101.166754 
L 645.013424 99.329606 
L 649.144356 97.663463 
L 653.593052 96.111352 
L 658.359512 94.68812 
L 663.443736 93.402378 
L 669.004606 92.226452 
L 675.201004 91.149923 
L 681.283007 90.222695 
L 681.474936 89.173323 
L 681.556285 89.3498 
L 681.874049 90.200771 
L 682.032931 90.362159 
L 682.191813 90.320532 
L 682.509577 89.837966 
L 682.986223 88.536795 
L 683.939515 84.99536 
L 685.846099 77.61417 
L 686.799391 74.839658 
L 687.593801 73.230749 
L 688.229329 72.418748 
L 688.864857 72.011217 
L 689.341503 71.953237 
L 689.818149 72.089959 
L 690.453677 72.543412 
L 691.248087 73.484636 
L 692.201379 75.055763 
L 693.313553 77.33955 
L 694.902373 81.141665 
L 697.762249 88.684964 
L 703.640883 104.196205 
L 708.566225 116.474396 
L 717.940263 139.077863 
L 726.678773 160.406115 
L 733.034053 176.501608 
L 738.277159 190.366493 
L 742.884737 203.155173 
L 747.174551 215.709763 
L 751.464365 228.978619 
L 756.389707 245.008548 
L 764.810453 272.54906 
L 767.988093 282.069369 
L 770.689087 289.490138 
L 773.231199 295.845095 
L 775.614429 301.236946 
L 777.997659 306.09444 
L 780.380889 310.44459 
L 782.764119 314.322153 
L 785.147349 317.765833 
L 787.530579 320.815786 
L 789.913809 323.511914 
L 792.455921 326.041057 
L 794.998033 328.255074 
L 797.699027 330.306948 
L 800.558903 332.188881 
L 803.577661 333.899578 
L 806.755301 335.44311 
L 810.250705 336.888269 
L 814.063873 338.218015 
L 818.353687 339.467087 
L 823.120147 340.61366 
L 828.522135 341.676499 
L 834.718533 342.662082 
L 840.126875 343.367993 
L 840.126875 343.367993 
" clip-path="url(#pee22393604)" style="fill: none; stroke: #0052cc; stroke-width: 2.5; stroke-linecap: square"/>
   </g>
   <g id="line2d_29">
    <path d="M 45.716875 85.637869 
L 45.946936 84.700764 
L 46.028284 84.873767 
L 46.346048 85.626608 
L 46.50493 85.765888 
L 46.663812 85.724654 
L 46.981576 85.268385 
L 47.458222 84.024959 
L 48.411514 80.595147 
L 50.635862 72.272181 
L 51.906918 68.48685 
L 53.019092 65.845634 
L 53.972384 64.172627 
L 54.766794 63.266062 
L 55.402322 62.872144 
L 56.03785 62.766035 
L 56.673378 62.93132 
L 57.308906 63.344903 
L 58.103316 64.165556 
L 59.056608 65.51695 
L 60.327664 67.779474 
L 62.075366 71.418046 
L 66.524062 81.453156 
L 70.33723 89.725875 
L 74.468162 98.130609 
L 80.029032 108.891209 
L 104.49686 155.700862 
L 111.964314 170.67009 
L 118.319594 183.890967 
L 123.880464 195.967293 
L 128.805806 207.196881 
L 133.254502 217.887615 
L 137.544316 228.772197 
L 142.151894 241.099853 
L 149.142702 260.582227 
L 154.385808 274.887982 
L 157.881212 283.781286 
L 160.89997 290.864614 
L 163.759846 296.998152 
L 166.46084 302.257282 
L 169.002952 306.738935 
L 171.545064 310.784249 
L 174.087176 314.418097 
L 176.629288 317.669864 
L 179.1714 320.571258 
L 181.872394 323.306313 
L 184.573388 325.720565 
L 187.433264 327.967532 
L 190.29314 329.935593 
L 193.311898 331.750444 
L 196.489538 333.410363 
L 199.984942 334.984599 
L 203.79811 336.450686 
L 204.795889 336.873367 
L 205.38693 340.471881 
L 205.863576 343.163117 
L 206.816868 348.994628 
L 207.452396 351.779866 
L 208.087924 353.761823 
L 208.723452 355.134502 
L 209.35898 356.073789 
L 210.15339 356.843078 
L 211.106682 357.382886 
L 212.059974 357.649509 
L 213.172148 357.702762 
L 214.12544 357.545135 
L 215.078732 357.184913 
L 216.032024 356.593112 
L 216.985316 355.740837 
L 217.938608 354.603231 
L 219.050782 352.89562 
L 220.162956 350.773821 
L 221.434012 347.858687 
L 222.86395 344.002872 
L 224.611652 338.567532 
L 226.518236 331.890167 
L 228.901466 322.693491 
L 231.920224 310.062297 
L 235.733392 293.060792 
L 240.976498 268.558332 
L 252.892648 212.461198 
L 255.911406 199.55926 
L 258.6124 188.976147 
L 261.154512 179.934801 
L 263.537742 172.257107 
L 265.920972 165.293498 
L 268.463084 158.566955 
L 271.005196 152.474164 
L 273.547308 146.934181 
L 276.248302 141.579034 
L 278.949296 136.707877 
L 281.809172 132.020011 
L 284.669048 127.765898 
L 287.528924 123.903159 
L 290.547682 120.210121 
L 293.56644 116.874696 
L 296.585198 113.863174 
L 299.762838 111.009686 
L 302.940478 108.44929 
L 306.277 106.044493 
L 309.772404 103.804144 
L 313.42669 101.733467 
L 317.239858 99.834307 
L 321.211908 98.105448 
L 325.501722 96.487271 
L 329.950418 95.045056 
L 334.87576 93.687447 
L 340.118866 92.475157 
L 345.838618 91.380142 
L 352.193898 90.390722 
L 359.343588 89.50586 
L 363.519007 89.027949 
L 363.710936 88.126229 
L 363.792284 88.304249 
L 364.110048 89.051954 
L 364.26893 89.17933 
L 364.427812 89.119886 
L 364.745576 88.62515 
L 365.222222 87.319542 
L 366.175514 83.757457 
L 368.24098 75.76338 
L 369.194272 73.023924 
L 369.988682 71.399244 
L 370.62421 70.532329 
L 371.259738 70.02924 
L 371.895266 69.859319 
L 372.530794 69.98552 
L 373.166322 70.367634 
L 373.960732 71.146097 
L 374.914024 72.429556 
L 376.18508 74.564896 
L 377.932782 77.976633 
L 381.904832 86.393285 
L 386.671292 96.281101 
L 391.755516 106.283901 
L 400.970672 123.809697 
L 413.045704 146.908064 
L 421.307568 163.190526 
L 428.298376 177.452152 
L 434.17701 189.935287 
L 439.420116 201.589887 
L 444.027694 212.363496 
L 448.317508 222.941782 
L 452.607322 234.102792 
L 457.532664 247.56205 
L 467.859994 276.022211 
L 471.196516 284.446692 
L 474.215274 291.475358 
L 476.916268 297.231252 
L 479.617262 302.468454 
L 482.159374 306.930044 
L 484.701486 310.95628 
L 487.243598 314.572291 
L 489.78571 317.807612 
L 492.327822 320.694012 
L 495.028816 323.414727 
L 497.72981 325.81622 
L 500.589686 328.051295 
L 503.449562 330.008987 
L 506.46832 331.814377 
L 509.804842 333.542341 
L 513.300246 335.097792 
L 517.113414 336.546906 
L 521.244346 337.877 
L 522.559889 338.332883 
L 523.15093 341.938858 
L 523.627576 344.640144 
L 524.580868 350.469429 
L 525.216396 353.248305 
L 525.851924 355.224095 
L 526.487452 356.590778 
L 527.12298 357.525085 
L 527.91739 358.291396 
L 528.870682 358.834269 
L 529.823974 359.112219 
L 530.936148 359.19009 
L 532.048322 359.024537 
L 533.001614 358.6693 
L 533.954906 358.084574 
L 534.908198 357.240014 
L 535.86149 356.109705 
L 536.973664 354.409504 
L 538.085838 352.293806 
L 539.356894 349.38424 
L 540.786832 345.533402 
L 542.534534 340.103071 
L 544.441118 333.430562 
L 546.824348 324.239671 
L 549.843106 311.615613 
L 553.656274 294.622423 
L 558.740498 270.881182 
L 571.292176 211.777011 
L 574.310934 198.925539 
L 577.011928 188.397937 
L 579.55404 179.411 
L 581.93727 171.781854 
L 584.3205 164.862299 
L 586.862612 158.177214 
L 589.404724 152.12058 
L 591.946836 146.61225 
L 594.64783 141.286726 
L 597.348824 136.441856 
L 600.2087 131.778877 
L 603.068576 127.54713 
L 605.928452 123.704613 
L 608.94721 120.030893 
L 611.965968 116.712943 
L 614.984726 113.71724 
L 618.162366 110.878786 
L 621.340006 108.331928 
L 624.676528 105.939882 
L 628.171932 103.711446 
L 631.826218 101.651804 
L 635.639386 99.762782 
L 639.611436 98.043162 
L 643.90125 96.43363 
L 648.508828 94.951861 
L 653.43417 93.608896 
L 658.677276 92.409645 
L 664.55591 91.299197 
L 671.070072 90.303872 
L 678.378644 89.420746 
L 681.283007 89.074212 
L 681.474936 88.17213 
L 681.556285 88.350177 
L 681.874049 89.097731 
L 682.032931 89.224905 
L 682.191813 89.165236 
L 682.509577 88.670016 
L 682.986223 87.36367 
L 683.939515 83.800072 
L 685.846099 76.339711 
L 686.799391 73.463335 
L 687.593801 71.716267 
L 688.229329 70.755237 
L 688.864857 70.164391 
L 689.500385 69.914888 
L 690.135913 69.971336 
L 690.771441 70.293578 
L 691.565851 71.010458 
L 692.519143 72.237426 
L 693.790199 74.321801 
L 695.537901 77.696191 
L 699.033305 85.082136 
L 704.117529 95.68234 
L 709.201753 105.713601 
L 717.781381 122.048777 
L 730.650823 146.644962 
L 738.912687 162.919057 
L 745.903495 177.170337 
L 751.782129 189.641273 
L 757.025235 201.281217 
L 761.632813 212.038432 
L 766.081509 223.001023 
L 770.371323 234.165202 
L 775.296665 247.627155 
L 785.623995 276.08334 
L 788.960517 284.50343 
L 791.979275 291.527392 
L 794.680269 297.27882 
L 797.381263 302.511538 
L 799.923375 306.969029 
L 802.465487 310.991368 
L 805.007599 314.603738 
L 807.549711 317.835702 
L 810.091823 320.719044 
L 812.792817 323.436833 
L 815.493811 325.835725 
L 818.353687 328.068374 
L 821.213563 330.023953 
L 824.232321 331.827414 
L 827.568843 333.553563 
L 831.064247 335.107419 
L 834.877415 336.555091 
L 839.008347 337.883911 
L 840.126875 338.207076 
L 840.126875 338.207076 
" clip-path="url(#pee22393604)" style="fill: none; stroke: #e60000; stroke-width: 2.5; stroke-linecap: square"/>
   </g>
   <g id="line2d_30">
    <path d="M 45.716875 85.637867 
L 45.946936 84.809854 
L 46.502826 85.77756 
L 46.661708 85.721773 
L 46.979472 85.250901 
L 47.456118 83.99317 
L 48.40941 80.522779 
L 50.633758 72.090837 
L 51.904814 68.2617 
L 53.016988 65.596073 
L 53.97028 63.888125 
L 54.76469 62.92392 
L 55.400218 62.458954 
L 56.035746 62.257422 
L 56.671274 62.302631 
L 57.306802 62.572484 
L 58.101212 63.183692 
L 59.054504 64.247059 
L 60.32556 66.079167 
L 62.073262 69.07428 
L 65.88643 76.228831 
L 70.017362 83.754952 
L 73.989412 90.519973 
L 79.232518 98.986944 
L 90.51314 116.652664 
L 103.859228 137.721422 
L 114.186558 154.435859 
L 122.925068 168.991668 
L 130.392522 181.858265 
L 136.747802 193.247054 
L 142.308672 203.666384 
L 147.234014 213.360487 
L 151.841592 222.921484 
L 156.290288 232.671061 
L 160.897866 243.309059 
L 167.094264 258.232386 
L 174.243954 275.33821 
L 178.057122 283.887529 
L 181.393644 290.8354 
L 184.412402 296.624707 
L 187.272278 301.64917 
L 190.132154 306.223335 
L 192.833148 310.140099 
L 195.534142 313.682898 
L 198.235136 316.874355 
L 200.93613 319.740142 
L 203.796006 322.449705 
L 204.805422 323.433406 
L 205.107297 325.64796 
L 205.583943 327.346092 
L 207.649409 337.56206 
L 208.443819 339.710658 
L 209.079347 340.894853 
L 209.873757 341.905676 
L 210.668167 342.550151 
L 211.462577 342.938749 
L 212.415869 343.138427 
L 213.369161 343.086347 
L 214.322453 342.787239 
L 215.275745 342.224636 
L 216.229037 341.374089 
L 217.182329 340.21273 
L 218.135621 338.724045 
L 219.247795 336.565369 
L 220.518851 333.552155 
L 221.948789 329.509426 
L 223.537609 324.295439 
L 225.444193 317.194767 
L 227.668541 307.989989 
L 230.369535 295.829872 
L 233.864939 279.016834 
L 239.108045 252.581342 
L 245.781089 219.075744 
L 248.958729 204.283641 
L 251.500841 193.430973 
L 253.884071 184.172792 
L 256.267301 175.807677 
L 258.650531 168.274529 
L 261.033761 161.481603 
L 263.416991 155.333327 
L 265.959103 149.389574 
L 268.501215 143.996202 
L 271.202209 138.79243 
L 273.903203 134.06782 
L 276.604197 129.770418 
L 279.464073 125.638494 
L 282.323949 121.894861 
L 285.183825 118.502528 
L 288.202583 115.266816 
L 291.221341 112.351833 
L 294.398981 109.595992 
L 297.576621 107.128766 
L 300.913143 104.816673 
L 304.408547 102.667641 
L 308.062833 100.686043 
L 311.876001 98.87296 
L 315.848051 97.226531 
L 320.137865 95.68948 
L 324.745443 94.278332 
L 329.670785 93.003126 
L 335.072773 91.836705 
L 340.951407 90.795012 
L 347.624451 89.844742 
L 355.091905 89.011988 
L 363.52854 88.241424 
L 363.728731 87.469617 
L 364.148179 88.361831 
L 364.307061 88.403022 
L 364.465943 88.309786 
L 364.783707 87.755987 
L 365.260353 86.400948 
L 366.213645 82.796078 
L 368.120229 75.307836 
L 369.073521 72.391488 
L 369.867931 70.575055 
L 370.662341 69.324987 
L 371.297869 68.707524 
L 371.933397 68.398482 
L 372.568925 68.363661 
L 373.204453 68.565644 
L 373.998863 69.096382 
L 374.952155 70.056964 
L 376.223211 71.73264 
L 377.970913 74.485354 
L 381.307435 80.286045 
L 386.709423 89.600868 
L 391.952529 98.152527 
L 400.849921 112.154478 
L 416.738121 137.19583 
L 427.065451 153.896954 
L 435.803961 168.435925 
L 443.271415 181.281942 
L 449.626695 192.646288 
L 455.187565 203.036833 
L 460.112907 212.698252 
L 464.720485 222.222495 
L 469.169181 231.933279 
L 473.776759 242.534357 
L 479.814275 257.047005 
L 487.440611 275.313572 
L 491.253779 283.864496 
L 494.590301 290.814115 
L 497.609059 296.605153 
L 500.468935 301.631299 
L 503.328811 306.207127 
L 506.029805 310.125403 
L 508.730799 313.669635 
L 511.431793 316.862429 
L 514.132787 319.729447 
L 516.992663 322.440195 
L 519.852539 324.84863 
L 522.569422 326.987226 
L 523.030179 329.724358 
L 523.347943 330.919787 
L 525.413409 341.063804 
L 526.207819 343.167531 
L 526.843347 344.318107 
L 527.637757 345.294673 
L 528.432167 345.916567 
L 529.226577 346.295146 
L 530.179869 346.499201 
L 531.133161 346.468524 
L 532.086453 346.206322 
L 533.039745 345.694034 
L 533.993037 344.903878 
L 534.946329 343.809968 
L 535.899621 342.392452 
L 537.011795 340.317537 
L 538.282851 337.396505 
L 539.712789 333.448704 
L 541.301609 328.326561 
L 543.049311 321.932403 
L 545.273659 312.874165 
L 547.974653 300.841912 
L 551.311175 284.912229 
L 556.077635 260.977998 
L 564.657263 217.731268 
L 567.676021 203.736197 
L 570.218133 192.924572 
L 572.601363 183.710485 
L 574.984593 175.38951 
L 577.367823 167.897324 
L 579.751053 161.140901 
L 582.134283 155.024609 
L 584.676395 149.110567 
L 587.218507 143.743125 
L 589.919501 138.563561 
L 592.620495 133.860383 
L 595.321489 129.582137 
L 598.181365 125.468424 
L 601.041241 121.741173 
L 603.901117 118.363627 
L 606.919875 115.141997 
L 609.938633 112.239688 
L 613.116273 109.495829 
L 616.293913 107.039332 
L 619.630435 104.737294 
L 623.125839 102.597607 
L 626.780125 100.624621 
L 630.593293 98.819408 
L 634.565343 97.180116 
L 638.855157 95.64971 
L 643.462735 94.244642 
L 648.388077 92.974904 
L 653.790065 91.813457 
L 659.827581 90.750991 
L 666.500625 89.809919 
L 673.968079 88.985142 
L 681.29254 88.303714 
L 681.492731 87.531449 
L 681.912179 88.423424 
L 682.071061 88.464321 
L 682.229943 88.370779 
L 682.547707 87.816319 
L 683.024353 86.460276 
L 683.977645 82.853352 
L 685.884229 75.36238 
L 686.837521 72.446215 
L 687.631931 70.630417 
L 688.426341 69.381199 
L 689.061869 68.764453 
L 689.697397 68.456092 
L 690.332925 68.421871 
L 690.968453 68.624354 
L 691.762863 69.155564 
L 692.716155 70.116499 
L 693.987211 71.792345 
L 695.734913 74.544913 
L 699.071435 80.344862 
L 704.473423 89.658774 
L 709.716529 98.210262 
L 718.613921 112.212737 
L 734.502121 137.255837 
L 744.829451 153.95858 
L 753.567961 168.499484 
L 761.035415 181.347845 
L 767.390695 192.71497 
L 772.951565 203.108785 
L 777.876907 212.773921 
L 782.484485 222.302352 
L 786.933181 232.017572 
L 791.540759 242.622906 
L 797.578275 257.138428 
L 805.204611 275.400511 
L 809.017779 283.945767 
L 812.354301 290.889211 
L 815.373059 296.674138 
L 818.232935 301.694346 
L 821.092811 306.264306 
L 823.793805 310.177243 
L 826.494799 313.71642 
L 829.195793 316.904499 
L 831.896787 319.767173 
L 834.756663 322.473739 
L 837.616539 324.878414 
L 840.126875 326.765411 
L 840.126875 326.765411 
" clip-path="url(#pee22393604)" style="fill: none; stroke: #009933; stroke-width: 2.5; stroke-linecap: square"/>
   </g>
   <g id="line2d_31">
    <path d="M 45.716875 323.237812 
L 840.126875 323.237812 
" clip-path="url(#pee22393604)" style="fill: none; stroke-dasharray: 3.7,1.6; stroke-dashoffset: 0; stroke: #808080; stroke-opacity: 0.8"/>
   </g>
   <g id="line2d_32">
    <path d="M 45.716875 112.037812 
L 840.126875 112.037812 
" clip-path="url(#pee22393604)" style="fill: none; stroke-dasharray: 3.7,1.6; stroke-dashoffset: 0; stroke: #808080; stroke-opacity: 0.8"/>
   </g>
   <g id="patch_3">
    <path d="M 45.716875 384.837812 
L 45.716875 32.837812 
" style="fill: none; stroke: #000000; stroke-width: 0.8; stroke-linejoin: miter; stroke-linecap: square"/>
   </g>
   <g id="patch_4">
    <path d="M 840.126875 384.837812 
L 840.126875 32.837812 
" style="fill: none; stroke: #000000; stroke-width: 0.8; stroke-linejoin: miter; stroke-linecap: square"/>
   </g>
   <g id="patch_5">
    <path d="M 45.716875 384.837812 
L 840.126875 384.837812 
" style="fill: none; stroke: #000000; stroke-width: 0.8; stroke-linejoin: miter; stroke-linecap: square"/>
   </g>
   <g id="patch_6">
    <path d="M 45.716875 32.837812 
L 840.126875 32.837812 
" style="fill: none; stroke: #000000; stroke-width: 0.8; stroke-linejoin: miter; stroke-linecap: square"/>
   </g>
   <g id="text_16">
    <!-- 10% $V_{DD}$ -->
    <g style="fill: #808080; opacity: 0.9" transform="translate(53.660975 319.717812) scale(0.1 -0.1)">
     <defs>
      <path id="DejaVuSans-Bold-31" d="M 750 831 
L 1813 831 
L 1813 3847 
L 722 3622 
L 722 4441 
L 1806 4666 
L 2950 4666 
L 2950 831 
L 4013 831 
L 4013 0 
L 750 0 
L 750 831 
z
" transform="scale(0.015625)"/>
      <path id="DejaVuSans-Bold-30" d="M 2944 2338 
Q 2944 3213 2780 3570 
Q 2616 3928 2228 3928 
Q 1841 3928 1675 3570 
Q 1509 3213 1509 2338 
Q 1509 1453 1675 1090 
Q 1841 728 2228 728 
Q 2613 728 2778 1090 
Q 2944 1453 2944 2338 
z
M 4147 2328 
Q 4147 1169 3647 539 
Q 3147 -91 2228 -91 
Q 1306 -91 806 539 
Q 306 1169 306 2328 
Q 306 3491 806 4120 
Q 1306 4750 2228 4750 
Q 3147 4750 3647 4120 
Q 4147 3491 4147 2328 
z
" transform="scale(0.015625)"/>
      <path id="DejaVuSans-Bold-25" d="M 4959 1925 
Q 4738 1925 4616 1733 
Q 4494 1541 4494 1184 
Q 4494 825 4614 633 
Q 4734 441 4959 441 
Q 5184 441 5303 633 
Q 5422 825 5422 1184 
Q 5422 1541 5301 1733 
Q 5181 1925 4959 1925 
z
M 4959 2450 
Q 5541 2450 5875 2112 
Q 6209 1775 6209 1184 
Q 6209 594 5875 251 
Q 5541 -91 4959 -91 
Q 4378 -91 4042 251 
Q 3706 594 3706 1184 
Q 3706 1772 4042 2111 
Q 4378 2450 4959 2450 
z
M 2094 -91 
L 1403 -91 
L 4319 4750 
L 5013 4750 
L 2094 -91 
z
M 1453 4750 
Q 2034 4750 2367 4411 
Q 2700 4072 2700 3481 
Q 2700 2891 2367 2550 
Q 2034 2209 1453 2209 
Q 872 2209 539 2550 
Q 206 2891 206 3481 
Q 206 4072 539 4411 
Q 872 4750 1453 4750 
z
M 1453 4225 
Q 1228 4225 1106 4031 
Q 984 3838 984 3481 
Q 984 3122 1106 2926 
Q 1228 2731 1453 2731 
Q 1678 2731 1798 2926 
Q 1919 3122 1919 3481 
Q 1919 3838 1797 4031 
Q 1675 4225 1453 4225 
z
" transform="scale(0.015625)"/>
      <path id="DejaVuSans-Bold-20" transform="scale(0.015625)"/>
      <path id="DejaVuSans-Oblique-56" d="M 1319 0 
L 500 4666 
L 1119 4666 
L 1797 653 
L 4063 4666 
L 4750 4666 
L 2053 0 
L 1319 0 
z
" transform="scale(0.015625)"/>
      <path id="DejaVuSans-Oblique-44" d="M 1081 4666 
L 2438 4666 
Q 3519 4666 4070 4208 
Q 4622 3750 4622 2847 
Q 4622 2250 4412 1698 
Q 4203 1147 3834 769 
Q 3463 381 2891 190 
Q 2319 0 1538 0 
L 172 0 
L 1081 4666 
z
M 1613 4147 
L 909 519 
L 1734 519 
Q 2794 519 3375 1128 
Q 3956 1738 3956 2847 
Q 3956 3519 3581 3833 
Q 3206 4147 2406 4147 
L 1613 4147 
z
" transform="scale(0.015625)"/>
     </defs>
     <use xlink:href="#DejaVuSans-Bold-31" transform="translate(0 0.78125)"/>
     <use xlink:href="#DejaVuSans-Bold-30" transform="translate(69.580078 0.78125)"/>
     <use xlink:href="#DejaVuSans-Bold-25" transform="translate(139.160156 0.78125)"/>
     <use xlink:href="#DejaVuSans-Bold-20" transform="translate(239.355469 0.78125)"/>
     <use xlink:href="#DejaVuSans-Oblique-56" transform="translate(274.169922 0.78125)"/>
     <use xlink:href="#DejaVuSans-Oblique-44" transform="translate(342.578125 -15.625) scale(0.7)"/>
     <use xlink:href="#DejaVuSans-Oblique-44" transform="translate(396.479492 -15.625) scale(0.7)"/>
    </g>
   </g>
   <g id="text_17">
    <!-- 90% $V_{DD}$ -->
    <g style="fill: #808080; opacity: 0.9" transform="translate(53.660975 108.517812) scale(0.1 -0.1)">
     <defs>
      <path id="DejaVuSans-Bold-39" d="M 641 103 
L 641 966 
Q 928 831 1190 764 
Q 1453 697 1709 697 
Q 2247 697 2547 995 
Q 2847 1294 2900 1881 
Q 2688 1725 2447 1647 
Q 2206 1569 1925 1569 
Q 1209 1569 770 1986 
Q 331 2403 331 3084 
Q 331 3838 820 4291 
Q 1309 4744 2131 4744 
Q 3044 4744 3544 4128 
Q 4044 3513 4044 2388 
Q 4044 1231 3459 570 
Q 2875 -91 1856 -91 
Q 1528 -91 1228 -42 
Q 928 6 641 103 
z
M 2125 2350 
Q 2441 2350 2600 2554 
Q 2759 2759 2759 3169 
Q 2759 3575 2600 3781 
Q 2441 3988 2125 3988 
Q 1809 3988 1650 3781 
Q 1491 3575 1491 3169 
Q 1491 2759 1650 2554 
Q 1809 2350 2125 2350 
z
" transform="scale(0.015625)"/>
     </defs>
     <use xlink:href="#DejaVuSans-Bold-39" transform="translate(0 0.78125)"/>
     <use xlink:href="#DejaVuSans-Bold-30" transform="translate(69.580078 0.78125)"/>
     <use xlink:href="#DejaVuSans-Bold-25" transform="translate(139.160156 0.78125)"/>
     <use xlink:href="#DejaVuSans-Bold-20" transform="translate(239.355469 0.78125)"/>
     <use xlink:href="#DejaVuSans-Oblique-56" transform="translate(274.169922 0.78125)"/>
     <use xlink:href="#DejaVuSans-Oblique-44" transform="translate(342.578125 -15.625) scale(0.7)"/>
     <use xlink:href="#DejaVuSans-Oblique-44" transform="translate(396.479492 -15.625) scale(0.7)"/>
    </g>
   </g>
   <g id="text_18">
    <!-- Tranzijentna analiza: Svi odzivi -->
    <g transform="translate(320.701875 17.837812) scale(0.14 -0.14)">
     <defs>
      <path id="DejaVuSans-Bold-54" d="M 31 4666 
L 4331 4666 
L 4331 3756 
L 2784 3756 
L 2784 0 
L 1581 0 
L 1581 3756 
L 31 3756 
L 31 4666 
z
" transform="scale(0.015625)"/>
      <path id="DejaVuSans-Bold-72" d="M 3138 2547 
Q 2991 2616 2845 2648 
Q 2700 2681 2553 2681 
Q 2122 2681 1889 2404 
Q 1656 2128 1656 1613 
L 1656 0 
L 538 0 
L 538 3500 
L 1656 3500 
L 1656 2925 
Q 1872 3269 2151 3426 
Q 2431 3584 2822 3584 
Q 2878 3584 2943 3579 
Q 3009 3575 3134 3559 
L 3138 2547 
z
" transform="scale(0.015625)"/>
      <path id="DejaVuSans-Bold-61" d="M 2106 1575 
Q 1756 1575 1579 1456 
Q 1403 1338 1403 1106 
Q 1403 894 1545 773 
Q 1688 653 1941 653 
Q 2256 653 2472 879 
Q 2688 1106 2688 1447 
L 2688 1575 
L 2106 1575 
z
M 3816 1997 
L 3816 0 
L 2688 0 
L 2688 519 
Q 2463 200 2181 54 
Q 1900 -91 1497 -91 
Q 953 -91 614 226 
Q 275 544 275 1050 
Q 275 1666 698 1953 
Q 1122 2241 2028 2241 
L 2688 2241 
L 2688 2328 
Q 2688 2594 2478 2717 
Q 2269 2841 1825 2841 
Q 1466 2841 1156 2769 
Q 847 2697 581 2553 
L 581 3406 
Q 941 3494 1303 3539 
Q 1666 3584 2028 3584 
Q 2975 3584 3395 3211 
Q 3816 2838 3816 1997 
z
" transform="scale(0.015625)"/>
      <path id="DejaVuSans-Bold-6e" d="M 4056 2131 
L 4056 0 
L 2931 0 
L 2931 347 
L 2931 1631 
Q 2931 2084 2911 2256 
Q 2891 2428 2841 2509 
Q 2775 2619 2662 2680 
Q 2550 2741 2406 2741 
Q 2056 2741 1856 2470 
Q 1656 2200 1656 1722 
L 1656 0 
L 538 0 
L 538 3500 
L 1656 3500 
L 1656 2988 
Q 1909 3294 2193 3439 
Q 2478 3584 2822 3584 
Q 3428 3584 3742 3212 
Q 4056 2841 4056 2131 
z
" transform="scale(0.015625)"/>
      <path id="DejaVuSans-Bold-7a" d="M 366 3500 
L 3419 3500 
L 3419 2719 
L 1575 800 
L 3419 800 
L 3419 0 
L 288 0 
L 288 781 
L 2131 2700 
L 366 2700 
L 366 3500 
z
" transform="scale(0.015625)"/>
      <path id="DejaVuSans-Bold-69" d="M 538 3500 
L 1656 3500 
L 1656 0 
L 538 0 
L 538 3500 
z
M 538 4863 
L 1656 4863 
L 1656 3950 
L 538 3950 
L 538 4863 
z
" transform="scale(0.015625)"/>
      <path id="DejaVuSans-Bold-6a" d="M 538 3500 
L 1656 3500 
L 1656 63 
Q 1656 -641 1318 -1011 
Q 981 -1381 341 -1381 
L -213 -1381 
L -213 -647 
L -19 -647 
Q 300 -647 419 -503 
Q 538 -359 538 63 
L 538 3500 
z
M 538 4863 
L 1656 4863 
L 1656 3950 
L 538 3950 
L 538 4863 
z
" transform="scale(0.015625)"/>
      <path id="DejaVuSans-Bold-65" d="M 4031 1759 
L 4031 1441 
L 1416 1441 
Q 1456 1047 1700 850 
Q 1944 653 2381 653 
Q 2734 653 3104 758 
Q 3475 863 3866 1075 
L 3866 213 
Q 3469 63 3072 -14 
Q 2675 -91 2278 -91 
Q 1328 -91 801 392 
Q 275 875 275 1747 
Q 275 2603 792 3093 
Q 1309 3584 2216 3584 
Q 3041 3584 3536 3087 
Q 4031 2591 4031 1759 
z
M 2881 2131 
Q 2881 2450 2695 2645 
Q 2509 2841 2209 2841 
Q 1884 2841 1681 2658 
Q 1478 2475 1428 2131 
L 2881 2131 
z
" transform="scale(0.015625)"/>
      <path id="DejaVuSans-Bold-74" d="M 1759 4494 
L 1759 3500 
L 2913 3500 
L 2913 2700 
L 1759 2700 
L 1759 1216 
Q 1759 972 1856 886 
Q 1953 800 2241 800 
L 2816 800 
L 2816 0 
L 1856 0 
Q 1194 0 917 276 
Q 641 553 641 1216 
L 641 2700 
L 84 2700 
L 84 3500 
L 641 3500 
L 641 4494 
L 1759 4494 
z
" transform="scale(0.015625)"/>
      <path id="DejaVuSans-Bold-6c" d="M 538 4863 
L 1656 4863 
L 1656 0 
L 538 0 
L 538 4863 
z
" transform="scale(0.015625)"/>
      <path id="DejaVuSans-Bold-3a" d="M 716 3500 
L 1844 3500 
L 1844 2291 
L 716 2291 
L 716 3500 
z
M 716 1209 
L 1844 1209 
L 1844 0 
L 716 0 
L 716 1209 
z
" transform="scale(0.015625)"/>
      <path id="DejaVuSans-Bold-53" d="M 3834 4519 
L 3834 3531 
Q 3450 3703 3084 3790 
Q 2719 3878 2394 3878 
Q 1963 3878 1756 3759 
Q 1550 3641 1550 3391 
Q 1550 3203 1689 3098 
Q 1828 2994 2194 2919 
L 2706 2816 
Q 3484 2659 3812 2340 
Q 4141 2022 4141 1434 
Q 4141 663 3683 286 
Q 3225 -91 2284 -91 
Q 1841 -91 1394 -6 
Q 947 78 500 244 
L 500 1259 
Q 947 1022 1364 901 
Q 1781 781 2169 781 
Q 2563 781 2772 912 
Q 2981 1044 2981 1288 
Q 2981 1506 2839 1625 
Q 2697 1744 2272 1838 
L 1806 1941 
Q 1106 2091 782 2419 
Q 459 2747 459 3303 
Q 459 4000 909 4375 
Q 1359 4750 2203 4750 
Q 2588 4750 2994 4692 
Q 3400 4634 3834 4519 
z
" transform="scale(0.015625)"/>
      <path id="DejaVuSans-Bold-76" d="M 97 3500 
L 1216 3500 
L 2088 1081 
L 2956 3500 
L 4078 3500 
L 2700 0 
L 1472 0 
L 97 3500 
z
" transform="scale(0.015625)"/>
      <path id="DejaVuSans-Bold-6f" d="M 2203 2784 
Q 1831 2784 1636 2517 
Q 1441 2250 1441 1747 
Q 1441 1244 1636 976 
Q 1831 709 2203 709 
Q 2569 709 2762 976 
Q 2956 1244 2956 1747 
Q 2956 2250 2762 2517 
Q 2569 2784 2203 2784 
z
M 2203 3584 
Q 3106 3584 3614 3096 
Q 4122 2609 4122 1747 
Q 4122 884 3614 396 
Q 3106 -91 2203 -91 
Q 1297 -91 786 396 
Q 275 884 275 1747 
Q 275 2609 786 3096 
Q 1297 3584 2203 3584 
z
" transform="scale(0.015625)"/>
      <path id="DejaVuSans-Bold-64" d="M 2919 2988 
L 2919 4863 
L 4044 4863 
L 4044 0 
L 2919 0 
L 2919 506 
Q 2688 197 2409 53 
Q 2131 -91 1766 -91 
Q 1119 -91 703 423 
Q 288 938 288 1747 
Q 288 2556 703 3070 
Q 1119 3584 1766 3584 
Q 2128 3584 2408 3439 
Q 2688 3294 2919 2988 
z
M 2181 722 
Q 2541 722 2730 984 
Q 2919 1247 2919 1747 
Q 2919 2247 2730 2509 
Q 2541 2772 2181 2772 
Q 1825 2772 1636 2509 
Q 1447 2247 1447 1747 
Q 1447 1247 1636 984 
Q 1825 722 2181 722 
z
" transform="scale(0.015625)"/>
     </defs>
     <use xlink:href="#DejaVuSans-Bold-54"/>
     <use xlink:href="#DejaVuSans-Bold-72" transform="translate(57.212891 0)"/>
     <use xlink:href="#DejaVuSans-Bold-61" transform="translate(106.529297 0)"/>
     <use xlink:href="#DejaVuSans-Bold-6e" transform="translate(174.009766 0)"/>
     <use xlink:href="#DejaVuSans-Bold-7a" transform="translate(245.201172 0)"/>
     <use xlink:href="#DejaVuSans-Bold-69" transform="translate(303.404297 0)"/>
     <use xlink:href="#DejaVuSans-Bold-6a" transform="translate(337.681641 0)"/>
     <use xlink:href="#DejaVuSans-Bold-65" transform="translate(371.958984 0)"/>
     <use xlink:href="#DejaVuSans-Bold-6e" transform="translate(439.78125 0)"/>
     <use xlink:href="#DejaVuSans-Bold-74" transform="translate(510.972656 0)"/>
     <use xlink:href="#DejaVuSans-Bold-6e" transform="translate(558.775391 0)"/>
     <use xlink:href="#DejaVuSans-Bold-61" transform="translate(629.966797 0)"/>
     <use xlink:href="#DejaVuSans-Bold-20" transform="translate(697.447266 0)"/>
     <use xlink:href="#DejaVuSans-Bold-61" transform="translate(732.261719 0)"/>
     <use xlink:href="#DejaVuSans-Bold-6e" transform="translate(799.742188 0)"/>
     <use xlink:href="#DejaVuSans-Bold-61" transform="translate(870.933594 0)"/>
     <use xlink:href="#DejaVuSans-Bold-6c" transform="translate(938.414062 0)"/>
     <use xlink:href="#DejaVuSans-Bold-69" transform="translate(972.691406 0)"/>
     <use xlink:href="#DejaVuSans-Bold-7a" transform="translate(1006.96875 0)"/>
     <use xlink:href="#DejaVuSans-Bold-61" transform="translate(1065.171875 0)"/>
     <use xlink:href="#DejaVuSans-Bold-3a" transform="translate(1132.652344 0)"/>
     <use xlink:href="#DejaVuSans-Bold-20" transform="translate(1172.642578 0)"/>
     <use xlink:href="#DejaVuSans-Bold-53" transform="translate(1207.457031 0)"/>
     <use xlink:href="#DejaVuSans-Bold-76" transform="translate(1279.478516 0)"/>
     <use xlink:href="#DejaVuSans-Bold-69" transform="translate(1344.664062 0)"/>
     <use xlink:href="#DejaVuSans-Bold-20" transform="translate(1378.941406 0)"/>
     <use xlink:href="#DejaVuSans-Bold-6f" transform="translate(1413.755859 0)"/>
     <use xlink:href="#DejaVuSans-Bold-64" transform="translate(1482.457031 0)"/>
     <use xlink:href="#DejaVuSans-Bold-7a" transform="translate(1554.039062 0)"/>
     <use xlink:href="#DejaVuSans-Bold-69" transform="translate(1612.242188 0)"/>
     <use xlink:href="#DejaVuSans-Bold-76" transform="translate(1646.519531 0)"/>
     <use xlink:href="#DejaVuSans-Bold-69" transform="translate(1711.705078 0)"/>
    </g>
   </g>
   <g id="legend_1">
    <g id="patch_7">
     <path d="M 683.816875 110.03375 
L 832.426875 110.03375 
Q 834.626875 110.03375 834.626875 107.83375 
L 834.626875 40.537812 
Q 834.626875 38.337812 832.426875 38.337812 
L 683.816875 38.337812 
Q 681.616875 38.337812 681.616875 40.537812 
L 681.616875 107.83375 
Q 681.616875 110.03375 683.816875 110.03375 
z
" style="fill: #ffffff; opacity: 0.9; stroke: #000000; stroke-linejoin: miter"/>
    </g>
    <g id="line2d_33">
     <path d="M 686.016875 47.686094 
L 697.016875 47.686094 
L 708.016875 47.686094 
" style="fill: none; stroke-dasharray: 5.55,2.4; stroke-dashoffset: 0; stroke: #000000; stroke-width: 1.5"/>
    </g>
    <g id="text_19">
     <!-- Ulaz A (Zajednički) -->
     <g transform="translate(716.816875 51.536094) scale(0.11 -0.11)">
      <defs>
       <path id="DejaVuSans-55" d="M 556 4666 
L 1191 4666 
L 1191 1831 
Q 1191 1081 1462 751 
Q 1734 422 2344 422 
Q 2950 422 3222 751 
Q 3494 1081 3494 1831 
L 3494 4666 
L 4128 4666 
L 4128 1753 
Q 4128 841 3676 375 
Q 3225 -91 2344 -91 
Q 1459 -91 1007 375 
Q 556 841 556 1753 
L 556 4666 
z
" transform="scale(0.015625)"/>
       <path id="DejaVuSans-6c" d="M 603 4863 
L 1178 4863 
L 1178 0 
L 603 0 
L 603 4863 
z
" transform="scale(0.015625)"/>
       <path id="DejaVuSans-7a" d="M 353 3500 
L 3084 3500 
L 3084 2975 
L 922 459 
L 3084 459 
L 3084 0 
L 275 0 
L 275 525 
L 2438 3041 
L 353 3041 
L 353 3500 
z
" transform="scale(0.015625)"/>
       <path id="DejaVuSans-41" d="M 2188 4044 
L 1331 1722 
L 3047 1722 
L 2188 4044 
z
M 1831 4666 
L 2547 4666 
L 4325 0 
L 3669 0 
L 3244 1197 
L 1141 1197 
L 716 0 
L 50 0 
L 1831 4666 
z
" transform="scale(0.015625)"/>
       <path id="DejaVuSans-28" d="M 1984 4856 
Q 1566 4138 1362 3434 
Q 1159 2731 1159 2009 
Q 1159 1288 1364 580 
Q 1569 -128 1984 -844 
L 1484 -844 
Q 1016 -109 783 600 
Q 550 1309 550 2009 
Q 550 2706 781 3412 
Q 1013 4119 1484 4856 
L 1984 4856 
z
" transform="scale(0.015625)"/>
       <path id="DejaVuSans-5a" d="M 359 4666 
L 4025 4666 
L 4025 4184 
L 1075 531 
L 4097 531 
L 4097 0 
L 288 0 
L 288 481 
L 3238 4134 
L 359 4134 
L 359 4666 
z
" transform="scale(0.015625)"/>
       <path id="DejaVuSans-6a" d="M 603 3500 
L 1178 3500 
L 1178 -63 
Q 1178 -731 923 -1031 
Q 669 -1331 103 -1331 
L -116 -1331 
L -116 -844 
L 38 -844 
Q 366 -844 484 -692 
Q 603 -541 603 -63 
L 603 3500 
z
M 603 4863 
L 1178 4863 
L 1178 4134 
L 603 4134 
L 603 4863 
z
" transform="scale(0.015625)"/>
       <path id="DejaVuSans-64" d="M 2906 2969 
L 2906 4863 
L 3481 4863 
L 3481 0 
L 2906 0 
L 2906 525 
Q 2725 213 2448 61 
Q 2172 -91 1784 -91 
Q 1150 -91 751 415 
Q 353 922 353 1747 
Q 353 2572 751 3078 
Q 1150 3584 1784 3584 
Q 2172 3584 2448 3432 
Q 2725 3281 2906 2969 
z
M 947 1747 
Q 947 1113 1208 752 
Q 1469 391 1925 391 
Q 2381 391 2643 752 
Q 2906 1113 2906 1747 
Q 2906 2381 2643 2742 
Q 2381 3103 1925 3103 
Q 1469 3103 1208 2742 
Q 947 2381 947 1747 
z
" transform="scale(0.015625)"/>
       <path id="DejaVuSans-69" d="M 603 3500 
L 1178 3500 
L 1178 0 
L 603 0 
L 603 3500 
z
M 603 4863 
L 1178 4863 
L 1178 4134 
L 603 4134 
L 603 4863 
z
" transform="scale(0.015625)"/>
       <path id="DejaVuSans-10d" d="M 3122 3366 
L 3122 2828 
Q 2878 2963 2633 3030 
Q 2388 3097 2138 3097 
Q 1578 3097 1268 2742 
Q 959 2388 959 1747 
Q 959 1106 1268 751 
Q 1578 397 2138 397 
Q 2388 397 2633 464 
Q 2878 531 3122 666 
L 3122 134 
Q 2881 22 2623 -34 
Q 2366 -91 2075 -91 
Q 1284 -91 818 406 
Q 353 903 353 1747 
Q 353 2603 823 3093 
Q 1294 3584 2113 3584 
Q 2378 3584 2631 3529 
Q 2884 3475 3122 3366 
z
M 1801 3944 
L 1035 5119 
L 1470 5119 
L 2032 4353 
L 2595 5119 
L 3029 5119 
L 2263 3944 
L 1801 3944 
z
" transform="scale(0.015625)"/>
       <path id="DejaVuSans-6b" d="M 581 4863 
L 1159 4863 
L 1159 1991 
L 2875 3500 
L 3609 3500 
L 1753 1863 
L 3688 0 
L 2938 0 
L 1159 1709 
L 1159 0 
L 581 0 
L 581 4863 
z
" transform="scale(0.015625)"/>
       <path id="DejaVuSans-29" d="M 513 4856 
L 1013 4856 
Q 1481 4119 1714 3412 
Q 1947 2706 1947 2009 
Q 1947 1309 1714 600 
Q 1481 -109 1013 -844 
L 513 -844 
Q 928 -128 1133 580 
Q 1338 1288 1338 2009 
Q 1338 2731 1133 3434 
Q 928 4138 513 4856 
z
" transform="scale(0.015625)"/>
      </defs>
      <use xlink:href="#DejaVuSans-55"/>
      <use xlink:href="#DejaVuSans-6c" transform="translate(73.193359 0)"/>
      <use xlink:href="#DejaVuSans-61" transform="translate(100.976562 0)"/>
      <use xlink:href="#DejaVuSans-7a" transform="translate(162.255859 0)"/>
      <use xlink:href="#DejaVuSans-20" transform="translate(214.746094 0)"/>
      <use xlink:href="#DejaVuSans-41" transform="translate(246.533203 0)"/>
      <use xlink:href="#DejaVuSans-20" transform="translate(314.941406 0)"/>
      <use xlink:href="#DejaVuSans-28" transform="translate(346.728516 0)"/>
      <use xlink:href="#DejaVuSans-5a" transform="translate(385.742188 0)"/>
      <use xlink:href="#DejaVuSans-61" transform="translate(454.248047 0)"/>
      <use xlink:href="#DejaVuSans-6a" transform="translate(515.527344 0)"/>
      <use xlink:href="#DejaVuSans-65" transform="translate(543.310547 0)"/>
      <use xlink:href="#DejaVuSans-64" transform="translate(604.833984 0)"/>
      <use xlink:href="#DejaVuSans-6e" transform="translate(668.310547 0)"/>
      <use xlink:href="#DejaVuSans-69" transform="translate(731.689453 0)"/>
      <use xlink:href="#DejaVuSans-10d" transform="translate(759.472656 0)"/>
      <use xlink:href="#DejaVuSans-6b" transform="translate(814.453125 0)"/>
      <use xlink:href="#DejaVuSans-69" transform="translate(872.363281 0)"/>
      <use xlink:href="#DejaVuSans-29" transform="translate(900.146484 0)"/>
     </g>
    </g>
    <g id="line2d_34">
     <path d="M 686.016875 63.83375 
L 697.016875 63.83375 
L 708.016875 63.83375 
" style="fill: none; stroke: #0052cc; stroke-width: 2.5; stroke-linecap: square"/>
    </g>
    <g id="text_20">
     <!-- Izlaz F ($W_p/W_n = 2.0$) -->
     <g transform="translate(716.816875 67.68375) scale(0.11 -0.11)">
      <defs>
       <path id="DejaVuSans-49" d="M 628 4666 
L 1259 4666 
L 1259 0 
L 628 0 
L 628 4666 
z
" transform="scale(0.015625)"/>
       <path id="DejaVuSans-46" d="M 628 4666 
L 3309 4666 
L 3309 4134 
L 1259 4134 
L 1259 2759 
L 3109 2759 
L 3109 2228 
L 1259 2228 
L 1259 0 
L 628 0 
L 628 4666 
z
" transform="scale(0.015625)"/>
       <path id="DejaVuSans-Oblique-57" d="M 616 4666 
L 1228 4666 
L 1453 697 
L 3213 4666 
L 3916 4666 
L 4147 697 
L 5888 4666 
L 6528 4666 
L 4453 0 
L 3659 0 
L 3444 3891 
L 1697 0 
L 903 0 
L 616 4666 
z
" transform="scale(0.015625)"/>
       <path id="DejaVuSans-Oblique-70" d="M 3175 2156 
Q 3175 2616 2975 2859 
Q 2775 3103 2400 3103 
Q 2144 3103 1911 2972 
Q 1678 2841 1497 2591 
Q 1319 2344 1212 1994 
Q 1106 1644 1106 1300 
Q 1106 863 1306 627 
Q 1506 391 1875 391 
Q 2147 391 2380 519 
Q 2613 647 2778 891 
Q 2956 1147 3065 1494 
Q 3175 1841 3175 2156 
z
M 1394 2969 
Q 1625 3272 1939 3428 
Q 2253 3584 2638 3584 
Q 3175 3584 3472 3232 
Q 3769 2881 3769 2247 
Q 3769 1728 3584 1258 
Q 3400 788 3053 416 
Q 2822 169 2531 39 
Q 2241 -91 1919 -91 
Q 1547 -91 1294 64 
Q 1041 219 916 525 
L 556 -1331 
L -19 -1331 
L 922 3500 
L 1497 3500 
L 1394 2969 
z
" transform="scale(0.015625)"/>
       <path id="DejaVuSans-2f" d="M 1625 4666 
L 2156 4666 
L 531 -594 
L 0 -594 
L 1625 4666 
z
" transform="scale(0.015625)"/>
       <path id="DejaVuSans-Oblique-6e" d="M 3566 2113 
L 3156 0 
L 2578 0 
L 2988 2091 
Q 3016 2238 3031 2350 
Q 3047 2463 3047 2528 
Q 3047 2791 2881 2937 
Q 2716 3084 2419 3084 
Q 1956 3084 1622 2776 
Q 1288 2469 1184 1941 
L 800 0 
L 225 0 
L 903 3500 
L 1478 3500 
L 1363 2950 
Q 1603 3253 1940 3418 
Q 2278 3584 2650 3584 
Q 3113 3584 3367 3334 
Q 3622 3084 3622 2631 
Q 3622 2519 3608 2391 
Q 3594 2263 3566 2113 
z
" transform="scale(0.015625)"/>
       <path id="DejaVuSans-3d" d="M 678 2906 
L 4684 2906 
L 4684 2381 
L 678 2381 
L 678 2906 
z
M 678 1631 
L 4684 1631 
L 4684 1100 
L 678 1100 
L 678 1631 
z
" transform="scale(0.015625)"/>
      </defs>
      <use xlink:href="#DejaVuSans-49" transform="translate(0 0.015625)"/>
      <use xlink:href="#DejaVuSans-7a" transform="translate(29.492188 0.015625)"/>
      <use xlink:href="#DejaVuSans-6c" transform="translate(81.982422 0.015625)"/>
      <use xlink:href="#DejaVuSans-61" transform="translate(109.765625 0.015625)"/>
      <use xlink:href="#DejaVuSans-7a" transform="translate(171.044922 0.015625)"/>
      <use xlink:href="#DejaVuSans-20" transform="translate(223.535156 0.015625)"/>
      <use xlink:href="#DejaVuSans-46" transform="translate(255.322266 0.015625)"/>
      <use xlink:href="#DejaVuSans-20" transform="translate(312.841797 0.015625)"/>
      <use xlink:href="#DejaVuSans-28" transform="translate(344.628906 0.015625)"/>
      <use xlink:href="#DejaVuSans-Oblique-57" transform="translate(383.642578 0.015625)"/>
      <use xlink:href="#DejaVuSans-Oblique-70" transform="translate(482.519531 -16.390625) scale(0.7)"/>
      <use xlink:href="#DejaVuSans-2f" transform="translate(529.6875 0.015625)"/>
      <use xlink:href="#DejaVuSans-Oblique-57" transform="translate(563.378906 0.015625)"/>
      <use xlink:href="#DejaVuSans-Oblique-6e" transform="translate(662.255859 -16.390625) scale(0.7)"/>
      <use xlink:href="#DejaVuSans-3d" transform="translate(728.837891 0.015625)"/>
      <use xlink:href="#DejaVuSans-32" transform="translate(832.109375 0.015625)"/>
      <use xlink:href="#DejaVuSans-2e" transform="translate(895.732422 0.015625)"/>
      <use xlink:href="#DejaVuSans-30" transform="translate(927.519531 0.015625)"/>
      <use xlink:href="#DejaVuSans-29" transform="translate(991.142578 0.015625)"/>
     </g>
    </g>
    <g id="line2d_35">
     <path d="M 686.016875 81.10375 
L 697.016875 81.10375 
L 708.016875 81.10375 
" style="fill: none; stroke: #e60000; stroke-width: 2.5; stroke-linecap: square"/>
    </g>
    <g id="text_21">
     <!-- Izlaz F ($W_p/W_n = 2.5$) -->
     <g transform="translate(716.816875 84.95375) scale(0.11 -0.11)">
      <use xlink:href="#DejaVuSans-49" transform="translate(0 0.015625)"/>
      <use xlink:href="#DejaVuSans-7a" transform="translate(29.492188 0.015625)"/>
      <use xlink:href="#DejaVuSans-6c" transform="translate(81.982422 0.015625)"/>
      <use xlink:href="#DejaVuSans-61" transform="translate(109.765625 0.015625)"/>
      <use xlink:href="#DejaVuSans-7a" transform="translate(171.044922 0.015625)"/>
      <use xlink:href="#DejaVuSans-20" transform="translate(223.535156 0.015625)"/>
      <use xlink:href="#DejaVuSans-46" transform="translate(255.322266 0.015625)"/>
      <use xlink:href="#DejaVuSans-20" transform="translate(312.841797 0.015625)"/>
      <use xlink:href="#DejaVuSans-28" transform="translate(344.628906 0.015625)"/>
      <use xlink:href="#DejaVuSans-Oblique-57" transform="translate(383.642578 0.015625)"/>
      <use xlink:href="#DejaVuSans-Oblique-70" transform="translate(482.519531 -16.390625) scale(0.7)"/>
      <use xlink:href="#DejaVuSans-2f" transform="translate(529.6875 0.015625)"/>
      <use xlink:href="#DejaVuSans-Oblique-57" transform="translate(563.378906 0.015625)"/>
      <use xlink:href="#DejaVuSans-Oblique-6e" transform="translate(662.255859 -16.390625) scale(0.7)"/>
      <use xlink:href="#DejaVuSans-3d" transform="translate(728.837891 0.015625)"/>
      <use xlink:href="#DejaVuSans-32" transform="translate(832.109375 0.015625)"/>
      <use xlink:href="#DejaVuSans-2e" transform="translate(895.732422 0.015625)"/>
      <use xlink:href="#DejaVuSans-35" transform="translate(927.519531 0.015625)"/>
      <use xlink:href="#DejaVuSans-29" transform="translate(991.142578 0.015625)"/>
     </g>
    </g>
    <g id="line2d_36">
     <path d="M 686.016875 98.37375 
L 697.016875 98.37375 
L 708.016875 98.37375 
" style="fill: none; stroke: #009933; stroke-width: 2.5; stroke-linecap: square"/>
    </g>
    <g id="text_22">
     <!-- Izlaz F ($W_p/W_n = 3.0$) -->
     <g transform="translate(716.816875 102.22375) scale(0.11 -0.11)">
      <use xlink:href="#DejaVuSans-49" transform="translate(0 0.015625)"/>
      <use xlink:href="#DejaVuSans-7a" transform="translate(29.492188 0.015625)"/>
      <use xlink:href="#DejaVuSans-6c" transform="translate(81.982422 0.015625)"/>
      <use xlink:href="#DejaVuSans-61" transform="translate(109.765625 0.015625)"/>
      <use xlink:href="#DejaVuSans-7a" transform="translate(171.044922 0.015625)"/>
      <use xlink:href="#DejaVuSans-20" transform="translate(223.535156 0.015625)"/>
      <use xlink:href="#DejaVuSans-46" transform="translate(255.322266 0.015625)"/>
      <use xlink:href="#DejaVuSans-20" transform="translate(312.841797 0.015625)"/>
      <use xlink:href="#DejaVuSans-28" transform="translate(344.628906 0.015625)"/>
      <use xlink:href="#DejaVuSans-Oblique-57" transform="translate(383.642578 0.015625)"/>
      <use xlink:href="#DejaVuSans-Oblique-70" transform="translate(482.519531 -16.390625) scale(0.7)"/>
      <use xlink:href="#DejaVuSans-2f" transform="translate(529.6875 0.015625)"/>
      <use xlink:href="#DejaVuSans-Oblique-57" transform="translate(563.378906 0.015625)"/>
      <use xlink:href="#DejaVuSans-Oblique-6e" transform="translate(662.255859 -16.390625) scale(0.7)"/>
      <use xlink:href="#DejaVuSans-3d" transform="translate(728.837891 0.015625)"/>
      <use xlink:href="#DejaVuSans-33" transform="translate(832.109375 0.015625)"/>
      <use xlink:href="#DejaVuSans-2e" transform="translate(895.732422 0.015625)"/>
      <use xlink:href="#DejaVuSans-30" transform="translate(927.519531 0.015625)"/>
      <use xlink:href="#DejaVuSans-29" transform="translate(991.142578 0.015625)"/>
     </g>
    </g>
   </g>
  </g>
 </g>
 <defs>
  <clipPath id="pee22393604">
   <rect x="45.716875" y="32.837812" width="794.41" height="352"/>
  </clipPath>
 </defs>
</svg>
