<?xml version="1.0" encoding="utf-8" standalone="no"?>
<!DOCTYPE svg PUBLIC "-//W3C//DTD SVG 1.1//EN"
  "http://www.w3.org/Graphics/SVG/1.1/DTD/svg11.dtd">
<svg xmlns:xlink="http://www.w3.org/1999/xlink" width="856.6425pt" height="422.5235pt" viewBox="0 0 856.6425 422.5235" xmlns="http://www.w3.org/2000/svg" version="1.1">
 <metadata>
  <rdf:RDF xmlns:dc="http://purl.org/dc/elements/1.1/" xmlns:cc="http://creativecommons.org/ns#" xmlns:rdf="http://www.w3.org/1999/02/22-rdf-syntax-ns#">
   <cc:Work>
    <dc:type rdf:resource="http://purl.org/dc/dcmitype/StillImage"/>
    <dc:date>2026-05-10T03:51:41.788291</dc:date>
    <dc:format>image/svg+xml</dc:format>
    <dc:creator>
     <cc:Agent>
      <dc:title>Matplotlib v3.10.8, https://matplotlib.org/</dc:title>
     </cc:Agent>
    </dc:creator>
   </cc:Work>
  </rdf:RDF>
 </metadata>
 <defs>
  <style type="text/css">*{stroke-linejoin: round; stroke-linecap: butt}</style>
 </defs>
 <g id="figure_1">
  <g id="patch_1">
   <path d="M 0 422.5235 
L 856.6425 422.5235 
L 856.6425 0 
L 0 0 
z
" style="fill: #ffffff"/>
  </g>
  <g id="axes_1">
   <g id="patch_2">
    <path d="M 47.6525 381.096 
L 849.4425 381.096 
L 849.4425 35 
L 47.6525 35 
z
" style="fill: #ffffff"/>
   </g>
   <g id="matplotlib.axis_1">
    <g id="xtick_1">
     <g id="line2d_1">
      <path d="M 47.6525 381.096 
L 47.6525 35 
" clip-path="url(#p5a1310ccce)" style="fill: none; stroke-dasharray: 2.96,1.28; stroke-dashoffset: 0; stroke: #b0b0b0; stroke-opacity: 0.5; stroke-width: 0.8"/>
     </g>
     <g id="line2d_2">
      <defs>
       <path id="m72ff155efa" d="M 0 0 
L 0 3.5 
" style="stroke: #000000; stroke-width: 0.8"/>
      </defs>
      <g>
       <use xlink:href="#m72ff155efa" x="47.6525" y="381.096" style="stroke: #000000; stroke-width: 0.8"/>
      </g>
     </g>
     <g id="text_1">
      <!-- 0 -->
      <g transform="translate(44.47125 395.694437) scale(0.1 -0.1)">
       <defs>
        <path id="DejaVuSans-30" d="M 2034 4250 
Q 1547 4250 1301 3770 
Q 1056 3291 1056 2328 
Q 1056 1369 1301 889 
Q 1547 409 2034 409 
Q 2525 409 2770 889 
Q 3016 1369 3016 2328 
Q 3016 3291 2770 3770 
Q 2525 4250 2034 4250 
z
M 2034 4750 
Q 2819 4750 3233 4129 
Q 3647 3509 3647 2328 
Q 3647 1150 3233 529 
Q 2819 -91 2034 -91 
Q 1250 -91 836 529 
Q 422 1150 422 2328 
Q 422 3509 836 4129 
Q 1250 4750 2034 4750 
z
" transform="scale(0.015625)"/>
       </defs>
       <use xlink:href="#DejaVuSans-30"/>
      </g>
     </g>
    </g>
    <g id="xtick_2">
     <g id="line2d_3">
      <path d="M 225.828056 381.096 
L 225.828056 35 
" clip-path="url(#p5a1310ccce)" style="fill: none; stroke-dasharray: 2.96,1.28; stroke-dashoffset: 0; stroke: #b0b0b0; stroke-opacity: 0.5; stroke-width: 0.8"/>
     </g>
     <g id="line2d_4">
      <g>
       <use xlink:href="#m72ff155efa" x="225.828056" y="381.096" style="stroke: #000000; stroke-width: 0.8"/>
      </g>
     </g>
     <g id="text_2">
      <!-- 100 -->
      <g transform="translate(216.284306 395.694437) scale(0.1 -0.1)">
       <defs>
        <path id="DejaVuSans-31" d="M 794 531 
L 1825 531 
L 1825 4091 
L 703 3866 
L 703 4441 
L 1819 4666 
L 2450 4666 
L 2450 531 
L 3481 531 
L 3481 0 
L 794 0 
L 794 531 
z
" transform="scale(0.015625)"/>
       </defs>
       <use xlink:href="#DejaVuSans-31"/>
       <use xlink:href="#DejaVuSans-30" transform="translate(63.623047 0)"/>
       <use xlink:href="#DejaVuSans-30" transform="translate(127.246094 0)"/>
      </g>
     </g>
    </g>
    <g id="xtick_3">
     <g id="line2d_5">
      <path d="M 404.003611 381.096 
L 404.003611 35 
" clip-path="url(#p5a1310ccce)" style="fill: none; stroke-dasharray: 2.96,1.28; stroke-dashoffset: 0; stroke: #b0b0b0; stroke-opacity: 0.5; stroke-width: 0.8"/>
     </g>
     <g id="line2d_6">
      <g>
       <use xlink:href="#m72ff155efa" x="404.003611" y="381.096" style="stroke: #000000; stroke-width: 0.8"/>
      </g>
     </g>
     <g id="text_3">
      <!-- 200 -->
      <g transform="translate(394.459861 395.694437) scale(0.1 -0.1)">
       <defs>
        <path id="DejaVuSans-32" d="M 1228 531 
L 3431 531 
L 3431 0 
L 469 0 
L 469 531 
Q 828 903 1448 1529 
Q 2069 2156 2228 2338 
Q 2531 2678 2651 2914 
Q 2772 3150 2772 3378 
Q 2772 3750 2511 3984 
Q 2250 4219 1831 4219 
Q 1534 4219 1204 4116 
Q 875 4013 500 3803 
L 500 4441 
Q 881 4594 1212 4672 
Q 1544 4750 1819 4750 
Q 2544 4750 2975 4387 
Q 3406 4025 3406 3419 
Q 3406 3131 3298 2873 
Q 3191 2616 2906 2266 
Q 2828 2175 2409 1742 
Q 1991 1309 1228 531 
z
" transform="scale(0.015625)"/>
       </defs>
       <use xlink:href="#DejaVuSans-32"/>
       <use xlink:href="#DejaVuSans-30" transform="translate(63.623047 0)"/>
       <use xlink:href="#DejaVuSans-30" transform="translate(127.246094 0)"/>
      </g>
     </g>
    </g>
    <g id="xtick_4">
     <g id="line2d_7">
      <path d="M 582.179167 381.096 
L 582.179167 35 
" clip-path="url(#p5a1310ccce)" style="fill: none; stroke-dasharray: 2.96,1.28; stroke-dashoffset: 0; stroke: #b0b0b0; stroke-opacity: 0.5; stroke-width: 0.8"/>
     </g>
     <g id="line2d_8">
      <g>
       <use xlink:href="#m72ff155efa" x="582.179167" y="381.096" style="stroke: #000000; stroke-width: 0.8"/>
      </g>
     </g>
     <g id="text_4">
      <!-- 300 -->
      <g transform="translate(572.635417 395.694437) scale(0.1 -0.1)">
       <defs>
        <path id="DejaVuSans-33" d="M 2597 2516 
Q 3050 2419 3304 2112 
Q 3559 1806 3559 1356 
Q 3559 666 3084 287 
Q 2609 -91 1734 -91 
Q 1441 -91 1130 -33 
Q 819 25 488 141 
L 488 750 
Q 750 597 1062 519 
Q 1375 441 1716 441 
Q 2309 441 2620 675 
Q 2931 909 2931 1356 
Q 2931 1769 2642 2001 
Q 2353 2234 1838 2234 
L 1294 2234 
L 1294 2753 
L 1863 2753 
Q 2328 2753 2575 2939 
Q 2822 3125 2822 3475 
Q 2822 3834 2567 4026 
Q 2313 4219 1838 4219 
Q 1578 4219 1281 4162 
Q 984 4106 628 3988 
L 628 4550 
Q 988 4650 1302 4700 
Q 1616 4750 1894 4750 
Q 2613 4750 3031 4423 
Q 3450 4097 3450 3541 
Q 3450 3153 3228 2886 
Q 3006 2619 2597 2516 
z
" transform="scale(0.015625)"/>
       </defs>
       <use xlink:href="#DejaVuSans-33"/>
       <use xlink:href="#DejaVuSans-30" transform="translate(63.623047 0)"/>
       <use xlink:href="#DejaVuSans-30" transform="translate(127.246094 0)"/>
      </g>
     </g>
    </g>
    <g id="xtick_5">
     <g id="line2d_9">
      <path d="M 760.354722 381.096 
L 760.354722 35 
" clip-path="url(#p5a1310ccce)" style="fill: none; stroke-dasharray: 2.96,1.28; stroke-dashoffset: 0; stroke: #b0b0b0; stroke-opacity: 0.5; stroke-width: 0.8"/>
     </g>
     <g id="line2d_10">
      <g>
       <use xlink:href="#m72ff155efa" x="760.354722" y="381.096" style="stroke: #000000; stroke-width: 0.8"/>
      </g>
     </g>
     <g id="text_5">
      <!-- 400 -->
      <g transform="translate(750.810972 395.694437) scale(0.1 -0.1)">
       <defs>
        <path id="DejaVuSans-34" d="M 2419 4116 
L 825 1625 
L 2419 1625 
L 2419 4116 
z
M 2253 4666 
L 3047 4666 
L 3047 1625 
L 3713 1625 
L 3713 1100 
L 3047 1100 
L 3047 0 
L 2419 0 
L 2419 1100 
L 313 1100 
L 313 1709 
L 2253 4666 
z
" transform="scale(0.015625)"/>
       </defs>
       <use xlink:href="#DejaVuSans-34"/>
       <use xlink:href="#DejaVuSans-30" transform="translate(63.623047 0)"/>
       <use xlink:href="#DejaVuSans-30" transform="translate(127.246094 0)"/>
      </g>
     </g>
    </g>
    <g id="text_6">
     <!-- Vreme [ps] -->
     <g transform="translate(409.82875 412.411937) scale(0.14 -0.14)">
      <defs>
       <path id="DejaVuSans-56" d="M 1831 0 
L 50 4666 
L 709 4666 
L 2188 738 
L 3669 4666 
L 4325 4666 
L 2547 0 
L 1831 0 
z
" transform="scale(0.015625)"/>
       <path id="DejaVuSans-72" d="M 2631 2963 
Q 2534 3019 2420 3045 
Q 2306 3072 2169 3072 
Q 1681 3072 1420 2755 
Q 1159 2438 1159 1844 
L 1159 0 
L 581 0 
L 581 3500 
L 1159 3500 
L 1159 2956 
Q 1341 3275 1631 3429 
Q 1922 3584 2338 3584 
Q 2397 3584 2469 3576 
Q 2541 3569 2628 3553 
L 2631 2963 
z
" transform="scale(0.015625)"/>
       <path id="DejaVuSans-65" d="M 3597 1894 
L 3597 1613 
L 953 1613 
Q 991 1019 1311 708 
Q 1631 397 2203 397 
Q 2534 397 2845 478 
Q 3156 559 3463 722 
L 3463 178 
Q 3153 47 2828 -22 
Q 2503 -91 2169 -91 
Q 1331 -91 842 396 
Q 353 884 353 1716 
Q 353 2575 817 3079 
Q 1281 3584 2069 3584 
Q 2775 3584 3186 3129 
Q 3597 2675 3597 1894 
z
M 3022 2063 
Q 3016 2534 2758 2815 
Q 2500 3097 2075 3097 
Q 1594 3097 1305 2825 
Q 1016 2553 972 2059 
L 3022 2063 
z
" transform="scale(0.015625)"/>
       <path id="DejaVuSans-6d" d="M 3328 2828 
Q 3544 3216 3844 3400 
Q 4144 3584 4550 3584 
Q 5097 3584 5394 3201 
Q 5691 2819 5691 2113 
L 5691 0 
L 5113 0 
L 5113 2094 
Q 5113 2597 4934 2840 
Q 4756 3084 4391 3084 
Q 3944 3084 3684 2787 
Q 3425 2491 3425 1978 
L 3425 0 
L 2847 0 
L 2847 2094 
Q 2847 2600 2669 2842 
Q 2491 3084 2119 3084 
Q 1678 3084 1418 2786 
Q 1159 2488 1159 1978 
L 1159 0 
L 581 0 
L 581 3500 
L 1159 3500 
L 1159 2956 
Q 1356 3278 1631 3431 
Q 1906 3584 2284 3584 
Q 2666 3584 2933 3390 
Q 3200 3197 3328 2828 
z
" transform="scale(0.015625)"/>
       <path id="DejaVuSans-20" transform="scale(0.015625)"/>
       <path id="DejaVuSans-5b" d="M 550 4863 
L 1875 4863 
L 1875 4416 
L 1125 4416 
L 1125 -397 
L 1875 -397 
L 1875 -844 
L 550 -844 
L 550 4863 
z
" transform="scale(0.015625)"/>
       <path id="DejaVuSans-70" d="M 1159 525 
L 1159 -1331 
L 581 -1331 
L 581 3500 
L 1159 3500 
L 1159 2969 
Q 1341 3281 1617 3432 
Q 1894 3584 2278 3584 
Q 2916 3584 3314 3078 
Q 3713 2572 3713 1747 
Q 3713 922 3314 415 
Q 2916 -91 2278 -91 
Q 1894 -91 1617 61 
Q 1341 213 1159 525 
z
M 3116 1747 
Q 3116 2381 2855 2742 
Q 2594 3103 2138 3103 
Q 1681 3103 1420 2742 
Q 1159 2381 1159 1747 
Q 1159 1113 1420 752 
Q 1681 391 2138 391 
Q 2594 391 2855 752 
Q 3116 1113 3116 1747 
z
" transform="scale(0.015625)"/>
       <path id="DejaVuSans-73" d="M 2834 3397 
L 2834 2853 
Q 2591 2978 2328 3040 
Q 2066 3103 1784 3103 
Q 1356 3103 1142 2972 
Q 928 2841 928 2578 
Q 928 2378 1081 2264 
Q 1234 2150 1697 2047 
L 1894 2003 
Q 2506 1872 2764 1633 
Q 3022 1394 3022 966 
Q 3022 478 2636 193 
Q 2250 -91 1575 -91 
Q 1294 -91 989 -36 
Q 684 19 347 128 
L 347 722 
Q 666 556 975 473 
Q 1284 391 1588 391 
Q 1994 391 2212 530 
Q 2431 669 2431 922 
Q 2431 1156 2273 1281 
Q 2116 1406 1581 1522 
L 1381 1569 
Q 847 1681 609 1914 
Q 372 2147 372 2553 
Q 372 3047 722 3315 
Q 1072 3584 1716 3584 
Q 2034 3584 2315 3537 
Q 2597 3491 2834 3397 
z
" transform="scale(0.015625)"/>
       <path id="DejaVuSans-5d" d="M 1947 4863 
L 1947 -844 
L 622 -844 
L 622 -397 
L 1369 -397 
L 1369 4416 
L 622 4416 
L 622 4863 
L 1947 4863 
z
" transform="scale(0.015625)"/>
      </defs>
      <use xlink:href="#DejaVuSans-56"/>
      <use xlink:href="#DejaVuSans-72" transform="translate(68.408203 0)"/>
      <use xlink:href="#DejaVuSans-65" transform="translate(107.271484 0)"/>
      <use xlink:href="#DejaVuSans-6d" transform="translate(168.794922 0)"/>
      <use xlink:href="#DejaVuSans-65" transform="translate(266.207031 0)"/>
      <use xlink:href="#DejaVuSans-20" transform="translate(327.730469 0)"/>
      <use xlink:href="#DejaVuSans-5b" transform="translate(359.517578 0)"/>
      <use xlink:href="#DejaVuSans-70" transform="translate(398.53125 0)"/>
      <use xlink:href="#DejaVuSans-73" transform="translate(462.007812 0)"/>
      <use xlink:href="#DejaVuSans-5d" transform="translate(514.107422 0)"/>
     </g>
    </g>
   </g>
   <g id="matplotlib.axis_2">
    <g id="ytick_1">
     <g id="line2d_11">
      <path d="M 47.6525 362.880421 
L 849.4425 362.880421 
" clip-path="url(#p5a1310ccce)" style="fill: none; stroke-dasharray: 2.96,1.28; stroke-dashoffset: 0; stroke: #b0b0b0; stroke-opacity: 0.5; stroke-width: 0.8"/>
     </g>
     <g id="line2d_12">
      <defs>
       <path id="mca7439dbc5" d="M 0 0 
L -3.5 0 
" style="stroke: #000000; stroke-width: 0.8"/>
      </defs>
      <g>
       <use xlink:href="#mca7439dbc5" x="47.6525" y="362.880421" style="stroke: #000000; stroke-width: 0.8"/>
      </g>
     </g>
     <g id="text_7">
      <!-- 0.0 -->
      <g transform="translate(24.749375 366.67964) scale(0.1 -0.1)">
       <defs>
        <path id="DejaVuSans-2e" d="M 684 794 
L 1344 794 
L 1344 0 
L 684 0 
L 684 794 
z
" transform="scale(0.015625)"/>
       </defs>
       <use xlink:href="#DejaVuSans-30"/>
       <use xlink:href="#DejaVuSans-2e" transform="translate(63.623047 0)"/>
       <use xlink:href="#DejaVuSans-30" transform="translate(95.410156 0)"/>
      </g>
     </g>
    </g>
    <g id="ytick_2">
     <g id="line2d_13">
      <path d="M 47.6525 308.233684 
L 849.4425 308.233684 
" clip-path="url(#p5a1310ccce)" style="fill: none; stroke-dasharray: 2.96,1.28; stroke-dashoffset: 0; stroke: #b0b0b0; stroke-opacity: 0.5; stroke-width: 0.8"/>
     </g>
     <g id="line2d_14">
      <g>
       <use xlink:href="#mca7439dbc5" x="47.6525" y="308.233684" style="stroke: #000000; stroke-width: 0.8"/>
      </g>
     </g>
     <g id="text_8">
      <!-- 0.3 -->
      <g transform="translate(24.749375 312.032903) scale(0.1 -0.1)">
       <use xlink:href="#DejaVuSans-30"/>
       <use xlink:href="#DejaVuSans-2e" transform="translate(63.623047 0)"/>
       <use xlink:href="#DejaVuSans-33" transform="translate(95.410156 0)"/>
      </g>
     </g>
    </g>
    <g id="ytick_3">
     <g id="line2d_15">
      <path d="M 47.6525 253.586947 
L 849.4425 253.586947 
" clip-path="url(#p5a1310ccce)" style="fill: none; stroke-dasharray: 2.96,1.28; stroke-dashoffset: 0; stroke: #b0b0b0; stroke-opacity: 0.5; stroke-width: 0.8"/>
     </g>
     <g id="line2d_16">
      <g>
       <use xlink:href="#mca7439dbc5" x="47.6525" y="253.586947" style="stroke: #000000; stroke-width: 0.8"/>
      </g>
     </g>
     <g id="text_9">
      <!-- 0.6 -->
      <g transform="translate(24.749375 257.386166) scale(0.1 -0.1)">
       <defs>
        <path id="DejaVuSans-36" d="M 2113 2584 
Q 1688 2584 1439 2293 
Q 1191 2003 1191 1497 
Q 1191 994 1439 701 
Q 1688 409 2113 409 
Q 2538 409 2786 701 
Q 3034 994 3034 1497 
Q 3034 2003 2786 2293 
Q 2538 2584 2113 2584 
z
M 3366 4563 
L 3366 3988 
Q 3128 4100 2886 4159 
Q 2644 4219 2406 4219 
Q 1781 4219 1451 3797 
Q 1122 3375 1075 2522 
Q 1259 2794 1537 2939 
Q 1816 3084 2150 3084 
Q 2853 3084 3261 2657 
Q 3669 2231 3669 1497 
Q 3669 778 3244 343 
Q 2819 -91 2113 -91 
Q 1303 -91 875 529 
Q 447 1150 447 2328 
Q 447 3434 972 4092 
Q 1497 4750 2381 4750 
Q 2619 4750 2861 4703 
Q 3103 4656 3366 4563 
z
" transform="scale(0.015625)"/>
       </defs>
       <use xlink:href="#DejaVuSans-30"/>
       <use xlink:href="#DejaVuSans-2e" transform="translate(63.623047 0)"/>
       <use xlink:href="#DejaVuSans-36" transform="translate(95.410156 0)"/>
      </g>
     </g>
    </g>
    <g id="ytick_4">
     <g id="line2d_17">
      <path d="M 47.6525 198.940211 
L 849.4425 198.940211 
" clip-path="url(#p5a1310ccce)" style="fill: none; stroke-dasharray: 2.96,1.28; stroke-dashoffset: 0; stroke: #b0b0b0; stroke-opacity: 0.5; stroke-width: 0.8"/>
     </g>
     <g id="line2d_18">
      <g>
       <use xlink:href="#mca7439dbc5" x="47.6525" y="198.940211" style="stroke: #000000; stroke-width: 0.8"/>
      </g>
     </g>
     <g id="text_10">
      <!-- 0.9 -->
      <g transform="translate(24.749375 202.739429) scale(0.1 -0.1)">
       <defs>
        <path id="DejaVuSans-39" d="M 703 97 
L 703 672 
Q 941 559 1184 500 
Q 1428 441 1663 441 
Q 2288 441 2617 861 
Q 2947 1281 2994 2138 
Q 2813 1869 2534 1725 
Q 2256 1581 1919 1581 
Q 1219 1581 811 2004 
Q 403 2428 403 3163 
Q 403 3881 828 4315 
Q 1253 4750 1959 4750 
Q 2769 4750 3195 4129 
Q 3622 3509 3622 2328 
Q 3622 1225 3098 567 
Q 2575 -91 1691 -91 
Q 1453 -91 1209 -44 
Q 966 3 703 97 
z
M 1959 2075 
Q 2384 2075 2632 2365 
Q 2881 2656 2881 3163 
Q 2881 3666 2632 3958 
Q 2384 4250 1959 4250 
Q 1534 4250 1286 3958 
Q 1038 3666 1038 3163 
Q 1038 2656 1286 2365 
Q 1534 2075 1959 2075 
z
" transform="scale(0.015625)"/>
       </defs>
       <use xlink:href="#DejaVuSans-30"/>
       <use xlink:href="#DejaVuSans-2e" transform="translate(63.623047 0)"/>
       <use xlink:href="#DejaVuSans-39" transform="translate(95.410156 0)"/>
      </g>
     </g>
    </g>
    <g id="ytick_5">
     <g id="line2d_19">
      <path d="M 47.6525 144.293474 
L 849.4425 144.293474 
" clip-path="url(#p5a1310ccce)" style="fill: none; stroke-dasharray: 2.96,1.28; stroke-dashoffset: 0; stroke: #b0b0b0; stroke-opacity: 0.5; stroke-width: 0.8"/>
     </g>
     <g id="line2d_20">
      <g>
       <use xlink:href="#mca7439dbc5" x="47.6525" y="144.293474" style="stroke: #000000; stroke-width: 0.8"/>
      </g>
     </g>
     <g id="text_11">
      <!-- 1.2 -->
      <g transform="translate(24.749375 148.092692) scale(0.1 -0.1)">
       <use xlink:href="#DejaVuSans-31"/>
       <use xlink:href="#DejaVuSans-2e" transform="translate(63.623047 0)"/>
       <use xlink:href="#DejaVuSans-32" transform="translate(95.410156 0)"/>
      </g>
     </g>
    </g>
    <g id="ytick_6">
     <g id="line2d_21">
      <path d="M 47.6525 89.646737 
L 849.4425 89.646737 
" clip-path="url(#p5a1310ccce)" style="fill: none; stroke-dasharray: 2.96,1.28; stroke-dashoffset: 0; stroke: #b0b0b0; stroke-opacity: 0.5; stroke-width: 0.8"/>
     </g>
     <g id="line2d_22">
      <g>
       <use xlink:href="#mca7439dbc5" x="47.6525" y="89.646737" style="stroke: #000000; stroke-width: 0.8"/>
      </g>
     </g>
     <g id="text_12">
      <!-- 1.5 -->
      <g transform="translate(24.749375 93.445956) scale(0.1 -0.1)">
       <defs>
        <path id="DejaVuSans-35" d="M 691 4666 
L 3169 4666 
L 3169 4134 
L 1269 4134 
L 1269 2991 
Q 1406 3038 1543 3061 
Q 1681 3084 1819 3084 
Q 2600 3084 3056 2656 
Q 3513 2228 3513 1497 
Q 3513 744 3044 326 
Q 2575 -91 1722 -91 
Q 1428 -91 1123 -41 
Q 819 9 494 109 
L 494 744 
Q 775 591 1075 516 
Q 1375 441 1709 441 
Q 2250 441 2565 725 
Q 2881 1009 2881 1497 
Q 2881 1984 2565 2268 
Q 2250 2553 1709 2553 
Q 1456 2553 1204 2497 
Q 953 2441 691 2322 
L 691 4666 
z
" transform="scale(0.015625)"/>
       </defs>
       <use xlink:href="#DejaVuSans-31"/>
       <use xlink:href="#DejaVuSans-2e" transform="translate(63.623047 0)"/>
       <use xlink:href="#DejaVuSans-35" transform="translate(95.410156 0)"/>
      </g>
     </g>
    </g>
    <g id="ytick_7">
     <g id="line2d_23">
      <path d="M 47.6525 35 
L 849.4425 35 
" clip-path="url(#p5a1310ccce)" style="fill: none; stroke-dasharray: 2.96,1.28; stroke-dashoffset: 0; stroke: #b0b0b0; stroke-opacity: 0.5; stroke-width: 0.8"/>
     </g>
     <g id="line2d_24">
      <g>
       <use xlink:href="#mca7439dbc5" x="47.6525" y="35" style="stroke: #000000; stroke-width: 0.8"/>
      </g>
     </g>
     <g id="text_13">
      <!-- 1.8 -->
      <g transform="translate(24.749375 38.799219) scale(0.1 -0.1)">
       <defs>
        <path id="DejaVuSans-38" d="M 2034 2216 
Q 1584 2216 1326 1975 
Q 1069 1734 1069 1313 
Q 1069 891 1326 650 
Q 1584 409 2034 409 
Q 2484 409 2743 651 
Q 3003 894 3003 1313 
Q 3003 1734 2745 1975 
Q 2488 2216 2034 2216 
z
M 1403 2484 
Q 997 2584 770 2862 
Q 544 3141 544 3541 
Q 544 4100 942 4425 
Q 1341 4750 2034 4750 
Q 2731 4750 3128 4425 
Q 3525 4100 3525 3541 
Q 3525 3141 3298 2862 
Q 3072 2584 2669 2484 
Q 3125 2378 3379 2068 
Q 3634 1759 3634 1313 
Q 3634 634 3220 271 
Q 2806 -91 2034 -91 
Q 1263 -91 848 271 
Q 434 634 434 1313 
Q 434 1759 690 2068 
Q 947 2378 1403 2484 
z
M 1172 3481 
Q 1172 3119 1398 2916 
Q 1625 2713 2034 2713 
Q 2441 2713 2670 2916 
Q 2900 3119 2900 3481 
Q 2900 3844 2670 4047 
Q 2441 4250 2034 4250 
Q 1625 4250 1398 4047 
Q 1172 3844 1172 3481 
z
" transform="scale(0.015625)"/>
       </defs>
       <use xlink:href="#DejaVuSans-31"/>
       <use xlink:href="#DejaVuSans-2e" transform="translate(63.623047 0)"/>
       <use xlink:href="#DejaVuSans-38" transform="translate(95.410156 0)"/>
      </g>
     </g>
    </g>
    <g id="text_14">
     <!-- Napon [V] -->
     <g transform="translate(17.837813 243.213156) rotate(-90) scale(0.14 -0.14)">
      <defs>
       <path id="DejaVuSans-4e" d="M 628 4666 
L 1478 4666 
L 3547 763 
L 3547 4666 
L 4159 4666 
L 4159 0 
L 3309 0 
L 1241 3903 
L 1241 0 
L 628 0 
L 628 4666 
z
" transform="scale(0.015625)"/>
       <path id="DejaVuSans-61" d="M 2194 1759 
Q 1497 1759 1228 1600 
Q 959 1441 959 1056 
Q 959 750 1161 570 
Q 1363 391 1709 391 
Q 2188 391 2477 730 
Q 2766 1069 2766 1631 
L 2766 1759 
L 2194 1759 
z
M 3341 1997 
L 3341 0 
L 2766 0 
L 2766 531 
Q 2569 213 2275 61 
Q 1981 -91 1556 -91 
Q 1019 -91 701 211 
Q 384 513 384 1019 
Q 384 1609 779 1909 
Q 1175 2209 1959 2209 
L 2766 2209 
L 2766 2266 
Q 2766 2663 2505 2880 
Q 2244 3097 1772 3097 
Q 1472 3097 1187 3025 
Q 903 2953 641 2809 
L 641 3341 
Q 956 3463 1253 3523 
Q 1550 3584 1831 3584 
Q 2591 3584 2966 3190 
Q 3341 2797 3341 1997 
z
" transform="scale(0.015625)"/>
       <path id="DejaVuSans-6f" d="M 1959 3097 
Q 1497 3097 1228 2736 
Q 959 2375 959 1747 
Q 959 1119 1226 758 
Q 1494 397 1959 397 
Q 2419 397 2687 759 
Q 2956 1122 2956 1747 
Q 2956 2369 2687 2733 
Q 2419 3097 1959 3097 
z
M 1959 3584 
Q 2709 3584 3137 3096 
Q 3566 2609 3566 1747 
Q 3566 888 3137 398 
Q 2709 -91 1959 -91 
Q 1206 -91 779 398 
Q 353 888 353 1747 
Q 353 2609 779 3096 
Q 1206 3584 1959 3584 
z
" transform="scale(0.015625)"/>
       <path id="DejaVuSans-6e" d="M 3513 2113 
L 3513 0 
L 2938 0 
L 2938 2094 
Q 2938 2591 2744 2837 
Q 2550 3084 2163 3084 
Q 1697 3084 1428 2787 
Q 1159 2491 1159 1978 
L 1159 0 
L 581 0 
L 581 3500 
L 1159 3500 
L 1159 2956 
Q 1366 3272 1645 3428 
Q 1925 3584 2291 3584 
Q 2894 3584 3203 3211 
Q 3513 2838 3513 2113 
z
" transform="scale(0.015625)"/>
      </defs>
      <use xlink:href="#DejaVuSans-4e"/>
      <use xlink:href="#DejaVuSans-61" transform="translate(74.804688 0)"/>
      <use xlink:href="#DejaVuSans-70" transform="translate(136.083984 0)"/>
      <use xlink:href="#DejaVuSans-6f" transform="translate(199.560547 0)"/>
      <use xlink:href="#DejaVuSans-6e" transform="translate(260.742188 0)"/>
      <use xlink:href="#DejaVuSans-20" transform="translate(324.121094 0)"/>
      <use xlink:href="#DejaVuSans-5b" transform="translate(355.908203 0)"/>
      <use xlink:href="#DejaVuSans-56" transform="translate(394.921875 0)"/>
      <use xlink:href="#DejaVuSans-5d" transform="translate(463.330078 0)"/>
     </g>
    </g>
   </g>
   <g id="line2d_25">
    <path d="M 47.6525 362.880421 
L 47.910498 89.646737 
L 226.006231 89.646737 
L 226.264229 362.880421 
L 404.003611 362.880421 
L 404.261609 89.646737 
L 582.357342 89.646737 
L 582.61534 362.880421 
L 760.354722 362.880421 
L 760.61272 89.646737 
L 849.61355 89.646737 
L 849.61355 89.646737 
" clip-path="url(#p5a1310ccce)" style="fill: none; stroke-dasharray: 5.55,2.4; stroke-dashoffset: 0; stroke: #000000; stroke-width: 1.5"/>
   </g>
   <g id="line2d_26">
    <path d="M 47.6525 89.646797 
L 47.910498 88.516932 
L 48.001724 88.691536 
L 48.358075 89.577809 
L 48.536251 89.761947 
L 48.714426 89.743385 
L 49.070777 89.297054 
L 49.605304 88.036068 
L 50.674357 84.552051 
L 52.99064 76.642409 
L 54.237869 73.135704 
L 55.485097 70.251632 
L 56.375975 68.626485 
L 57.266853 67.464865 
L 57.979555 66.906226 
L 58.514082 66.709498 
L 59.048609 66.700782 
L 59.583135 66.87352 
L 60.295837 67.369592 
L 61.00854 68.141774 
L 61.899417 69.441306 
L 62.968471 71.399408 
L 64.393875 74.502603 
L 66.531982 79.772933 
L 75.975286 103.748442 
L 80.607851 114.547082 
L 87.378522 129.679572 
L 102.523444 163.410041 
L 109.472291 179.496428 
L 115.352084 193.655166 
L 120.519175 206.669645 
L 125.15174 218.925674 
L 129.606129 231.333912 
L 134.238693 244.909855 
L 141.009364 265.564291 
L 146.354631 281.591584 
L 149.739966 291.079882 
L 152.768951 298.917541 
L 155.441584 305.250393 
L 158.114217 311.01633 
L 160.608675 315.89265 
L 163.103133 320.300768 
L 165.597591 324.267683 
L 168.092049 327.824675 
L 170.586506 331.005085 
L 173.080964 333.842788 
L 175.753597 336.540697 
L 178.426231 338.922612 
L 181.27704 341.156271 
L 184.127849 343.11277 
L 187.156833 344.928662 
L 190.363993 346.598124 
L 193.927504 348.194715 
L 197.669191 349.626859 
L 201.767229 350.959342 
L 206.399793 352.225155 
L 211.566884 353.398108 
L 217.446677 354.494889 
L 224.039173 355.495314 
L 226.048993 355.862804 
L 226.711806 360.217996 
L 227.246333 363.463857 
L 228.137211 369.291054 
L 228.849913 372.669904 
L 229.562615 375.018562 
L 230.275317 376.602509 
L 230.98802 377.655397 
L 231.878897 378.487958 
L 232.769775 378.99371 
L 233.838829 379.331845 
L 235.086057 379.483181 
L 236.333286 379.42392 
L 237.580515 379.142779 
L 238.649569 378.692131 
L 239.718622 378.014336 
L 240.787675 377.082018 
L 241.856729 375.876529 
L 243.103957 374.115451 
L 244.351186 371.978649 
L 245.776591 369.103664 
L 247.380171 365.372442 
L 249.340102 360.201838 
L 251.656384 353.392673 
L 254.329017 344.818993 
L 257.714353 333.1652 
L 261.990566 317.584566 
L 267.514009 296.556997 
L 274.997382 267.121207 
L 286.400617 222.187111 
L 290.142304 208.43457 
L 293.171289 198.085367 
L 296.022097 189.105396 
L 298.694731 181.3814 
L 301.367364 174.305126 
L 304.039997 167.826903 
L 306.890806 161.510438 
L 309.741615 155.739936 
L 312.592424 150.455289 
L 315.621409 145.316149 
L 318.650393 140.617876 
L 321.679377 136.318407 
L 324.886537 132.161051 
L 328.093697 128.373967 
L 331.300857 124.924685 
L 334.686193 121.61808 
L 338.071529 118.624318 
L 341.63504 115.779865 
L 345.198551 113.220541 
L 348.940237 110.810057 
L 352.8601 108.55791 
L 356.958137 106.470055 
L 361.234351 104.549111 
L 365.68874 102.794665 
L 370.49948 101.146771 
L 375.488395 99.672557 
L 381.011837 98.279171 
L 386.891631 97.029332 
L 393.305951 95.894804 
L 400.432973 94.863939 
L 404.046373 94.350562 
L 404.261609 93.26481 
L 404.352835 93.447437 
L 404.709186 94.328288 
L 404.887362 94.495498 
L 405.065537 94.452611 
L 405.421889 93.953597 
L 405.956415 92.607568 
L 407.025469 88.943612 
L 409.163575 81.306045 
L 410.054453 78.848305 
L 410.945331 77.047383 
L 411.658033 76.098295 
L 412.19256 75.666409 
L 412.727086 75.462309 
L 413.261613 75.471118 
L 413.79614 75.675404 
L 414.508842 76.218376 
L 415.39972 77.269041 
L 416.468773 78.965983 
L 417.716002 81.387688 
L 419.497757 85.370905 
L 422.704917 93.203649 
L 428.762886 107.973296 
L 433.929977 119.91216 
L 442.304229 138.589788 
L 453.707464 164.135779 
L 460.656311 180.257673 
L 466.536104 194.452499 
L 471.703195 207.507241 
L 476.33576 219.807372 
L 480.790149 232.262817 
L 485.422713 245.88372 
L 493.084262 269.276809 
L 497.716826 283.042601 
L 501.102162 292.42691 
L 503.952971 299.716716 
L 506.625604 305.98111 
L 509.298237 311.678294 
L 511.792695 316.492392 
L 514.287153 320.841451 
L 516.781611 324.753187 
L 519.276069 328.25926 
L 521.770526 331.393154 
L 524.264984 334.188725 
L 526.937617 336.846201 
L 529.610251 339.192283 
L 532.46106 341.392399 
L 535.311869 343.319728 
L 538.340853 345.108883 
L 541.548013 346.754206 
L 545.111524 348.328273 
L 548.853211 349.740835 
L 552.951249 351.055781 
L 557.583813 352.305696 
L 562.750904 353.464725 
L 568.630697 354.549321 
L 575.401369 355.563473 
L 582.400104 356.515183 
L 583.062917 360.877855 
L 583.597444 364.133297 
L 584.488322 369.963546 
L 585.201024 373.343849 
L 585.913726 375.694462 
L 586.626429 377.280446 
L 587.339131 378.334949 
L 588.230009 379.170121 
L 589.120886 379.680424 
L 590.18994 380.027712 
L 591.437169 380.196325 
L 592.684397 380.16293 
L 593.931626 379.916751 
L 595.00068 379.503065 
L 596.069733 378.866242 
L 597.138786 377.977809 
L 598.20784 376.81724 
L 599.455069 375.107694 
L 600.702297 373.01961 
L 602.127702 370.195305 
L 603.731282 366.51386 
L 605.691213 361.39389 
L 608.007495 354.632026 
L 610.680129 346.0998 
L 614.065464 334.484289 
L 618.341677 318.937473 
L 623.86512 297.939787 
L 631.170317 269.236274 
L 643.286255 221.496778 
L 647.027942 207.789211 
L 650.056926 197.487614 
L 652.907735 188.556501 
L 655.580369 180.877932 
L 658.253002 173.844301 
L 660.925635 167.404879 
L 663.776444 161.125408 
L 666.627253 155.38777 
L 669.478062 150.132452 
L 672.507046 145.021252 
L 675.536031 140.348158 
L 678.565015 136.071544 
L 681.772175 131.936216 
L 684.979335 128.169198 
L 688.186495 124.738237 
L 691.571831 121.449263 
L 694.957166 118.471533 
L 698.520677 115.642384 
L 702.084189 113.09689 
L 705.825875 110.699485 
L 709.745737 108.459603 
L 713.843775 106.383147 
L 718.119989 104.472715 
L 722.574377 102.727881 
L 727.385117 101.089019 
L 732.374033 99.622879 
L 737.897475 98.237111 
L 743.777269 96.994082 
L 750.191589 95.865705 
L 757.318611 94.84039 
L 760.397484 94.391981 
L 760.61272 93.305906 
L 760.703948 93.488555 
L 761.060299 94.36929 
L 761.238475 94.536323 
L 761.41665 94.493239 
L 761.773001 93.993796 
L 762.307528 92.647114 
L 763.376581 88.981814 
L 765.514688 81.342458 
L 766.405566 78.88474 
L 767.296444 77.084135 
L 768.009146 76.13542 
L 768.543673 75.703848 
L 769.078199 75.500068 
L 769.612726 75.509189 
L 770.147253 75.713766 
L 770.859955 76.25708 
L 771.750833 77.30809 
L 772.819886 79.005321 
L 774.067115 81.427216 
L 775.84887 85.410496 
L 779.05603 93.243064 
L 785.113999 108.012407 
L 790.28109 119.951398 
L 798.655341 138.629777 
L 810.058577 164.17755 
L 817.007424 180.301096 
L 822.887217 194.49785 
L 828.054308 207.554835 
L 832.686873 219.85745 
L 837.141261 232.315556 
L 841.773826 245.938968 
L 849.435375 269.332768 
L 849.61355 269.874788 
L 849.61355 269.874788 
" clip-path="url(#p5a1310ccce)" style="fill: none; stroke: #0000ff; stroke-width: 2.5; stroke-linecap: square"/>
   </g>
   <g id="line2d_27">
    <path d="M 47.6525 89.646795 
L 47.910498 88.676914 
L 48.001724 88.855968 
L 48.358075 89.635141 
L 48.536251 89.779292 
L 48.714426 89.736616 
L 49.070777 89.264388 
L 49.605304 87.977472 
L 50.674357 84.427698 
L 52.99064 76.363246 
L 54.237869 72.795244 
L 55.485097 69.872781 
L 56.554151 67.93733 
L 57.445029 66.810785 
L 58.157731 66.250707 
L 58.870433 65.993553 
L 59.583135 66.026667 
L 60.295837 66.329861 
L 61.00854 66.874902 
L 61.899417 67.848283 
L 62.968471 69.363573 
L 64.393875 71.811822 
L 66.531982 76.018979 
L 76.331637 95.932536 
L 80.964202 104.520074 
L 87.556697 116.21298 
L 110.184993 156.032702 
L 118.73742 171.656193 
L 126.042617 185.453849 
L 132.278762 197.692452 
L 137.802204 209.010804 
L 142.79112 219.733947 
L 147.423684 230.209553 
L 152.056249 241.242144 
L 157.045164 253.713086 
L 171.299209 289.785497 
L 174.684544 297.493569 
L 177.713529 303.874745 
L 180.564337 309.399229 
L 183.415146 314.447913 
L 186.265955 319.028689 
L 188.938589 322.915151 
L 191.611222 326.428858 
L 194.283855 329.594986 
L 197.134664 332.619542 
L 199.985473 335.312907 
L 202.836282 337.70813 
L 205.865266 339.961755 
L 209.072426 342.059411 
L 212.457762 343.993218 
L 216.021273 345.761132 
L 219.76296 347.366027 
L 223.860997 348.875475 
L 226.048993 349.669525 
L 226.711806 353.393901 
L 227.246333 356.179266 
L 228.315386 362.214741 
L 229.028089 365.097395 
L 229.740791 367.148674 
L 230.453493 368.569363 
L 231.166195 369.541503 
L 231.878897 370.205862 
L 232.769775 370.747123 
L 233.838829 371.106099 
L 234.907882 371.236354 
L 236.155111 371.14083 
L 237.224164 370.840697 
L 238.293217 370.311637 
L 239.362271 369.522648 
L 240.431324 368.445997 
L 241.500377 367.062236 
L 242.747606 365.049338 
L 243.994835 362.613254 
L 245.42024 359.339393 
L 247.02382 355.091103 
L 248.983751 349.200425 
L 251.300033 341.435182 
L 253.972666 331.648205 
L 257.358002 318.338117 
L 261.634215 300.550892 
L 267.514009 275.052548 
L 279.09542 224.581475 
L 282.480755 210.96191 
L 285.331564 200.34855 
L 288.004197 191.221314 
L 290.676831 182.907529 
L 293.171289 175.844937 
L 295.843922 168.956034 
L 298.516555 162.689891 
L 301.189189 156.971045 
L 304.039997 151.401218 
L 306.890806 146.315438 
L 309.741615 141.661122 
L 312.7706 137.140688 
L 315.799584 133.015941 
L 318.828569 129.250455 
L 322.035729 125.619868 
L 325.242889 122.323179 
L 328.628224 119.172575 
L 332.01356 116.328897 
L 335.577071 113.635443 
L 339.140582 111.219529 
L 342.882269 108.951198 
L 346.802131 106.838615 
L 350.900169 104.886519 
L 355.176382 103.09645 
L 359.808946 101.406472 
L 364.619686 99.889871 
L 369.786777 98.493588 
L 375.488395 97.19056 
L 381.546364 96.035192 
L 388.317035 94.974078 
L 395.800409 94.029853 
L 404.103389 92.994664 
L 404.261609 92.222188 
L 404.887362 93.312123 
L 405.065537 93.2506 
L 405.421889 92.73856 
L 405.956415 91.387286 
L 407.025469 87.700614 
L 409.163575 79.981438 
L 410.232629 77.004367 
L 411.123506 75.195759 
L 411.836209 74.20064 
L 412.548911 73.588615 
L 413.083437 73.363359 
L 413.617964 73.321882 
L 414.330666 73.522596 
L 415.043369 73.97794 
L 415.934246 74.844889 
L 417.0033 76.228967 
L 418.428704 78.488768 
L 420.388635 82.055597 
L 425.0212 91.127472 
L 430.010115 100.662286 
L 435.533557 110.697627 
L 444.798686 126.97467 
L 458.874555 151.784055 
L 467.961509 168.267212 
L 475.444882 182.285584 
L 481.859202 194.750746 
L 487.56082 206.305069 
L 492.727911 217.281558 
L 497.538651 228.037913 
L 502.171215 238.95585 
L 506.981955 250.870381 
L 514.287153 269.662123 
L 520.166946 284.524793 
L 523.908633 293.393366 
L 527.115793 300.454842 
L 530.144777 306.599436 
L 532.995586 311.894284 
L 535.846395 316.71543 
L 538.519029 320.817266 
L 541.191662 324.533814 
L 543.864295 327.888563 
L 546.536929 330.90769 
L 549.387737 333.789077 
L 552.238546 336.353271 
L 555.267531 338.766564 
L 558.296515 340.895463 
L 561.503675 342.877525 
L 564.889011 344.705827 
L 568.452522 346.378799 
L 572.372384 347.966382 
L 576.648597 349.446056 
L 581.281162 350.804893 
L 582.400104 351.180089 
L 583.062917 354.912187 
L 583.597444 357.707954 
L 584.666497 363.741124 
L 585.3792 366.617194 
L 586.091902 368.66209 
L 586.804604 370.076574 
L 587.517306 371.04356 
L 588.230009 371.705071 
L 589.120886 372.247307 
L 590.18994 372.61506 
L 591.437169 372.769263 
L 592.684397 372.671128 
L 593.753451 372.375011 
L 594.822504 371.852655 
L 595.891557 371.071612 
L 596.960611 370.002729 
L 598.029664 368.625953 
L 599.276893 366.61994 
L 600.524122 364.189454 
L 601.949526 360.920733 
L 603.553106 356.677152 
L 605.513037 350.79139 
L 607.82932 343.031469 
L 610.501953 333.250431 
L 613.887289 319.947649 
L 618.163502 302.168718 
L 624.043295 276.675527 
L 636.159233 223.862773 
L 639.544569 210.290675 
L 642.395377 199.729194 
L 645.068011 190.654673 
L 647.740644 182.3927 
L 650.235102 175.374978 
L 652.907735 168.529245 
L 655.580369 162.301155 
L 658.253002 156.61579 
L 661.103811 151.077451 
L 663.95462 146.019591 
L 666.805429 141.390293 
L 669.834413 136.893812 
L 672.863397 132.79074 
L 675.892382 129.044965 
L 679.099542 125.433369 
L 682.306702 122.153949 
L 685.692037 119.019888 
L 689.077373 116.191189 
L 692.640884 113.511967 
L 696.204395 111.108858 
L 699.946082 108.852582 
L 703.865944 106.751253 
L 707.963982 104.809572 
L 712.240195 103.029067 
L 716.87276 101.348121 
L 721.6835 99.839617 
L 726.850591 98.45078 
L 732.552209 97.154683 
L 738.788353 95.974762 
L 745.559024 94.92497 
L 753.042397 93.990743 
L 760.397484 93.203329 
L 760.544301 92.487608 
L 760.61272 92.269695 
L 761.238475 93.359292 
L 761.41665 93.297536 
L 761.773001 92.784995 
L 762.307528 91.432958 
L 763.376581 87.744719 
L 765.514688 80.023425 
L 766.583741 77.046443 
L 767.474619 75.23827 
L 768.187321 74.243627 
L 768.900024 73.632115 
L 769.43455 73.407239 
L 769.969077 73.366119 
L 770.681779 73.567257 
L 771.394481 74.022951 
L 772.285359 74.890229 
L 773.354413 76.274556 
L 774.779817 78.534483 
L 776.739748 82.101228 
L 781.372313 91.172541 
L 786.361228 100.706969 
L 791.88467 110.742321 
L 801.149799 127.019959 
L 815.225668 151.830893 
L 824.312621 168.315523 
L 831.795995 182.335593 
L 838.210315 194.802756 
L 843.911933 206.359453 
L 849.079024 217.338696 
L 849.61355 218.50682 
L 849.61355 218.50682 
" clip-path="url(#p5a1310ccce)" style="fill: none; stroke: #ff0000; stroke-width: 2.5; stroke-linecap: square"/>
   </g>
   <g id="line2d_28">
    <path d="M 47.6525 89.646793 
L 47.910498 88.78982 
L 48.533891 89.791372 
L 48.712067 89.733634 
L 49.068418 89.246293 
L 49.602945 87.944571 
L 50.671998 84.3528 
L 52.98828 76.182486 
L 54.235509 72.571513 
L 55.482738 69.621744 
L 56.551791 67.658329 
L 57.442669 66.484524 
L 58.155371 65.862907 
L 58.868074 65.519734 
L 59.580776 65.441293 
L 60.293478 65.60773 
L 61.00618 65.992622 
L 61.897058 66.736879 
L 62.966111 67.942313 
L 64.391516 69.934446 
L 66.351447 73.103548 
L 77.576507 91.949022 
L 82.565422 99.525768 
L 90.226971 110.703172 
L 113.033442 143.814881 
L 124.080327 160.311553 
L 133.523631 174.803716 
L 141.541531 187.504267 
L 148.490378 198.920168 
L 154.548347 209.292708 
L 159.893614 218.870352 
L 164.882529 228.258727 
L 169.693269 237.793307 
L 174.504009 247.831224 
L 180.027451 259.902456 
L 193.212442 288.996587 
L 197.132305 296.942386 
L 200.51764 303.324792 
L 203.7248 308.912298 
L 206.753785 313.762244 
L 209.782769 318.197003 
L 212.811754 322.227427 
L 215.840738 325.872061 
L 218.869722 329.154558 
L 221.898707 332.101619 
L 224.927691 334.74138 
L 226.059684 335.759487 
L 226.398217 338.051498 
L 226.932744 339.809024 
L 229.249026 350.382307 
L 229.961728 352.235361 
L 230.674431 353.567312 
L 231.565308 354.701356 
L 232.456186 355.436486 
L 233.347064 355.884121 
L 234.237942 356.114932 
L 235.306995 356.145846 
L 236.376048 355.922574 
L 237.445102 355.434027 
L 238.514155 354.655739 
L 239.583208 353.563339 
L 240.652262 352.136802 
L 241.899491 350.036958 
L 243.14672 347.470565 
L 244.572124 343.991721 
L 246.175704 339.44121 
L 247.95746 333.694785 
L 250.095566 326.004471 
L 252.590024 316.174296 
L 255.797184 302.547467 
L 259.895222 284.073593 
L 267.20042 249.857818 
L 272.367511 226.168387 
L 275.574671 212.442331 
L 278.42548 201.210079 
L 280.919937 192.237736 
L 283.414395 184.073144 
L 285.908853 176.668569 
L 288.403311 169.948843 
L 290.897768 163.832659 
L 293.570402 157.864044 
L 296.243035 152.423234 
L 299.093844 147.129464 
L 301.944653 142.301156 
L 304.795462 137.888379 
L 307.824446 133.609443 
L 310.853431 129.712305 
L 313.882415 126.161686 
L 317.089575 122.745537 
L 320.296735 119.650438 
L 323.682071 116.6992 
L 327.067406 114.041587 
L 330.630917 111.530174 
L 334.372604 109.176801 
L 338.114291 107.083214 
L 342.034153 105.13797 
L 346.132191 103.344798 
L 350.58658 101.640783 
L 355.219144 100.104694 
L 360.20806 98.682746 
L 365.553326 97.387607 
L 371.43312 96.192864 
L 377.84744 95.117376 
L 384.974462 94.149295 
L 392.992362 93.287266 
L 402.257491 92.52227 
L 404.057064 92.341413 
L 404.281565 91.542611 
L 404.751948 92.466031 
L 404.930124 92.508663 
L 405.1083 92.412166 
L 405.464651 91.838996 
L 405.999177 90.436564 
L 407.068231 86.705609 
L 409.206337 78.955458 
L 410.275391 75.937107 
L 411.166268 74.057143 
L 411.878971 72.976493 
L 412.591673 72.252615 
L 413.304375 71.856248 
L 414.017077 71.752865 
L 414.72978 71.904253 
L 415.442482 72.272501 
L 416.33336 72.984062 
L 417.402413 74.12553 
L 418.827817 75.991414 
L 420.965924 79.21625 
L 435.041793 101.282306 
L 443.416044 113.490329 
L 464.084408 143.533527 
L 475.131293 160.023754 
L 484.574597 174.507456 
L 492.592497 187.197844 
L 499.541344 198.601609 
L 505.599313 208.960017 
L 511.122755 218.84843 
L 516.111671 228.235668 
L 520.922411 237.769013 
L 525.733151 247.805701 
L 531.256593 259.875883 
L 544.441584 288.97158 
L 548.361446 296.919037 
L 551.746782 303.303132 
L 554.953942 308.89235 
L 557.982926 313.743941 
L 561.011911 318.180322 
L 564.040895 322.212307 
L 567.06988 325.858419 
L 570.098864 329.142293 
L 573.127848 332.090622 
L 576.156833 334.731538 
L 579.363993 337.224211 
L 582.410795 339.437606 
L 582.749328 341.72078 
L 583.283855 343.507712 
L 585.421962 353.445137 
L 586.134664 355.417538 
L 586.847366 356.830756 
L 587.560068 357.831431 
L 588.450946 358.67936 
L 589.341824 359.211934 
L 590.232702 359.519819 
L 591.301755 359.64766 
L 592.370808 359.537064 
L 593.439862 359.182314 
L 594.508915 358.559408 
L 595.577968 357.639664 
L 596.647022 356.397647 
L 597.716075 354.816147 
L 598.963304 352.534471 
L 600.210533 349.791714 
L 601.635937 346.125082 
L 603.239517 341.386762 
L 605.199448 334.837606 
L 607.515731 326.225712 
L 610.188364 315.393928 
L 613.5737 300.697559 
L 618.028088 280.310199 
L 631.034904 220.122783 
L 634.063888 207.561031 
L 636.736522 197.402686 
L 639.23098 188.764562 
L 641.725437 180.920993 
L 644.219895 173.80922 
L 646.714353 167.34905 
L 649.386986 161.059712 
L 652.05962 155.339519 
L 654.732253 150.116377 
L 657.583062 145.027554 
L 660.433871 140.381611 
L 663.462855 135.87953 
L 666.49184 131.78059 
L 669.520824 128.046571 
L 672.727984 124.453894 
L 675.935144 121.198499 
L 679.142304 118.249345 
L 682.52764 115.437654 
L 685.912975 112.906088 
L 689.476486 110.514142 
L 693.218173 108.273033 
L 697.138035 106.190341 
L 701.236073 104.270178 
L 705.512286 102.513486 
L 710.144851 100.859087 
L 714.955591 99.378266 
L 720.122682 98.018672 
L 725.8243 96.753696 
L 732.060444 95.605982 
L 738.831115 94.588658 
L 746.492664 93.668095 
L 755.223266 92.852517 
L 760.408175 92.405882 
L 760.632676 91.606606 
L 761.10306 92.529778 
L 761.281235 92.572106 
L 761.459411 92.475292 
L 761.815762 91.901439 
L 762.350288 90.497967 
L 763.419342 86.764887 
L 765.557448 79.01191 
L 766.626502 75.993749 
L 767.51738 74.114442 
L 768.230082 73.034486 
L 768.942784 72.311351 
L 769.655486 71.915701 
L 770.368188 71.812966 
L 771.080891 71.964898 
L 771.793593 72.33358 
L 772.684471 73.045525 
L 773.753524 74.18725 
L 775.178928 76.053201 
L 777.317035 79.27777 
L 791.392904 101.342051 
L 799.767155 113.55044 
L 820.43552 143.595677 
L 831.482404 160.087506 
L 840.925708 174.57311 
L 848.943608 187.265751 
L 849.478135 188.128136 
L 849.478135 188.128136 
" clip-path="url(#p5a1310ccce)" style="fill: none; stroke: #008000; stroke-width: 2.5; stroke-linecap: square"/>
   </g>
   <g id="line2d_29">
    <path d="M 47.6525 335.557053 
L 849.4425 335.557053 
" clip-path="url(#p5a1310ccce)" style="fill: none; stroke-dasharray: 1.5,2.475; stroke-dashoffset: 0; stroke: #808080; stroke-opacity: 0.7; stroke-width: 1.5"/>
   </g>
   <g id="line2d_30">
    <path d="M 47.6525 116.970105 
L 849.4425 116.970105 
" clip-path="url(#p5a1310ccce)" style="fill: none; stroke-dasharray: 1.5,2.475; stroke-dashoffset: 0; stroke: #808080; stroke-opacity: 0.7; stroke-width: 1.5"/>
   </g>
   <g id="patch_3">
    <path d="M 47.6525 381.096 
L 47.6525 35 
" style="fill: none; stroke: #000000; stroke-width: 0.8; stroke-linejoin: miter; stroke-linecap: square"/>
   </g>
   <g id="patch_4">
    <path d="M 849.4425 381.096 
L 849.4425 35 
" style="fill: none; stroke: #000000; stroke-width: 0.8; stroke-linejoin: miter; stroke-linecap: square"/>
   </g>
   <g id="patch_5">
    <path d="M 47.6525 381.096 
L 849.4425 381.096 
" style="fill: none; stroke: #000000; stroke-width: 0.8; stroke-linejoin: miter; stroke-linecap: square"/>
   </g>
   <g id="patch_6">
    <path d="M 47.6525 35 
L 849.4425 35 
" style="fill: none; stroke: #000000; stroke-width: 0.8; stroke-linejoin: miter; stroke-linecap: square"/>
   </g>
   <g id="text_15">
    <!-- 10% $V_{DD}$ -->
    <g style="fill: #808080" transform="translate(56.561278 331.913937) scale(0.1 -0.1)">
     <defs>
      <path id="DejaVuSans-Bold-31" d="M 750 831 
L 1813 831 
L 1813 3847 
L 722 3622 
L 722 4441 
L 1806 4666 
L 2950 4666 
L 2950 831 
L 4013 831 
L 4013 0 
L 750 0 
L 750 831 
z
" transform="scale(0.015625)"/>
      <path id="DejaVuSans-Bold-30" d="M 2944 2338 
Q 2944 3213 2780 3570 
Q 2616 3928 2228 3928 
Q 1841 3928 1675 3570 
Q 1509 3213 1509 2338 
Q 1509 1453 1675 1090 
Q 1841 728 2228 728 
Q 2613 728 2778 1090 
Q 2944 1453 2944 2338 
z
M 4147 2328 
Q 4147 1169 3647 539 
Q 3147 -91 2228 -91 
Q 1306 -91 806 539 
Q 306 1169 306 2328 
Q 306 3491 806 4120 
Q 1306 4750 2228 4750 
Q 3147 4750 3647 4120 
Q 4147 3491 4147 2328 
z
" transform="scale(0.015625)"/>
      <path id="DejaVuSans-Bold-25" d="M 4959 1925 
Q 4738 1925 4616 1733 
Q 4494 1541 4494 1184 
Q 4494 825 4614 633 
Q 4734 441 4959 441 
Q 5184 441 5303 633 
Q 5422 825 5422 1184 
Q 5422 1541 5301 1733 
Q 5181 1925 4959 1925 
z
M 4959 2450 
Q 5541 2450 5875 2112 
Q 6209 1775 6209 1184 
Q 6209 594 5875 251 
Q 5541 -91 4959 -91 
Q 4378 -91 4042 251 
Q 3706 594 3706 1184 
Q 3706 1772 4042 2111 
Q 4378 2450 4959 2450 
z
M 2094 -91 
L 1403 -91 
L 4319 4750 
L 5013 4750 
L 2094 -91 
z
M 1453 4750 
Q 2034 4750 2367 4411 
Q 2700 4072 2700 3481 
Q 2700 2891 2367 2550 
Q 2034 2209 1453 2209 
Q 872 2209 539 2550 
Q 206 2891 206 3481 
Q 206 4072 539 4411 
Q 872 4750 1453 4750 
z
M 1453 4225 
Q 1228 4225 1106 4031 
Q 984 3838 984 3481 
Q 984 3122 1106 2926 
Q 1228 2731 1453 2731 
Q 1678 2731 1798 2926 
Q 1919 3122 1919 3481 
Q 1919 3838 1797 4031 
Q 1675 4225 1453 4225 
z
" transform="scale(0.015625)"/>
      <path id="DejaVuSans-Bold-20" transform="scale(0.015625)"/>
      <path id="DejaVuSans-Oblique-56" d="M 1319 0 
L 500 4666 
L 1119 4666 
L 1797 653 
L 4063 4666 
L 4750 4666 
L 2053 0 
L 1319 0 
z
" transform="scale(0.015625)"/>
      <path id="DejaVuSans-Oblique-44" d="M 1081 4666 
L 2438 4666 
Q 3519 4666 4070 4208 
Q 4622 3750 4622 2847 
Q 4622 2250 4412 1698 
Q 4203 1147 3834 769 
Q 3463 381 2891 190 
Q 2319 0 1538 0 
L 172 0 
L 1081 4666 
z
M 1613 4147 
L 909 519 
L 1734 519 
Q 2794 519 3375 1128 
Q 3956 1738 3956 2847 
Q 3956 3519 3581 3833 
Q 3206 4147 2406 4147 
L 1613 4147 
z
" transform="scale(0.015625)"/>
     </defs>
     <use xlink:href="#DejaVuSans-Bold-31" transform="translate(0 0.78125)"/>
     <use xlink:href="#DejaVuSans-Bold-30" transform="translate(69.580078 0.78125)"/>
     <use xlink:href="#DejaVuSans-Bold-25" transform="translate(139.160156 0.78125)"/>
     <use xlink:href="#DejaVuSans-Bold-20" transform="translate(239.355469 0.78125)"/>
     <use xlink:href="#DejaVuSans-Oblique-56" transform="translate(274.169922 0.78125)"/>
     <use xlink:href="#DejaVuSans-Oblique-44" transform="translate(342.578125 -15.625) scale(0.7)"/>
     <use xlink:href="#DejaVuSans-Oblique-44" transform="translate(396.479492 -15.625) scale(0.7)"/>
    </g>
   </g>
   <g id="text_16">
    <!-- 90% $V_{DD}$ -->
    <g style="fill: #808080" transform="translate(56.561278 113.326989) scale(0.1 -0.1)">
     <defs>
      <path id="DejaVuSans-Bold-39" d="M 641 103 
L 641 966 
Q 928 831 1190 764 
Q 1453 697 1709 697 
Q 2247 697 2547 995 
Q 2847 1294 2900 1881 
Q 2688 1725 2447 1647 
Q 2206 1569 1925 1569 
Q 1209 1569 770 1986 
Q 331 2403 331 3084 
Q 331 3838 820 4291 
Q 1309 4744 2131 4744 
Q 3044 4744 3544 4128 
Q 4044 3513 4044 2388 
Q 4044 1231 3459 570 
Q 2875 -91 1856 -91 
Q 1528 -91 1228 -42 
Q 928 6 641 103 
z
M 2125 2350 
Q 2441 2350 2600 2554 
Q 2759 2759 2759 3169 
Q 2759 3575 2600 3781 
Q 2441 3988 2125 3988 
Q 1809 3988 1650 3781 
Q 1491 3575 1491 3169 
Q 1491 2759 1650 2554 
Q 1809 2350 2125 2350 
z
" transform="scale(0.015625)"/>
     </defs>
     <use xlink:href="#DejaVuSans-Bold-39" transform="translate(0 0.78125)"/>
     <use xlink:href="#DejaVuSans-Bold-30" transform="translate(69.580078 0.78125)"/>
     <use xlink:href="#DejaVuSans-Bold-25" transform="translate(139.160156 0.78125)"/>
     <use xlink:href="#DejaVuSans-Bold-20" transform="translate(239.355469 0.78125)"/>
     <use xlink:href="#DejaVuSans-Oblique-56" transform="translate(274.169922 0.78125)"/>
     <use xlink:href="#DejaVuSans-Oblique-44" transform="translate(342.578125 -15.625) scale(0.7)"/>
     <use xlink:href="#DejaVuSans-Oblique-44" transform="translate(396.479492 -15.625) scale(0.7)"/>
    </g>
   </g>
   <g id="patch_7">
    <path d="M 163.011999 139.427838 
Q 233.785547 150.691136 302.350816 161.602996 
" style="fill: none; stroke: #0000ff; stroke-width: 2; stroke-linecap: round"/>
    <path d="M 297.987674 158.478418 
L 302.350816 161.602996 
L 297.233269 163.218764 
z
" style="fill: #0000ff; stroke: #0000ff; stroke-width: 2; stroke-linecap: round"/>
   </g>
   <g id="text_17">
    <g id="patch_8">
     <path d="M 83.287611 143.705684 
L 156.247611 143.705684 
Q 161.047611 143.705684 161.047611 138.905684 
L 161.047611 126.185684 
Q 161.047611 121.385684 156.247611 121.385684 
L 83.287611 121.385684 
Q 78.487611 121.385684 78.487611 126.185684 
L 78.487611 138.905684 
Q 78.487611 143.705684 83.287611 143.705684 
z
" style="fill: #0000ff; opacity: 0.9"/>
    </g>
    <!-- $W_p/W_n = 2.0$ -->
    <g style="fill: #ffffff" transform="translate(83.287611 135.185684) scale(0.12 -0.12)">
     <defs>
      <path id="DejaVuSans-Oblique-57" d="M 616 4666 
L 1228 4666 
L 1453 697 
L 3213 4666 
L 3916 4666 
L 4147 697 
L 5888 4666 
L 6528 4666 
L 4453 0 
L 3659 0 
L 3444 3891 
L 1697 0 
L 903 0 
L 616 4666 
z
" transform="scale(0.015625)"/>
      <path id="DejaVuSans-Oblique-70" d="M 3175 2156 
Q 3175 2616 2975 2859 
Q 2775 3103 2400 3103 
Q 2144 3103 1911 2972 
Q 1678 2841 1497 2591 
Q 1319 2344 1212 1994 
Q 1106 1644 1106 1300 
Q 1106 863 1306 627 
Q 1506 391 1875 391 
Q 2147 391 2380 519 
Q 2613 647 2778 891 
Q 2956 1147 3065 1494 
Q 3175 1841 3175 2156 
z
M 1394 2969 
Q 1625 3272 1939 3428 
Q 2253 3584 2638 3584 
Q 3175 3584 3472 3232 
Q 3769 2881 3769 2247 
Q 3769 1728 3584 1258 
Q 3400 788 3053 416 
Q 2822 169 2531 39 
Q 2241 -91 1919 -91 
Q 1547 -91 1294 64 
Q 1041 219 916 525 
L 556 -1331 
L -19 -1331 
L 922 3500 
L 1497 3500 
L 1394 2969 
z
" transform="scale(0.015625)"/>
      <path id="DejaVuSans-2f" d="M 1625 4666 
L 2156 4666 
L 531 -594 
L 0 -594 
L 1625 4666 
z
" transform="scale(0.015625)"/>
      <path id="DejaVuSans-Oblique-6e" d="M 3566 2113 
L 3156 0 
L 2578 0 
L 2988 2091 
Q 3016 2238 3031 2350 
Q 3047 2463 3047 2528 
Q 3047 2791 2881 2937 
Q 2716 3084 2419 3084 
Q 1956 3084 1622 2776 
Q 1288 2469 1184 1941 
L 800 0 
L 225 0 
L 903 3500 
L 1478 3500 
L 1363 2950 
Q 1603 3253 1940 3418 
Q 2278 3584 2650 3584 
Q 3113 3584 3367 3334 
Q 3622 3084 3622 2631 
Q 3622 2519 3608 2391 
Q 3594 2263 3566 2113 
z
" transform="scale(0.015625)"/>
      <path id="DejaVuSans-3d" d="M 678 2906 
L 4684 2906 
L 4684 2381 
L 678 2381 
L 678 2906 
z
M 678 1631 
L 4684 1631 
L 4684 1100 
L 678 1100 
L 678 1631 
z
" transform="scale(0.015625)"/>
     </defs>
     <use xlink:href="#DejaVuSans-Oblique-57" transform="translate(0 0.78125)"/>
     <use xlink:href="#DejaVuSans-Oblique-70" transform="translate(98.876953 -15.625) scale(0.7)"/>
     <use xlink:href="#DejaVuSans-2f" transform="translate(146.044922 0.78125)"/>
     <use xlink:href="#DejaVuSans-Oblique-57" transform="translate(179.736328 0.78125)"/>
     <use xlink:href="#DejaVuSans-Oblique-6e" transform="translate(278.613281 -15.625) scale(0.7)"/>
     <use xlink:href="#DejaVuSans-3d" transform="translate(345.195312 0.78125)"/>
     <use xlink:href="#DejaVuSans-32" transform="translate(448.466797 0.78125)"/>
     <use xlink:href="#DejaVuSans-2e" transform="translate(512.089844 0.78125)"/>
     <use xlink:href="#DejaVuSans-30" transform="translate(543.876953 0.78125)"/>
    </g>
   </g>
   <g id="patch_9">
    <path d="M 163.048917 224.288931 
Q 219.893073 225.16278 274.501424 226.00226 
" style="fill: none; stroke: #ff0000; stroke-width: 2; stroke-linecap: round"/>
    <path d="M 269.738881 223.528763 
L 274.501424 226.00226 
L 269.665101 228.328196 
z
" style="fill: #ff0000; stroke: #ff0000; stroke-width: 2; stroke-linecap: round"/>
   </g>
   <g id="text_18">
    <g id="patch_10">
     <path d="M 83.287611 234.783579 
L 156.247611 234.783579 
Q 161.047611 234.783579 161.047611 229.983579 
L 161.047611 217.263579 
Q 161.047611 212.463579 156.247611 212.463579 
L 83.287611 212.463579 
Q 78.487611 212.463579 78.487611 217.263579 
L 78.487611 229.983579 
Q 78.487611 234.783579 83.287611 234.783579 
z
" style="fill: #ff0000; opacity: 0.9"/>
    </g>
    <!-- $W_p/W_n = 2.5$ -->
    <g style="fill: #ffffff" transform="translate(83.287611 226.263579) scale(0.12 -0.12)">
     <use xlink:href="#DejaVuSans-Oblique-57" transform="translate(0 0.78125)"/>
     <use xlink:href="#DejaVuSans-Oblique-70" transform="translate(98.876953 -15.625) scale(0.7)"/>
     <use xlink:href="#DejaVuSans-2f" transform="translate(146.044922 0.78125)"/>
     <use xlink:href="#DejaVuSans-Oblique-57" transform="translate(179.736328 0.78125)"/>
     <use xlink:href="#DejaVuSans-Oblique-6e" transform="translate(278.613281 -15.625) scale(0.7)"/>
     <use xlink:href="#DejaVuSans-3d" transform="translate(345.195312 0.78125)"/>
     <use xlink:href="#DejaVuSans-32" transform="translate(448.466797 0.78125)"/>
     <use xlink:href="#DejaVuSans-2e" transform="translate(512.089844 0.78125)"/>
     <use xlink:href="#DejaVuSans-35" transform="translate(543.876953 0.78125)"/>
    </g>
   </g>
   <g id="patch_11">
    <path d="M 146.373028 302.721104 
Q 167.455824 293.22756 186.499729 284.652126 
" style="fill: none; stroke: #008000; stroke-width: 2; stroke-linecap: round"/>
    <path d="M 181.137576 284.434594 
L 186.499729 284.652126 
L 183.108412 288.811328 
z
" style="fill: #008000; stroke: #008000; stroke-width: 2; stroke-linecap: round"/>
   </g>
   <g id="text_19">
    <g id="patch_12">
     <path d="M 83.287611 325.861474 
L 156.247611 325.861474 
Q 161.047611 325.861474 161.047611 321.061474 
L 161.047611 308.341474 
Q 161.047611 303.541474 156.247611 303.541474 
L 83.287611 303.541474 
Q 78.487611 303.541474 78.487611 308.341474 
L 78.487611 321.061474 
Q 78.487611 325.861474 83.287611 325.861474 
z
" style="fill: #008000; opacity: 0.9"/>
    </g>
    <!-- $W_p/W_n = 3.0$ -->
    <g style="fill: #ffffff" transform="translate(83.287611 317.341474) scale(0.12 -0.12)">
     <use xlink:href="#DejaVuSans-Oblique-57" transform="translate(0 0.78125)"/>
     <use xlink:href="#DejaVuSans-Oblique-70" transform="translate(98.876953 -15.625) scale(0.7)"/>
     <use xlink:href="#DejaVuSans-2f" transform="translate(146.044922 0.78125)"/>
     <use xlink:href="#DejaVuSans-Oblique-57" transform="translate(179.736328 0.78125)"/>
     <use xlink:href="#DejaVuSans-Oblique-6e" transform="translate(278.613281 -15.625) scale(0.7)"/>
     <use xlink:href="#DejaVuSans-3d" transform="translate(345.195312 0.78125)"/>
     <use xlink:href="#DejaVuSans-33" transform="translate(448.466797 0.78125)"/>
     <use xlink:href="#DejaVuSans-2e" transform="translate(512.089844 0.78125)"/>
     <use xlink:href="#DejaVuSans-30" transform="translate(543.876953 0.78125)"/>
    </g>
   </g>
   <g id="text_20">
    <!-- Uporedni tranzijentni odziv za različite odnose $W_p / W_n$ -->
    <g transform="translate(209.4275 20) scale(0.16 -0.16)">
     <defs>
      <path id="DejaVuSans-Bold-55" d="M 588 4666 
L 1791 4666 
L 1791 1869 
Q 1791 1291 1980 1042 
Q 2169 794 2597 794 
Q 3028 794 3217 1042 
Q 3406 1291 3406 1869 
L 3406 4666 
L 4609 4666 
L 4609 1869 
Q 4609 878 4112 393 
Q 3616 -91 2597 -91 
Q 1581 -91 1084 393 
Q 588 878 588 1869 
L 588 4666 
z
" transform="scale(0.015625)"/>
      <path id="DejaVuSans-Bold-70" d="M 1656 506 
L 1656 -1331 
L 538 -1331 
L 538 3500 
L 1656 3500 
L 1656 2988 
Q 1888 3294 2169 3439 
Q 2450 3584 2816 3584 
Q 3463 3584 3878 3070 
Q 4294 2556 4294 1747 
Q 4294 938 3878 423 
Q 3463 -91 2816 -91 
Q 2450 -91 2169 54 
Q 1888 200 1656 506 
z
M 2400 2772 
Q 2041 2772 1848 2508 
Q 1656 2244 1656 1747 
Q 1656 1250 1848 986 
Q 2041 722 2400 722 
Q 2759 722 2948 984 
Q 3138 1247 3138 1747 
Q 3138 2247 2948 2509 
Q 2759 2772 2400 2772 
z
" transform="scale(0.015625)"/>
      <path id="DejaVuSans-Bold-6f" d="M 2203 2784 
Q 1831 2784 1636 2517 
Q 1441 2250 1441 1747 
Q 1441 1244 1636 976 
Q 1831 709 2203 709 
Q 2569 709 2762 976 
Q 2956 1244 2956 1747 
Q 2956 2250 2762 2517 
Q 2569 2784 2203 2784 
z
M 2203 3584 
Q 3106 3584 3614 3096 
Q 4122 2609 4122 1747 
Q 4122 884 3614 396 
Q 3106 -91 2203 -91 
Q 1297 -91 786 396 
Q 275 884 275 1747 
Q 275 2609 786 3096 
Q 1297 3584 2203 3584 
z
" transform="scale(0.015625)"/>
      <path id="DejaVuSans-Bold-72" d="M 3138 2547 
Q 2991 2616 2845 2648 
Q 2700 2681 2553 2681 
Q 2122 2681 1889 2404 
Q 1656 2128 1656 1613 
L 1656 0 
L 538 0 
L 538 3500 
L 1656 3500 
L 1656 2925 
Q 1872 3269 2151 3426 
Q 2431 3584 2822 3584 
Q 2878 3584 2943 3579 
Q 3009 3575 3134 3559 
L 3138 2547 
z
" transform="scale(0.015625)"/>
      <path id="DejaVuSans-Bold-65" d="M 4031 1759 
L 4031 1441 
L 1416 1441 
Q 1456 1047 1700 850 
Q 1944 653 2381 653 
Q 2734 653 3104 758 
Q 3475 863 3866 1075 
L 3866 213 
Q 3469 63 3072 -14 
Q 2675 -91 2278 -91 
Q 1328 -91 801 392 
Q 275 875 275 1747 
Q 275 2603 792 3093 
Q 1309 3584 2216 3584 
Q 3041 3584 3536 3087 
Q 4031 2591 4031 1759 
z
M 2881 2131 
Q 2881 2450 2695 2645 
Q 2509 2841 2209 2841 
Q 1884 2841 1681 2658 
Q 1478 2475 1428 2131 
L 2881 2131 
z
" transform="scale(0.015625)"/>
      <path id="DejaVuSans-Bold-64" d="M 2919 2988 
L 2919 4863 
L 4044 4863 
L 4044 0 
L 2919 0 
L 2919 506 
Q 2688 197 2409 53 
Q 2131 -91 1766 -91 
Q 1119 -91 703 423 
Q 288 938 288 1747 
Q 288 2556 703 3070 
Q 1119 3584 1766 3584 
Q 2128 3584 2408 3439 
Q 2688 3294 2919 2988 
z
M 2181 722 
Q 2541 722 2730 984 
Q 2919 1247 2919 1747 
Q 2919 2247 2730 2509 
Q 2541 2772 2181 2772 
Q 1825 2772 1636 2509 
Q 1447 2247 1447 1747 
Q 1447 1247 1636 984 
Q 1825 722 2181 722 
z
" transform="scale(0.015625)"/>
      <path id="DejaVuSans-Bold-6e" d="M 4056 2131 
L 4056 0 
L 2931 0 
L 2931 347 
L 2931 1631 
Q 2931 2084 2911 2256 
Q 2891 2428 2841 2509 
Q 2775 2619 2662 2680 
Q 2550 2741 2406 2741 
Q 2056 2741 1856 2470 
Q 1656 2200 1656 1722 
L 1656 0 
L 538 0 
L 538 3500 
L 1656 3500 
L 1656 2988 
Q 1909 3294 2193 3439 
Q 2478 3584 2822 3584 
Q 3428 3584 3742 3212 
Q 4056 2841 4056 2131 
z
" transform="scale(0.015625)"/>
      <path id="DejaVuSans-Bold-69" d="M 538 3500 
L 1656 3500 
L 1656 0 
L 538 0 
L 538 3500 
z
M 538 4863 
L 1656 4863 
L 1656 3950 
L 538 3950 
L 538 4863 
z
" transform="scale(0.015625)"/>
      <path id="DejaVuSans-Bold-74" d="M 1759 4494 
L 1759 3500 
L 2913 3500 
L 2913 2700 
L 1759 2700 
L 1759 1216 
Q 1759 972 1856 886 
Q 1953 800 2241 800 
L 2816 800 
L 2816 0 
L 1856 0 
Q 1194 0 917 276 
Q 641 553 641 1216 
L 641 2700 
L 84 2700 
L 84 3500 
L 641 3500 
L 641 4494 
L 1759 4494 
z
" transform="scale(0.015625)"/>
      <path id="DejaVuSans-Bold-61" d="M 2106 1575 
Q 1756 1575 1579 1456 
Q 1403 1338 1403 1106 
Q 1403 894 1545 773 
Q 1688 653 1941 653 
Q 2256 653 2472 879 
Q 2688 1106 2688 1447 
L 2688 1575 
L 2106 1575 
z
M 3816 1997 
L 3816 0 
L 2688 0 
L 2688 519 
Q 2463 200 2181 54 
Q 1900 -91 1497 -91 
Q 953 -91 614 226 
Q 275 544 275 1050 
Q 275 1666 698 1953 
Q 1122 2241 2028 2241 
L 2688 2241 
L 2688 2328 
Q 2688 2594 2478 2717 
Q 2269 2841 1825 2841 
Q 1466 2841 1156 2769 
Q 847 2697 581 2553 
L 581 3406 
Q 941 3494 1303 3539 
Q 1666 3584 2028 3584 
Q 2975 3584 3395 3211 
Q 3816 2838 3816 1997 
z
" transform="scale(0.015625)"/>
      <path id="DejaVuSans-Bold-7a" d="M 366 3500 
L 3419 3500 
L 3419 2719 
L 1575 800 
L 3419 800 
L 3419 0 
L 288 0 
L 288 781 
L 2131 2700 
L 366 2700 
L 366 3500 
z
" transform="scale(0.015625)"/>
      <path id="DejaVuSans-Bold-6a" d="M 538 3500 
L 1656 3500 
L 1656 63 
Q 1656 -641 1318 -1011 
Q 981 -1381 341 -1381 
L -213 -1381 
L -213 -647 
L -19 -647 
Q 300 -647 419 -503 
Q 538 -359 538 63 
L 538 3500 
z
M 538 4863 
L 1656 4863 
L 1656 3950 
L 538 3950 
L 538 4863 
z
" transform="scale(0.015625)"/>
      <path id="DejaVuSans-Bold-76" d="M 97 3500 
L 1216 3500 
L 2088 1081 
L 2956 3500 
L 4078 3500 
L 2700 0 
L 1472 0 
L 97 3500 
z
" transform="scale(0.015625)"/>
      <path id="DejaVuSans-Bold-6c" d="M 538 4863 
L 1656 4863 
L 1656 0 
L 538 0 
L 538 4863 
z
" transform="scale(0.015625)"/>
      <path id="DejaVuSans-Bold-10d" d="M 3366 3391 
L 3366 2478 
Q 3138 2634 2908 2709 
Q 2678 2784 2431 2784 
Q 1963 2784 1702 2511 
Q 1441 2238 1441 1747 
Q 1441 1256 1702 982 
Q 1963 709 2431 709 
Q 2694 709 2930 787 
Q 3166 866 3366 1019 
L 3366 103 
Q 3103 6 2833 -42 
Q 2563 -91 2291 -91 
Q 1344 -91 809 395 
Q 275 881 275 1747 
Q 275 2613 809 3098 
Q 1344 3584 2291 3584 
Q 2566 3584 2833 3536 
Q 3100 3488 3366 3391 
z
M 1878 3944 
L 1078 5119 
L 1634 5119 
L 2256 4409 
L 2878 5119 
L 3434 5119 
L 2634 3944 
L 1878 3944 
z
" transform="scale(0.015625)"/>
      <path id="DejaVuSans-Bold-73" d="M 3272 3391 
L 3272 2541 
Q 2913 2691 2578 2766 
Q 2244 2841 1947 2841 
Q 1628 2841 1473 2761 
Q 1319 2681 1319 2516 
Q 1319 2381 1436 2309 
Q 1553 2238 1856 2203 
L 2053 2175 
Q 2913 2066 3209 1816 
Q 3506 1566 3506 1031 
Q 3506 472 3093 190 
Q 2681 -91 1863 -91 
Q 1516 -91 1145 -36 
Q 775 19 384 128 
L 384 978 
Q 719 816 1070 734 
Q 1422 653 1784 653 
Q 2113 653 2278 743 
Q 2444 834 2444 1013 
Q 2444 1163 2330 1236 
Q 2216 1309 1875 1350 
L 1678 1375 
Q 931 1469 631 1722 
Q 331 1975 331 2491 
Q 331 3047 712 3315 
Q 1094 3584 1881 3584 
Q 2191 3584 2531 3537 
Q 2872 3491 3272 3391 
z
" transform="scale(0.015625)"/>
     </defs>
     <use xlink:href="#DejaVuSans-Bold-55" transform="translate(0 0.015625)"/>
     <use xlink:href="#DejaVuSans-Bold-70" transform="translate(81.201172 0.015625)"/>
     <use xlink:href="#DejaVuSans-Bold-6f" transform="translate(152.783203 0.015625)"/>
     <use xlink:href="#DejaVuSans-Bold-72" transform="translate(221.484375 0.015625)"/>
     <use xlink:href="#DejaVuSans-Bold-65" transform="translate(270.800781 0.015625)"/>
     <use xlink:href="#DejaVuSans-Bold-64" transform="translate(338.623047 0.015625)"/>
     <use xlink:href="#DejaVuSans-Bold-6e" transform="translate(410.205078 0.015625)"/>
     <use xlink:href="#DejaVuSans-Bold-69" transform="translate(481.396484 0.015625)"/>
     <use xlink:href="#DejaVuSans-Bold-20" transform="translate(515.673828 0.015625)"/>
     <use xlink:href="#DejaVuSans-Bold-74" transform="translate(550.488281 0.015625)"/>
     <use xlink:href="#DejaVuSans-Bold-72" transform="translate(598.291016 0.015625)"/>
     <use xlink:href="#DejaVuSans-Bold-61" transform="translate(647.607422 0.015625)"/>
     <use xlink:href="#DejaVuSans-Bold-6e" transform="translate(715.087891 0.015625)"/>
     <use xlink:href="#DejaVuSans-Bold-7a" transform="translate(786.279297 0.015625)"/>
     <use xlink:href="#DejaVuSans-Bold-69" transform="translate(844.482422 0.015625)"/>
     <use xlink:href="#DejaVuSans-Bold-6a" transform="translate(878.759766 0.015625)"/>
     <use xlink:href="#DejaVuSans-Bold-65" transform="translate(913.037109 0.015625)"/>
     <use xlink:href="#DejaVuSans-Bold-6e" transform="translate(980.859375 0.015625)"/>
     <use xlink:href="#DejaVuSans-Bold-74" transform="translate(1052.050781 0.015625)"/>
     <use xlink:href="#DejaVuSans-Bold-6e" transform="translate(1099.853516 0.015625)"/>
     <use xlink:href="#DejaVuSans-Bold-69" transform="translate(1171.044922 0.015625)"/>
     <use xlink:href="#DejaVuSans-Bold-20" transform="translate(1205.322266 0.015625)"/>
     <use xlink:href="#DejaVuSans-Bold-6f" transform="translate(1240.136719 0.015625)"/>
     <use xlink:href="#DejaVuSans-Bold-64" transform="translate(1308.837891 0.015625)"/>
     <use xlink:href="#DejaVuSans-Bold-7a" transform="translate(1380.419922 0.015625)"/>
     <use xlink:href="#DejaVuSans-Bold-69" transform="translate(1438.623047 0.015625)"/>
     <use xlink:href="#DejaVuSans-Bold-76" transform="translate(1472.900391 0.015625)"/>
     <use xlink:href="#DejaVuSans-Bold-20" transform="translate(1538.085938 0.015625)"/>
     <use xlink:href="#DejaVuSans-Bold-7a" transform="translate(1572.900391 0.015625)"/>
     <use xlink:href="#DejaVuSans-Bold-61" transform="translate(1631.103516 0.015625)"/>
     <use xlink:href="#DejaVuSans-Bold-20" transform="translate(1698.583984 0.015625)"/>
     <use xlink:href="#DejaVuSans-Bold-72" transform="translate(1733.398438 0.015625)"/>
     <use xlink:href="#DejaVuSans-Bold-61" transform="translate(1782.714844 0.015625)"/>
     <use xlink:href="#DejaVuSans-Bold-7a" transform="translate(1850.195312 0.015625)"/>
     <use xlink:href="#DejaVuSans-Bold-6c" transform="translate(1908.398438 0.015625)"/>
     <use xlink:href="#DejaVuSans-Bold-69" transform="translate(1942.675781 0.015625)"/>
     <use xlink:href="#DejaVuSans-Bold-10d" transform="translate(1976.953125 0.015625)"/>
     <use xlink:href="#DejaVuSans-Bold-69" transform="translate(2036.230469 0.015625)"/>
     <use xlink:href="#DejaVuSans-Bold-74" transform="translate(2070.507812 0.015625)"/>
     <use xlink:href="#DejaVuSans-Bold-65" transform="translate(2118.310547 0.015625)"/>
     <use xlink:href="#DejaVuSans-Bold-20" transform="translate(2186.132812 0.015625)"/>
     <use xlink:href="#DejaVuSans-Bold-6f" transform="translate(2220.947266 0.015625)"/>
     <use xlink:href="#DejaVuSans-Bold-64" transform="translate(2289.648438 0.015625)"/>
     <use xlink:href="#DejaVuSans-Bold-6e" transform="translate(2361.230469 0.015625)"/>
     <use xlink:href="#DejaVuSans-Bold-6f" transform="translate(2432.421875 0.015625)"/>
     <use xlink:href="#DejaVuSans-Bold-73" transform="translate(2501.123047 0.015625)"/>
     <use xlink:href="#DejaVuSans-Bold-65" transform="translate(2560.644531 0.015625)"/>
     <use xlink:href="#DejaVuSans-Bold-20" transform="translate(2628.466797 0.015625)"/>
     <use xlink:href="#DejaVuSans-Oblique-57" transform="translate(2663.28125 0.015625)"/>
     <use xlink:href="#DejaVuSans-Oblique-70" transform="translate(2762.158203 -16.390625) scale(0.7)"/>
     <use xlink:href="#DejaVuSans-2f" transform="translate(2809.326172 0.015625)"/>
     <use xlink:href="#DejaVuSans-Oblique-57" transform="translate(2843.017578 0.015625)"/>
     <use xlink:href="#DejaVuSans-Oblique-6e" transform="translate(2941.894531 -16.390625) scale(0.7)"/>
    </g>
   </g>
   <g id="legend_1">
    <g id="patch_13">
     <path d="M 693.1325 375.596 
L 841.7425 375.596 
Q 843.9425 375.596 843.9425 373.396 
L 843.9425 306.100062 
Q 843.9425 303.900062 841.7425 303.900062 
L 693.1325 303.900062 
Q 690.9325 303.900062 690.9325 306.100062 
L 690.9325 373.396 
Q 690.9325 375.596 693.1325 375.596 
z
" style="fill: #ffffff; opacity: 0.9; stroke: #000000; stroke-linejoin: miter"/>
    </g>
    <g id="line2d_31">
     <path d="M 695.3325 313.248344 
L 706.3325 313.248344 
L 717.3325 313.248344 
" style="fill: none; stroke-dasharray: 5.55,2.4; stroke-dashoffset: 0; stroke: #000000; stroke-width: 1.5"/>
    </g>
    <g id="text_21">
     <!-- Ulaz A (Zajednički) -->
     <g transform="translate(726.1325 317.098344) scale(0.11 -0.11)">
      <defs>
       <path id="DejaVuSans-55" d="M 556 4666 
L 1191 4666 
L 1191 1831 
Q 1191 1081 1462 751 
Q 1734 422 2344 422 
Q 2950 422 3222 751 
Q 3494 1081 3494 1831 
L 3494 4666 
L 4128 4666 
L 4128 1753 
Q 4128 841 3676 375 
Q 3225 -91 2344 -91 
Q 1459 -91 1007 375 
Q 556 841 556 1753 
L 556 4666 
z
" transform="scale(0.015625)"/>
       <path id="DejaVuSans-6c" d="M 603 4863 
L 1178 4863 
L 1178 0 
L 603 0 
L 603 4863 
z
" transform="scale(0.015625)"/>
       <path id="DejaVuSans-7a" d="M 353 3500 
L 3084 3500 
L 3084 2975 
L 922 459 
L 3084 459 
L 3084 0 
L 275 0 
L 275 525 
L 2438 3041 
L 353 3041 
L 353 3500 
z
" transform="scale(0.015625)"/>
       <path id="DejaVuSans-41" d="M 2188 4044 
L 1331 1722 
L 3047 1722 
L 2188 4044 
z
M 1831 4666 
L 2547 4666 
L 4325 0 
L 3669 0 
L 3244 1197 
L 1141 1197 
L 716 0 
L 50 0 
L 1831 4666 
z
" transform="scale(0.015625)"/>
       <path id="DejaVuSans-28" d="M 1984 4856 
Q 1566 4138 1362 3434 
Q 1159 2731 1159 2009 
Q 1159 1288 1364 580 
Q 1569 -128 1984 -844 
L 1484 -844 
Q 1016 -109 783 600 
Q 550 1309 550 2009 
Q 550 2706 781 3412 
Q 1013 4119 1484 4856 
L 1984 4856 
z
" transform="scale(0.015625)"/>
       <path id="DejaVuSans-5a" d="M 359 4666 
L 4025 4666 
L 4025 4184 
L 1075 531 
L 4097 531 
L 4097 0 
L 288 0 
L 288 481 
L 3238 4134 
L 359 4134 
L 359 4666 
z
" transform="scale(0.015625)"/>
       <path id="DejaVuSans-6a" d="M 603 3500 
L 1178 3500 
L 1178 -63 
Q 1178 -731 923 -1031 
Q 669 -1331 103 -1331 
L -116 -1331 
L -116 -844 
L 38 -844 
Q 366 -844 484 -692 
Q 603 -541 603 -63 
L 603 3500 
z
M 603 4863 
L 1178 4863 
L 1178 4134 
L 603 4134 
L 603 4863 
z
" transform="scale(0.015625)"/>
       <path id="DejaVuSans-64" d="M 2906 2969 
L 2906 4863 
L 3481 4863 
L 3481 0 
L 2906 0 
L 2906 525 
Q 2725 213 2448 61 
Q 2172 -91 1784 -91 
Q 1150 -91 751 415 
Q 353 922 353 1747 
Q 353 2572 751 3078 
Q 1150 3584 1784 3584 
Q 2172 3584 2448 3432 
Q 2725 3281 2906 2969 
z
M 947 1747 
Q 947 1113 1208 752 
Q 1469 391 1925 391 
Q 2381 391 2643 752 
Q 2906 1113 2906 1747 
Q 2906 2381 2643 2742 
Q 2381 3103 1925 3103 
Q 1469 3103 1208 2742 
Q 947 2381 947 1747 
z
" transform="scale(0.015625)"/>
       <path id="DejaVuSans-69" d="M 603 3500 
L 1178 3500 
L 1178 0 
L 603 0 
L 603 3500 
z
M 603 4863 
L 1178 4863 
L 1178 4134 
L 603 4134 
L 603 4863 
z
" transform="scale(0.015625)"/>
       <path id="DejaVuSans-10d" d="M 3122 3366 
L 3122 2828 
Q 2878 2963 2633 3030 
Q 2388 3097 2138 3097 
Q 1578 3097 1268 2742 
Q 959 2388 959 1747 
Q 959 1106 1268 751 
Q 1578 397 2138 397 
Q 2388 397 2633 464 
Q 2878 531 3122 666 
L 3122 134 
Q 2881 22 2623 -34 
Q 2366 -91 2075 -91 
Q 1284 -91 818 406 
Q 353 903 353 1747 
Q 353 2603 823 3093 
Q 1294 3584 2113 3584 
Q 2378 3584 2631 3529 
Q 2884 3475 3122 3366 
z
M 1801 3944 
L 1035 5119 
L 1470 5119 
L 2032 4353 
L 2595 5119 
L 3029 5119 
L 2263 3944 
L 1801 3944 
z
" transform="scale(0.015625)"/>
       <path id="DejaVuSans-6b" d="M 581 4863 
L 1159 4863 
L 1159 1991 
L 2875 3500 
L 3609 3500 
L 1753 1863 
L 3688 0 
L 2938 0 
L 1159 1709 
L 1159 0 
L 581 0 
L 581 4863 
z
" transform="scale(0.015625)"/>
       <path id="DejaVuSans-29" d="M 513 4856 
L 1013 4856 
Q 1481 4119 1714 3412 
Q 1947 2706 1947 2009 
Q 1947 1309 1714 600 
Q 1481 -109 1013 -844 
L 513 -844 
Q 928 -128 1133 580 
Q 1338 1288 1338 2009 
Q 1338 2731 1133 3434 
Q 928 4138 513 4856 
z
" transform="scale(0.015625)"/>
      </defs>
      <use xlink:href="#DejaVuSans-55"/>
      <use xlink:href="#DejaVuSans-6c" transform="translate(73.193359 0)"/>
      <use xlink:href="#DejaVuSans-61" transform="translate(100.976562 0)"/>
      <use xlink:href="#DejaVuSans-7a" transform="translate(162.255859 0)"/>
      <use xlink:href="#DejaVuSans-20" transform="translate(214.746094 0)"/>
      <use xlink:href="#DejaVuSans-41" transform="translate(246.533203 0)"/>
      <use xlink:href="#DejaVuSans-20" transform="translate(314.941406 0)"/>
      <use xlink:href="#DejaVuSans-28" transform="translate(346.728516 0)"/>
      <use xlink:href="#DejaVuSans-5a" transform="translate(385.742188 0)"/>
      <use xlink:href="#DejaVuSans-61" transform="translate(454.248047 0)"/>
      <use xlink:href="#DejaVuSans-6a" transform="translate(515.527344 0)"/>
      <use xlink:href="#DejaVuSans-65" transform="translate(543.310547 0)"/>
      <use xlink:href="#DejaVuSans-64" transform="translate(604.833984 0)"/>
      <use xlink:href="#DejaVuSans-6e" transform="translate(668.310547 0)"/>
      <use xlink:href="#DejaVuSans-69" transform="translate(731.689453 0)"/>
      <use xlink:href="#DejaVuSans-10d" transform="translate(759.472656 0)"/>
      <use xlink:href="#DejaVuSans-6b" transform="translate(814.453125 0)"/>
      <use xlink:href="#DejaVuSans-69" transform="translate(872.363281 0)"/>
      <use xlink:href="#DejaVuSans-29" transform="translate(900.146484 0)"/>
     </g>
    </g>
    <g id="line2d_32">
     <path d="M 695.3325 329.396 
L 706.3325 329.396 
L 717.3325 329.396 
" style="fill: none; stroke: #0000ff; stroke-width: 2.5; stroke-linecap: square"/>
    </g>
    <g id="text_22">
     <!-- Izlaz F ($W_p/W_n = 2.0$) -->
     <g transform="translate(726.1325 333.246) scale(0.11 -0.11)">
      <defs>
       <path id="DejaVuSans-49" d="M 628 4666 
L 1259 4666 
L 1259 0 
L 628 0 
L 628 4666 
z
" transform="scale(0.015625)"/>
       <path id="DejaVuSans-46" d="M 628 4666 
L 3309 4666 
L 3309 4134 
L 1259 4134 
L 1259 2759 
L 3109 2759 
L 3109 2228 
L 1259 2228 
L 1259 0 
L 628 0 
L 628 4666 
z
" transform="scale(0.015625)"/>
      </defs>
      <use xlink:href="#DejaVuSans-49" transform="translate(0 0.015625)"/>
      <use xlink:href="#DejaVuSans-7a" transform="translate(29.492188 0.015625)"/>
      <use xlink:href="#DejaVuSans-6c" transform="translate(81.982422 0.015625)"/>
      <use xlink:href="#DejaVuSans-61" transform="translate(109.765625 0.015625)"/>
      <use xlink:href="#DejaVuSans-7a" transform="translate(171.044922 0.015625)"/>
      <use xlink:href="#DejaVuSans-20" transform="translate(223.535156 0.015625)"/>
      <use xlink:href="#DejaVuSans-46" transform="translate(255.322266 0.015625)"/>
      <use xlink:href="#DejaVuSans-20" transform="translate(312.841797 0.015625)"/>
      <use xlink:href="#DejaVuSans-28" transform="translate(344.628906 0.015625)"/>
      <use xlink:href="#DejaVuSans-Oblique-57" transform="translate(383.642578 0.015625)"/>
      <use xlink:href="#DejaVuSans-Oblique-70" transform="translate(482.519531 -16.390625) scale(0.7)"/>
      <use xlink:href="#DejaVuSans-2f" transform="translate(529.6875 0.015625)"/>
      <use xlink:href="#DejaVuSans-Oblique-57" transform="translate(563.378906 0.015625)"/>
      <use xlink:href="#DejaVuSans-Oblique-6e" transform="translate(662.255859 -16.390625) scale(0.7)"/>
      <use xlink:href="#DejaVuSans-3d" transform="translate(728.837891 0.015625)"/>
      <use xlink:href="#DejaVuSans-32" transform="translate(832.109375 0.015625)"/>
      <use xlink:href="#DejaVuSans-2e" transform="translate(895.732422 0.015625)"/>
      <use xlink:href="#DejaVuSans-30" transform="translate(927.519531 0.015625)"/>
      <use xlink:href="#DejaVuSans-29" transform="translate(991.142578 0.015625)"/>
     </g>
    </g>
    <g id="line2d_33">
     <path d="M 695.3325 346.666 
L 706.3325 346.666 
L 717.3325 346.666 
" style="fill: none; stroke: #ff0000; stroke-width: 2.5; stroke-linecap: square"/>
    </g>
    <g id="text_23">
     <!-- Izlaz F ($W_p/W_n = 2.5$) -->
     <g transform="translate(726.1325 350.516) scale(0.11 -0.11)">
      <use xlink:href="#DejaVuSans-49" transform="translate(0 0.015625)"/>
      <use xlink:href="#DejaVuSans-7a" transform="translate(29.492188 0.015625)"/>
      <use xlink:href="#DejaVuSans-6c" transform="translate(81.982422 0.015625)"/>
      <use xlink:href="#DejaVuSans-61" transform="translate(109.765625 0.015625)"/>
      <use xlink:href="#DejaVuSans-7a" transform="translate(171.044922 0.015625)"/>
      <use xlink:href="#DejaVuSans-20" transform="translate(223.535156 0.015625)"/>
      <use xlink:href="#DejaVuSans-46" transform="translate(255.322266 0.015625)"/>
      <use xlink:href="#DejaVuSans-20" transform="translate(312.841797 0.015625)"/>
      <use xlink:href="#DejaVuSans-28" transform="translate(344.628906 0.015625)"/>
      <use xlink:href="#DejaVuSans-Oblique-57" transform="translate(383.642578 0.015625)"/>
      <use xlink:href="#DejaVuSans-Oblique-70" transform="translate(482.519531 -16.390625) scale(0.7)"/>
      <use xlink:href="#DejaVuSans-2f" transform="translate(529.6875 0.015625)"/>
      <use xlink:href="#DejaVuSans-Oblique-57" transform="translate(563.378906 0.015625)"/>
      <use xlink:href="#DejaVuSans-Oblique-6e" transform="translate(662.255859 -16.390625) scale(0.7)"/>
      <use xlink:href="#DejaVuSans-3d" transform="translate(728.837891 0.015625)"/>
      <use xlink:href="#DejaVuSans-32" transform="translate(832.109375 0.015625)"/>
      <use xlink:href="#DejaVuSans-2e" transform="translate(895.732422 0.015625)"/>
      <use xlink:href="#DejaVuSans-35" transform="translate(927.519531 0.015625)"/>
      <use xlink:href="#DejaVuSans-29" transform="translate(991.142578 0.015625)"/>
     </g>
    </g>
    <g id="line2d_34">
     <path d="M 695.3325 363.936 
L 706.3325 363.936 
L 717.3325 363.936 
" style="fill: none; stroke: #008000; stroke-width: 2.5; stroke-linecap: square"/>
    </g>
    <g id="text_24">
     <!-- Izlaz F ($W_p/W_n = 3.0$) -->
     <g transform="translate(726.1325 367.786) scale(0.11 -0.11)">
      <use xlink:href="#DejaVuSans-49" transform="translate(0 0.015625)"/>
      <use xlink:href="#DejaVuSans-7a" transform="translate(29.492188 0.015625)"/>
      <use xlink:href="#DejaVuSans-6c" transform="translate(81.982422 0.015625)"/>
      <use xlink:href="#DejaVuSans-61" transform="translate(109.765625 0.015625)"/>
      <use xlink:href="#DejaVuSans-7a" transform="translate(171.044922 0.015625)"/>
      <use xlink:href="#DejaVuSans-20" transform="translate(223.535156 0.015625)"/>
      <use xlink:href="#DejaVuSans-46" transform="translate(255.322266 0.015625)"/>
      <use xlink:href="#DejaVuSans-20" transform="translate(312.841797 0.015625)"/>
      <use xlink:href="#DejaVuSans-28" transform="translate(344.628906 0.015625)"/>
      <use xlink:href="#DejaVuSans-Oblique-57" transform="translate(383.642578 0.015625)"/>
      <use xlink:href="#DejaVuSans-Oblique-70" transform="translate(482.519531 -16.390625) scale(0.7)"/>
      <use xlink:href="#DejaVuSans-2f" transform="translate(529.6875 0.015625)"/>
      <use xlink:href="#DejaVuSans-Oblique-57" transform="translate(563.378906 0.015625)"/>
      <use xlink:href="#DejaVuSans-Oblique-6e" transform="translate(662.255859 -16.390625) scale(0.7)"/>
      <use xlink:href="#DejaVuSans-3d" transform="translate(728.837891 0.015625)"/>
      <use xlink:href="#DejaVuSans-33" transform="translate(832.109375 0.015625)"/>
      <use xlink:href="#DejaVuSans-2e" transform="translate(895.732422 0.015625)"/>
      <use xlink:href="#DejaVuSans-30" transform="translate(927.519531 0.015625)"/>
      <use xlink:href="#DejaVuSans-29" transform="translate(991.142578 0.015625)"/>
     </g>
    </g>
   </g>
  </g>
 </g>
 <defs>
  <clipPath id="p5a1310ccce">
   <rect x="47.6525" y="35" width="801.79" height="346.096"/>
  </clipPath>
 </defs>
</svg>
