<?xml version="1.0" encoding="utf-8" standalone="no"?>
<!DOCTYPE svg PUBLIC "-//W3C//DTD SVG 1.1//EN"
  "http://www.w3.org/Graphics/SVG/1.1/DTD/svg11.dtd">
<svg xmlns:xlink="http://www.w3.org/1999/xlink" width="864pt" height="576pt" viewBox="0 0 864 576" xmlns="http://www.w3.org/2000/svg" version="1.1">
 <metadata>
  <rdf:RDF xmlns:dc="http://purl.org/dc/elements/1.1/" xmlns:cc="http://creativecommons.org/ns#" xmlns:rdf="http://www.w3.org/1999/02/22-rdf-syntax-ns#">
   <cc:Work>
    <dc:type rdf:resource="http://purl.org/dc/dcmitype/StillImage"/>
    <dc:date>2026-05-10T03:51:34.970125</dc:date>
    <dc:format>image/svg+xml</dc:format>
    <dc:creator>
     <cc:Agent>
      <dc:title>Matplotlib v3.10.8, https://matplotlib.org/</dc:title>
     </cc:Agent>
    </dc:creator>
   </cc:Work>
  </rdf:RDF>
 </metadata>
 <defs>
  <style type="text/css">*{stroke-linejoin: round; stroke-linecap: butt}</style>
 </defs>
 <g id="figure_1">
  <g id="patch_1">
   <path d="M 0 576 
L 864 576 
L 864 0 
L 0 0 
z
" style="fill: #ffffff"/>
  </g>
  <g id="axes_1">
   <g id="patch_2">
    <path d="M 53.57 528.28 
L 853.2 528.28 
L 853.2 37.32 
L 53.57 37.32 
z
" style="fill: #ffffff"/>
   </g>
   <g id="FillBetweenPolyCollection_1">
    <defs>
     <path id="mfe8f2e1e1e" d="M 421.3998 -523.802424 
L 421.3998 -62.597576 
L 421.932887 -62.597576 
L 422.465973 -62.597576 
L 422.99906 -62.597576 
L 423.532147 -62.597576 
L 424.065233 -62.597576 
L 424.59832 -62.597576 
L 425.131407 -62.597576 
L 425.664493 -62.597576 
L 426.19758 -62.597576 
L 426.730667 -62.597576 
L 427.263753 -62.597576 
L 427.79684 -62.597576 
L 428.329927 -62.597576 
L 428.863013 -62.597576 
L 429.3961 -62.597576 
L 429.929187 -62.597576 
L 430.462273 -62.597576 
L 430.99536 -62.597576 
L 431.528447 -62.597576 
L 432.061533 -62.597576 
L 432.59462 -62.597576 
L 433.127707 -62.597576 
L 433.660793 -62.597576 
L 434.19388 -62.597576 
L 434.726967 -62.597576 
L 435.260053 -62.597576 
L 435.79314 -62.597576 
L 436.326227 -62.597576 
L 436.859313 -62.597576 
L 437.3924 -62.597576 
L 437.925487 -62.597576 
L 438.458573 -62.597576 
L 438.99166 -62.597576 
L 439.524747 -62.597576 
L 440.057833 -62.597576 
L 440.59092 -62.597576 
L 441.124007 -62.597576 
L 441.657093 -62.597576 
L 442.19018 -62.597576 
L 442.723267 -62.597576 
L 443.256353 -62.597576 
L 443.78944 -62.597576 
L 444.322527 -62.597576 
L 444.855613 -62.597576 
L 445.3887 -62.597576 
L 445.921787 -62.597576 
L 446.454873 -62.597576 
L 446.98796 -62.597576 
L 447.521047 -62.597576 
L 448.054133 -62.597576 
L 448.58722 -62.597576 
L 449.120307 -62.597576 
L 449.653393 -62.597576 
L 450.18648 -62.597576 
L 450.719567 -62.597576 
L 451.252653 -62.597576 
L 451.78574 -62.597576 
L 452.318827 -62.597576 
L 452.851913 -62.597576 
L 453.385 -62.597576 
L 453.918087 -62.597576 
L 454.451173 -62.597576 
L 454.98426 -62.597576 
L 455.517347 -62.597576 
L 456.050433 -62.597576 
L 456.58352 -62.597576 
L 457.116607 -62.597576 
L 457.649693 -62.597576 
L 458.18278 -62.597576 
L 458.715867 -62.597576 
L 459.248953 -62.597576 
L 459.78204 -62.597576 
L 460.315127 -62.597576 
L 460.848213 -62.597576 
L 461.3813 -62.597576 
L 461.914387 -62.597576 
L 462.447473 -62.597576 
L 462.98056 -62.597576 
L 463.513647 -62.597576 
L 464.046733 -62.597576 
L 464.57982 -62.597576 
L 465.112907 -62.597576 
L 465.645993 -62.597576 
L 466.17908 -62.597576 
L 466.712167 -62.597576 
L 467.245253 -62.597576 
L 467.77834 -62.597576 
L 468.311427 -62.597576 
L 468.844513 -62.597576 
L 469.3776 -62.597576 
L 469.910687 -62.597576 
L 470.443773 -62.597576 
L 470.97686 -62.597576 
L 471.509947 -62.597576 
L 472.043033 -62.597576 
L 472.57612 -62.597576 
L 473.109207 -62.597576 
L 473.642293 -62.597576 
L 474.17538 -62.597576 
L 474.708467 -62.597576 
L 475.241553 -62.597576 
L 475.77464 -62.597576 
L 476.307727 -62.597576 
L 476.840813 -62.597576 
L 477.3739 -62.597576 
L 477.906987 -62.597576 
L 478.440073 -62.597576 
L 478.97316 -62.597576 
L 479.506247 -62.597576 
L 480.039333 -62.597576 
L 480.57242 -62.597576 
L 481.105507 -62.597576 
L 481.638593 -62.597576 
L 482.17168 -62.597576 
L 482.704767 -62.597576 
L 483.237853 -62.597576 
L 483.77094 -62.597576 
L 484.304027 -62.597576 
L 484.837113 -62.597576 
L 485.3702 -62.597576 
L 485.903287 -62.597576 
L 486.436373 -62.597576 
L 486.96946 -62.597576 
L 487.502547 -62.597576 
L 488.035633 -62.597576 
L 488.56872 -62.597576 
L 489.101807 -62.597576 
L 489.634893 -62.597576 
L 490.16798 -62.597576 
L 490.701067 -62.597576 
L 491.234153 -62.597576 
L 491.76724 -62.597576 
L 492.300327 -62.597576 
L 492.833413 -62.597576 
L 493.3665 -62.597576 
L 493.899587 -62.597576 
L 494.432673 -62.597576 
L 494.96576 -62.597576 
L 495.498847 -62.597576 
L 496.031933 -62.597576 
L 496.56502 -62.597576 
L 497.098107 -62.597576 
L 497.631193 -62.597576 
L 498.16428 -62.597576 
L 498.697367 -62.597576 
L 499.230453 -62.597576 
L 499.76354 -62.597576 
L 500.296627 -62.597576 
L 500.829713 -62.597576 
L 501.3628 -62.597576 
L 501.895887 -62.597576 
L 502.428973 -62.597576 
L 502.96206 -62.597576 
L 503.495147 -62.597576 
L 504.028233 -62.597576 
L 504.56132 -62.597576 
L 505.094407 -62.597576 
L 505.627493 -62.597576 
L 506.16058 -62.597576 
L 506.693667 -62.597576 
L 507.226753 -62.597576 
L 507.75984 -62.597576 
L 508.292927 -62.597576 
L 508.826013 -62.597576 
L 509.3591 -62.597576 
L 509.892187 -62.597576 
L 510.425273 -62.597576 
L 510.95836 -62.597576 
L 511.491447 -62.597576 
L 512.024533 -62.597576 
L 512.55762 -62.597576 
L 513.090707 -62.597576 
L 513.623793 -62.597576 
L 514.15688 -62.597576 
L 514.689967 -62.597576 
L 515.223053 -62.597576 
L 515.75614 -62.597576 
L 516.289227 -62.597576 
L 516.822313 -62.597576 
L 517.3554 -62.597576 
L 517.888487 -62.597576 
L 518.421573 -62.597576 
L 518.95466 -62.597576 
L 519.487747 -62.597576 
L 520.020833 -62.597576 
L 520.55392 -62.597576 
L 521.087007 -62.597576 
L 521.620093 -62.597576 
L 522.15318 -62.597576 
L 522.686267 -62.597576 
L 523.219353 -62.597576 
L 523.75244 -62.597576 
L 524.285527 -62.597576 
L 524.818613 -62.597576 
L 525.3517 -62.597576 
L 525.884787 -62.597576 
L 526.417873 -62.597576 
L 526.95096 -62.597576 
L 527.484047 -62.597576 
L 528.017133 -62.597576 
L 528.55022 -62.597576 
L 529.083307 -62.597576 
L 529.616393 -62.597576 
L 530.14948 -62.597576 
L 530.682567 -62.597576 
L 531.215653 -62.597576 
L 531.74874 -62.597576 
L 532.281827 -62.597576 
L 532.814913 -62.597576 
L 533.348 -62.597576 
L 533.881087 -62.597576 
L 534.414173 -62.597576 
L 534.94726 -62.597576 
L 534.94726 -523.802424 
L 534.94726 -523.802424 
L 534.414173 -523.802424 
L 533.881087 -523.802424 
L 533.348 -523.802424 
L 532.814913 -523.802424 
L 532.281827 -523.802424 
L 531.74874 -523.802424 
L 531.215653 -523.802424 
L 530.682567 -523.802424 
L 530.14948 -523.802424 
L 529.616393 -523.802424 
L 529.083307 -523.802424 
L 528.55022 -523.802424 
L 528.017133 -523.802424 
L 527.484047 -523.802424 
L 526.95096 -523.802424 
L 526.417873 -523.802424 
L 525.884787 -523.802424 
L 525.3517 -523.802424 
L 524.818613 -523.802424 
L 524.285527 -523.802424 
L 523.75244 -523.802424 
L 523.219353 -523.802424 
L 522.686267 -523.802424 
L 522.15318 -523.802424 
L 521.620093 -523.802424 
L 521.087007 -523.802424 
L 520.55392 -523.802424 
L 520.020833 -523.802424 
L 519.487747 -523.802424 
L 518.95466 -523.802424 
L 518.421573 -523.802424 
L 517.888487 -523.802424 
L 517.3554 -523.802424 
L 516.822313 -523.802424 
L 516.289227 -523.802424 
L 515.75614 -523.802424 
L 515.223053 -523.802424 
L 514.689967 -523.802424 
L 514.15688 -523.802424 
L 513.623793 -523.802424 
L 513.090707 -523.802424 
L 512.55762 -523.802424 
L 512.024533 -523.802424 
L 511.491447 -523.802424 
L 510.95836 -523.802424 
L 510.425273 -523.802424 
L 509.892187 -523.802424 
L 509.3591 -523.802424 
L 508.826013 -523.802424 
L 508.292927 -523.802424 
L 507.75984 -523.802424 
L 507.226753 -523.802424 
L 506.693667 -523.802424 
L 506.16058 -523.802424 
L 505.627493 -523.802424 
L 505.094407 -523.802424 
L 504.56132 -523.802424 
L 504.028233 -523.802424 
L 503.495147 -523.802424 
L 502.96206 -523.802424 
L 502.428973 -523.802424 
L 501.895887 -523.802424 
L 501.3628 -523.802424 
L 500.829713 -523.802424 
L 500.296627 -523.802424 
L 499.76354 -523.802424 
L 499.230453 -523.802424 
L 498.697367 -523.802424 
L 498.16428 -523.802424 
L 497.631193 -523.802424 
L 497.098107 -523.802424 
L 496.56502 -523.802424 
L 496.031933 -523.802424 
L 495.498847 -523.802424 
L 494.96576 -523.802424 
L 494.432673 -523.802424 
L 493.899587 -523.802424 
L 493.3665 -523.802424 
L 492.833413 -523.802424 
L 492.300327 -523.802424 
L 491.76724 -523.802424 
L 491.234153 -523.802424 
L 490.701067 -523.802424 
L 490.16798 -523.802424 
L 489.634893 -523.802424 
L 489.101807 -523.802424 
L 488.56872 -523.802424 
L 488.035633 -523.802424 
L 487.502547 -523.802424 
L 486.96946 -523.802424 
L 486.436373 -523.802424 
L 485.903287 -523.802424 
L 485.3702 -523.802424 
L 484.837113 -523.802424 
L 484.304027 -523.802424 
L 483.77094 -523.802424 
L 483.237853 -523.802424 
L 482.704767 -523.802424 
L 482.17168 -523.802424 
L 481.638593 -523.802424 
L 481.105507 -523.802424 
L 480.57242 -523.802424 
L 480.039333 -523.802424 
L 479.506247 -523.802424 
L 478.97316 -523.802424 
L 478.440073 -523.802424 
L 477.906987 -523.802424 
L 477.3739 -523.802424 
L 476.840813 -523.802424 
L 476.307727 -523.802424 
L 475.77464 -523.802424 
L 475.241553 -523.802424 
L 474.708467 -523.802424 
L 474.17538 -523.802424 
L 473.642293 -523.802424 
L 473.109207 -523.802424 
L 472.57612 -523.802424 
L 472.043033 -523.802424 
L 471.509947 -523.802424 
L 470.97686 -523.802424 
L 470.443773 -523.802424 
L 469.910687 -523.802424 
L 469.3776 -523.802424 
L 468.844513 -523.802424 
L 468.311427 -523.802424 
L 467.77834 -523.802424 
L 467.245253 -523.802424 
L 466.712167 -523.802424 
L 466.17908 -523.802424 
L 465.645993 -523.802424 
L 465.112907 -523.802424 
L 464.57982 -523.802424 
L 464.046733 -523.802424 
L 463.513647 -523.802424 
L 462.98056 -523.802424 
L 462.447473 -523.802424 
L 461.914387 -523.802424 
L 461.3813 -523.802424 
L 460.848213 -523.802424 
L 460.315127 -523.802424 
L 459.78204 -523.802424 
L 459.248953 -523.802424 
L 458.715867 -523.802424 
L 458.18278 -523.802424 
L 457.649693 -523.802424 
L 457.116607 -523.802424 
L 456.58352 -523.802424 
L 456.050433 -523.802424 
L 455.517347 -523.802424 
L 454.98426 -523.802424 
L 454.451173 -523.802424 
L 453.918087 -523.802424 
L 453.385 -523.802424 
L 452.851913 -523.802424 
L 452.318827 -523.802424 
L 451.78574 -523.802424 
L 451.252653 -523.802424 
L 450.719567 -523.802424 
L 450.18648 -523.802424 
L 449.653393 -523.802424 
L 449.120307 -523.802424 
L 448.58722 -523.802424 
L 448.054133 -523.802424 
L 447.521047 -523.802424 
L 446.98796 -523.802424 
L 446.454873 -523.802424 
L 445.921787 -523.802424 
L 445.3887 -523.802424 
L 444.855613 -523.802424 
L 444.322527 -523.802424 
L 443.78944 -523.802424 
L 443.256353 -523.802424 
L 442.723267 -523.802424 
L 442.19018 -523.802424 
L 441.657093 -523.802424 
L 441.124007 -523.802424 
L 440.59092 -523.802424 
L 440.057833 -523.802424 
L 439.524747 -523.802424 
L 438.99166 -523.802424 
L 438.458573 -523.802424 
L 437.925487 -523.802424 
L 437.3924 -523.802424 
L 436.859313 -523.802424 
L 436.326227 -523.802424 
L 435.79314 -523.802424 
L 435.260053 -523.802424 
L 434.726967 -523.802424 
L 434.19388 -523.802424 
L 433.660793 -523.802424 
L 433.127707 -523.802424 
L 432.59462 -523.802424 
L 432.061533 -523.802424 
L 431.528447 -523.802424 
L 430.99536 -523.802424 
L 430.462273 -523.802424 
L 429.929187 -523.802424 
L 429.3961 -523.802424 
L 428.863013 -523.802424 
L 428.329927 -523.802424 
L 427.79684 -523.802424 
L 427.263753 -523.802424 
L 426.730667 -523.802424 
L 426.19758 -523.802424 
L 425.664493 -523.802424 
L 425.131407 -523.802424 
L 424.59832 -523.802424 
L 424.065233 -523.802424 
L 423.532147 -523.802424 
L 422.99906 -523.802424 
L 422.465973 -523.802424 
L 421.932887 -523.802424 
L 421.3998 -523.802424 
z
" style="stroke: #808080; stroke-opacity: 0.15"/>
    </defs>
    <g clip-path="url(#p260f974608)">
     <use xlink:href="#mfe8f2e1e1e" x="0" y="576" style="fill: #808080; fill-opacity: 0.15; stroke: #808080; stroke-opacity: 0.15"/>
    </g>
   </g>
   <g id="matplotlib.axis_1">
    <g id="xtick_1">
     <g id="line2d_1">
      <path d="M 53.57 528.28 
L 53.57 37.32 
" clip-path="url(#p260f974608)" style="fill: none; stroke-dasharray: 2.96,1.28; stroke-dashoffset: 0; stroke: #b0b0b0; stroke-opacity: 0.5; stroke-width: 0.8"/>
     </g>
     <g id="line2d_2">
      <defs>
       <path id="me67175aacc" d="M 0 0 
L 0 3.5 
" style="stroke: #000000; stroke-width: 0.8"/>
      </defs>
      <g>
       <use xlink:href="#me67175aacc" x="53.57" y="528.28" style="stroke: #000000; stroke-width: 0.8"/>
      </g>
     </g>
     <g id="text_1">
      <!-- 0.0 -->
      <g transform="translate(45.618438 542.878438) scale(0.1 -0.1)">
       <defs>
        <path id="DejaVuSans-30" d="M 2034 4250 
Q 1547 4250 1301 3770 
Q 1056 3291 1056 2328 
Q 1056 1369 1301 889 
Q 1547 409 2034 409 
Q 2525 409 2770 889 
Q 3016 1369 3016 2328 
Q 3016 3291 2770 3770 
Q 2525 4250 2034 4250 
z
M 2034 4750 
Q 2819 4750 3233 4129 
Q 3647 3509 3647 2328 
Q 3647 1150 3233 529 
Q 2819 -91 2034 -91 
Q 1250 -91 836 529 
Q 422 1150 422 2328 
Q 422 3509 836 4129 
Q 1250 4750 2034 4750 
z
" transform="scale(0.015625)"/>
        <path id="DejaVuSans-2e" d="M 684 794 
L 1344 794 
L 1344 0 
L 684 0 
L 684 794 
z
" transform="scale(0.015625)"/>
       </defs>
       <use xlink:href="#DejaVuSans-30"/>
       <use xlink:href="#DejaVuSans-2e" transform="translate(63.623047 0)"/>
       <use xlink:href="#DejaVuSans-30" transform="translate(95.410156 0)"/>
      </g>
     </g>
    </g>
    <g id="xtick_2">
     <g id="line2d_3">
      <path d="M 160.187333 528.28 
L 160.187333 37.32 
" clip-path="url(#p260f974608)" style="fill: none; stroke-dasharray: 2.96,1.28; stroke-dashoffset: 0; stroke: #b0b0b0; stroke-opacity: 0.5; stroke-width: 0.8"/>
     </g>
     <g id="line2d_4">
      <g>
       <use xlink:href="#me67175aacc" x="160.187333" y="528.28" style="stroke: #000000; stroke-width: 0.8"/>
      </g>
     </g>
     <g id="text_2">
      <!-- 0.2 -->
      <g transform="translate(152.235771 542.878438) scale(0.1 -0.1)">
       <defs>
        <path id="DejaVuSans-32" d="M 1228 531 
L 3431 531 
L 3431 0 
L 469 0 
L 469 531 
Q 828 903 1448 1529 
Q 2069 2156 2228 2338 
Q 2531 2678 2651 2914 
Q 2772 3150 2772 3378 
Q 2772 3750 2511 3984 
Q 2250 4219 1831 4219 
Q 1534 4219 1204 4116 
Q 875 4013 500 3803 
L 500 4441 
Q 881 4594 1212 4672 
Q 1544 4750 1819 4750 
Q 2544 4750 2975 4387 
Q 3406 4025 3406 3419 
Q 3406 3131 3298 2873 
Q 3191 2616 2906 2266 
Q 2828 2175 2409 1742 
Q 1991 1309 1228 531 
z
" transform="scale(0.015625)"/>
       </defs>
       <use xlink:href="#DejaVuSans-30"/>
       <use xlink:href="#DejaVuSans-2e" transform="translate(63.623047 0)"/>
       <use xlink:href="#DejaVuSans-32" transform="translate(95.410156 0)"/>
      </g>
     </g>
    </g>
    <g id="xtick_3">
     <g id="line2d_5">
      <path d="M 266.804667 528.28 
L 266.804667 37.32 
" clip-path="url(#p260f974608)" style="fill: none; stroke-dasharray: 2.96,1.28; stroke-dashoffset: 0; stroke: #b0b0b0; stroke-opacity: 0.5; stroke-width: 0.8"/>
     </g>
     <g id="line2d_6">
      <g>
       <use xlink:href="#me67175aacc" x="266.804667" y="528.28" style="stroke: #000000; stroke-width: 0.8"/>
      </g>
     </g>
     <g id="text_3">
      <!-- 0.4 -->
      <g transform="translate(258.853104 542.878438) scale(0.1 -0.1)">
       <defs>
        <path id="DejaVuSans-34" d="M 2419 4116 
L 825 1625 
L 2419 1625 
L 2419 4116 
z
M 2253 4666 
L 3047 4666 
L 3047 1625 
L 3713 1625 
L 3713 1100 
L 3047 1100 
L 3047 0 
L 2419 0 
L 2419 1100 
L 313 1100 
L 313 1709 
L 2253 4666 
z
" transform="scale(0.015625)"/>
       </defs>
       <use xlink:href="#DejaVuSans-30"/>
       <use xlink:href="#DejaVuSans-2e" transform="translate(63.623047 0)"/>
       <use xlink:href="#DejaVuSans-34" transform="translate(95.410156 0)"/>
      </g>
     </g>
    </g>
    <g id="xtick_4">
     <g id="line2d_7">
      <path d="M 373.422 528.28 
L 373.422 37.32 
" clip-path="url(#p260f974608)" style="fill: none; stroke-dasharray: 2.96,1.28; stroke-dashoffset: 0; stroke: #b0b0b0; stroke-opacity: 0.5; stroke-width: 0.8"/>
     </g>
     <g id="line2d_8">
      <g>
       <use xlink:href="#me67175aacc" x="373.422" y="528.28" style="stroke: #000000; stroke-width: 0.8"/>
      </g>
     </g>
     <g id="text_4">
      <!-- 0.6 -->
      <g transform="translate(365.470437 542.878438) scale(0.1 -0.1)">
       <defs>
        <path id="DejaVuSans-36" d="M 2113 2584 
Q 1688 2584 1439 2293 
Q 1191 2003 1191 1497 
Q 1191 994 1439 701 
Q 1688 409 2113 409 
Q 2538 409 2786 701 
Q 3034 994 3034 1497 
Q 3034 2003 2786 2293 
Q 2538 2584 2113 2584 
z
M 3366 4563 
L 3366 3988 
Q 3128 4100 2886 4159 
Q 2644 4219 2406 4219 
Q 1781 4219 1451 3797 
Q 1122 3375 1075 2522 
Q 1259 2794 1537 2939 
Q 1816 3084 2150 3084 
Q 2853 3084 3261 2657 
Q 3669 2231 3669 1497 
Q 3669 778 3244 343 
Q 2819 -91 2113 -91 
Q 1303 -91 875 529 
Q 447 1150 447 2328 
Q 447 3434 972 4092 
Q 1497 4750 2381 4750 
Q 2619 4750 2861 4703 
Q 3103 4656 3366 4563 
z
" transform="scale(0.015625)"/>
       </defs>
       <use xlink:href="#DejaVuSans-30"/>
       <use xlink:href="#DejaVuSans-2e" transform="translate(63.623047 0)"/>
       <use xlink:href="#DejaVuSans-36" transform="translate(95.410156 0)"/>
      </g>
     </g>
    </g>
    <g id="xtick_5">
     <g id="line2d_9">
      <path d="M 480.039333 528.28 
L 480.039333 37.32 
" clip-path="url(#p260f974608)" style="fill: none; stroke-dasharray: 2.96,1.28; stroke-dashoffset: 0; stroke: #b0b0b0; stroke-opacity: 0.5; stroke-width: 0.8"/>
     </g>
     <g id="line2d_10">
      <g>
       <use xlink:href="#me67175aacc" x="480.039333" y="528.28" style="stroke: #000000; stroke-width: 0.8"/>
      </g>
     </g>
     <g id="text_5">
      <!-- 0.8 -->
      <g transform="translate(472.087771 542.878438) scale(0.1 -0.1)">
       <defs>
        <path id="DejaVuSans-38" d="M 2034 2216 
Q 1584 2216 1326 1975 
Q 1069 1734 1069 1313 
Q 1069 891 1326 650 
Q 1584 409 2034 409 
Q 2484 409 2743 651 
Q 3003 894 3003 1313 
Q 3003 1734 2745 1975 
Q 2488 2216 2034 2216 
z
M 1403 2484 
Q 997 2584 770 2862 
Q 544 3141 544 3541 
Q 544 4100 942 4425 
Q 1341 4750 2034 4750 
Q 2731 4750 3128 4425 
Q 3525 4100 3525 3541 
Q 3525 3141 3298 2862 
Q 3072 2584 2669 2484 
Q 3125 2378 3379 2068 
Q 3634 1759 3634 1313 
Q 3634 634 3220 271 
Q 2806 -91 2034 -91 
Q 1263 -91 848 271 
Q 434 634 434 1313 
Q 434 1759 690 2068 
Q 947 2378 1403 2484 
z
M 1172 3481 
Q 1172 3119 1398 2916 
Q 1625 2713 2034 2713 
Q 2441 2713 2670 2916 
Q 2900 3119 2900 3481 
Q 2900 3844 2670 4047 
Q 2441 4250 2034 4250 
Q 1625 4250 1398 4047 
Q 1172 3844 1172 3481 
z
" transform="scale(0.015625)"/>
       </defs>
       <use xlink:href="#DejaVuSans-30"/>
       <use xlink:href="#DejaVuSans-2e" transform="translate(63.623047 0)"/>
       <use xlink:href="#DejaVuSans-38" transform="translate(95.410156 0)"/>
      </g>
     </g>
    </g>
    <g id="xtick_6">
     <g id="line2d_11">
      <path d="M 586.656667 528.28 
L 586.656667 37.32 
" clip-path="url(#p260f974608)" style="fill: none; stroke-dasharray: 2.96,1.28; stroke-dashoffset: 0; stroke: #b0b0b0; stroke-opacity: 0.5; stroke-width: 0.8"/>
     </g>
     <g id="line2d_12">
      <g>
       <use xlink:href="#me67175aacc" x="586.656667" y="528.28" style="stroke: #000000; stroke-width: 0.8"/>
      </g>
     </g>
     <g id="text_6">
      <!-- 1.0 -->
      <g transform="translate(578.705104 542.878438) scale(0.1 -0.1)">
       <defs>
        <path id="DejaVuSans-31" d="M 794 531 
L 1825 531 
L 1825 4091 
L 703 3866 
L 703 4441 
L 1819 4666 
L 2450 4666 
L 2450 531 
L 3481 531 
L 3481 0 
L 794 0 
L 794 531 
z
" transform="scale(0.015625)"/>
       </defs>
       <use xlink:href="#DejaVuSans-31"/>
       <use xlink:href="#DejaVuSans-2e" transform="translate(63.623047 0)"/>
       <use xlink:href="#DejaVuSans-30" transform="translate(95.410156 0)"/>
      </g>
     </g>
    </g>
    <g id="xtick_7">
     <g id="line2d_13">
      <path d="M 693.274 528.28 
L 693.274 37.32 
" clip-path="url(#p260f974608)" style="fill: none; stroke-dasharray: 2.96,1.28; stroke-dashoffset: 0; stroke: #b0b0b0; stroke-opacity: 0.5; stroke-width: 0.8"/>
     </g>
     <g id="line2d_14">
      <g>
       <use xlink:href="#me67175aacc" x="693.274" y="528.28" style="stroke: #000000; stroke-width: 0.8"/>
      </g>
     </g>
     <g id="text_7">
      <!-- 1.2 -->
      <g transform="translate(685.322437 542.878438) scale(0.1 -0.1)">
       <use xlink:href="#DejaVuSans-31"/>
       <use xlink:href="#DejaVuSans-2e" transform="translate(63.623047 0)"/>
       <use xlink:href="#DejaVuSans-32" transform="translate(95.410156 0)"/>
      </g>
     </g>
    </g>
    <g id="xtick_8">
     <g id="line2d_15">
      <path d="M 799.891333 528.28 
L 799.891333 37.32 
" clip-path="url(#p260f974608)" style="fill: none; stroke-dasharray: 2.96,1.28; stroke-dashoffset: 0; stroke: #b0b0b0; stroke-opacity: 0.5; stroke-width: 0.8"/>
     </g>
     <g id="line2d_16">
      <g>
       <use xlink:href="#me67175aacc" x="799.891333" y="528.28" style="stroke: #000000; stroke-width: 0.8"/>
      </g>
     </g>
     <g id="text_8">
      <!-- 1.4 -->
      <g transform="translate(791.939771 542.878438) scale(0.1 -0.1)">
       <use xlink:href="#DejaVuSans-31"/>
       <use xlink:href="#DejaVuSans-2e" transform="translate(63.623047 0)"/>
       <use xlink:href="#DejaVuSans-34" transform="translate(95.410156 0)"/>
      </g>
     </g>
    </g>
    <g id="text_9">
     <!-- Ulazni napon $V_I$ [V] -->
     <g transform="translate(396.205 558.078125) scale(0.12 -0.12)">
      <defs>
       <path id="DejaVuSans-55" d="M 556 4666 
L 1191 4666 
L 1191 1831 
Q 1191 1081 1462 751 
Q 1734 422 2344 422 
Q 2950 422 3222 751 
Q 3494 1081 3494 1831 
L 3494 4666 
L 4128 4666 
L 4128 1753 
Q 4128 841 3676 375 
Q 3225 -91 2344 -91 
Q 1459 -91 1007 375 
Q 556 841 556 1753 
L 556 4666 
z
" transform="scale(0.015625)"/>
       <path id="DejaVuSans-6c" d="M 603 4863 
L 1178 4863 
L 1178 0 
L 603 0 
L 603 4863 
z
" transform="scale(0.015625)"/>
       <path id="DejaVuSans-61" d="M 2194 1759 
Q 1497 1759 1228 1600 
Q 959 1441 959 1056 
Q 959 750 1161 570 
Q 1363 391 1709 391 
Q 2188 391 2477 730 
Q 2766 1069 2766 1631 
L 2766 1759 
L 2194 1759 
z
M 3341 1997 
L 3341 0 
L 2766 0 
L 2766 531 
Q 2569 213 2275 61 
Q 1981 -91 1556 -91 
Q 1019 -91 701 211 
Q 384 513 384 1019 
Q 384 1609 779 1909 
Q 1175 2209 1959 2209 
L 2766 2209 
L 2766 2266 
Q 2766 2663 2505 2880 
Q 2244 3097 1772 3097 
Q 1472 3097 1187 3025 
Q 903 2953 641 2809 
L 641 3341 
Q 956 3463 1253 3523 
Q 1550 3584 1831 3584 
Q 2591 3584 2966 3190 
Q 3341 2797 3341 1997 
z
" transform="scale(0.015625)"/>
       <path id="DejaVuSans-7a" d="M 353 3500 
L 3084 3500 
L 3084 2975 
L 922 459 
L 3084 459 
L 3084 0 
L 275 0 
L 275 525 
L 2438 3041 
L 353 3041 
L 353 3500 
z
" transform="scale(0.015625)"/>
       <path id="DejaVuSans-6e" d="M 3513 2113 
L 3513 0 
L 2938 0 
L 2938 2094 
Q 2938 2591 2744 2837 
Q 2550 3084 2163 3084 
Q 1697 3084 1428 2787 
Q 1159 2491 1159 1978 
L 1159 0 
L 581 0 
L 581 3500 
L 1159 3500 
L 1159 2956 
Q 1366 3272 1645 3428 
Q 1925 3584 2291 3584 
Q 2894 3584 3203 3211 
Q 3513 2838 3513 2113 
z
" transform="scale(0.015625)"/>
       <path id="DejaVuSans-69" d="M 603 3500 
L 1178 3500 
L 1178 0 
L 603 0 
L 603 3500 
z
M 603 4863 
L 1178 4863 
L 1178 4134 
L 603 4134 
L 603 4863 
z
" transform="scale(0.015625)"/>
       <path id="DejaVuSans-20" transform="scale(0.015625)"/>
       <path id="DejaVuSans-70" d="M 1159 525 
L 1159 -1331 
L 581 -1331 
L 581 3500 
L 1159 3500 
L 1159 2969 
Q 1341 3281 1617 3432 
Q 1894 3584 2278 3584 
Q 2916 3584 3314 3078 
Q 3713 2572 3713 1747 
Q 3713 922 3314 415 
Q 2916 -91 2278 -91 
Q 1894 -91 1617 61 
Q 1341 213 1159 525 
z
M 3116 1747 
Q 3116 2381 2855 2742 
Q 2594 3103 2138 3103 
Q 1681 3103 1420 2742 
Q 1159 2381 1159 1747 
Q 1159 1113 1420 752 
Q 1681 391 2138 391 
Q 2594 391 2855 752 
Q 3116 1113 3116 1747 
z
" transform="scale(0.015625)"/>
       <path id="DejaVuSans-6f" d="M 1959 3097 
Q 1497 3097 1228 2736 
Q 959 2375 959 1747 
Q 959 1119 1226 758 
Q 1494 397 1959 397 
Q 2419 397 2687 759 
Q 2956 1122 2956 1747 
Q 2956 2369 2687 2733 
Q 2419 3097 1959 3097 
z
M 1959 3584 
Q 2709 3584 3137 3096 
Q 3566 2609 3566 1747 
Q 3566 888 3137 398 
Q 2709 -91 1959 -91 
Q 1206 -91 779 398 
Q 353 888 353 1747 
Q 353 2609 779 3096 
Q 1206 3584 1959 3584 
z
" transform="scale(0.015625)"/>
       <path id="DejaVuSans-Oblique-56" d="M 1319 0 
L 500 4666 
L 1119 4666 
L 1797 653 
L 4063 4666 
L 4750 4666 
L 2053 0 
L 1319 0 
z
" transform="scale(0.015625)"/>
       <path id="DejaVuSans-Oblique-49" d="M 1081 4666 
L 1716 4666 
L 806 0 
L 172 0 
L 1081 4666 
z
" transform="scale(0.015625)"/>
       <path id="DejaVuSans-5b" d="M 550 4863 
L 1875 4863 
L 1875 4416 
L 1125 4416 
L 1125 -397 
L 1875 -397 
L 1875 -844 
L 550 -844 
L 550 4863 
z
" transform="scale(0.015625)"/>
       <path id="DejaVuSans-56" d="M 1831 0 
L 50 4666 
L 709 4666 
L 2188 738 
L 3669 4666 
L 4325 4666 
L 2547 0 
L 1831 0 
z
" transform="scale(0.015625)"/>
       <path id="DejaVuSans-5d" d="M 1947 4863 
L 1947 -844 
L 622 -844 
L 622 -397 
L 1369 -397 
L 1369 4416 
L 622 4416 
L 622 4863 
L 1947 4863 
z
" transform="scale(0.015625)"/>
      </defs>
      <use xlink:href="#DejaVuSans-55" transform="translate(0 0.015625)"/>
      <use xlink:href="#DejaVuSans-6c" transform="translate(73.193359 0.015625)"/>
      <use xlink:href="#DejaVuSans-61" transform="translate(100.976562 0.015625)"/>
      <use xlink:href="#DejaVuSans-7a" transform="translate(162.255859 0.015625)"/>
      <use xlink:href="#DejaVuSans-6e" transform="translate(214.746094 0.015625)"/>
      <use xlink:href="#DejaVuSans-69" transform="translate(278.125 0.015625)"/>
      <use xlink:href="#DejaVuSans-20" transform="translate(305.908203 0.015625)"/>
      <use xlink:href="#DejaVuSans-6e" transform="translate(337.695312 0.015625)"/>
      <use xlink:href="#DejaVuSans-61" transform="translate(401.074219 0.015625)"/>
      <use xlink:href="#DejaVuSans-70" transform="translate(462.353516 0.015625)"/>
      <use xlink:href="#DejaVuSans-6f" transform="translate(525.830078 0.015625)"/>
      <use xlink:href="#DejaVuSans-6e" transform="translate(587.011719 0.015625)"/>
      <use xlink:href="#DejaVuSans-20" transform="translate(650.390625 0.015625)"/>
      <use xlink:href="#DejaVuSans-Oblique-56" transform="translate(682.177734 0.015625)"/>
      <use xlink:href="#DejaVuSans-Oblique-49" transform="translate(750.585938 -16.390625) scale(0.7)"/>
      <use xlink:href="#DejaVuSans-20" transform="translate(773.964844 0.015625)"/>
      <use xlink:href="#DejaVuSans-5b" transform="translate(805.751953 0.015625)"/>
      <use xlink:href="#DejaVuSans-56" transform="translate(844.765625 0.015625)"/>
      <use xlink:href="#DejaVuSans-5d" transform="translate(913.173828 0.015625)"/>
     </g>
    </g>
   </g>
   <g id="matplotlib.axis_2">
    <g id="ytick_1">
     <g id="line2d_17">
      <path d="M 53.57 513.402424 
L 853.2 513.402424 
" clip-path="url(#p260f974608)" style="fill: none; stroke-dasharray: 2.96,1.28; stroke-dashoffset: 0; stroke: #b0b0b0; stroke-opacity: 0.5; stroke-width: 0.8"/>
     </g>
     <g id="line2d_18">
      <defs>
       <path id="m7d382158ee" d="M 0 0 
L -3.5 0 
" style="stroke: #000000; stroke-width: 0.8"/>
      </defs>
      <g>
       <use xlink:href="#m7d382158ee" x="53.57" y="513.402424" style="stroke: #000000; stroke-width: 0.8"/>
      </g>
     </g>
     <g id="text_10">
      <!-- 0.0 -->
      <g transform="translate(30.666875 517.201643) scale(0.1 -0.1)">
       <use xlink:href="#DejaVuSans-30"/>
       <use xlink:href="#DejaVuSans-2e" transform="translate(63.623047 0)"/>
       <use xlink:href="#DejaVuSans-30" transform="translate(95.410156 0)"/>
      </g>
     </g>
    </g>
    <g id="ytick_2">
     <g id="line2d_19">
      <path d="M 53.57 453.892121 
L 853.2 453.892121 
" clip-path="url(#p260f974608)" style="fill: none; stroke-dasharray: 2.96,1.28; stroke-dashoffset: 0; stroke: #b0b0b0; stroke-opacity: 0.5; stroke-width: 0.8"/>
     </g>
     <g id="line2d_20">
      <g>
       <use xlink:href="#m7d382158ee" x="53.57" y="453.892121" style="stroke: #000000; stroke-width: 0.8"/>
      </g>
     </g>
     <g id="text_11">
      <!-- 0.2 -->
      <g transform="translate(30.666875 457.69134) scale(0.1 -0.1)">
       <use xlink:href="#DejaVuSans-30"/>
       <use xlink:href="#DejaVuSans-2e" transform="translate(63.623047 0)"/>
       <use xlink:href="#DejaVuSans-32" transform="translate(95.410156 0)"/>
      </g>
     </g>
    </g>
    <g id="ytick_3">
     <g id="line2d_21">
      <path d="M 53.57 394.381818 
L 853.2 394.381818 
" clip-path="url(#p260f974608)" style="fill: none; stroke-dasharray: 2.96,1.28; stroke-dashoffset: 0; stroke: #b0b0b0; stroke-opacity: 0.5; stroke-width: 0.8"/>
     </g>
     <g id="line2d_22">
      <g>
       <use xlink:href="#m7d382158ee" x="53.57" y="394.381818" style="stroke: #000000; stroke-width: 0.8"/>
      </g>
     </g>
     <g id="text_12">
      <!-- 0.4 -->
      <g transform="translate(30.666875 398.181037) scale(0.1 -0.1)">
       <use xlink:href="#DejaVuSans-30"/>
       <use xlink:href="#DejaVuSans-2e" transform="translate(63.623047 0)"/>
       <use xlink:href="#DejaVuSans-34" transform="translate(95.410156 0)"/>
      </g>
     </g>
    </g>
    <g id="ytick_4">
     <g id="line2d_23">
      <path d="M 53.57 334.871515 
L 853.2 334.871515 
" clip-path="url(#p260f974608)" style="fill: none; stroke-dasharray: 2.96,1.28; stroke-dashoffset: 0; stroke: #b0b0b0; stroke-opacity: 0.5; stroke-width: 0.8"/>
     </g>
     <g id="line2d_24">
      <g>
       <use xlink:href="#m7d382158ee" x="53.57" y="334.871515" style="stroke: #000000; stroke-width: 0.8"/>
      </g>
     </g>
     <g id="text_13">
      <!-- 0.6 -->
      <g transform="translate(30.666875 338.670734) scale(0.1 -0.1)">
       <use xlink:href="#DejaVuSans-30"/>
       <use xlink:href="#DejaVuSans-2e" transform="translate(63.623047 0)"/>
       <use xlink:href="#DejaVuSans-36" transform="translate(95.410156 0)"/>
      </g>
     </g>
    </g>
    <g id="ytick_5">
     <g id="line2d_25">
      <path d="M 53.57 275.361212 
L 853.2 275.361212 
" clip-path="url(#p260f974608)" style="fill: none; stroke-dasharray: 2.96,1.28; stroke-dashoffset: 0; stroke: #b0b0b0; stroke-opacity: 0.5; stroke-width: 0.8"/>
     </g>
     <g id="line2d_26">
      <g>
       <use xlink:href="#m7d382158ee" x="53.57" y="275.361212" style="stroke: #000000; stroke-width: 0.8"/>
      </g>
     </g>
     <g id="text_14">
      <!-- 0.8 -->
      <g transform="translate(30.666875 279.160431) scale(0.1 -0.1)">
       <use xlink:href="#DejaVuSans-30"/>
       <use xlink:href="#DejaVuSans-2e" transform="translate(63.623047 0)"/>
       <use xlink:href="#DejaVuSans-38" transform="translate(95.410156 0)"/>
      </g>
     </g>
    </g>
    <g id="ytick_6">
     <g id="line2d_27">
      <path d="M 53.57 215.850909 
L 853.2 215.850909 
" clip-path="url(#p260f974608)" style="fill: none; stroke-dasharray: 2.96,1.28; stroke-dashoffset: 0; stroke: #b0b0b0; stroke-opacity: 0.5; stroke-width: 0.8"/>
     </g>
     <g id="line2d_28">
      <g>
       <use xlink:href="#m7d382158ee" x="53.57" y="215.850909" style="stroke: #000000; stroke-width: 0.8"/>
      </g>
     </g>
     <g id="text_15">
      <!-- 1.0 -->
      <g transform="translate(30.666875 219.650128) scale(0.1 -0.1)">
       <use xlink:href="#DejaVuSans-31"/>
       <use xlink:href="#DejaVuSans-2e" transform="translate(63.623047 0)"/>
       <use xlink:href="#DejaVuSans-30" transform="translate(95.410156 0)"/>
      </g>
     </g>
    </g>
    <g id="ytick_7">
     <g id="line2d_29">
      <path d="M 53.57 156.340606 
L 853.2 156.340606 
" clip-path="url(#p260f974608)" style="fill: none; stroke-dasharray: 2.96,1.28; stroke-dashoffset: 0; stroke: #b0b0b0; stroke-opacity: 0.5; stroke-width: 0.8"/>
     </g>
     <g id="line2d_30">
      <g>
       <use xlink:href="#m7d382158ee" x="53.57" y="156.340606" style="stroke: #000000; stroke-width: 0.8"/>
      </g>
     </g>
     <g id="text_16">
      <!-- 1.2 -->
      <g transform="translate(30.666875 160.139825) scale(0.1 -0.1)">
       <use xlink:href="#DejaVuSans-31"/>
       <use xlink:href="#DejaVuSans-2e" transform="translate(63.623047 0)"/>
       <use xlink:href="#DejaVuSans-32" transform="translate(95.410156 0)"/>
      </g>
     </g>
    </g>
    <g id="ytick_8">
     <g id="line2d_31">
      <path d="M 53.57 96.830303 
L 853.2 96.830303 
" clip-path="url(#p260f974608)" style="fill: none; stroke-dasharray: 2.96,1.28; stroke-dashoffset: 0; stroke: #b0b0b0; stroke-opacity: 0.5; stroke-width: 0.8"/>
     </g>
     <g id="line2d_32">
      <g>
       <use xlink:href="#m7d382158ee" x="53.57" y="96.830303" style="stroke: #000000; stroke-width: 0.8"/>
      </g>
     </g>
     <g id="text_17">
      <!-- 1.4 -->
      <g transform="translate(30.666875 100.629522) scale(0.1 -0.1)">
       <use xlink:href="#DejaVuSans-31"/>
       <use xlink:href="#DejaVuSans-2e" transform="translate(63.623047 0)"/>
       <use xlink:href="#DejaVuSans-34" transform="translate(95.410156 0)"/>
      </g>
     </g>
    </g>
    <g id="ytick_9">
     <g id="line2d_33">
      <path d="M 53.57 37.32 
L 853.2 37.32 
" clip-path="url(#p260f974608)" style="fill: none; stroke-dasharray: 2.96,1.28; stroke-dashoffset: 0; stroke: #b0b0b0; stroke-opacity: 0.5; stroke-width: 0.8"/>
     </g>
     <g id="line2d_34">
      <g>
       <use xlink:href="#m7d382158ee" x="53.57" y="37.32" style="stroke: #000000; stroke-width: 0.8"/>
      </g>
     </g>
     <g id="text_18">
      <!-- 1.6 -->
      <g transform="translate(30.666875 41.119219) scale(0.1 -0.1)">
       <use xlink:href="#DejaVuSans-31"/>
       <use xlink:href="#DejaVuSans-2e" transform="translate(63.623047 0)"/>
       <use xlink:href="#DejaVuSans-36" transform="translate(95.410156 0)"/>
      </g>
     </g>
    </g>
    <g id="text_19">
     <!-- Izlazni napon $V_O$ [V] -->
     <g transform="translate(24.146875 342.56) rotate(-90) scale(0.12 -0.12)">
      <defs>
       <path id="DejaVuSans-49" d="M 628 4666 
L 1259 4666 
L 1259 0 
L 628 0 
L 628 4666 
z
" transform="scale(0.015625)"/>
       <path id="DejaVuSans-Oblique-4f" d="M 2919 4238 
Q 2400 4238 2003 3986 
Q 1606 3734 1313 3219 
Q 1125 2891 1026 2522 
Q 928 2153 928 1778 
Q 928 1128 1239 775 
Q 1550 422 2119 422 
Q 2631 422 3032 676 
Q 3434 931 3719 1434 
Q 3909 1772 4009 2142 
Q 4109 2513 4109 2881 
Q 4109 3528 3796 3883 
Q 3484 4238 2919 4238 
z
M 2100 -91 
Q 1241 -91 748 418 
Q 256 928 256 1813 
Q 256 2319 448 2847 
Q 641 3375 978 3788 
Q 1375 4272 1862 4511 
Q 2350 4750 2938 4750 
Q 3794 4750 4287 4245 
Q 4781 3741 4781 2869 
Q 4781 2331 4593 1812 
Q 4406 1294 4056 872 
Q 3656 384 3173 146 
Q 2691 -91 2100 -91 
z
" transform="scale(0.015625)"/>
      </defs>
      <use xlink:href="#DejaVuSans-49" transform="translate(0 0.015625)"/>
      <use xlink:href="#DejaVuSans-7a" transform="translate(29.492188 0.015625)"/>
      <use xlink:href="#DejaVuSans-6c" transform="translate(81.982422 0.015625)"/>
      <use xlink:href="#DejaVuSans-61" transform="translate(109.765625 0.015625)"/>
      <use xlink:href="#DejaVuSans-7a" transform="translate(171.044922 0.015625)"/>
      <use xlink:href="#DejaVuSans-6e" transform="translate(223.535156 0.015625)"/>
      <use xlink:href="#DejaVuSans-69" transform="translate(286.914062 0.015625)"/>
      <use xlink:href="#DejaVuSans-20" transform="translate(314.697266 0.015625)"/>
      <use xlink:href="#DejaVuSans-6e" transform="translate(346.484375 0.015625)"/>
      <use xlink:href="#DejaVuSans-61" transform="translate(409.863281 0.015625)"/>
      <use xlink:href="#DejaVuSans-70" transform="translate(471.142578 0.015625)"/>
      <use xlink:href="#DejaVuSans-6f" transform="translate(534.619141 0.015625)"/>
      <use xlink:href="#DejaVuSans-6e" transform="translate(595.800781 0.015625)"/>
      <use xlink:href="#DejaVuSans-20" transform="translate(659.179688 0.015625)"/>
      <use xlink:href="#DejaVuSans-Oblique-56" transform="translate(690.966797 0.015625)"/>
      <use xlink:href="#DejaVuSans-Oblique-4f" transform="translate(759.375 -16.390625) scale(0.7)"/>
      <use xlink:href="#DejaVuSans-20" transform="translate(817.207031 0.015625)"/>
      <use xlink:href="#DejaVuSans-5b" transform="translate(848.994141 0.015625)"/>
      <use xlink:href="#DejaVuSans-56" transform="translate(888.007812 0.015625)"/>
      <use xlink:href="#DejaVuSans-5d" transform="translate(956.416016 0.015625)"/>
     </g>
    </g>
   </g>
   <g id="line2d_35">
    <path d="M 53.57 67.07525 
L 239.617247 67.184517 
L 264.139233 67.428684 
L 281.198007 67.813172 
L 295.591347 68.35745 
L 308.385427 69.064063 
L 319.580247 69.894547 
L 330.24198 70.906095 
L 339.83754 72.031964 
L 348.900013 73.311195 
L 357.4294 74.732842 
L 365.4257 76.281535 
L 372.888913 77.938013 
L 380.352127 79.82233 
L 387.282253 81.800363 
L 393.679293 83.845143 
L 400.076333 86.126634 
L 405.940287 88.453439 
L 411.271153 90.791236 
L 416.60202 93.371963 
L 421.3998 95.934271 
L 426.19758 98.761775 
L 430.462273 101.536994 
L 434.19388 104.204487 
L 437.925487 107.13741 
L 441.124007 109.903193 
L 444.322527 112.948996 
L 447.521047 116.335918 
L 450.18648 119.478823 
L 452.851913 122.983629 
L 454.98426 126.109024 
L 457.116607 129.588889 
L 459.248953 133.510341 
L 461.3813 137.99408 
L 462.98056 141.826516 
L 464.57982 146.169947 
L 466.17908 151.158636 
L 467.77834 156.975361 
L 469.3776 163.870094 
L 470.97686 172.181939 
L 472.043033 178.726207 
L 473.109207 186.25534 
L 474.17538 194.944737 
L 475.241553 204.977065 
L 476.307727 216.531875 
L 477.3739 229.779192 
L 478.97316 253.151928 
L 480.57242 280.918172 
L 483.237853 328.662157 
L 484.837113 353.015764 
L 486.436373 373.450777 
L 488.035633 390.432985 
L 489.634893 404.377388 
L 491.234153 415.717926 
L 492.833413 424.934238 
L 494.432673 432.562475 
L 496.031933 438.820247 
L 497.631193 444.110904 
L 499.230453 448.652249 
L 500.829713 452.607204 
L 502.96206 457.171248 
L 505.094407 461.106867 
L 507.226753 464.55537 
L 509.3591 467.617238 
L 512.024533 471.010693 
L 514.689967 474.017209 
L 517.3554 476.711278 
L 520.55392 479.608047 
L 523.75244 482.203414 
L 527.484047 484.918535 
L 531.215653 487.353993 
L 535.480347 489.852354 
L 539.74504 492.094718 
L 544.54282 494.35858 
L 549.3406 496.388072 
L 554.671467 498.406793 
L 560.53542 500.379058 
L 566.399373 502.125253 
L 572.796413 503.804952 
L 579.72654 505.391772 
L 587.189753 506.862732 
L 595.186053 508.198216 
L 603.71544 509.382135 
L 612.777913 510.402401 
L 622.373473 511.251843 
L 633.035207 511.959844 
L 644.763113 512.50523 
L 658.623367 512.91196 
L 676.215227 513.185015 
L 702.336473 513.340211 
L 759.376747 513.398397 
L 853.2 513.402327 
L 853.2 513.402327 
" clip-path="url(#p260f974608)" style="fill: none; stroke: #0033a0; stroke-width: 2.5; stroke-linecap: square"/>
   </g>
   <g id="line2d_36">
    <path d="M 53.57 67.075152 
L 853.2 513.402425 
L 853.2 513.402425 
" clip-path="url(#p260f974608)" style="fill: none; stroke-dasharray: 9.6,2.4,1.5,2.4; stroke-dashoffset: 0; stroke: #808080; stroke-width: 1.5"/>
   </g>
   <g id="LineCollection_1">
    <path d="M 421.3998 513.402424 
L 421.3998 95.934271 
" clip-path="url(#p260f974608)" style="fill: none; stroke-dasharray: 5.55,2.4; stroke-dashoffset: 0; stroke: #000000; stroke-opacity: 0.7; stroke-width: 1.5"/>
   </g>
   <g id="LineCollection_2">
    <path d="M 534.94726 513.402424 
L 534.94726 489.554959 
" clip-path="url(#p260f974608)" style="fill: none; stroke-dasharray: 5.55,2.4; stroke-dashoffset: 0; stroke: #000000; stroke-opacity: 0.7; stroke-width: 1.5"/>
   </g>
   <g id="line2d_37">
    <defs>
     <path id="m996cfd057b" d="M 0 2.5 
C 0.663008 2.5 1.29895 2.236584 1.767767 1.767767 
C 2.236584 1.29895 2.5 0.663008 2.5 0 
C 2.5 -0.663008 2.236584 -1.29895 1.767767 -1.767767 
C 1.29895 -2.236584 0.663008 -2.5 0 -2.5 
C -0.663008 -2.5 -1.29895 -2.236584 -1.767767 -1.767767 
C -2.236584 -1.29895 -2.5 -0.663008 -2.5 0 
C -2.5 0.663008 -2.236584 1.29895 -1.767767 1.767767 
C -1.29895 2.236584 -0.663008 2.5 0 2.5 
z
" style="stroke: #000000"/>
    </defs>
    <g clip-path="url(#p260f974608)">
     <use xlink:href="#m996cfd057b" x="421.3998" y="95.934271" style="stroke: #000000"/>
    </g>
   </g>
   <g id="line2d_38">
    <g clip-path="url(#p260f974608)">
     <use xlink:href="#m996cfd057b" x="534.94726" y="489.554959" style="stroke: #000000"/>
    </g>
   </g>
   <g id="line2d_39">
    <path d="M 53.57 67.07525 
L 853.2 67.07525 
" clip-path="url(#p260f974608)" style="fill: none; stroke-dasharray: 1.5,2.475; stroke-dashoffset: 0; stroke: #000000; stroke-opacity: 0.3; stroke-width: 1.5"/>
   </g>
   <g id="line2d_40">
    <path d="M 53.57 513.402424 
L 853.2 513.402424 
" clip-path="url(#p260f974608)" style="fill: none; stroke-dasharray: 1.5,2.475; stroke-dashoffset: 0; stroke: #000000; stroke-opacity: 0.3; stroke-width: 1.5"/>
   </g>
   <g id="patch_3">
    <path d="M 53.57 528.28 
L 53.57 37.32 
" style="fill: none; stroke: #000000; stroke-width: 0.8; stroke-linejoin: miter; stroke-linecap: square"/>
   </g>
   <g id="patch_4">
    <path d="M 853.2 528.28 
L 853.2 37.32 
" style="fill: none; stroke: #000000; stroke-width: 0.8; stroke-linejoin: miter; stroke-linecap: square"/>
   </g>
   <g id="patch_5">
    <path d="M 53.57 528.28 
L 853.2 528.28 
" style="fill: none; stroke: #000000; stroke-width: 0.8; stroke-linejoin: miter; stroke-linecap: square"/>
   </g>
   <g id="patch_6">
    <path d="M 53.57 37.32 
L 853.2 37.32 
" style="fill: none; stroke: #000000; stroke-width: 0.8; stroke-linejoin: miter; stroke-linecap: square"/>
   </g>
   <g id="patch_7">
    <path d="M 361.899825 129.231291 
Q 390.776415 113.071547 418.482223 97.566988 
" style="fill: none; stroke: #000000; stroke-width: 1.2; stroke-linecap: round"/>
    <path d="M 413.568201 97.795886 
L 418.482223 97.566988 
L 415.716928 101.635544 
" style="fill: none; stroke: #000000; stroke-width: 1.2; stroke-linecap: round"/>
   </g>
   <g id="text_20">
    <!-- A ($A_v = -1$) -->
    <g transform="translate(314.782467 140.566999) scale(0.11 -0.11)">
     <defs>
      <path id="DejaVuSans-Bold-41" d="M 3419 850 
L 1538 850 
L 1241 0 
L 31 0 
L 1759 4666 
L 3194 4666 
L 4922 0 
L 3713 0 
L 3419 850 
z
M 1838 1716 
L 3116 1716 
L 2478 3572 
L 1838 1716 
z
" transform="scale(0.015625)"/>
      <path id="DejaVuSans-Bold-20" transform="scale(0.015625)"/>
      <path id="DejaVuSans-Bold-28" d="M 2413 -844 
L 1484 -844 
Q 1006 -72 778 623 
Q 550 1319 550 2003 
Q 550 2688 779 3389 
Q 1009 4091 1484 4856 
L 2413 4856 
Q 2013 4116 1813 3408 
Q 1613 2700 1613 2009 
Q 1613 1319 1811 609 
Q 2009 -100 2413 -844 
z
" transform="scale(0.015625)"/>
      <path id="DejaVuSans-Oblique-41" d="M 2356 4666 
L 3072 4666 
L 3938 0 
L 3278 0 
L 3084 1197 
L 984 1197 
L 325 0 
L -341 0 
L 2356 4666 
z
M 2584 4044 
L 1275 1722 
L 2988 1722 
L 2584 4044 
z
" transform="scale(0.015625)"/>
      <path id="DejaVuSans-Oblique-76" d="M 459 3500 
L 1069 3500 
L 1581 525 
L 3256 3500 
L 3866 3500 
L 1875 0 
L 1100 0 
L 459 3500 
z
" transform="scale(0.015625)"/>
      <path id="DejaVuSans-3d" d="M 678 2906 
L 4684 2906 
L 4684 2381 
L 678 2381 
L 678 2906 
z
M 678 1631 
L 4684 1631 
L 4684 1100 
L 678 1100 
L 678 1631 
z
" transform="scale(0.015625)"/>
      <path id="DejaVuSans-2212" d="M 678 2272 
L 4684 2272 
L 4684 1741 
L 678 1741 
L 678 2272 
z
" transform="scale(0.015625)"/>
      <path id="DejaVuSans-Bold-29" d="M 513 -844 
Q 913 -100 1113 609 
Q 1313 1319 1313 2009 
Q 1313 2700 1113 3408 
Q 913 4116 513 4856 
L 1441 4856 
Q 1916 4091 2145 3389 
Q 2375 2688 2375 2003 
Q 2375 1319 2147 623 
Q 1919 -72 1441 -844 
L 513 -844 
z
" transform="scale(0.015625)"/>
     </defs>
     <use xlink:href="#DejaVuSans-Bold-41" transform="translate(0 0.125)"/>
     <use xlink:href="#DejaVuSans-Bold-20" transform="translate(77.392578 0.125)"/>
     <use xlink:href="#DejaVuSans-Bold-28" transform="translate(112.207031 0.125)"/>
     <use xlink:href="#DejaVuSans-Oblique-41" transform="translate(157.910156 0.125)"/>
     <use xlink:href="#DejaVuSans-Oblique-76" transform="translate(226.318359 -16.28125) scale(0.7)"/>
     <use xlink:href="#DejaVuSans-3d" transform="translate(289.960938 0.125)"/>
     <use xlink:href="#DejaVuSans-2212" transform="translate(393.232422 0.125)"/>
     <use xlink:href="#DejaVuSans-31" transform="translate(477.021484 0.125)"/>
     <use xlink:href="#DejaVuSans-Bold-29" transform="translate(540.644531 0.125)"/>
    </g>
   </g>
   <g id="patch_8">
    <path d="M 583.231057 450.468264 
Q 559.865695 469.382989 537.543119 487.453559 
" style="fill: none; stroke: #000000; stroke-width: 1.2; stroke-linecap: round"/>
    <path d="M 542.347235 486.395037 
L 537.543119 487.453559 
L 539.578771 482.975153 
" style="fill: none; stroke: #000000; stroke-width: 1.2; stroke-linecap: round"/>
   </g>
   <g id="text_21">
    <!-- B ($A_v = -1$) -->
    <g transform="translate(561.601593 444.922231) scale(0.11 -0.11)">
     <defs>
      <path id="DejaVuSans-Bold-42" d="M 2456 2859 
Q 2741 2859 2887 2984 
Q 3034 3109 3034 3353 
Q 3034 3594 2887 3720 
Q 2741 3847 2456 3847 
L 1791 3847 
L 1791 2859 
L 2456 2859 
z
M 2497 819 
Q 2859 819 3042 972 
Q 3225 1125 3225 1434 
Q 3225 1738 3044 1889 
Q 2863 2041 2497 2041 
L 1791 2041 
L 1791 819 
L 2497 819 
z
M 3616 2497 
Q 4003 2384 4215 2081 
Q 4428 1778 4428 1338 
Q 4428 663 3972 331 
Q 3516 0 2584 0 
L 588 0 
L 588 4666 
L 2394 4666 
Q 3366 4666 3802 4372 
Q 4238 4078 4238 3431 
Q 4238 3091 4078 2852 
Q 3919 2613 3616 2497 
z
" transform="scale(0.015625)"/>
     </defs>
     <use xlink:href="#DejaVuSans-Bold-42" transform="translate(0 0.125)"/>
     <use xlink:href="#DejaVuSans-Bold-20" transform="translate(76.220703 0.125)"/>
     <use xlink:href="#DejaVuSans-Bold-28" transform="translate(111.035156 0.125)"/>
     <use xlink:href="#DejaVuSans-Oblique-41" transform="translate(156.738281 0.125)"/>
     <use xlink:href="#DejaVuSans-Oblique-76" transform="translate(225.146484 -16.28125) scale(0.7)"/>
     <use xlink:href="#DejaVuSans-3d" transform="translate(288.789062 0.125)"/>
     <use xlink:href="#DejaVuSans-2212" transform="translate(392.060547 0.125)"/>
     <use xlink:href="#DejaVuSans-31" transform="translate(475.849609 0.125)"/>
     <use xlink:href="#DejaVuSans-Bold-29" transform="translate(539.472656 0.125)"/>
    </g>
   </g>
   <g id="patch_9">
    <path d="M 545.657099 285.689607 
Q 514.846289 297.598889 485.28689 309.024465 
" style="fill: none; stroke: #ff0000; stroke-width: 1.2; stroke-linecap: round"/>
    <path d="M 490.629352 309.532494 
L 485.28689 309.024465 
L 488.89879 305.055312 
" style="fill: none; stroke: #ff0000; stroke-width: 1.2; stroke-linecap: round"/>
   </g>
   <g id="text_22">
    <!-- T ($V_T$=0.80V) -->
    <g style="fill: #ff0000" transform="translate(524.818613 280.473433) scale(0.12 -0.12)">
     <defs>
      <path id="DejaVuSans-Bold-54" d="M 31 4666 
L 4331 4666 
L 4331 3756 
L 2784 3756 
L 2784 0 
L 1581 0 
L 1581 3756 
L 31 3756 
L 31 4666 
z
" transform="scale(0.015625)"/>
      <path id="DejaVuSans-Oblique-54" d="M 378 4666 
L 4325 4666 
L 4225 4134 
L 2559 4134 
L 1759 0 
L 1125 0 
L 1925 4134 
L 275 4134 
L 378 4666 
z
" transform="scale(0.015625)"/>
      <path id="DejaVuSans-Bold-3d" d="M 678 3084 
L 4684 3084 
L 4684 2350 
L 678 2350 
L 678 3084 
z
M 678 1663 
L 4684 1663 
L 4684 922 
L 678 922 
L 678 1663 
z
" transform="scale(0.015625)"/>
      <path id="DejaVuSans-Bold-30" d="M 2944 2338 
Q 2944 3213 2780 3570 
Q 2616 3928 2228 3928 
Q 1841 3928 1675 3570 
Q 1509 3213 1509 2338 
Q 1509 1453 1675 1090 
Q 1841 728 2228 728 
Q 2613 728 2778 1090 
Q 2944 1453 2944 2338 
z
M 4147 2328 
Q 4147 1169 3647 539 
Q 3147 -91 2228 -91 
Q 1306 -91 806 539 
Q 306 1169 306 2328 
Q 306 3491 806 4120 
Q 1306 4750 2228 4750 
Q 3147 4750 3647 4120 
Q 4147 3491 4147 2328 
z
" transform="scale(0.015625)"/>
      <path id="DejaVuSans-Bold-2e" d="M 653 1209 
L 1778 1209 
L 1778 0 
L 653 0 
L 653 1209 
z
" transform="scale(0.015625)"/>
      <path id="DejaVuSans-Bold-38" d="M 2228 2088 
Q 1891 2088 1709 1903 
Q 1528 1719 1528 1375 
Q 1528 1031 1709 848 
Q 1891 666 2228 666 
Q 2563 666 2741 848 
Q 2919 1031 2919 1375 
Q 2919 1722 2741 1905 
Q 2563 2088 2228 2088 
z
M 1350 2484 
Q 925 2613 709 2878 
Q 494 3144 494 3541 
Q 494 4131 934 4440 
Q 1375 4750 2228 4750 
Q 3075 4750 3515 4442 
Q 3956 4134 3956 3541 
Q 3956 3144 3739 2878 
Q 3522 2613 3097 2484 
Q 3572 2353 3814 2058 
Q 4056 1763 4056 1313 
Q 4056 619 3595 264 
Q 3134 -91 2228 -91 
Q 1319 -91 855 264 
Q 391 619 391 1313 
Q 391 1763 633 2058 
Q 875 2353 1350 2484 
z
M 1631 3419 
Q 1631 3141 1786 2991 
Q 1941 2841 2228 2841 
Q 2509 2841 2662 2991 
Q 2816 3141 2816 3419 
Q 2816 3697 2662 3845 
Q 2509 3994 2228 3994 
Q 1941 3994 1786 3844 
Q 1631 3694 1631 3419 
z
" transform="scale(0.015625)"/>
      <path id="DejaVuSans-Bold-56" d="M 31 4666 
L 1241 4666 
L 2478 1222 
L 3713 4666 
L 4922 4666 
L 3194 0 
L 1759 0 
L 31 4666 
z
" transform="scale(0.015625)"/>
     </defs>
     <use xlink:href="#DejaVuSans-Bold-54" transform="translate(0 0.125)"/>
     <use xlink:href="#DejaVuSans-Bold-20" transform="translate(68.212891 0.125)"/>
     <use xlink:href="#DejaVuSans-Bold-28" transform="translate(103.027344 0.125)"/>
     <use xlink:href="#DejaVuSans-Oblique-56" transform="translate(148.730469 0.125)"/>
     <use xlink:href="#DejaVuSans-Oblique-54" transform="translate(217.138672 -16.28125) scale(0.7)"/>
     <use xlink:href="#DejaVuSans-Bold-3d" transform="translate(262.631836 0.125)"/>
     <use xlink:href="#DejaVuSans-Bold-30" transform="translate(346.420898 0.125)"/>
     <use xlink:href="#DejaVuSans-Bold-2e" transform="translate(416.000977 0.125)"/>
     <use xlink:href="#DejaVuSans-Bold-38" transform="translate(452.239258 0.125)"/>
     <use xlink:href="#DejaVuSans-Bold-30" transform="translate(521.819336 0.125)"/>
     <use xlink:href="#DejaVuSans-Bold-56" transform="translate(591.399414 0.125)"/>
     <use xlink:href="#DejaVuSans-Bold-29" transform="translate(668.791992 0.125)"/>
    </g>
   </g>
   <g id="patch_10">
    <path d="M 417.721844 498.524848 
Q 237.48504 498.524848 57.248236 498.524848 
" style="fill: none; stroke: #000000; stroke-width: 1.5; stroke-linecap: round"/>
    <path d="M 413.721844 496.524848 
L 417.721844 498.524848 
L 413.721844 500.524848 
" style="fill: none; stroke: #000000; stroke-width: 1.5; stroke-linecap: round"/>
    <path d="M 61.248236 500.524848 
L 57.248236 498.524848 
L 61.248236 496.524848 
" style="fill: none; stroke: #000000; stroke-width: 1.5; stroke-linecap: round"/>
   </g>
   <g id="text_23">
    <!-- $NM_L$=0.69V -->
    <g transform="translate(208.5849 478.816318) scale(0.1 -0.1)">
     <defs>
      <path id="DejaVuSans-Oblique-4e" d="M 1081 4666 
L 1931 4666 
L 3219 666 
L 4000 4666 
L 4616 4666 
L 3706 0 
L 2853 0 
L 1569 4025 
L 788 0 
L 172 0 
L 1081 4666 
z
" transform="scale(0.015625)"/>
      <path id="DejaVuSans-Oblique-4d" d="M 1081 4666 
L 2028 4666 
L 2572 1522 
L 4378 4666 
L 5350 4666 
L 4441 0 
L 3828 0 
L 4622 4091 
L 2791 897 
L 2175 897 
L 1581 4103 
L 788 0 
L 172 0 
L 1081 4666 
z
" transform="scale(0.015625)"/>
      <path id="DejaVuSans-Oblique-4c" d="M 1075 4666 
L 1709 4666 
L 909 525 
L 3181 525 
L 3078 0 
L 172 0 
L 1075 4666 
z
" transform="scale(0.015625)"/>
      <path id="DejaVuSans-39" d="M 703 97 
L 703 672 
Q 941 559 1184 500 
Q 1428 441 1663 441 
Q 2288 441 2617 861 
Q 2947 1281 2994 2138 
Q 2813 1869 2534 1725 
Q 2256 1581 1919 1581 
Q 1219 1581 811 2004 
Q 403 2428 403 3163 
Q 403 3881 828 4315 
Q 1253 4750 1959 4750 
Q 2769 4750 3195 4129 
Q 3622 3509 3622 2328 
Q 3622 1225 3098 567 
Q 2575 -91 1691 -91 
Q 1453 -91 1209 -44 
Q 966 3 703 97 
z
M 1959 2075 
Q 2384 2075 2632 2365 
Q 2881 2656 2881 3163 
Q 2881 3666 2632 3958 
Q 2384 4250 1959 4250 
Q 1534 4250 1286 3958 
Q 1038 3666 1038 3163 
Q 1038 2656 1286 2365 
Q 1534 2075 1959 2075 
z
" transform="scale(0.015625)"/>
     </defs>
     <use xlink:href="#DejaVuSans-Oblique-4e" transform="translate(0 0.78125)"/>
     <use xlink:href="#DejaVuSans-Oblique-4d" transform="translate(74.804688 0.78125)"/>
     <use xlink:href="#DejaVuSans-Oblique-4c" transform="translate(161.083984 -15.625) scale(0.7)"/>
     <use xlink:href="#DejaVuSans-3d" transform="translate(202.817383 0.78125)"/>
     <use xlink:href="#DejaVuSans-30" transform="translate(286.606445 0.78125)"/>
     <use xlink:href="#DejaVuSans-2e" transform="translate(350.229492 0.78125)"/>
     <use xlink:href="#DejaVuSans-36" transform="translate(382.016602 0.78125)"/>
     <use xlink:href="#DejaVuSans-39" transform="translate(445.639648 0.78125)"/>
     <use xlink:href="#DejaVuSans-56" transform="translate(509.262695 0.78125)"/>
    </g>
    <!-- (Oblast logičke 0) -->
    <g transform="translate(193.544275 490.494131) scale(0.1 -0.1)">
     <defs>
      <path id="DejaVuSans-28" d="M 1984 4856 
Q 1566 4138 1362 3434 
Q 1159 2731 1159 2009 
Q 1159 1288 1364 580 
Q 1569 -128 1984 -844 
L 1484 -844 
Q 1016 -109 783 600 
Q 550 1309 550 2009 
Q 550 2706 781 3412 
Q 1013 4119 1484 4856 
L 1984 4856 
z
" transform="scale(0.015625)"/>
      <path id="DejaVuSans-4f" d="M 2522 4238 
Q 1834 4238 1429 3725 
Q 1025 3213 1025 2328 
Q 1025 1447 1429 934 
Q 1834 422 2522 422 
Q 3209 422 3611 934 
Q 4013 1447 4013 2328 
Q 4013 3213 3611 3725 
Q 3209 4238 2522 4238 
z
M 2522 4750 
Q 3503 4750 4090 4092 
Q 4678 3434 4678 2328 
Q 4678 1225 4090 567 
Q 3503 -91 2522 -91 
Q 1538 -91 948 565 
Q 359 1222 359 2328 
Q 359 3434 948 4092 
Q 1538 4750 2522 4750 
z
" transform="scale(0.015625)"/>
      <path id="DejaVuSans-62" d="M 3116 1747 
Q 3116 2381 2855 2742 
Q 2594 3103 2138 3103 
Q 1681 3103 1420 2742 
Q 1159 2381 1159 1747 
Q 1159 1113 1420 752 
Q 1681 391 2138 391 
Q 2594 391 2855 752 
Q 3116 1113 3116 1747 
z
M 1159 2969 
Q 1341 3281 1617 3432 
Q 1894 3584 2278 3584 
Q 2916 3584 3314 3078 
Q 3713 2572 3713 1747 
Q 3713 922 3314 415 
Q 2916 -91 2278 -91 
Q 1894 -91 1617 61 
Q 1341 213 1159 525 
L 1159 0 
L 581 0 
L 581 4863 
L 1159 4863 
L 1159 2969 
z
" transform="scale(0.015625)"/>
      <path id="DejaVuSans-73" d="M 2834 3397 
L 2834 2853 
Q 2591 2978 2328 3040 
Q 2066 3103 1784 3103 
Q 1356 3103 1142 2972 
Q 928 2841 928 2578 
Q 928 2378 1081 2264 
Q 1234 2150 1697 2047 
L 1894 2003 
Q 2506 1872 2764 1633 
Q 3022 1394 3022 966 
Q 3022 478 2636 193 
Q 2250 -91 1575 -91 
Q 1294 -91 989 -36 
Q 684 19 347 128 
L 347 722 
Q 666 556 975 473 
Q 1284 391 1588 391 
Q 1994 391 2212 530 
Q 2431 669 2431 922 
Q 2431 1156 2273 1281 
Q 2116 1406 1581 1522 
L 1381 1569 
Q 847 1681 609 1914 
Q 372 2147 372 2553 
Q 372 3047 722 3315 
Q 1072 3584 1716 3584 
Q 2034 3584 2315 3537 
Q 2597 3491 2834 3397 
z
" transform="scale(0.015625)"/>
      <path id="DejaVuSans-74" d="M 1172 4494 
L 1172 3500 
L 2356 3500 
L 2356 3053 
L 1172 3053 
L 1172 1153 
Q 1172 725 1289 603 
Q 1406 481 1766 481 
L 2356 481 
L 2356 0 
L 1766 0 
Q 1100 0 847 248 
Q 594 497 594 1153 
L 594 3053 
L 172 3053 
L 172 3500 
L 594 3500 
L 594 4494 
L 1172 4494 
z
" transform="scale(0.015625)"/>
      <path id="DejaVuSans-67" d="M 2906 1791 
Q 2906 2416 2648 2759 
Q 2391 3103 1925 3103 
Q 1463 3103 1205 2759 
Q 947 2416 947 1791 
Q 947 1169 1205 825 
Q 1463 481 1925 481 
Q 2391 481 2648 825 
Q 2906 1169 2906 1791 
z
M 3481 434 
Q 3481 -459 3084 -895 
Q 2688 -1331 1869 -1331 
Q 1566 -1331 1297 -1286 
Q 1028 -1241 775 -1147 
L 775 -588 
Q 1028 -725 1275 -790 
Q 1522 -856 1778 -856 
Q 2344 -856 2625 -561 
Q 2906 -266 2906 331 
L 2906 616 
Q 2728 306 2450 153 
Q 2172 0 1784 0 
Q 1141 0 747 490 
Q 353 981 353 1791 
Q 353 2603 747 3093 
Q 1141 3584 1784 3584 
Q 2172 3584 2450 3431 
Q 2728 3278 2906 2969 
L 2906 3500 
L 3481 3500 
L 3481 434 
z
" transform="scale(0.015625)"/>
      <path id="DejaVuSans-10d" d="M 3122 3366 
L 3122 2828 
Q 2878 2963 2633 3030 
Q 2388 3097 2138 3097 
Q 1578 3097 1268 2742 
Q 959 2388 959 1747 
Q 959 1106 1268 751 
Q 1578 397 2138 397 
Q 2388 397 2633 464 
Q 2878 531 3122 666 
L 3122 134 
Q 2881 22 2623 -34 
Q 2366 -91 2075 -91 
Q 1284 -91 818 406 
Q 353 903 353 1747 
Q 353 2603 823 3093 
Q 1294 3584 2113 3584 
Q 2378 3584 2631 3529 
Q 2884 3475 3122 3366 
z
M 1801 3944 
L 1035 5119 
L 1470 5119 
L 2032 4353 
L 2595 5119 
L 3029 5119 
L 2263 3944 
L 1801 3944 
z
" transform="scale(0.015625)"/>
      <path id="DejaVuSans-6b" d="M 581 4863 
L 1159 4863 
L 1159 1991 
L 2875 3500 
L 3609 3500 
L 1753 1863 
L 3688 0 
L 2938 0 
L 1159 1709 
L 1159 0 
L 581 0 
L 581 4863 
z
" transform="scale(0.015625)"/>
      <path id="DejaVuSans-65" d="M 3597 1894 
L 3597 1613 
L 953 1613 
Q 991 1019 1311 708 
Q 1631 397 2203 397 
Q 2534 397 2845 478 
Q 3156 559 3463 722 
L 3463 178 
Q 3153 47 2828 -22 
Q 2503 -91 2169 -91 
Q 1331 -91 842 396 
Q 353 884 353 1716 
Q 353 2575 817 3079 
Q 1281 3584 2069 3584 
Q 2775 3584 3186 3129 
Q 3597 2675 3597 1894 
z
M 3022 2063 
Q 3016 2534 2758 2815 
Q 2500 3097 2075 3097 
Q 1594 3097 1305 2825 
Q 1016 2553 972 2059 
L 3022 2063 
z
" transform="scale(0.015625)"/>
      <path id="DejaVuSans-29" d="M 513 4856 
L 1013 4856 
Q 1481 4119 1714 3412 
Q 1947 2706 1947 2009 
Q 1947 1309 1714 600 
Q 1481 -109 1013 -844 
L 513 -844 
Q 928 -128 1133 580 
Q 1338 1288 1338 2009 
Q 1338 2731 1133 3434 
Q 928 4138 513 4856 
z
" transform="scale(0.015625)"/>
     </defs>
     <use xlink:href="#DejaVuSans-28"/>
     <use xlink:href="#DejaVuSans-4f" transform="translate(39.013672 0)"/>
     <use xlink:href="#DejaVuSans-62" transform="translate(117.724609 0)"/>
     <use xlink:href="#DejaVuSans-6c" transform="translate(181.201172 0)"/>
     <use xlink:href="#DejaVuSans-61" transform="translate(208.984375 0)"/>
     <use xlink:href="#DejaVuSans-73" transform="translate(270.263672 0)"/>
     <use xlink:href="#DejaVuSans-74" transform="translate(322.363281 0)"/>
     <use xlink:href="#DejaVuSans-20" transform="translate(361.572266 0)"/>
     <use xlink:href="#DejaVuSans-6c" transform="translate(393.359375 0)"/>
     <use xlink:href="#DejaVuSans-6f" transform="translate(421.142578 0)"/>
     <use xlink:href="#DejaVuSans-67" transform="translate(482.324219 0)"/>
     <use xlink:href="#DejaVuSans-69" transform="translate(545.800781 0)"/>
     <use xlink:href="#DejaVuSans-10d" transform="translate(573.583984 0)"/>
     <use xlink:href="#DejaVuSans-6b" transform="translate(628.564453 0)"/>
     <use xlink:href="#DejaVuSans-65" transform="translate(682.849609 0)"/>
     <use xlink:href="#DejaVuSans-20" transform="translate(744.373047 0)"/>
     <use xlink:href="#DejaVuSans-30" transform="translate(776.160156 0)"/>
     <use xlink:href="#DejaVuSans-29" transform="translate(839.783203 0)"/>
    </g>
   </g>
   <g id="patch_11">
    <path d="M 849.527071 498.524848 
Q 694.077023 498.524848 538.626975 498.524848 
" style="fill: none; stroke: #000000; stroke-width: 1.5; stroke-linecap: round"/>
    <path d="M 845.527071 496.524848 
L 849.527071 498.524848 
L 845.527071 500.524848 
" style="fill: none; stroke: #000000; stroke-width: 1.5; stroke-linecap: round"/>
    <path d="M 542.626975 500.524848 
L 538.626975 498.524848 
L 542.626975 496.524848 
" style="fill: none; stroke: #000000; stroke-width: 1.5; stroke-linecap: round"/>
   </g>
   <g id="text_24">
    <!-- $NM_H$=0.60V -->
    <g transform="translate(664.47363 478.816318) scale(0.1 -0.1)">
     <defs>
      <path id="DejaVuSans-Oblique-48" d="M 1081 4666 
L 1716 4666 
L 1344 2753 
L 3634 2753 
L 4006 4666 
L 4641 4666 
L 3731 0 
L 3097 0 
L 3531 2222 
L 1241 2222 
L 806 0 
L 172 0 
L 1081 4666 
z
" transform="scale(0.015625)"/>
     </defs>
     <use xlink:href="#DejaVuSans-Oblique-4e" transform="translate(0 0.78125)"/>
     <use xlink:href="#DejaVuSans-Oblique-4d" transform="translate(74.804688 0.78125)"/>
     <use xlink:href="#DejaVuSans-Oblique-48" transform="translate(161.083984 -15.625) scale(0.7)"/>
     <use xlink:href="#DejaVuSans-3d" transform="translate(216.455078 0.78125)"/>
     <use xlink:href="#DejaVuSans-30" transform="translate(300.244141 0.78125)"/>
     <use xlink:href="#DejaVuSans-2e" transform="translate(363.867188 0.78125)"/>
     <use xlink:href="#DejaVuSans-36" transform="translate(395.654297 0.78125)"/>
     <use xlink:href="#DejaVuSans-30" transform="translate(459.277344 0.78125)"/>
     <use xlink:href="#DejaVuSans-56" transform="translate(522.900391 0.78125)"/>
    </g>
    <!-- (Oblast logičke 1) -->
    <g transform="translate(650.133005 490.494131) scale(0.1 -0.1)">
     <use xlink:href="#DejaVuSans-28"/>
     <use xlink:href="#DejaVuSans-4f" transform="translate(39.013672 0)"/>
     <use xlink:href="#DejaVuSans-62" transform="translate(117.724609 0)"/>
     <use xlink:href="#DejaVuSans-6c" transform="translate(181.201172 0)"/>
     <use xlink:href="#DejaVuSans-61" transform="translate(208.984375 0)"/>
     <use xlink:href="#DejaVuSans-73" transform="translate(270.263672 0)"/>
     <use xlink:href="#DejaVuSans-74" transform="translate(322.363281 0)"/>
     <use xlink:href="#DejaVuSans-20" transform="translate(361.572266 0)"/>
     <use xlink:href="#DejaVuSans-6c" transform="translate(393.359375 0)"/>
     <use xlink:href="#DejaVuSans-6f" transform="translate(421.142578 0)"/>
     <use xlink:href="#DejaVuSans-67" transform="translate(482.324219 0)"/>
     <use xlink:href="#DejaVuSans-69" transform="translate(545.800781 0)"/>
     <use xlink:href="#DejaVuSans-10d" transform="translate(573.583984 0)"/>
     <use xlink:href="#DejaVuSans-6b" transform="translate(628.564453 0)"/>
     <use xlink:href="#DejaVuSans-65" transform="translate(682.849609 0)"/>
     <use xlink:href="#DejaVuSans-20" transform="translate(744.373047 0)"/>
     <use xlink:href="#DejaVuSans-31" transform="translate(776.160156 0)"/>
     <use xlink:href="#DejaVuSans-29" transform="translate(839.783203 0)"/>
    </g>
   </g>
   <g id="patch_12">
    <path d="M 531.270792 81.952727 
Q 478.172947 81.952727 425.075102 81.952727 
" style="fill: none; stroke: #000000; stroke-width: 1.5; stroke-linecap: round"/>
    <path d="M 527.270792 79.952727 
L 531.270792 81.952727 
L 527.270792 83.952727 
" style="fill: none; stroke: #000000; stroke-width: 1.5; stroke-linecap: round"/>
    <path d="M 429.075102 83.952727 
L 425.075102 81.952727 
L 429.075102 79.952727 
" style="fill: none; stroke: #000000; stroke-width: 1.5; stroke-linecap: round"/>
   </g>
   <g id="text_25">
    <!-- Zabranjena zona -->
    <g transform="translate(426.433139 61.310509) scale(0.11 -0.11)">
     <defs>
      <path id="DejaVuSans-Bold-5a" d="M 359 4666 
L 4281 4666 
L 4281 3938 
L 1778 909 
L 4353 909 
L 4353 0 
L 288 0 
L 288 728 
L 2791 3756 
L 359 3756 
L 359 4666 
z
" transform="scale(0.015625)"/>
      <path id="DejaVuSans-Bold-61" d="M 2106 1575 
Q 1756 1575 1579 1456 
Q 1403 1338 1403 1106 
Q 1403 894 1545 773 
Q 1688 653 1941 653 
Q 2256 653 2472 879 
Q 2688 1106 2688 1447 
L 2688 1575 
L 2106 1575 
z
M 3816 1997 
L 3816 0 
L 2688 0 
L 2688 519 
Q 2463 200 2181 54 
Q 1900 -91 1497 -91 
Q 953 -91 614 226 
Q 275 544 275 1050 
Q 275 1666 698 1953 
Q 1122 2241 2028 2241 
L 2688 2241 
L 2688 2328 
Q 2688 2594 2478 2717 
Q 2269 2841 1825 2841 
Q 1466 2841 1156 2769 
Q 847 2697 581 2553 
L 581 3406 
Q 941 3494 1303 3539 
Q 1666 3584 2028 3584 
Q 2975 3584 3395 3211 
Q 3816 2838 3816 1997 
z
" transform="scale(0.015625)"/>
      <path id="DejaVuSans-Bold-62" d="M 2400 722 
Q 2759 722 2948 984 
Q 3138 1247 3138 1747 
Q 3138 2247 2948 2509 
Q 2759 2772 2400 2772 
Q 2041 2772 1848 2508 
Q 1656 2244 1656 1747 
Q 1656 1250 1848 986 
Q 2041 722 2400 722 
z
M 1656 2988 
Q 1888 3294 2169 3439 
Q 2450 3584 2816 3584 
Q 3463 3584 3878 3070 
Q 4294 2556 4294 1747 
Q 4294 938 3878 423 
Q 3463 -91 2816 -91 
Q 2450 -91 2169 54 
Q 1888 200 1656 506 
L 1656 0 
L 538 0 
L 538 4863 
L 1656 4863 
L 1656 2988 
z
" transform="scale(0.015625)"/>
      <path id="DejaVuSans-Bold-72" d="M 3138 2547 
Q 2991 2616 2845 2648 
Q 2700 2681 2553 2681 
Q 2122 2681 1889 2404 
Q 1656 2128 1656 1613 
L 1656 0 
L 538 0 
L 538 3500 
L 1656 3500 
L 1656 2925 
Q 1872 3269 2151 3426 
Q 2431 3584 2822 3584 
Q 2878 3584 2943 3579 
Q 3009 3575 3134 3559 
L 3138 2547 
z
" transform="scale(0.015625)"/>
      <path id="DejaVuSans-Bold-6e" d="M 4056 2131 
L 4056 0 
L 2931 0 
L 2931 347 
L 2931 1631 
Q 2931 2084 2911 2256 
Q 2891 2428 2841 2509 
Q 2775 2619 2662 2680 
Q 2550 2741 2406 2741 
Q 2056 2741 1856 2470 
Q 1656 2200 1656 1722 
L 1656 0 
L 538 0 
L 538 3500 
L 1656 3500 
L 1656 2988 
Q 1909 3294 2193 3439 
Q 2478 3584 2822 3584 
Q 3428 3584 3742 3212 
Q 4056 2841 4056 2131 
z
" transform="scale(0.015625)"/>
      <path id="DejaVuSans-Bold-6a" d="M 538 3500 
L 1656 3500 
L 1656 63 
Q 1656 -641 1318 -1011 
Q 981 -1381 341 -1381 
L -213 -1381 
L -213 -647 
L -19 -647 
Q 300 -647 419 -503 
Q 538 -359 538 63 
L 538 3500 
z
M 538 4863 
L 1656 4863 
L 1656 3950 
L 538 3950 
L 538 4863 
z
" transform="scale(0.015625)"/>
      <path id="DejaVuSans-Bold-65" d="M 4031 1759 
L 4031 1441 
L 1416 1441 
Q 1456 1047 1700 850 
Q 1944 653 2381 653 
Q 2734 653 3104 758 
Q 3475 863 3866 1075 
L 3866 213 
Q 3469 63 3072 -14 
Q 2675 -91 2278 -91 
Q 1328 -91 801 392 
Q 275 875 275 1747 
Q 275 2603 792 3093 
Q 1309 3584 2216 3584 
Q 3041 3584 3536 3087 
Q 4031 2591 4031 1759 
z
M 2881 2131 
Q 2881 2450 2695 2645 
Q 2509 2841 2209 2841 
Q 1884 2841 1681 2658 
Q 1478 2475 1428 2131 
L 2881 2131 
z
" transform="scale(0.015625)"/>
      <path id="DejaVuSans-Bold-7a" d="M 366 3500 
L 3419 3500 
L 3419 2719 
L 1575 800 
L 3419 800 
L 3419 0 
L 288 0 
L 288 781 
L 2131 2700 
L 366 2700 
L 366 3500 
z
" transform="scale(0.015625)"/>
      <path id="DejaVuSans-Bold-6f" d="M 2203 2784 
Q 1831 2784 1636 2517 
Q 1441 2250 1441 1747 
Q 1441 1244 1636 976 
Q 1831 709 2203 709 
Q 2569 709 2762 976 
Q 2956 1244 2956 1747 
Q 2956 2250 2762 2517 
Q 2569 2784 2203 2784 
z
M 2203 3584 
Q 3106 3584 3614 3096 
Q 4122 2609 4122 1747 
Q 4122 884 3614 396 
Q 3106 -91 2203 -91 
Q 1297 -91 786 396 
Q 275 884 275 1747 
Q 275 2609 786 3096 
Q 1297 3584 2203 3584 
z
" transform="scale(0.015625)"/>
     </defs>
     <use xlink:href="#DejaVuSans-Bold-5a"/>
     <use xlink:href="#DejaVuSans-Bold-61" transform="translate(72.509766 0)"/>
     <use xlink:href="#DejaVuSans-Bold-62" transform="translate(139.990234 0)"/>
     <use xlink:href="#DejaVuSans-Bold-72" transform="translate(211.572266 0)"/>
     <use xlink:href="#DejaVuSans-Bold-61" transform="translate(260.888672 0)"/>
     <use xlink:href="#DejaVuSans-Bold-6e" transform="translate(328.369141 0)"/>
     <use xlink:href="#DejaVuSans-Bold-6a" transform="translate(399.560547 0)"/>
     <use xlink:href="#DejaVuSans-Bold-65" transform="translate(433.837891 0)"/>
     <use xlink:href="#DejaVuSans-Bold-6e" transform="translate(501.660156 0)"/>
     <use xlink:href="#DejaVuSans-Bold-61" transform="translate(572.851562 0)"/>
     <use xlink:href="#DejaVuSans-Bold-20" transform="translate(640.332031 0)"/>
     <use xlink:href="#DejaVuSans-Bold-7a" transform="translate(675.146484 0)"/>
     <use xlink:href="#DejaVuSans-Bold-6f" transform="translate(733.349609 0)"/>
     <use xlink:href="#DejaVuSans-Bold-6e" transform="translate(802.050781 0)"/>
     <use xlink:href="#DejaVuSans-Bold-61" transform="translate(873.242188 0)"/>
    </g>
    <!-- $\Delta V_I$=0.21V -->
    <g transform="translate(447.15353 73.714041) scale(0.11 -0.11)">
     <defs>
      <path id="DejaVuSans-394" d="M 2188 4044 
L 906 525 
L 3472 525 
L 2188 4044 
z
M 50 0 
L 1831 4666 
L 2547 4666 
L 4325 0 
L 50 0 
z
" transform="scale(0.015625)"/>
      <path id="DejaVuSans-Bold-32" d="M 1844 884 
L 3897 884 
L 3897 0 
L 506 0 
L 506 884 
L 2209 2388 
Q 2438 2594 2547 2791 
Q 2656 2988 2656 3200 
Q 2656 3528 2436 3728 
Q 2216 3928 1850 3928 
Q 1569 3928 1234 3808 
Q 900 3688 519 3450 
L 519 4475 
Q 925 4609 1322 4679 
Q 1719 4750 2100 4750 
Q 2938 4750 3402 4381 
Q 3866 4013 3866 3353 
Q 3866 2972 3669 2642 
Q 3472 2313 2841 1759 
L 1844 884 
z
" transform="scale(0.015625)"/>
      <path id="DejaVuSans-Bold-31" d="M 750 831 
L 1813 831 
L 1813 3847 
L 722 3622 
L 722 4441 
L 1806 4666 
L 2950 4666 
L 2950 831 
L 4013 831 
L 4013 0 
L 750 0 
L 750 831 
z
" transform="scale(0.015625)"/>
     </defs>
     <use xlink:href="#DejaVuSans-394" transform="translate(0 0.78125)"/>
     <use xlink:href="#DejaVuSans-Oblique-56" transform="translate(68.408203 0.78125)"/>
     <use xlink:href="#DejaVuSans-Oblique-49" transform="translate(136.816406 -15.625) scale(0.7)"/>
     <use xlink:href="#DejaVuSans-Bold-3d" transform="translate(160.195312 0.78125)"/>
     <use xlink:href="#DejaVuSans-Bold-30" transform="translate(243.984375 0.78125)"/>
     <use xlink:href="#DejaVuSans-Bold-2e" transform="translate(313.564453 0.78125)"/>
     <use xlink:href="#DejaVuSans-Bold-32" transform="translate(347.052734 0.78125)"/>
     <use xlink:href="#DejaVuSans-Bold-31" transform="translate(416.632812 0.78125)"/>
     <use xlink:href="#DejaVuSans-Bold-56" transform="translate(486.212891 0.78125)"/>
    </g>
   </g>
   <g id="text_26">
    <!-- $V_{OH}$ -->
    <g transform="translate(58.900867 81.952825) scale(0.11 -0.11)">
     <use xlink:href="#DejaVuSans-Oblique-56" transform="translate(0 0.09375)"/>
     <use xlink:href="#DejaVuSans-Oblique-4f" transform="translate(68.408203 -16.3125) scale(0.7)"/>
     <use xlink:href="#DejaVuSans-Oblique-48" transform="translate(123.505859 -16.3125) scale(0.7)"/>
    </g>
   </g>
   <g id="text_27">
    <!-- $V_{OL}$ -->
    <g transform="translate(58.900867 507.451394) scale(0.11 -0.11)">
     <use xlink:href="#DejaVuSans-Oblique-56" transform="translate(0 0.09375)"/>
     <use xlink:href="#DejaVuSans-Oblique-4f" transform="translate(68.408203 -16.3125) scale(0.7)"/>
     <use xlink:href="#DejaVuSans-Oblique-4c" transform="translate(123.505859 -16.3125) scale(0.7)"/>
    </g>
   </g>
   <g id="text_28">
    <!-- Naponska prenosna karakteristika i statičke margine šuma -->
    <g transform="translate(219.984219 22.32) scale(0.14 -0.14)">
     <defs>
      <path id="DejaVuSans-Bold-4e" d="M 588 4666 
L 1931 4666 
L 3628 1466 
L 3628 4666 
L 4769 4666 
L 4769 0 
L 3425 0 
L 1728 3200 
L 1728 0 
L 588 0 
L 588 4666 
z
" transform="scale(0.015625)"/>
      <path id="DejaVuSans-Bold-70" d="M 1656 506 
L 1656 -1331 
L 538 -1331 
L 538 3500 
L 1656 3500 
L 1656 2988 
Q 1888 3294 2169 3439 
Q 2450 3584 2816 3584 
Q 3463 3584 3878 3070 
Q 4294 2556 4294 1747 
Q 4294 938 3878 423 
Q 3463 -91 2816 -91 
Q 2450 -91 2169 54 
Q 1888 200 1656 506 
z
M 2400 2772 
Q 2041 2772 1848 2508 
Q 1656 2244 1656 1747 
Q 1656 1250 1848 986 
Q 2041 722 2400 722 
Q 2759 722 2948 984 
Q 3138 1247 3138 1747 
Q 3138 2247 2948 2509 
Q 2759 2772 2400 2772 
z
" transform="scale(0.015625)"/>
      <path id="DejaVuSans-Bold-73" d="M 3272 3391 
L 3272 2541 
Q 2913 2691 2578 2766 
Q 2244 2841 1947 2841 
Q 1628 2841 1473 2761 
Q 1319 2681 1319 2516 
Q 1319 2381 1436 2309 
Q 1553 2238 1856 2203 
L 2053 2175 
Q 2913 2066 3209 1816 
Q 3506 1566 3506 1031 
Q 3506 472 3093 190 
Q 2681 -91 1863 -91 
Q 1516 -91 1145 -36 
Q 775 19 384 128 
L 384 978 
Q 719 816 1070 734 
Q 1422 653 1784 653 
Q 2113 653 2278 743 
Q 2444 834 2444 1013 
Q 2444 1163 2330 1236 
Q 2216 1309 1875 1350 
L 1678 1375 
Q 931 1469 631 1722 
Q 331 1975 331 2491 
Q 331 3047 712 3315 
Q 1094 3584 1881 3584 
Q 2191 3584 2531 3537 
Q 2872 3491 3272 3391 
z
" transform="scale(0.015625)"/>
      <path id="DejaVuSans-Bold-6b" d="M 538 4863 
L 1656 4863 
L 1656 2216 
L 2944 3500 
L 4244 3500 
L 2534 1894 
L 4378 0 
L 3022 0 
L 1656 1459 
L 1656 0 
L 538 0 
L 538 4863 
z
" transform="scale(0.015625)"/>
      <path id="DejaVuSans-Bold-74" d="M 1759 4494 
L 1759 3500 
L 2913 3500 
L 2913 2700 
L 1759 2700 
L 1759 1216 
Q 1759 972 1856 886 
Q 1953 800 2241 800 
L 2816 800 
L 2816 0 
L 1856 0 
Q 1194 0 917 276 
Q 641 553 641 1216 
L 641 2700 
L 84 2700 
L 84 3500 
L 641 3500 
L 641 4494 
L 1759 4494 
z
" transform="scale(0.015625)"/>
      <path id="DejaVuSans-Bold-69" d="M 538 3500 
L 1656 3500 
L 1656 0 
L 538 0 
L 538 3500 
z
M 538 4863 
L 1656 4863 
L 1656 3950 
L 538 3950 
L 538 4863 
z
" transform="scale(0.015625)"/>
      <path id="DejaVuSans-Bold-10d" d="M 3366 3391 
L 3366 2478 
Q 3138 2634 2908 2709 
Q 2678 2784 2431 2784 
Q 1963 2784 1702 2511 
Q 1441 2238 1441 1747 
Q 1441 1256 1702 982 
Q 1963 709 2431 709 
Q 2694 709 2930 787 
Q 3166 866 3366 1019 
L 3366 103 
Q 3103 6 2833 -42 
Q 2563 -91 2291 -91 
Q 1344 -91 809 395 
Q 275 881 275 1747 
Q 275 2613 809 3098 
Q 1344 3584 2291 3584 
Q 2566 3584 2833 3536 
Q 3100 3488 3366 3391 
z
M 1878 3944 
L 1078 5119 
L 1634 5119 
L 2256 4409 
L 2878 5119 
L 3434 5119 
L 2634 3944 
L 1878 3944 
z
" transform="scale(0.015625)"/>
      <path id="DejaVuSans-Bold-6d" d="M 3781 2919 
Q 3994 3244 4286 3414 
Q 4578 3584 4928 3584 
Q 5531 3584 5847 3212 
Q 6163 2841 6163 2131 
L 6163 0 
L 5038 0 
L 5038 1825 
Q 5041 1866 5042 1909 
Q 5044 1953 5044 2034 
Q 5044 2406 4934 2573 
Q 4825 2741 4581 2741 
Q 4263 2741 4089 2478 
Q 3916 2216 3909 1719 
L 3909 0 
L 2784 0 
L 2784 1825 
Q 2784 2406 2684 2573 
Q 2584 2741 2328 2741 
Q 2006 2741 1831 2477 
Q 1656 2213 1656 1722 
L 1656 0 
L 531 0 
L 531 3500 
L 1656 3500 
L 1656 2988 
Q 1863 3284 2130 3434 
Q 2397 3584 2719 3584 
Q 3081 3584 3359 3409 
Q 3638 3234 3781 2919 
z
" transform="scale(0.015625)"/>
      <path id="DejaVuSans-Bold-67" d="M 2919 594 
Q 2688 288 2409 144 
Q 2131 0 1766 0 
Q 1125 0 706 504 
Q 288 1009 288 1791 
Q 288 2575 706 3076 
Q 1125 3578 1766 3578 
Q 2131 3578 2409 3434 
Q 2688 3291 2919 2981 
L 2919 3500 
L 4044 3500 
L 4044 353 
Q 4044 -491 3511 -936 
Q 2978 -1381 1966 -1381 
Q 1638 -1381 1331 -1331 
Q 1025 -1281 716 -1178 
L 716 -306 
Q 1009 -475 1290 -558 
Q 1572 -641 1856 -641 
Q 2406 -641 2662 -400 
Q 2919 -159 2919 353 
L 2919 594 
z
M 2181 2772 
Q 1834 2772 1640 2515 
Q 1447 2259 1447 1791 
Q 1447 1309 1634 1061 
Q 1822 813 2181 813 
Q 2531 813 2725 1069 
Q 2919 1325 2919 1791 
Q 2919 2259 2725 2515 
Q 2531 2772 2181 2772 
z
" transform="scale(0.015625)"/>
      <path id="DejaVuSans-Bold-161" d="M 1502 3944 
L 702 5119 
L 1258 5119 
L 1880 4409 
L 2502 5119 
L 3058 5119 
L 2258 3944 
L 1502 3944 
z
M 3272 3391 
L 3272 2541 
Q 2913 2691 2578 2766 
Q 2244 2841 1947 2841 
Q 1628 2841 1473 2761 
Q 1319 2681 1319 2516 
Q 1319 2381 1436 2309 
Q 1553 2238 1856 2203 
L 2053 2175 
Q 2913 2066 3209 1816 
Q 3506 1566 3506 1031 
Q 3506 472 3093 190 
Q 2681 -91 1863 -91 
Q 1516 -91 1145 -36 
Q 775 19 384 128 
L 384 978 
Q 719 816 1070 734 
Q 1422 653 1784 653 
Q 2113 653 2278 743 
Q 2444 834 2444 1013 
Q 2444 1163 2330 1236 
Q 2216 1309 1875 1350 
L 1678 1375 
Q 931 1469 631 1722 
Q 331 1975 331 2491 
Q 331 3047 712 3315 
Q 1094 3584 1881 3584 
Q 2191 3584 2531 3537 
Q 2872 3491 3272 3391 
z
" transform="scale(0.015625)"/>
      <path id="DejaVuSans-Bold-75" d="M 500 1363 
L 500 3500 
L 1625 3500 
L 1625 3150 
Q 1625 2866 1622 2436 
Q 1619 2006 1619 1863 
Q 1619 1441 1641 1255 
Q 1663 1069 1716 984 
Q 1784 875 1895 815 
Q 2006 756 2150 756 
Q 2500 756 2700 1025 
Q 2900 1294 2900 1772 
L 2900 3500 
L 4019 3500 
L 4019 0 
L 2900 0 
L 2900 506 
Q 2647 200 2364 54 
Q 2081 -91 1741 -91 
Q 1134 -91 817 281 
Q 500 653 500 1363 
z
" transform="scale(0.015625)"/>
     </defs>
     <use xlink:href="#DejaVuSans-Bold-4e"/>
     <use xlink:href="#DejaVuSans-Bold-61" transform="translate(83.691406 0)"/>
     <use xlink:href="#DejaVuSans-Bold-70" transform="translate(151.171875 0)"/>
     <use xlink:href="#DejaVuSans-Bold-6f" transform="translate(222.753906 0)"/>
     <use xlink:href="#DejaVuSans-Bold-6e" transform="translate(291.455078 0)"/>
     <use xlink:href="#DejaVuSans-Bold-73" transform="translate(362.646484 0)"/>
     <use xlink:href="#DejaVuSans-Bold-6b" transform="translate(422.167969 0)"/>
     <use xlink:href="#DejaVuSans-Bold-61" transform="translate(488.671875 0)"/>
     <use xlink:href="#DejaVuSans-Bold-20" transform="translate(556.152344 0)"/>
     <use xlink:href="#DejaVuSans-Bold-70" transform="translate(590.966797 0)"/>
     <use xlink:href="#DejaVuSans-Bold-72" transform="translate(662.548828 0)"/>
     <use xlink:href="#DejaVuSans-Bold-65" transform="translate(711.865234 0)"/>
     <use xlink:href="#DejaVuSans-Bold-6e" transform="translate(779.6875 0)"/>
     <use xlink:href="#DejaVuSans-Bold-6f" transform="translate(850.878906 0)"/>
     <use xlink:href="#DejaVuSans-Bold-73" transform="translate(919.580078 0)"/>
     <use xlink:href="#DejaVuSans-Bold-6e" transform="translate(979.101562 0)"/>
     <use xlink:href="#DejaVuSans-Bold-61" transform="translate(1050.292969 0)"/>
     <use xlink:href="#DejaVuSans-Bold-20" transform="translate(1117.773438 0)"/>
     <use xlink:href="#DejaVuSans-Bold-6b" transform="translate(1152.587891 0)"/>
     <use xlink:href="#DejaVuSans-Bold-61" transform="translate(1219.091797 0)"/>
     <use xlink:href="#DejaVuSans-Bold-72" transform="translate(1286.572266 0)"/>
     <use xlink:href="#DejaVuSans-Bold-61" transform="translate(1335.888672 0)"/>
     <use xlink:href="#DejaVuSans-Bold-6b" transform="translate(1403.369141 0)"/>
     <use xlink:href="#DejaVuSans-Bold-74" transform="translate(1469.873047 0)"/>
     <use xlink:href="#DejaVuSans-Bold-65" transform="translate(1517.675781 0)"/>
     <use xlink:href="#DejaVuSans-Bold-72" transform="translate(1585.498047 0)"/>
     <use xlink:href="#DejaVuSans-Bold-69" transform="translate(1634.814453 0)"/>
     <use xlink:href="#DejaVuSans-Bold-73" transform="translate(1669.091797 0)"/>
     <use xlink:href="#DejaVuSans-Bold-74" transform="translate(1728.613281 0)"/>
     <use xlink:href="#DejaVuSans-Bold-69" transform="translate(1776.416016 0)"/>
     <use xlink:href="#DejaVuSans-Bold-6b" transform="translate(1810.693359 0)"/>
     <use xlink:href="#DejaVuSans-Bold-61" transform="translate(1877.197266 0)"/>
     <use xlink:href="#DejaVuSans-Bold-20" transform="translate(1944.677734 0)"/>
     <use xlink:href="#DejaVuSans-Bold-69" transform="translate(1979.492188 0)"/>
     <use xlink:href="#DejaVuSans-Bold-20" transform="translate(2013.769531 0)"/>
     <use xlink:href="#DejaVuSans-Bold-73" transform="translate(2048.583984 0)"/>
     <use xlink:href="#DejaVuSans-Bold-74" transform="translate(2108.105469 0)"/>
     <use xlink:href="#DejaVuSans-Bold-61" transform="translate(2155.908203 0)"/>
     <use xlink:href="#DejaVuSans-Bold-74" transform="translate(2223.388672 0)"/>
     <use xlink:href="#DejaVuSans-Bold-69" transform="translate(2271.191406 0)"/>
     <use xlink:href="#DejaVuSans-Bold-10d" transform="translate(2305.46875 0)"/>
     <use xlink:href="#DejaVuSans-Bold-6b" transform="translate(2364.746094 0)"/>
     <use xlink:href="#DejaVuSans-Bold-65" transform="translate(2428.625 0)"/>
     <use xlink:href="#DejaVuSans-Bold-20" transform="translate(2496.447266 0)"/>
     <use xlink:href="#DejaVuSans-Bold-6d" transform="translate(2531.261719 0)"/>
     <use xlink:href="#DejaVuSans-Bold-61" transform="translate(2635.460938 0)"/>
     <use xlink:href="#DejaVuSans-Bold-72" transform="translate(2702.941406 0)"/>
     <use xlink:href="#DejaVuSans-Bold-67" transform="translate(2752.257812 0)"/>
     <use xlink:href="#DejaVuSans-Bold-69" transform="translate(2823.839844 0)"/>
     <use xlink:href="#DejaVuSans-Bold-6e" transform="translate(2858.117188 0)"/>
     <use xlink:href="#DejaVuSans-Bold-65" transform="translate(2929.308594 0)"/>
     <use xlink:href="#DejaVuSans-Bold-20" transform="translate(2997.130859 0)"/>
     <use xlink:href="#DejaVuSans-Bold-161" transform="translate(3031.945312 0)"/>
     <use xlink:href="#DejaVuSans-Bold-75" transform="translate(3091.466797 0)"/>
     <use xlink:href="#DejaVuSans-Bold-6d" transform="translate(3162.658203 0)"/>
     <use xlink:href="#DejaVuSans-Bold-61" transform="translate(3266.857422 0)"/>
    </g>
   </g>
   <g id="line2d_41">
    <defs>
     <path id="md676ce856b" d="M 0 3 
C 0.795609 3 1.55874 2.683901 2.12132 2.12132 
C 2.683901 1.55874 3 0.795609 3 0 
C 3 -0.795609 2.683901 -1.55874 2.12132 -2.12132 
C 1.55874 -2.683901 0.795609 -3 0 -3 
C -0.795609 -3 -1.55874 -2.683901 -2.12132 -2.12132 
C -2.683901 -1.55874 -3 -0.795609 -3 0 
C -3 0.795609 -2.683901 1.55874 -2.12132 2.12132 
C -1.55874 2.683901 -0.795609 3 0 3 
z
" style="stroke: #ff0000"/>
    </defs>
    <g clip-path="url(#p260f974608)">
     <use xlink:href="#md676ce856b" x="482.17168" y="310.228585" style="fill: #ff0000; stroke: #ff0000"/>
    </g>
   </g>
   <g id="legend_1">
    <g id="patch_13">
     <path d="M 663 74.67625 
L 846.2 74.67625 
Q 848.2 74.67625 848.2 72.67625 
L 848.2 44.32 
Q 848.2 42.32 846.2 42.32 
L 663 42.32 
Q 661 42.32 661 44.32 
L 661 72.67625 
Q 661 74.67625 663 74.67625 
z
" style="fill: #ffffff; opacity: 0.9; stroke: #000000; stroke-linejoin: miter"/>
    </g>
    <g id="line2d_42">
     <path d="M 665 50.418437 
L 675 50.418437 
L 685 50.418437 
" style="fill: none; stroke: #0033a0; stroke-width: 2.5; stroke-linecap: square"/>
    </g>
    <g id="text_29">
     <!-- Prenosna karakteristika $V_O(V_I)$ -->
     <g transform="translate(693 53.918437) scale(0.1 -0.1)">
      <defs>
       <path id="DejaVuSans-50" d="M 1259 4147 
L 1259 2394 
L 2053 2394 
Q 2494 2394 2734 2622 
Q 2975 2850 2975 3272 
Q 2975 3691 2734 3919 
Q 2494 4147 2053 4147 
L 1259 4147 
z
M 628 4666 
L 2053 4666 
Q 2838 4666 3239 4311 
Q 3641 3956 3641 3272 
Q 3641 2581 3239 2228 
Q 2838 1875 2053 1875 
L 1259 1875 
L 1259 0 
L 628 0 
L 628 4666 
z
" transform="scale(0.015625)"/>
       <path id="DejaVuSans-72" d="M 2631 2963 
Q 2534 3019 2420 3045 
Q 2306 3072 2169 3072 
Q 1681 3072 1420 2755 
Q 1159 2438 1159 1844 
L 1159 0 
L 581 0 
L 581 3500 
L 1159 3500 
L 1159 2956 
Q 1341 3275 1631 3429 
Q 1922 3584 2338 3584 
Q 2397 3584 2469 3576 
Q 2541 3569 2628 3553 
L 2631 2963 
z
" transform="scale(0.015625)"/>
      </defs>
      <use xlink:href="#DejaVuSans-50" transform="translate(0 0.015625)"/>
      <use xlink:href="#DejaVuSans-72" transform="translate(60.302734 0.015625)"/>
      <use xlink:href="#DejaVuSans-65" transform="translate(101.416016 0.015625)"/>
      <use xlink:href="#DejaVuSans-6e" transform="translate(162.939453 0.015625)"/>
      <use xlink:href="#DejaVuSans-6f" transform="translate(226.318359 0.015625)"/>
      <use xlink:href="#DejaVuSans-73" transform="translate(287.5 0.015625)"/>
      <use xlink:href="#DejaVuSans-6e" transform="translate(339.599609 0.015625)"/>
      <use xlink:href="#DejaVuSans-61" transform="translate(402.978516 0.015625)"/>
      <use xlink:href="#DejaVuSans-20" transform="translate(464.257812 0.015625)"/>
      <use xlink:href="#DejaVuSans-6b" transform="translate(496.044922 0.015625)"/>
      <use xlink:href="#DejaVuSans-61" transform="translate(553.955078 0.015625)"/>
      <use xlink:href="#DejaVuSans-72" transform="translate(615.234375 0.015625)"/>
      <use xlink:href="#DejaVuSans-61" transform="translate(656.347656 0.015625)"/>
      <use xlink:href="#DejaVuSans-6b" transform="translate(717.626953 0.015625)"/>
      <use xlink:href="#DejaVuSans-74" transform="translate(775.537109 0.015625)"/>
      <use xlink:href="#DejaVuSans-65" transform="translate(814.746094 0.015625)"/>
      <use xlink:href="#DejaVuSans-72" transform="translate(876.269531 0.015625)"/>
      <use xlink:href="#DejaVuSans-69" transform="translate(917.382812 0.015625)"/>
      <use xlink:href="#DejaVuSans-73" transform="translate(945.166016 0.015625)"/>
      <use xlink:href="#DejaVuSans-74" transform="translate(997.265625 0.015625)"/>
      <use xlink:href="#DejaVuSans-69" transform="translate(1036.474609 0.015625)"/>
      <use xlink:href="#DejaVuSans-6b" transform="translate(1064.257812 0.015625)"/>
      <use xlink:href="#DejaVuSans-61" transform="translate(1122.167969 0.015625)"/>
      <use xlink:href="#DejaVuSans-20" transform="translate(1183.447266 0.015625)"/>
      <use xlink:href="#DejaVuSans-Oblique-56" transform="translate(1215.234375 0.015625)"/>
      <use xlink:href="#DejaVuSans-Oblique-4f" transform="translate(1283.642578 -16.390625) scale(0.7)"/>
      <use xlink:href="#DejaVuSans-28" transform="translate(1341.474609 0.015625)"/>
      <use xlink:href="#DejaVuSans-Oblique-56" transform="translate(1380.488281 0.015625)"/>
      <use xlink:href="#DejaVuSans-Oblique-49" transform="translate(1448.896484 -16.390625) scale(0.7)"/>
      <use xlink:href="#DejaVuSans-29" transform="translate(1472.275391 0.015625)"/>
     </g>
    </g>
    <g id="line2d_43">
     <path d="M 665 65.096563 
L 675 65.096563 
L 685 65.096563 
" style="fill: none; stroke-dasharray: 9.6,2.4,1.5,2.4; stroke-dashoffset: 0; stroke: #808080; stroke-width: 1.5"/>
    </g>
    <g id="text_30">
     <!-- Prava kroz $P_0$ i $P_1$ -->
     <g transform="translate(693 68.596563) scale(0.1 -0.1)">
      <defs>
       <path id="DejaVuSans-76" d="M 191 3500 
L 800 3500 
L 1894 563 
L 2988 3500 
L 3597 3500 
L 2284 0 
L 1503 0 
L 191 3500 
z
" transform="scale(0.015625)"/>
       <path id="DejaVuSans-Oblique-50" d="M 1081 4666 
L 2541 4666 
Q 3178 4666 3512 4369 
Q 3847 4072 3847 3500 
Q 3847 2731 3353 2303 
Q 2859 1875 1966 1875 
L 1172 1875 
L 806 0 
L 172 0 
L 1081 4666 
z
M 1613 4147 
L 1275 2394 
L 2069 2394 
Q 2606 2394 2893 2669 
Q 3181 2944 3181 3456 
Q 3181 3784 2986 3965 
Q 2791 4147 2438 4147 
L 1613 4147 
z
" transform="scale(0.015625)"/>
      </defs>
      <use xlink:href="#DejaVuSans-50" transform="translate(0 0.015625)"/>
      <use xlink:href="#DejaVuSans-72" transform="translate(60.302734 0.015625)"/>
      <use xlink:href="#DejaVuSans-61" transform="translate(101.416016 0.015625)"/>
      <use xlink:href="#DejaVuSans-76" transform="translate(162.695312 0.015625)"/>
      <use xlink:href="#DejaVuSans-61" transform="translate(221.875 0.015625)"/>
      <use xlink:href="#DejaVuSans-20" transform="translate(283.154297 0.015625)"/>
      <use xlink:href="#DejaVuSans-6b" transform="translate(314.941406 0.015625)"/>
      <use xlink:href="#DejaVuSans-72" transform="translate(372.851562 0.015625)"/>
      <use xlink:href="#DejaVuSans-6f" transform="translate(413.964844 0.015625)"/>
      <use xlink:href="#DejaVuSans-7a" transform="translate(475.146484 0.015625)"/>
      <use xlink:href="#DejaVuSans-20" transform="translate(527.636719 0.015625)"/>
      <use xlink:href="#DejaVuSans-Oblique-50" transform="translate(559.423828 0.015625)"/>
      <use xlink:href="#DejaVuSans-30" transform="translate(619.726562 -16.390625) scale(0.7)"/>
      <use xlink:href="#DejaVuSans-20" transform="translate(666.99707 0.015625)"/>
      <use xlink:href="#DejaVuSans-69" transform="translate(698.78418 0.015625)"/>
      <use xlink:href="#DejaVuSans-20" transform="translate(726.567383 0.015625)"/>
      <use xlink:href="#DejaVuSans-Oblique-50" transform="translate(758.354492 0.015625)"/>
      <use xlink:href="#DejaVuSans-31" transform="translate(818.657227 -16.390625) scale(0.7)"/>
     </g>
    </g>
   </g>
  </g>
 </g>
 <defs>
  <clipPath id="p260f974608">
   <rect x="53.57" y="37.32" width="799.63" height="490.96"/>
  </clipPath>
 </defs>
</svg>
