<?xml version="1.0" encoding="utf-8" standalone="no"?>
<!DOCTYPE svg PUBLIC "-//W3C//DTD SVG 1.1//EN"
  "http://www.w3.org/Graphics/SVG/1.1/DTD/svg11.dtd">
<svg xmlns:xlink="http://www.w3.org/1999/xlink" width="855.520625pt" height="421.307875pt" viewBox="0 0 855.520625 421.307875" xmlns="http://www.w3.org/2000/svg" version="1.1">
 <metadata>
  <rdf:RDF xmlns:dc="http://purl.org/dc/elements/1.1/" xmlns:cc="http://creativecommons.org/ns#" xmlns:rdf="http://www.w3.org/1999/02/22-rdf-syntax-ns#">
   <cc:Work>
    <dc:type rdf:resource="http://purl.org/dc/dcmitype/StillImage"/>
    <dc:date>2026-05-10T03:51:28.381703</dc:date>
    <dc:format>image/svg+xml</dc:format>
    <dc:creator>
     <cc:Agent>
      <dc:title>Matplotlib v3.10.8, https://matplotlib.org/</dc:title>
     </cc:Agent>
    </dc:creator>
   </cc:Work>
  </rdf:RDF>
 </metadata>
 <defs>
  <style type="text/css">*{stroke-linejoin: round; stroke-linecap: butt}</style>
 </defs>
 <g id="figure_1">
  <g id="patch_1">
   <path d="M 0 421.307875 
L 855.520625 421.307875 
L 855.520625 0 
L 0 0 
z
" style="fill: #ffffff"/>
  </g>
  <g id="axes_1">
   <g id="patch_2">
    <path d="M 45.716875 381.816 
L 838.776875 381.816 
L 838.776875 32.84 
L 45.716875 32.84 
z
" style="fill: #ffffff"/>
   </g>
   <g id="matplotlib.axis_1">
    <g id="xtick_1">
     <g id="line2d_1">
      <path d="M 45.716875 381.816 
L 45.716875 32.84 
" clip-path="url(#pe8f8215c19)" style="fill: none; stroke-dasharray: 0.8,1.32; stroke-dashoffset: 0; stroke: #b0b0b0; stroke-opacity: 0.6; stroke-width: 0.8"/>
     </g>
     <g id="line2d_2">
      <defs>
       <path id="md4cd1b477f" d="M 0 0 
L 0 3.5 
" style="stroke: #000000; stroke-width: 0.8"/>
      </defs>
      <g>
       <use xlink:href="#md4cd1b477f" x="45.716875" y="381.816" style="stroke: #000000; stroke-width: 0.8"/>
      </g>
     </g>
     <g id="text_1">
      <!-- 0 -->
      <g transform="translate(42.535625 396.414437) scale(0.1 -0.1)">
       <defs>
        <path id="DejaVuSans-30" d="M 2034 4250 
Q 1547 4250 1301 3770 
Q 1056 3291 1056 2328 
Q 1056 1369 1301 889 
Q 1547 409 2034 409 
Q 2525 409 2770 889 
Q 3016 1369 3016 2328 
Q 3016 3291 2770 3770 
Q 2525 4250 2034 4250 
z
M 2034 4750 
Q 2819 4750 3233 4129 
Q 3647 3509 3647 2328 
Q 3647 1150 3233 529 
Q 2819 -91 2034 -91 
Q 1250 -91 836 529 
Q 422 1150 422 2328 
Q 422 3509 836 4129 
Q 1250 4750 2034 4750 
z
" transform="scale(0.015625)"/>
       </defs>
       <use xlink:href="#DejaVuSans-30"/>
      </g>
     </g>
    </g>
    <g id="xtick_2">
     <g id="line2d_3">
      <path d="M 204.328875 381.816 
L 204.328875 32.84 
" clip-path="url(#pe8f8215c19)" style="fill: none; stroke-dasharray: 0.8,1.32; stroke-dashoffset: 0; stroke: #b0b0b0; stroke-opacity: 0.6; stroke-width: 0.8"/>
     </g>
     <g id="line2d_4">
      <g>
       <use xlink:href="#md4cd1b477f" x="204.328875" y="381.816" style="stroke: #000000; stroke-width: 0.8"/>
      </g>
     </g>
     <g id="text_2">
      <!-- 100 -->
      <g transform="translate(194.785125 396.414437) scale(0.1 -0.1)">
       <defs>
        <path id="DejaVuSans-31" d="M 794 531 
L 1825 531 
L 1825 4091 
L 703 3866 
L 703 4441 
L 1819 4666 
L 2450 4666 
L 2450 531 
L 3481 531 
L 3481 0 
L 794 0 
L 794 531 
z
" transform="scale(0.015625)"/>
       </defs>
       <use xlink:href="#DejaVuSans-31"/>
       <use xlink:href="#DejaVuSans-30" transform="translate(63.623047 0)"/>
       <use xlink:href="#DejaVuSans-30" transform="translate(127.246094 0)"/>
      </g>
     </g>
    </g>
    <g id="xtick_3">
     <g id="line2d_5">
      <path d="M 362.940875 381.816 
L 362.940875 32.84 
" clip-path="url(#pe8f8215c19)" style="fill: none; stroke-dasharray: 0.8,1.32; stroke-dashoffset: 0; stroke: #b0b0b0; stroke-opacity: 0.6; stroke-width: 0.8"/>
     </g>
     <g id="line2d_6">
      <g>
       <use xlink:href="#md4cd1b477f" x="362.940875" y="381.816" style="stroke: #000000; stroke-width: 0.8"/>
      </g>
     </g>
     <g id="text_3">
      <!-- 200 -->
      <g transform="translate(353.397125 396.414437) scale(0.1 -0.1)">
       <defs>
        <path id="DejaVuSans-32" d="M 1228 531 
L 3431 531 
L 3431 0 
L 469 0 
L 469 531 
Q 828 903 1448 1529 
Q 2069 2156 2228 2338 
Q 2531 2678 2651 2914 
Q 2772 3150 2772 3378 
Q 2772 3750 2511 3984 
Q 2250 4219 1831 4219 
Q 1534 4219 1204 4116 
Q 875 4013 500 3803 
L 500 4441 
Q 881 4594 1212 4672 
Q 1544 4750 1819 4750 
Q 2544 4750 2975 4387 
Q 3406 4025 3406 3419 
Q 3406 3131 3298 2873 
Q 3191 2616 2906 2266 
Q 2828 2175 2409 1742 
Q 1991 1309 1228 531 
z
" transform="scale(0.015625)"/>
       </defs>
       <use xlink:href="#DejaVuSans-32"/>
       <use xlink:href="#DejaVuSans-30" transform="translate(63.623047 0)"/>
       <use xlink:href="#DejaVuSans-30" transform="translate(127.246094 0)"/>
      </g>
     </g>
    </g>
    <g id="xtick_4">
     <g id="line2d_7">
      <path d="M 521.552875 381.816 
L 521.552875 32.84 
" clip-path="url(#pe8f8215c19)" style="fill: none; stroke-dasharray: 0.8,1.32; stroke-dashoffset: 0; stroke: #b0b0b0; stroke-opacity: 0.6; stroke-width: 0.8"/>
     </g>
     <g id="line2d_8">
      <g>
       <use xlink:href="#md4cd1b477f" x="521.552875" y="381.816" style="stroke: #000000; stroke-width: 0.8"/>
      </g>
     </g>
     <g id="text_4">
      <!-- 300 -->
      <g transform="translate(512.009125 396.414437) scale(0.1 -0.1)">
       <defs>
        <path id="DejaVuSans-33" d="M 2597 2516 
Q 3050 2419 3304 2112 
Q 3559 1806 3559 1356 
Q 3559 666 3084 287 
Q 2609 -91 1734 -91 
Q 1441 -91 1130 -33 
Q 819 25 488 141 
L 488 750 
Q 750 597 1062 519 
Q 1375 441 1716 441 
Q 2309 441 2620 675 
Q 2931 909 2931 1356 
Q 2931 1769 2642 2001 
Q 2353 2234 1838 2234 
L 1294 2234 
L 1294 2753 
L 1863 2753 
Q 2328 2753 2575 2939 
Q 2822 3125 2822 3475 
Q 2822 3834 2567 4026 
Q 2313 4219 1838 4219 
Q 1578 4219 1281 4162 
Q 984 4106 628 3988 
L 628 4550 
Q 988 4650 1302 4700 
Q 1616 4750 1894 4750 
Q 2613 4750 3031 4423 
Q 3450 4097 3450 3541 
Q 3450 3153 3228 2886 
Q 3006 2619 2597 2516 
z
" transform="scale(0.015625)"/>
       </defs>
       <use xlink:href="#DejaVuSans-33"/>
       <use xlink:href="#DejaVuSans-30" transform="translate(63.623047 0)"/>
       <use xlink:href="#DejaVuSans-30" transform="translate(127.246094 0)"/>
      </g>
     </g>
    </g>
    <g id="xtick_5">
     <g id="line2d_9">
      <path d="M 680.164875 381.816 
L 680.164875 32.84 
" clip-path="url(#pe8f8215c19)" style="fill: none; stroke-dasharray: 0.8,1.32; stroke-dashoffset: 0; stroke: #b0b0b0; stroke-opacity: 0.6; stroke-width: 0.8"/>
     </g>
     <g id="line2d_10">
      <g>
       <use xlink:href="#md4cd1b477f" x="680.164875" y="381.816" style="stroke: #000000; stroke-width: 0.8"/>
      </g>
     </g>
     <g id="text_5">
      <!-- 400 -->
      <g transform="translate(670.621125 396.414437) scale(0.1 -0.1)">
       <defs>
        <path id="DejaVuSans-34" d="M 2419 4116 
L 825 1625 
L 2419 1625 
L 2419 4116 
z
M 2253 4666 
L 3047 4666 
L 3047 1625 
L 3713 1625 
L 3713 1100 
L 3047 1100 
L 3047 0 
L 2419 0 
L 2419 1100 
L 313 1100 
L 313 1709 
L 2253 4666 
z
" transform="scale(0.015625)"/>
       </defs>
       <use xlink:href="#DejaVuSans-34"/>
       <use xlink:href="#DejaVuSans-30" transform="translate(63.623047 0)"/>
       <use xlink:href="#DejaVuSans-30" transform="translate(127.246094 0)"/>
      </g>
     </g>
    </g>
    <g id="xtick_6">
     <g id="line2d_11">
      <path d="M 838.776875 381.816 
L 838.776875 32.84 
" clip-path="url(#pe8f8215c19)" style="fill: none; stroke-dasharray: 0.8,1.32; stroke-dashoffset: 0; stroke: #b0b0b0; stroke-opacity: 0.6; stroke-width: 0.8"/>
     </g>
     <g id="line2d_12">
      <g>
       <use xlink:href="#md4cd1b477f" x="838.776875" y="381.816" style="stroke: #000000; stroke-width: 0.8"/>
      </g>
     </g>
     <g id="text_6">
      <!-- 500 -->
      <g transform="translate(829.233125 396.414437) scale(0.1 -0.1)">
       <defs>
        <path id="DejaVuSans-35" d="M 691 4666 
L 3169 4666 
L 3169 4134 
L 1269 4134 
L 1269 2991 
Q 1406 3038 1543 3061 
Q 1681 3084 1819 3084 
Q 2600 3084 3056 2656 
Q 3513 2228 3513 1497 
Q 3513 744 3044 326 
Q 2575 -91 1722 -91 
Q 1428 -91 1123 -41 
Q 819 9 494 109 
L 494 744 
Q 775 591 1075 516 
Q 1375 441 1709 441 
Q 2250 441 2565 725 
Q 2881 1009 2881 1497 
Q 2881 1984 2565 2268 
Q 2250 2553 1709 2553 
Q 1456 2553 1204 2497 
Q 953 2441 691 2322 
L 691 4666 
z
" transform="scale(0.015625)"/>
       </defs>
       <use xlink:href="#DejaVuSans-35"/>
       <use xlink:href="#DejaVuSans-30" transform="translate(63.623047 0)"/>
       <use xlink:href="#DejaVuSans-30" transform="translate(127.246094 0)"/>
      </g>
     </g>
    </g>
    <g id="text_7">
     <!-- Vreme [ps] -->
     <g transform="translate(409.059375 411.61225) scale(0.12 -0.12)">
      <defs>
       <path id="DejaVuSans-56" d="M 1831 0 
L 50 4666 
L 709 4666 
L 2188 738 
L 3669 4666 
L 4325 4666 
L 2547 0 
L 1831 0 
z
" transform="scale(0.015625)"/>
       <path id="DejaVuSans-72" d="M 2631 2963 
Q 2534 3019 2420 3045 
Q 2306 3072 2169 3072 
Q 1681 3072 1420 2755 
Q 1159 2438 1159 1844 
L 1159 0 
L 581 0 
L 581 3500 
L 1159 3500 
L 1159 2956 
Q 1341 3275 1631 3429 
Q 1922 3584 2338 3584 
Q 2397 3584 2469 3576 
Q 2541 3569 2628 3553 
L 2631 2963 
z
" transform="scale(0.015625)"/>
       <path id="DejaVuSans-65" d="M 3597 1894 
L 3597 1613 
L 953 1613 
Q 991 1019 1311 708 
Q 1631 397 2203 397 
Q 2534 397 2845 478 
Q 3156 559 3463 722 
L 3463 178 
Q 3153 47 2828 -22 
Q 2503 -91 2169 -91 
Q 1331 -91 842 396 
Q 353 884 353 1716 
Q 353 2575 817 3079 
Q 1281 3584 2069 3584 
Q 2775 3584 3186 3129 
Q 3597 2675 3597 1894 
z
M 3022 2063 
Q 3016 2534 2758 2815 
Q 2500 3097 2075 3097 
Q 1594 3097 1305 2825 
Q 1016 2553 972 2059 
L 3022 2063 
z
" transform="scale(0.015625)"/>
       <path id="DejaVuSans-6d" d="M 3328 2828 
Q 3544 3216 3844 3400 
Q 4144 3584 4550 3584 
Q 5097 3584 5394 3201 
Q 5691 2819 5691 2113 
L 5691 0 
L 5113 0 
L 5113 2094 
Q 5113 2597 4934 2840 
Q 4756 3084 4391 3084 
Q 3944 3084 3684 2787 
Q 3425 2491 3425 1978 
L 3425 0 
L 2847 0 
L 2847 2094 
Q 2847 2600 2669 2842 
Q 2491 3084 2119 3084 
Q 1678 3084 1418 2786 
Q 1159 2488 1159 1978 
L 1159 0 
L 581 0 
L 581 3500 
L 1159 3500 
L 1159 2956 
Q 1356 3278 1631 3431 
Q 1906 3584 2284 3584 
Q 2666 3584 2933 3390 
Q 3200 3197 3328 2828 
z
" transform="scale(0.015625)"/>
       <path id="DejaVuSans-20" transform="scale(0.015625)"/>
       <path id="DejaVuSans-5b" d="M 550 4863 
L 1875 4863 
L 1875 4416 
L 1125 4416 
L 1125 -397 
L 1875 -397 
L 1875 -844 
L 550 -844 
L 550 4863 
z
" transform="scale(0.015625)"/>
       <path id="DejaVuSans-70" d="M 1159 525 
L 1159 -1331 
L 581 -1331 
L 581 3500 
L 1159 3500 
L 1159 2969 
Q 1341 3281 1617 3432 
Q 1894 3584 2278 3584 
Q 2916 3584 3314 3078 
Q 3713 2572 3713 1747 
Q 3713 922 3314 415 
Q 2916 -91 2278 -91 
Q 1894 -91 1617 61 
Q 1341 213 1159 525 
z
M 3116 1747 
Q 3116 2381 2855 2742 
Q 2594 3103 2138 3103 
Q 1681 3103 1420 2742 
Q 1159 2381 1159 1747 
Q 1159 1113 1420 752 
Q 1681 391 2138 391 
Q 2594 391 2855 752 
Q 3116 1113 3116 1747 
z
" transform="scale(0.015625)"/>
       <path id="DejaVuSans-73" d="M 2834 3397 
L 2834 2853 
Q 2591 2978 2328 3040 
Q 2066 3103 1784 3103 
Q 1356 3103 1142 2972 
Q 928 2841 928 2578 
Q 928 2378 1081 2264 
Q 1234 2150 1697 2047 
L 1894 2003 
Q 2506 1872 2764 1633 
Q 3022 1394 3022 966 
Q 3022 478 2636 193 
Q 2250 -91 1575 -91 
Q 1294 -91 989 -36 
Q 684 19 347 128 
L 347 722 
Q 666 556 975 473 
Q 1284 391 1588 391 
Q 1994 391 2212 530 
Q 2431 669 2431 922 
Q 2431 1156 2273 1281 
Q 2116 1406 1581 1522 
L 1381 1569 
Q 847 1681 609 1914 
Q 372 2147 372 2553 
Q 372 3047 722 3315 
Q 1072 3584 1716 3584 
Q 2034 3584 2315 3537 
Q 2597 3491 2834 3397 
z
" transform="scale(0.015625)"/>
       <path id="DejaVuSans-5d" d="M 1947 4863 
L 1947 -844 
L 622 -844 
L 622 -397 
L 1369 -397 
L 1369 4416 
L 622 4416 
L 622 4863 
L 1947 4863 
z
" transform="scale(0.015625)"/>
      </defs>
      <use xlink:href="#DejaVuSans-56"/>
      <use xlink:href="#DejaVuSans-72" transform="translate(68.408203 0)"/>
      <use xlink:href="#DejaVuSans-65" transform="translate(107.271484 0)"/>
      <use xlink:href="#DejaVuSans-6d" transform="translate(168.794922 0)"/>
      <use xlink:href="#DejaVuSans-65" transform="translate(266.207031 0)"/>
      <use xlink:href="#DejaVuSans-20" transform="translate(327.730469 0)"/>
      <use xlink:href="#DejaVuSans-5b" transform="translate(359.517578 0)"/>
      <use xlink:href="#DejaVuSans-70" transform="translate(398.53125 0)"/>
      <use xlink:href="#DejaVuSans-73" transform="translate(462.007812 0)"/>
      <use xlink:href="#DejaVuSans-5d" transform="translate(514.107422 0)"/>
     </g>
    </g>
   </g>
   <g id="matplotlib.axis_2">
    <g id="ytick_1">
     <g id="line2d_13">
      <path d="M 45.716875 346.9184 
L 838.776875 346.9184 
" clip-path="url(#pe8f8215c19)" style="fill: none; stroke-dasharray: 0.8,1.32; stroke-dashoffset: 0; stroke: #b0b0b0; stroke-opacity: 0.6; stroke-width: 0.8"/>
     </g>
     <g id="line2d_14">
      <defs>
       <path id="mec740b0858" d="M 0 0 
L -3.5 0 
" style="stroke: #000000; stroke-width: 0.8"/>
      </defs>
      <g>
       <use xlink:href="#mec740b0858" x="45.716875" y="346.9184" style="stroke: #000000; stroke-width: 0.8"/>
      </g>
     </g>
     <g id="text_8">
      <!-- 0.0 -->
      <g transform="translate(22.81375 350.717619) scale(0.1 -0.1)">
       <defs>
        <path id="DejaVuSans-2e" d="M 684 794 
L 1344 794 
L 1344 0 
L 684 0 
L 684 794 
z
" transform="scale(0.015625)"/>
       </defs>
       <use xlink:href="#DejaVuSans-30"/>
       <use xlink:href="#DejaVuSans-2e" transform="translate(63.623047 0)"/>
       <use xlink:href="#DejaVuSans-30" transform="translate(95.410156 0)"/>
      </g>
     </g>
    </g>
    <g id="ytick_2">
     <g id="line2d_15">
      <path d="M 45.716875 294.572 
L 838.776875 294.572 
" clip-path="url(#pe8f8215c19)" style="fill: none; stroke-dasharray: 0.8,1.32; stroke-dashoffset: 0; stroke: #b0b0b0; stroke-opacity: 0.6; stroke-width: 0.8"/>
     </g>
     <g id="line2d_16">
      <g>
       <use xlink:href="#mec740b0858" x="45.716875" y="294.572" style="stroke: #000000; stroke-width: 0.8"/>
      </g>
     </g>
     <g id="text_9">
      <!-- 0.3 -->
      <g transform="translate(22.81375 298.371219) scale(0.1 -0.1)">
       <use xlink:href="#DejaVuSans-30"/>
       <use xlink:href="#DejaVuSans-2e" transform="translate(63.623047 0)"/>
       <use xlink:href="#DejaVuSans-33" transform="translate(95.410156 0)"/>
      </g>
     </g>
    </g>
    <g id="ytick_3">
     <g id="line2d_17">
      <path d="M 45.716875 242.2256 
L 838.776875 242.2256 
" clip-path="url(#pe8f8215c19)" style="fill: none; stroke-dasharray: 0.8,1.32; stroke-dashoffset: 0; stroke: #b0b0b0; stroke-opacity: 0.6; stroke-width: 0.8"/>
     </g>
     <g id="line2d_18">
      <g>
       <use xlink:href="#mec740b0858" x="45.716875" y="242.2256" style="stroke: #000000; stroke-width: 0.8"/>
      </g>
     </g>
     <g id="text_10">
      <!-- 0.6 -->
      <g transform="translate(22.81375 246.024819) scale(0.1 -0.1)">
       <defs>
        <path id="DejaVuSans-36" d="M 2113 2584 
Q 1688 2584 1439 2293 
Q 1191 2003 1191 1497 
Q 1191 994 1439 701 
Q 1688 409 2113 409 
Q 2538 409 2786 701 
Q 3034 994 3034 1497 
Q 3034 2003 2786 2293 
Q 2538 2584 2113 2584 
z
M 3366 4563 
L 3366 3988 
Q 3128 4100 2886 4159 
Q 2644 4219 2406 4219 
Q 1781 4219 1451 3797 
Q 1122 3375 1075 2522 
Q 1259 2794 1537 2939 
Q 1816 3084 2150 3084 
Q 2853 3084 3261 2657 
Q 3669 2231 3669 1497 
Q 3669 778 3244 343 
Q 2819 -91 2113 -91 
Q 1303 -91 875 529 
Q 447 1150 447 2328 
Q 447 3434 972 4092 
Q 1497 4750 2381 4750 
Q 2619 4750 2861 4703 
Q 3103 4656 3366 4563 
z
" transform="scale(0.015625)"/>
       </defs>
       <use xlink:href="#DejaVuSans-30"/>
       <use xlink:href="#DejaVuSans-2e" transform="translate(63.623047 0)"/>
       <use xlink:href="#DejaVuSans-36" transform="translate(95.410156 0)"/>
      </g>
     </g>
    </g>
    <g id="ytick_4">
     <g id="line2d_19">
      <path d="M 45.716875 189.8792 
L 838.776875 189.8792 
" clip-path="url(#pe8f8215c19)" style="fill: none; stroke-dasharray: 0.8,1.32; stroke-dashoffset: 0; stroke: #b0b0b0; stroke-opacity: 0.6; stroke-width: 0.8"/>
     </g>
     <g id="line2d_20">
      <g>
       <use xlink:href="#mec740b0858" x="45.716875" y="189.8792" style="stroke: #000000; stroke-width: 0.8"/>
      </g>
     </g>
     <g id="text_11">
      <!-- 0.9 -->
      <g transform="translate(22.81375 193.678419) scale(0.1 -0.1)">
       <defs>
        <path id="DejaVuSans-39" d="M 703 97 
L 703 672 
Q 941 559 1184 500 
Q 1428 441 1663 441 
Q 2288 441 2617 861 
Q 2947 1281 2994 2138 
Q 2813 1869 2534 1725 
Q 2256 1581 1919 1581 
Q 1219 1581 811 2004 
Q 403 2428 403 3163 
Q 403 3881 828 4315 
Q 1253 4750 1959 4750 
Q 2769 4750 3195 4129 
Q 3622 3509 3622 2328 
Q 3622 1225 3098 567 
Q 2575 -91 1691 -91 
Q 1453 -91 1209 -44 
Q 966 3 703 97 
z
M 1959 2075 
Q 2384 2075 2632 2365 
Q 2881 2656 2881 3163 
Q 2881 3666 2632 3958 
Q 2384 4250 1959 4250 
Q 1534 4250 1286 3958 
Q 1038 3666 1038 3163 
Q 1038 2656 1286 2365 
Q 1534 2075 1959 2075 
z
" transform="scale(0.015625)"/>
       </defs>
       <use xlink:href="#DejaVuSans-30"/>
       <use xlink:href="#DejaVuSans-2e" transform="translate(63.623047 0)"/>
       <use xlink:href="#DejaVuSans-39" transform="translate(95.410156 0)"/>
      </g>
     </g>
    </g>
    <g id="ytick_5">
     <g id="line2d_21">
      <path d="M 45.716875 137.5328 
L 838.776875 137.5328 
" clip-path="url(#pe8f8215c19)" style="fill: none; stroke-dasharray: 0.8,1.32; stroke-dashoffset: 0; stroke: #b0b0b0; stroke-opacity: 0.6; stroke-width: 0.8"/>
     </g>
     <g id="line2d_22">
      <g>
       <use xlink:href="#mec740b0858" x="45.716875" y="137.5328" style="stroke: #000000; stroke-width: 0.8"/>
      </g>
     </g>
     <g id="text_12">
      <!-- 1.2 -->
      <g transform="translate(22.81375 141.332019) scale(0.1 -0.1)">
       <use xlink:href="#DejaVuSans-31"/>
       <use xlink:href="#DejaVuSans-2e" transform="translate(63.623047 0)"/>
       <use xlink:href="#DejaVuSans-32" transform="translate(95.410156 0)"/>
      </g>
     </g>
    </g>
    <g id="ytick_6">
     <g id="line2d_23">
      <path d="M 45.716875 85.1864 
L 838.776875 85.1864 
" clip-path="url(#pe8f8215c19)" style="fill: none; stroke-dasharray: 0.8,1.32; stroke-dashoffset: 0; stroke: #b0b0b0; stroke-opacity: 0.6; stroke-width: 0.8"/>
     </g>
     <g id="line2d_24">
      <g>
       <use xlink:href="#mec740b0858" x="45.716875" y="85.1864" style="stroke: #000000; stroke-width: 0.8"/>
      </g>
     </g>
     <g id="text_13">
      <!-- 1.5 -->
      <g transform="translate(22.81375 88.985619) scale(0.1 -0.1)">
       <use xlink:href="#DejaVuSans-31"/>
       <use xlink:href="#DejaVuSans-2e" transform="translate(63.623047 0)"/>
       <use xlink:href="#DejaVuSans-35" transform="translate(95.410156 0)"/>
      </g>
     </g>
    </g>
    <g id="ytick_7">
     <g id="line2d_25">
      <path d="M 45.716875 32.84 
L 838.776875 32.84 
" clip-path="url(#pe8f8215c19)" style="fill: none; stroke-dasharray: 0.8,1.32; stroke-dashoffset: 0; stroke: #b0b0b0; stroke-opacity: 0.6; stroke-width: 0.8"/>
     </g>
     <g id="line2d_26">
      <g>
       <use xlink:href="#mec740b0858" x="45.716875" y="32.84" style="stroke: #000000; stroke-width: 0.8"/>
      </g>
     </g>
     <g id="text_14">
      <!-- 1.8 -->
      <g transform="translate(22.81375 36.639219) scale(0.1 -0.1)">
       <defs>
        <path id="DejaVuSans-38" d="M 2034 2216 
Q 1584 2216 1326 1975 
Q 1069 1734 1069 1313 
Q 1069 891 1326 650 
Q 1584 409 2034 409 
Q 2484 409 2743 651 
Q 3003 894 3003 1313 
Q 3003 1734 2745 1975 
Q 2488 2216 2034 2216 
z
M 1403 2484 
Q 997 2584 770 2862 
Q 544 3141 544 3541 
Q 544 4100 942 4425 
Q 1341 4750 2034 4750 
Q 2731 4750 3128 4425 
Q 3525 4100 3525 3541 
Q 3525 3141 3298 2862 
Q 3072 2584 2669 2484 
Q 3125 2378 3379 2068 
Q 3634 1759 3634 1313 
Q 3634 634 3220 271 
Q 2806 -91 2034 -91 
Q 1263 -91 848 271 
Q 434 634 434 1313 
Q 434 1759 690 2068 
Q 947 2378 1403 2484 
z
M 1172 3481 
Q 1172 3119 1398 2916 
Q 1625 2713 2034 2713 
Q 2441 2713 2670 2916 
Q 2900 3119 2900 3481 
Q 2900 3844 2670 4047 
Q 2441 4250 2034 4250 
Q 1625 4250 1398 4047 
Q 1172 3844 1172 3481 
z
" transform="scale(0.015625)"/>
       </defs>
       <use xlink:href="#DejaVuSans-31"/>
       <use xlink:href="#DejaVuSans-2e" transform="translate(63.623047 0)"/>
       <use xlink:href="#DejaVuSans-38" transform="translate(95.410156 0)"/>
      </g>
     </g>
    </g>
    <g id="text_15">
     <!-- Napon [V] -->
     <g transform="translate(16.318125 237.469562) rotate(-90) scale(0.12 -0.12)">
      <defs>
       <path id="DejaVuSans-4e" d="M 628 4666 
L 1478 4666 
L 3547 763 
L 3547 4666 
L 4159 4666 
L 4159 0 
L 3309 0 
L 1241 3903 
L 1241 0 
L 628 0 
L 628 4666 
z
" transform="scale(0.015625)"/>
       <path id="DejaVuSans-61" d="M 2194 1759 
Q 1497 1759 1228 1600 
Q 959 1441 959 1056 
Q 959 750 1161 570 
Q 1363 391 1709 391 
Q 2188 391 2477 730 
Q 2766 1069 2766 1631 
L 2766 1759 
L 2194 1759 
z
M 3341 1997 
L 3341 0 
L 2766 0 
L 2766 531 
Q 2569 213 2275 61 
Q 1981 -91 1556 -91 
Q 1019 -91 701 211 
Q 384 513 384 1019 
Q 384 1609 779 1909 
Q 1175 2209 1959 2209 
L 2766 2209 
L 2766 2266 
Q 2766 2663 2505 2880 
Q 2244 3097 1772 3097 
Q 1472 3097 1187 3025 
Q 903 2953 641 2809 
L 641 3341 
Q 956 3463 1253 3523 
Q 1550 3584 1831 3584 
Q 2591 3584 2966 3190 
Q 3341 2797 3341 1997 
z
" transform="scale(0.015625)"/>
       <path id="DejaVuSans-6f" d="M 1959 3097 
Q 1497 3097 1228 2736 
Q 959 2375 959 1747 
Q 959 1119 1226 758 
Q 1494 397 1959 397 
Q 2419 397 2687 759 
Q 2956 1122 2956 1747 
Q 2956 2369 2687 2733 
Q 2419 3097 1959 3097 
z
M 1959 3584 
Q 2709 3584 3137 3096 
Q 3566 2609 3566 1747 
Q 3566 888 3137 398 
Q 2709 -91 1959 -91 
Q 1206 -91 779 398 
Q 353 888 353 1747 
Q 353 2609 779 3096 
Q 1206 3584 1959 3584 
z
" transform="scale(0.015625)"/>
       <path id="DejaVuSans-6e" d="M 3513 2113 
L 3513 0 
L 2938 0 
L 2938 2094 
Q 2938 2591 2744 2837 
Q 2550 3084 2163 3084 
Q 1697 3084 1428 2787 
Q 1159 2491 1159 1978 
L 1159 0 
L 581 0 
L 581 3500 
L 1159 3500 
L 1159 2956 
Q 1366 3272 1645 3428 
Q 1925 3584 2291 3584 
Q 2894 3584 3203 3211 
Q 3513 2838 3513 2113 
z
" transform="scale(0.015625)"/>
      </defs>
      <use xlink:href="#DejaVuSans-4e"/>
      <use xlink:href="#DejaVuSans-61" transform="translate(74.804688 0)"/>
      <use xlink:href="#DejaVuSans-70" transform="translate(136.083984 0)"/>
      <use xlink:href="#DejaVuSans-6f" transform="translate(199.560547 0)"/>
      <use xlink:href="#DejaVuSans-6e" transform="translate(260.742188 0)"/>
      <use xlink:href="#DejaVuSans-20" transform="translate(324.121094 0)"/>
      <use xlink:href="#DejaVuSans-5b" transform="translate(355.908203 0)"/>
      <use xlink:href="#DejaVuSans-56" transform="translate(394.921875 0)"/>
      <use xlink:href="#DejaVuSans-5d" transform="translate(463.330078 0)"/>
     </g>
    </g>
   </g>
   <g id="line2d_27">
    <path d="M 45.716875 346.9184 
L 45.946545 85.1864 
L 204.487487 85.1864 
L 204.717157 346.9184 
L 362.940875 346.9184 
L 363.170545 85.1864 
L 521.711487 85.1864 
L 521.941157 346.9184 
L 680.164875 346.9184 
L 680.394545 85.1864 
L 838.776875 85.1864 
L 838.776875 85.1864 
" clip-path="url(#pe8f8215c19)" style="fill: none; stroke-dasharray: 7.4,3.2; stroke-dashoffset: 0; stroke: #d62728; stroke-width: 2"/>
   </g>
   <g id="line2d_28">
    <path d="M 45.716875 85.186458 
L 45.885638 84.280584 
L 45.946545 84.023347 
L 46.186367 84.664913 
L 46.503591 85.288093 
L 46.662203 85.28241 
L 46.979427 84.868033 
L 47.455263 83.673718 
L 48.406935 80.370821 
L 50.627503 72.362938 
L 51.896399 68.705665 
L 53.006683 66.139337 
L 53.799743 64.771168 
L 54.434191 64.024834 
L 55.068639 63.614237 
L 55.544475 63.530438 
L 56.020311 63.635469 
L 56.654759 64.056083 
L 57.289207 64.774734 
L 58.082267 66.040221 
L 59.033939 68.00442 
L 60.302835 71.186142 
L 62.206179 76.68657 
L 72.357347 107.14583 
L 77.274319 120.61437 
L 96.307759 172.072677 
L 101.541955 187.177427 
L 106.141703 201.132705 
L 110.424227 214.85741 
L 114.706751 229.363589 
L 120.416783 249.611152 
L 125.650979 267.931601 
L 128.664607 277.716539 
L 131.361011 285.7353 
L 133.740191 292.158218 
L 136.119371 297.95527 
L 138.339939 302.816341 
L 140.560507 307.175341 
L 142.781075 311.067259 
L 145.001643 314.530329 
L 147.222211 317.603789 
L 149.601391 320.508467 
L 151.980571 323.056169 
L 154.359751 325.289757 
L 156.897543 327.370264 
L 159.593947 329.286085 
L 162.448963 331.032766 
L 165.462591 332.611934 
L 168.793443 334.095152 
L 172.441519 335.461765 
L 176.406819 336.701862 
L 180.847955 337.851544 
L 185.923539 338.926266 
L 191.633571 339.904585 
L 198.295275 340.817632 
L 204.525554 341.614505 
L 205.115591 346.083299 
L 205.591427 349.4009 
L 206.543099 356.215455 
L 207.177547 359.273935 
L 207.811995 361.351902 
L 208.446443 362.727329 
L 209.080891 363.62756 
L 209.873951 364.334052 
L 210.825623 364.814521 
L 211.935907 365.083729 
L 213.204803 365.142492 
L 214.473699 364.961093 
L 215.583983 364.569852 
L 216.694267 363.910799 
L 217.804551 362.942928 
L 218.914835 361.638845 
L 220.025119 359.990343 
L 221.294015 357.696707 
L 222.721523 354.634554 
L 224.307643 350.708815 
L 226.210987 345.396432 
L 228.590167 338.038535 
L 231.445183 328.442171 
L 235.093259 315.350119 
L 239.851619 297.378128 
L 246.037487 273.090368 
L 254.919759 237.21082 
L 261.898687 209.325459 
L 265.546763 195.678913 
L 268.560391 185.267249 
L 271.256795 176.726902 
L 273.953199 168.932772 
L 276.649603 161.844866 
L 279.346007 155.399001 
L 282.042411 149.526735 
L 284.738815 144.165427 
L 287.593831 138.986137 
L 290.448847 134.266304 
L 293.303863 129.961429 
L 296.317491 125.825782 
L 299.331119 122.071614 
L 302.344747 118.664706 
L 305.516987 115.419843 
L 308.689227 112.493086 
L 312.020079 109.729891 
L 315.350931 107.253311 
L 318.840395 104.935111 
L 322.488471 102.782009 
L 326.295159 100.797337 
L 330.260459 98.981311 
L 334.542983 97.272348 
L 338.984119 95.740567 
L 343.742479 94.333085 
L 348.976675 93.022291 
L 354.686707 91.829922 
L 360.872575 90.768563 
L 362.978942 90.381166 
L 363.170545 89.263485 
L 363.251755 89.437856 
L 363.568979 90.335872 
L 363.727591 90.513492 
L 363.886203 90.481427 
L 364.203427 90.009372 
L 364.679263 88.722064 
L 365.630935 85.222751 
L 367.534279 77.947183 
L 368.485951 75.250846 
L 369.120399 73.9789 
L 369.754847 73.144524 
L 370.230683 72.798879 
L 370.706519 72.681409 
L 371.182355 72.777445 
L 371.816803 73.207082 
L 372.451251 73.939544 
L 373.244311 75.212844 
L 374.195983 77.157427 
L 375.464879 80.256257 
L 377.368223 85.53889 
L 389.264123 119.703477 
L 397.987783 143.136245 
L 406.076995 165.144652 
L 411.787027 181.329444 
L 416.545387 195.470646 
L 420.827911 208.878306 
L 424.951823 222.512683 
L 429.551571 238.524374 
L 438.751067 270.805318 
L 441.764695 280.359785 
L 444.302487 287.69745 
L 446.681667 293.935268 
L 449.060847 299.549899 
L 451.281415 304.248671 
L 453.501983 308.455893 
L 455.722551 312.207899 
L 457.943119 315.543437 
L 460.163687 318.501736 
L 462.542867 321.296327 
L 464.922047 323.746936 
L 467.459839 326.02888 
L 469.997631 328.013252 
L 472.694035 329.841592 
L 475.549051 331.50993 
L 478.562679 333.019955 
L 481.893531 334.440215 
L 485.541607 335.751044 
L 489.665519 336.986212 
L 494.265267 338.121558 
L 499.499463 339.174876 
L 505.526719 340.151564 
L 512.505647 341.050804 
L 520.753471 341.884057 
L 521.749554 342.079309 
L 522.498203 347.497353 
L 524.084323 358.372794 
L 524.718771 360.906403 
L 525.353219 362.603521 
L 525.987667 363.719455 
L 526.622115 364.450499 
L 527.415175 365.028876 
L 528.366847 365.424099 
L 529.477131 365.640461 
L 530.746027 365.663069 
L 532.014923 365.448831 
L 533.125207 365.022502 
L 534.235491 364.32016 
L 535.345775 363.302061 
L 536.456059 361.943749 
L 537.566343 360.240284 
L 538.835239 357.886435 
L 540.262747 354.763019 
L 542.007479 350.354506 
L 544.069435 344.463342 
L 546.448615 336.965398 
L 549.462243 326.693809 
L 553.268931 312.883184 
L 558.185903 294.168633 
L 564.688995 268.493511 
L 582.136315 198.988113 
L 585.149943 188.318429 
L 588.004959 179.031542 
L 590.701363 171.031795 
L 593.397767 163.752955 
L 596.094171 157.135138 
L 598.790575 151.109682 
L 601.486979 145.611781 
L 604.341995 140.303122 
L 607.197011 135.466993 
L 610.052027 131.056805 
L 613.065655 126.820207 
L 616.079283 122.974265 
L 619.092911 119.483756 
L 622.265151 116.158868 
L 625.437391 113.159529 
L 628.609631 110.455387 
L 631.940483 107.903432 
L 635.429947 105.514348 
L 639.078023 103.295145 
L 642.884711 101.249348 
L 646.850011 99.377261 
L 650.973923 97.676326 
L 655.415059 96.088787 
L 660.173419 94.630129 
L 665.249003 93.309565 
L 670.800423 92.099023 
L 676.827679 91.013751 
L 680.202942 90.421216 
L 680.394545 89.303221 
L 680.475756 89.477615 
L 680.79298 90.375525 
L 680.951592 90.552977 
L 681.110204 90.520723 
L 681.427428 90.048257 
L 681.903264 88.760323 
L 682.854936 85.259718 
L 684.75828 77.982441 
L 685.709952 75.286162 
L 686.3444 74.014469 
L 686.978848 73.180443 
L 687.454684 72.835094 
L 687.93052 72.717924 
L 688.406356 72.814255 
L 689.040804 73.244253 
L 689.675252 73.977027 
L 690.468312 75.250641 
L 691.578596 77.55545 
L 693.006104 81.134262 
L 695.226672 87.427271 
L 704.108944 113.200417 
L 709.977588 129.163767 
L 723.459608 165.626581 
L 729.011028 181.372786 
L 733.769388 195.516244 
L 738.051912 208.926442 
L 742.175824 222.563491 
L 746.775572 238.577534 
L 755.816456 270.329934 
L 758.830084 279.924123 
L 761.367876 287.300766 
L 763.747056 293.576475 
L 766.126236 299.228252 
L 768.346804 303.959964 
L 770.567372 308.197924 
L 772.78794 311.978217 
L 775.008508 315.339506 
L 777.229076 318.321032 
L 779.608256 321.137803 
L 781.987436 323.607957 
L 784.525228 325.908079 
L 787.06302 327.908146 
L 789.759424 329.750761 
L 792.61444 331.431879 
L 795.628068 332.95318 
L 798.95892 334.383708 
L 802.606996 335.703637 
L 806.572296 336.903327 
L 811.172044 338.053603 
L 816.247628 339.090677 
L 822.116272 340.060817 
L 828.936588 340.960587 
L 837.0258 341.799483 
L 838.776875 341.955749 
L 838.776875 341.955749 
" clip-path="url(#pe8f8215c19)" style="fill: none; stroke: #2ca02c; stroke-width: 3; stroke-linecap: square"/>
   </g>
   <g id="line2d_29">
    <path d="M 45.716875 320.7452 
L 838.776875 320.7452 
" clip-path="url(#pe8f8215c19)" style="fill: none; stroke-dasharray: 5.55,2.4; stroke-dashoffset: 0; stroke: #0000ff; stroke-opacity: 0.7; stroke-width: 1.5"/>
   </g>
   <g id="line2d_30">
    <path d="M 45.716875 111.3596 
L 838.776875 111.3596 
" clip-path="url(#pe8f8215c19)" style="fill: none; stroke-dasharray: 5.55,2.4; stroke-dashoffset: 0; stroke: #0000ff; stroke-opacity: 0.7; stroke-width: 1.5"/>
   </g>
   <g id="line2d_31">
    <path d="M 233.614964 320.7452 
L 233.614964 216.0524 
" clip-path="url(#pe8f8215c19)" style="fill: none; stroke-dasharray: 1.5,2.475; stroke-dashoffset: 0; stroke: #000000; stroke-width: 1.5"/>
   </g>
   <g id="line2d_32">
    <path d="M 310.011965 216.0524 
L 310.011965 111.3596 
" clip-path="url(#pe8f8215c19)" style="fill: none; stroke-dasharray: 1.5,2.475; stroke-dashoffset: 0; stroke: #000000; stroke-width: 1.5"/>
   </g>
   <g id="line2d_33">
    <path d="M 386.238038 216.0524 
L 386.238038 111.3596 
" clip-path="url(#pe8f8215c19)" style="fill: none; stroke-dasharray: 1.5,2.475; stroke-dashoffset: 0; stroke: #000000; stroke-width: 1.5"/>
   </g>
   <g id="line2d_34">
    <path d="M 462.048392 320.7452 
L 462.048392 216.0524 
" clip-path="url(#pe8f8215c19)" style="fill: none; stroke-dasharray: 1.5,2.475; stroke-dashoffset: 0; stroke: #000000; stroke-width: 1.5"/>
   </g>
   <g id="patch_3">
    <path d="M 45.716875 381.816 
L 45.716875 32.84 
" style="fill: none; stroke: #000000; stroke-width: 0.8; stroke-linejoin: miter; stroke-linecap: square"/>
   </g>
   <g id="patch_4">
    <path d="M 838.776875 381.816 
L 838.776875 32.84 
" style="fill: none; stroke: #000000; stroke-width: 0.8; stroke-linejoin: miter; stroke-linecap: square"/>
   </g>
   <g id="patch_5">
    <path d="M 45.716875 381.816 
L 838.776875 381.816 
" style="fill: none; stroke: #000000; stroke-width: 0.8; stroke-linejoin: miter; stroke-linecap: square"/>
   </g>
   <g id="patch_6">
    <path d="M 45.716875 32.84 
L 838.776875 32.84 
" style="fill: none; stroke: #000000; stroke-width: 0.8; stroke-linejoin: miter; stroke-linecap: square"/>
   </g>
   <g id="patch_7">
    <path d="M 306.334529 216.0524 
Q 271.81452 216.0524 237.294512 216.0524 
" style="fill: none; stroke: #000000; stroke-width: 1.5; stroke-linecap: round"/>
    <path d="M 302.334529 214.0524 
L 306.334529 216.0524 
L 302.334529 218.0524 
z
" style="stroke: #000000; stroke-width: 1.5; stroke-linecap: round"/>
    <path d="M 241.294512 218.0524 
L 237.294512 216.0524 
L 241.294512 214.0524 
z
" style="stroke: #000000; stroke-width: 1.5; stroke-linecap: round"/>
   </g>
   <g id="text_16">
    <g id="patch_8">
     <path d="M 233.233464 206.05336 
L 310.393464 206.05336 
L 310.393464 186.51961 
L 233.233464 186.51961 
z
" style="fill: #ffffff; opacity: 0.8"/>
    </g>
    <!-- $t_r = 48.2$ ps -->
    <g transform="translate(237.193464 199.57336) scale(0.12 -0.12)">
     <defs>
      <path id="DejaVuSans-Oblique-74" d="M 2706 3500 
L 2619 3053 
L 1472 3053 
L 1100 1153 
Q 1081 1047 1072 975 
Q 1063 903 1063 863 
Q 1063 663 1183 572 
Q 1303 481 1569 481 
L 2150 481 
L 2053 0 
L 1503 0 
Q 991 0 739 200 
Q 488 400 488 806 
Q 488 878 497 964 
Q 506 1050 525 1153 
L 897 3053 
L 409 3053 
L 500 3500 
L 978 3500 
L 1172 4494 
L 1747 4494 
L 1556 3500 
L 2706 3500 
z
" transform="scale(0.015625)"/>
      <path id="DejaVuSans-Oblique-72" d="M 2853 2969 
Q 2766 3016 2653 3041 
Q 2541 3066 2413 3066 
Q 1953 3066 1609 2717 
Q 1266 2369 1153 1784 
L 800 0 
L 225 0 
L 909 3500 
L 1484 3500 
L 1375 2956 
Q 1603 3259 1920 3421 
Q 2238 3584 2597 3584 
Q 2691 3584 2781 3573 
Q 2872 3563 2963 3538 
L 2853 2969 
z
" transform="scale(0.015625)"/>
      <path id="DejaVuSans-3d" d="M 678 2906 
L 4684 2906 
L 4684 2381 
L 678 2381 
L 678 2906 
z
M 678 1631 
L 4684 1631 
L 4684 1100 
L 678 1100 
L 678 1631 
z
" transform="scale(0.015625)"/>
      <path id="DejaVuSans-Bold-20" transform="scale(0.015625)"/>
      <path id="DejaVuSans-Bold-70" d="M 1656 506 
L 1656 -1331 
L 538 -1331 
L 538 3500 
L 1656 3500 
L 1656 2988 
Q 1888 3294 2169 3439 
Q 2450 3584 2816 3584 
Q 3463 3584 3878 3070 
Q 4294 2556 4294 1747 
Q 4294 938 3878 423 
Q 3463 -91 2816 -91 
Q 2450 -91 2169 54 
Q 1888 200 1656 506 
z
M 2400 2772 
Q 2041 2772 1848 2508 
Q 1656 2244 1656 1747 
Q 1656 1250 1848 986 
Q 2041 722 2400 722 
Q 2759 722 2948 984 
Q 3138 1247 3138 1747 
Q 3138 2247 2948 2509 
Q 2759 2772 2400 2772 
z
" transform="scale(0.015625)"/>
      <path id="DejaVuSans-Bold-73" d="M 3272 3391 
L 3272 2541 
Q 2913 2691 2578 2766 
Q 2244 2841 1947 2841 
Q 1628 2841 1473 2761 
Q 1319 2681 1319 2516 
Q 1319 2381 1436 2309 
Q 1553 2238 1856 2203 
L 2053 2175 
Q 2913 2066 3209 1816 
Q 3506 1566 3506 1031 
Q 3506 472 3093 190 
Q 2681 -91 1863 -91 
Q 1516 -91 1145 -36 
Q 775 19 384 128 
L 384 978 
Q 719 816 1070 734 
Q 1422 653 1784 653 
Q 2113 653 2278 743 
Q 2444 834 2444 1013 
Q 2444 1163 2330 1236 
Q 2216 1309 1875 1350 
L 1678 1375 
Q 931 1469 631 1722 
Q 331 1975 331 2491 
Q 331 3047 712 3315 
Q 1094 3584 1881 3584 
Q 2191 3584 2531 3537 
Q 2872 3491 3272 3391 
z
" transform="scale(0.015625)"/>
     </defs>
     <use xlink:href="#DejaVuSans-Oblique-74" transform="translate(0 0.78125)"/>
     <use xlink:href="#DejaVuSans-Oblique-72" transform="translate(39.208984 -15.625) scale(0.7)"/>
     <use xlink:href="#DejaVuSans-3d" transform="translate(90.205078 0.78125)"/>
     <use xlink:href="#DejaVuSans-34" transform="translate(193.476562 0.78125)"/>
     <use xlink:href="#DejaVuSans-38" transform="translate(257.099609 0.78125)"/>
     <use xlink:href="#DejaVuSans-2e" transform="translate(320.722656 0.78125)"/>
     <use xlink:href="#DejaVuSans-32" transform="translate(347.009766 0.78125)"/>
     <use xlink:href="#DejaVuSans-Bold-20" transform="translate(410.632812 0.78125)"/>
     <use xlink:href="#DejaVuSans-Bold-70" transform="translate(445.447266 0.78125)"/>
     <use xlink:href="#DejaVuSans-Bold-73" transform="translate(517.029297 0.78125)"/>
    </g>
   </g>
   <g id="patch_9">
    <path d="M 458.367808 216.0524 
Q 424.139264 216.0524 389.91072 216.0524 
" style="fill: none; stroke: #000000; stroke-width: 1.5; stroke-linecap: round"/>
    <path d="M 454.367808 214.0524 
L 458.367808 216.0524 
L 454.367808 218.0524 
z
" style="stroke: #000000; stroke-width: 1.5; stroke-linecap: round"/>
    <path d="M 393.91072 218.0524 
L 389.91072 216.0524 
L 393.91072 214.0524 
z
" style="stroke: #000000; stroke-width: 1.5; stroke-linecap: round"/>
   </g>
   <g id="text_17">
    <g id="patch_10">
     <path d="M 385.623215 206.05336 
L 462.663215 206.05336 
L 462.663215 186.51961 
L 385.623215 186.51961 
z
" style="fill: #ffffff; opacity: 0.8"/>
    </g>
    <!-- $t_f = 47.8$ ps -->
    <g transform="translate(389.583215 199.57336) scale(0.12 -0.12)">
     <defs>
      <path id="DejaVuSans-Oblique-66" d="M 3059 4863 
L 2969 4384 
L 2419 4384 
Q 2106 4384 1964 4261 
Q 1822 4138 1753 3809 
L 1691 3500 
L 2638 3500 
L 2553 3053 
L 1606 3053 
L 1013 0 
L 434 0 
L 1031 3053 
L 481 3053 
L 563 3500 
L 1113 3500 
L 1159 3744 
Q 1278 4363 1576 4613 
Q 1875 4863 2516 4863 
L 3059 4863 
z
" transform="scale(0.015625)"/>
      <path id="DejaVuSans-37" d="M 525 4666 
L 3525 4666 
L 3525 4397 
L 1831 0 
L 1172 0 
L 2766 4134 
L 525 4134 
L 525 4666 
z
" transform="scale(0.015625)"/>
     </defs>
     <use xlink:href="#DejaVuSans-Oblique-74" transform="translate(0 0.78125)"/>
     <use xlink:href="#DejaVuSans-Oblique-66" transform="translate(39.208984 -15.625) scale(0.7)"/>
     <use xlink:href="#DejaVuSans-3d" transform="translate(86.069336 0.78125)"/>
     <use xlink:href="#DejaVuSans-34" transform="translate(189.34082 0.78125)"/>
     <use xlink:href="#DejaVuSans-37" transform="translate(252.963867 0.78125)"/>
     <use xlink:href="#DejaVuSans-2e" transform="translate(316.586914 0.78125)"/>
     <use xlink:href="#DejaVuSans-38" transform="translate(345.749023 0.78125)"/>
     <use xlink:href="#DejaVuSans-Bold-20" transform="translate(409.37207 0.78125)"/>
     <use xlink:href="#DejaVuSans-Bold-70" transform="translate(444.186523 0.78125)"/>
     <use xlink:href="#DejaVuSans-Bold-73" transform="translate(515.768555 0.78125)"/>
    </g>
   </g>
   <g id="text_18">
    <!-- Tranzijentni odziv: Vremena rasta i pada (Odnos $W_p / W_n = 1.8$) -->
    <g transform="translate(202.916875 17.84) scale(0.14 -0.14)">
     <defs>
      <path id="DejaVuSans-Bold-54" d="M 31 4666 
L 4331 4666 
L 4331 3756 
L 2784 3756 
L 2784 0 
L 1581 0 
L 1581 3756 
L 31 3756 
L 31 4666 
z
" transform="scale(0.015625)"/>
      <path id="DejaVuSans-Bold-72" d="M 3138 2547 
Q 2991 2616 2845 2648 
Q 2700 2681 2553 2681 
Q 2122 2681 1889 2404 
Q 1656 2128 1656 1613 
L 1656 0 
L 538 0 
L 538 3500 
L 1656 3500 
L 1656 2925 
Q 1872 3269 2151 3426 
Q 2431 3584 2822 3584 
Q 2878 3584 2943 3579 
Q 3009 3575 3134 3559 
L 3138 2547 
z
" transform="scale(0.015625)"/>
      <path id="DejaVuSans-Bold-61" d="M 2106 1575 
Q 1756 1575 1579 1456 
Q 1403 1338 1403 1106 
Q 1403 894 1545 773 
Q 1688 653 1941 653 
Q 2256 653 2472 879 
Q 2688 1106 2688 1447 
L 2688 1575 
L 2106 1575 
z
M 3816 1997 
L 3816 0 
L 2688 0 
L 2688 519 
Q 2463 200 2181 54 
Q 1900 -91 1497 -91 
Q 953 -91 614 226 
Q 275 544 275 1050 
Q 275 1666 698 1953 
Q 1122 2241 2028 2241 
L 2688 2241 
L 2688 2328 
Q 2688 2594 2478 2717 
Q 2269 2841 1825 2841 
Q 1466 2841 1156 2769 
Q 847 2697 581 2553 
L 581 3406 
Q 941 3494 1303 3539 
Q 1666 3584 2028 3584 
Q 2975 3584 3395 3211 
Q 3816 2838 3816 1997 
z
" transform="scale(0.015625)"/>
      <path id="DejaVuSans-Bold-6e" d="M 4056 2131 
L 4056 0 
L 2931 0 
L 2931 347 
L 2931 1631 
Q 2931 2084 2911 2256 
Q 2891 2428 2841 2509 
Q 2775 2619 2662 2680 
Q 2550 2741 2406 2741 
Q 2056 2741 1856 2470 
Q 1656 2200 1656 1722 
L 1656 0 
L 538 0 
L 538 3500 
L 1656 3500 
L 1656 2988 
Q 1909 3294 2193 3439 
Q 2478 3584 2822 3584 
Q 3428 3584 3742 3212 
Q 4056 2841 4056 2131 
z
" transform="scale(0.015625)"/>
      <path id="DejaVuSans-Bold-7a" d="M 366 3500 
L 3419 3500 
L 3419 2719 
L 1575 800 
L 3419 800 
L 3419 0 
L 288 0 
L 288 781 
L 2131 2700 
L 366 2700 
L 366 3500 
z
" transform="scale(0.015625)"/>
      <path id="DejaVuSans-Bold-69" d="M 538 3500 
L 1656 3500 
L 1656 0 
L 538 0 
L 538 3500 
z
M 538 4863 
L 1656 4863 
L 1656 3950 
L 538 3950 
L 538 4863 
z
" transform="scale(0.015625)"/>
      <path id="DejaVuSans-Bold-6a" d="M 538 3500 
L 1656 3500 
L 1656 63 
Q 1656 -641 1318 -1011 
Q 981 -1381 341 -1381 
L -213 -1381 
L -213 -647 
L -19 -647 
Q 300 -647 419 -503 
Q 538 -359 538 63 
L 538 3500 
z
M 538 4863 
L 1656 4863 
L 1656 3950 
L 538 3950 
L 538 4863 
z
" transform="scale(0.015625)"/>
      <path id="DejaVuSans-Bold-65" d="M 4031 1759 
L 4031 1441 
L 1416 1441 
Q 1456 1047 1700 850 
Q 1944 653 2381 653 
Q 2734 653 3104 758 
Q 3475 863 3866 1075 
L 3866 213 
Q 3469 63 3072 -14 
Q 2675 -91 2278 -91 
Q 1328 -91 801 392 
Q 275 875 275 1747 
Q 275 2603 792 3093 
Q 1309 3584 2216 3584 
Q 3041 3584 3536 3087 
Q 4031 2591 4031 1759 
z
M 2881 2131 
Q 2881 2450 2695 2645 
Q 2509 2841 2209 2841 
Q 1884 2841 1681 2658 
Q 1478 2475 1428 2131 
L 2881 2131 
z
" transform="scale(0.015625)"/>
      <path id="DejaVuSans-Bold-74" d="M 1759 4494 
L 1759 3500 
L 2913 3500 
L 2913 2700 
L 1759 2700 
L 1759 1216 
Q 1759 972 1856 886 
Q 1953 800 2241 800 
L 2816 800 
L 2816 0 
L 1856 0 
Q 1194 0 917 276 
Q 641 553 641 1216 
L 641 2700 
L 84 2700 
L 84 3500 
L 641 3500 
L 641 4494 
L 1759 4494 
z
" transform="scale(0.015625)"/>
      <path id="DejaVuSans-Bold-6f" d="M 2203 2784 
Q 1831 2784 1636 2517 
Q 1441 2250 1441 1747 
Q 1441 1244 1636 976 
Q 1831 709 2203 709 
Q 2569 709 2762 976 
Q 2956 1244 2956 1747 
Q 2956 2250 2762 2517 
Q 2569 2784 2203 2784 
z
M 2203 3584 
Q 3106 3584 3614 3096 
Q 4122 2609 4122 1747 
Q 4122 884 3614 396 
Q 3106 -91 2203 -91 
Q 1297 -91 786 396 
Q 275 884 275 1747 
Q 275 2609 786 3096 
Q 1297 3584 2203 3584 
z
" transform="scale(0.015625)"/>
      <path id="DejaVuSans-Bold-64" d="M 2919 2988 
L 2919 4863 
L 4044 4863 
L 4044 0 
L 2919 0 
L 2919 506 
Q 2688 197 2409 53 
Q 2131 -91 1766 -91 
Q 1119 -91 703 423 
Q 288 938 288 1747 
Q 288 2556 703 3070 
Q 1119 3584 1766 3584 
Q 2128 3584 2408 3439 
Q 2688 3294 2919 2988 
z
M 2181 722 
Q 2541 722 2730 984 
Q 2919 1247 2919 1747 
Q 2919 2247 2730 2509 
Q 2541 2772 2181 2772 
Q 1825 2772 1636 2509 
Q 1447 2247 1447 1747 
Q 1447 1247 1636 984 
Q 1825 722 2181 722 
z
" transform="scale(0.015625)"/>
      <path id="DejaVuSans-Bold-76" d="M 97 3500 
L 1216 3500 
L 2088 1081 
L 2956 3500 
L 4078 3500 
L 2700 0 
L 1472 0 
L 97 3500 
z
" transform="scale(0.015625)"/>
      <path id="DejaVuSans-Bold-3a" d="M 716 3500 
L 1844 3500 
L 1844 2291 
L 716 2291 
L 716 3500 
z
M 716 1209 
L 1844 1209 
L 1844 0 
L 716 0 
L 716 1209 
z
" transform="scale(0.015625)"/>
      <path id="DejaVuSans-Bold-56" d="M 31 4666 
L 1241 4666 
L 2478 1222 
L 3713 4666 
L 4922 4666 
L 3194 0 
L 1759 0 
L 31 4666 
z
" transform="scale(0.015625)"/>
      <path id="DejaVuSans-Bold-6d" d="M 3781 2919 
Q 3994 3244 4286 3414 
Q 4578 3584 4928 3584 
Q 5531 3584 5847 3212 
Q 6163 2841 6163 2131 
L 6163 0 
L 5038 0 
L 5038 1825 
Q 5041 1866 5042 1909 
Q 5044 1953 5044 2034 
Q 5044 2406 4934 2573 
Q 4825 2741 4581 2741 
Q 4263 2741 4089 2478 
Q 3916 2216 3909 1719 
L 3909 0 
L 2784 0 
L 2784 1825 
Q 2784 2406 2684 2573 
Q 2584 2741 2328 2741 
Q 2006 2741 1831 2477 
Q 1656 2213 1656 1722 
L 1656 0 
L 531 0 
L 531 3500 
L 1656 3500 
L 1656 2988 
Q 1863 3284 2130 3434 
Q 2397 3584 2719 3584 
Q 3081 3584 3359 3409 
Q 3638 3234 3781 2919 
z
" transform="scale(0.015625)"/>
      <path id="DejaVuSans-Bold-28" d="M 2413 -844 
L 1484 -844 
Q 1006 -72 778 623 
Q 550 1319 550 2003 
Q 550 2688 779 3389 
Q 1009 4091 1484 4856 
L 2413 4856 
Q 2013 4116 1813 3408 
Q 1613 2700 1613 2009 
Q 1613 1319 1811 609 
Q 2009 -100 2413 -844 
z
" transform="scale(0.015625)"/>
      <path id="DejaVuSans-Bold-4f" d="M 2719 3878 
Q 2169 3878 1866 3472 
Q 1563 3066 1563 2328 
Q 1563 1594 1866 1187 
Q 2169 781 2719 781 
Q 3272 781 3575 1187 
Q 3878 1594 3878 2328 
Q 3878 3066 3575 3472 
Q 3272 3878 2719 3878 
z
M 2719 4750 
Q 3844 4750 4481 4106 
Q 5119 3463 5119 2328 
Q 5119 1197 4481 553 
Q 3844 -91 2719 -91 
Q 1597 -91 958 553 
Q 319 1197 319 2328 
Q 319 3463 958 4106 
Q 1597 4750 2719 4750 
z
" transform="scale(0.015625)"/>
      <path id="DejaVuSans-Oblique-57" d="M 616 4666 
L 1228 4666 
L 1453 697 
L 3213 4666 
L 3916 4666 
L 4147 697 
L 5888 4666 
L 6528 4666 
L 4453 0 
L 3659 0 
L 3444 3891 
L 1697 0 
L 903 0 
L 616 4666 
z
" transform="scale(0.015625)"/>
      <path id="DejaVuSans-Oblique-70" d="M 3175 2156 
Q 3175 2616 2975 2859 
Q 2775 3103 2400 3103 
Q 2144 3103 1911 2972 
Q 1678 2841 1497 2591 
Q 1319 2344 1212 1994 
Q 1106 1644 1106 1300 
Q 1106 863 1306 627 
Q 1506 391 1875 391 
Q 2147 391 2380 519 
Q 2613 647 2778 891 
Q 2956 1147 3065 1494 
Q 3175 1841 3175 2156 
z
M 1394 2969 
Q 1625 3272 1939 3428 
Q 2253 3584 2638 3584 
Q 3175 3584 3472 3232 
Q 3769 2881 3769 2247 
Q 3769 1728 3584 1258 
Q 3400 788 3053 416 
Q 2822 169 2531 39 
Q 2241 -91 1919 -91 
Q 1547 -91 1294 64 
Q 1041 219 916 525 
L 556 -1331 
L -19 -1331 
L 922 3500 
L 1497 3500 
L 1394 2969 
z
" transform="scale(0.015625)"/>
      <path id="DejaVuSans-2f" d="M 1625 4666 
L 2156 4666 
L 531 -594 
L 0 -594 
L 1625 4666 
z
" transform="scale(0.015625)"/>
      <path id="DejaVuSans-Oblique-6e" d="M 3566 2113 
L 3156 0 
L 2578 0 
L 2988 2091 
Q 3016 2238 3031 2350 
Q 3047 2463 3047 2528 
Q 3047 2791 2881 2937 
Q 2716 3084 2419 3084 
Q 1956 3084 1622 2776 
Q 1288 2469 1184 1941 
L 800 0 
L 225 0 
L 903 3500 
L 1478 3500 
L 1363 2950 
Q 1603 3253 1940 3418 
Q 2278 3584 2650 3584 
Q 3113 3584 3367 3334 
Q 3622 3084 3622 2631 
Q 3622 2519 3608 2391 
Q 3594 2263 3566 2113 
z
" transform="scale(0.015625)"/>
      <path id="DejaVuSans-Bold-29" d="M 513 -844 
Q 913 -100 1113 609 
Q 1313 1319 1313 2009 
Q 1313 2700 1113 3408 
Q 913 4116 513 4856 
L 1441 4856 
Q 1916 4091 2145 3389 
Q 2375 2688 2375 2003 
Q 2375 1319 2147 623 
Q 1919 -72 1441 -844 
L 513 -844 
z
" transform="scale(0.015625)"/>
     </defs>
     <use xlink:href="#DejaVuSans-Bold-54" transform="translate(0 0.015625)"/>
     <use xlink:href="#DejaVuSans-Bold-72" transform="translate(68.212891 0.015625)"/>
     <use xlink:href="#DejaVuSans-Bold-61" transform="translate(117.529297 0.015625)"/>
     <use xlink:href="#DejaVuSans-Bold-6e" transform="translate(185.009766 0.015625)"/>
     <use xlink:href="#DejaVuSans-Bold-7a" transform="translate(256.201172 0.015625)"/>
     <use xlink:href="#DejaVuSans-Bold-69" transform="translate(314.404297 0.015625)"/>
     <use xlink:href="#DejaVuSans-Bold-6a" transform="translate(348.681641 0.015625)"/>
     <use xlink:href="#DejaVuSans-Bold-65" transform="translate(382.958984 0.015625)"/>
     <use xlink:href="#DejaVuSans-Bold-6e" transform="translate(450.78125 0.015625)"/>
     <use xlink:href="#DejaVuSans-Bold-74" transform="translate(521.972656 0.015625)"/>
     <use xlink:href="#DejaVuSans-Bold-6e" transform="translate(569.775391 0.015625)"/>
     <use xlink:href="#DejaVuSans-Bold-69" transform="translate(640.966797 0.015625)"/>
     <use xlink:href="#DejaVuSans-Bold-20" transform="translate(675.244141 0.015625)"/>
     <use xlink:href="#DejaVuSans-Bold-6f" transform="translate(710.058594 0.015625)"/>
     <use xlink:href="#DejaVuSans-Bold-64" transform="translate(778.759766 0.015625)"/>
     <use xlink:href="#DejaVuSans-Bold-7a" transform="translate(850.341797 0.015625)"/>
     <use xlink:href="#DejaVuSans-Bold-69" transform="translate(908.544922 0.015625)"/>
     <use xlink:href="#DejaVuSans-Bold-76" transform="translate(942.822266 0.015625)"/>
     <use xlink:href="#DejaVuSans-Bold-3a" transform="translate(1008.007812 0.015625)"/>
     <use xlink:href="#DejaVuSans-Bold-20" transform="translate(1047.998047 0.015625)"/>
     <use xlink:href="#DejaVuSans-Bold-56" transform="translate(1082.8125 0.015625)"/>
     <use xlink:href="#DejaVuSans-Bold-72" transform="translate(1160.205078 0.015625)"/>
     <use xlink:href="#DejaVuSans-Bold-65" transform="translate(1209.521484 0.015625)"/>
     <use xlink:href="#DejaVuSans-Bold-6d" transform="translate(1277.34375 0.015625)"/>
     <use xlink:href="#DejaVuSans-Bold-65" transform="translate(1381.542969 0.015625)"/>
     <use xlink:href="#DejaVuSans-Bold-6e" transform="translate(1449.365234 0.015625)"/>
     <use xlink:href="#DejaVuSans-Bold-61" transform="translate(1520.556641 0.015625)"/>
     <use xlink:href="#DejaVuSans-Bold-20" transform="translate(1588.037109 0.015625)"/>
     <use xlink:href="#DejaVuSans-Bold-72" transform="translate(1622.851562 0.015625)"/>
     <use xlink:href="#DejaVuSans-Bold-61" transform="translate(1672.167969 0.015625)"/>
     <use xlink:href="#DejaVuSans-Bold-73" transform="translate(1739.648438 0.015625)"/>
     <use xlink:href="#DejaVuSans-Bold-74" transform="translate(1799.169922 0.015625)"/>
     <use xlink:href="#DejaVuSans-Bold-61" transform="translate(1846.972656 0.015625)"/>
     <use xlink:href="#DejaVuSans-Bold-20" transform="translate(1914.453125 0.015625)"/>
     <use xlink:href="#DejaVuSans-Bold-69" transform="translate(1949.267578 0.015625)"/>
     <use xlink:href="#DejaVuSans-Bold-20" transform="translate(1983.544922 0.015625)"/>
     <use xlink:href="#DejaVuSans-Bold-70" transform="translate(2018.359375 0.015625)"/>
     <use xlink:href="#DejaVuSans-Bold-61" transform="translate(2089.941406 0.015625)"/>
     <use xlink:href="#DejaVuSans-Bold-64" transform="translate(2157.421875 0.015625)"/>
     <use xlink:href="#DejaVuSans-Bold-61" transform="translate(2229.003906 0.015625)"/>
     <use xlink:href="#DejaVuSans-Bold-20" transform="translate(2296.484375 0.015625)"/>
     <use xlink:href="#DejaVuSans-Bold-28" transform="translate(2331.298828 0.015625)"/>
     <use xlink:href="#DejaVuSans-Bold-4f" transform="translate(2377.001953 0.015625)"/>
     <use xlink:href="#DejaVuSans-Bold-64" transform="translate(2462.011719 0.015625)"/>
     <use xlink:href="#DejaVuSans-Bold-6e" transform="translate(2533.59375 0.015625)"/>
     <use xlink:href="#DejaVuSans-Bold-6f" transform="translate(2604.785156 0.015625)"/>
     <use xlink:href="#DejaVuSans-Bold-73" transform="translate(2673.486328 0.015625)"/>
     <use xlink:href="#DejaVuSans-Bold-20" transform="translate(2733.007812 0.015625)"/>
     <use xlink:href="#DejaVuSans-Oblique-57" transform="translate(2767.822266 0.015625)"/>
     <use xlink:href="#DejaVuSans-Oblique-70" transform="translate(2866.699219 -16.390625) scale(0.7)"/>
     <use xlink:href="#DejaVuSans-2f" transform="translate(2913.867188 0.015625)"/>
     <use xlink:href="#DejaVuSans-Oblique-57" transform="translate(2947.558594 0.015625)"/>
     <use xlink:href="#DejaVuSans-Oblique-6e" transform="translate(3046.435547 -16.390625) scale(0.7)"/>
     <use xlink:href="#DejaVuSans-3d" transform="translate(3113.017578 0.015625)"/>
     <use xlink:href="#DejaVuSans-31" transform="translate(3216.289062 0.015625)"/>
     <use xlink:href="#DejaVuSans-2e" transform="translate(3279.912109 0.015625)"/>
     <use xlink:href="#DejaVuSans-38" transform="translate(3309.074219 0.015625)"/>
     <use xlink:href="#DejaVuSans-Bold-29" transform="translate(3372.697266 0.015625)"/>
    </g>
   </g>
   <g id="legend_1">
    <g id="patch_11">
     <path d="M 704.136875 106.22375 
L 831.076875 106.22375 
Q 833.276875 106.22375 833.276875 104.02375 
L 833.276875 40.54 
Q 833.276875 38.34 831.076875 38.34 
L 704.136875 38.34 
Q 701.936875 38.34 701.936875 40.54 
L 701.936875 104.02375 
Q 701.936875 106.22375 704.136875 106.22375 
z
" style="fill: #ffffff; opacity: 0.9; stroke: #000000; stroke-linejoin: miter"/>
    </g>
    <g id="line2d_35">
     <path d="M 706.336875 47.248281 
L 717.336875 47.248281 
L 728.336875 47.248281 
" style="fill: none; stroke-dasharray: 7.4,3.2; stroke-dashoffset: 0; stroke: #d62728; stroke-width: 2"/>
    </g>
    <g id="text_19">
     <!-- Ulaz A (Pobuda) -->
     <g transform="translate(737.136875 51.098281) scale(0.11 -0.11)">
      <defs>
       <path id="DejaVuSans-55" d="M 556 4666 
L 1191 4666 
L 1191 1831 
Q 1191 1081 1462 751 
Q 1734 422 2344 422 
Q 2950 422 3222 751 
Q 3494 1081 3494 1831 
L 3494 4666 
L 4128 4666 
L 4128 1753 
Q 4128 841 3676 375 
Q 3225 -91 2344 -91 
Q 1459 -91 1007 375 
Q 556 841 556 1753 
L 556 4666 
z
" transform="scale(0.015625)"/>
       <path id="DejaVuSans-6c" d="M 603 4863 
L 1178 4863 
L 1178 0 
L 603 0 
L 603 4863 
z
" transform="scale(0.015625)"/>
       <path id="DejaVuSans-7a" d="M 353 3500 
L 3084 3500 
L 3084 2975 
L 922 459 
L 3084 459 
L 3084 0 
L 275 0 
L 275 525 
L 2438 3041 
L 353 3041 
L 353 3500 
z
" transform="scale(0.015625)"/>
       <path id="DejaVuSans-41" d="M 2188 4044 
L 1331 1722 
L 3047 1722 
L 2188 4044 
z
M 1831 4666 
L 2547 4666 
L 4325 0 
L 3669 0 
L 3244 1197 
L 1141 1197 
L 716 0 
L 50 0 
L 1831 4666 
z
" transform="scale(0.015625)"/>
       <path id="DejaVuSans-28" d="M 1984 4856 
Q 1566 4138 1362 3434 
Q 1159 2731 1159 2009 
Q 1159 1288 1364 580 
Q 1569 -128 1984 -844 
L 1484 -844 
Q 1016 -109 783 600 
Q 550 1309 550 2009 
Q 550 2706 781 3412 
Q 1013 4119 1484 4856 
L 1984 4856 
z
" transform="scale(0.015625)"/>
       <path id="DejaVuSans-50" d="M 1259 4147 
L 1259 2394 
L 2053 2394 
Q 2494 2394 2734 2622 
Q 2975 2850 2975 3272 
Q 2975 3691 2734 3919 
Q 2494 4147 2053 4147 
L 1259 4147 
z
M 628 4666 
L 2053 4666 
Q 2838 4666 3239 4311 
Q 3641 3956 3641 3272 
Q 3641 2581 3239 2228 
Q 2838 1875 2053 1875 
L 1259 1875 
L 1259 0 
L 628 0 
L 628 4666 
z
" transform="scale(0.015625)"/>
       <path id="DejaVuSans-62" d="M 3116 1747 
Q 3116 2381 2855 2742 
Q 2594 3103 2138 3103 
Q 1681 3103 1420 2742 
Q 1159 2381 1159 1747 
Q 1159 1113 1420 752 
Q 1681 391 2138 391 
Q 2594 391 2855 752 
Q 3116 1113 3116 1747 
z
M 1159 2969 
Q 1341 3281 1617 3432 
Q 1894 3584 2278 3584 
Q 2916 3584 3314 3078 
Q 3713 2572 3713 1747 
Q 3713 922 3314 415 
Q 2916 -91 2278 -91 
Q 1894 -91 1617 61 
Q 1341 213 1159 525 
L 1159 0 
L 581 0 
L 581 4863 
L 1159 4863 
L 1159 2969 
z
" transform="scale(0.015625)"/>
       <path id="DejaVuSans-75" d="M 544 1381 
L 544 3500 
L 1119 3500 
L 1119 1403 
Q 1119 906 1312 657 
Q 1506 409 1894 409 
Q 2359 409 2629 706 
Q 2900 1003 2900 1516 
L 2900 3500 
L 3475 3500 
L 3475 0 
L 2900 0 
L 2900 538 
Q 2691 219 2414 64 
Q 2138 -91 1772 -91 
Q 1169 -91 856 284 
Q 544 659 544 1381 
z
M 1991 3584 
L 1991 3584 
z
" transform="scale(0.015625)"/>
       <path id="DejaVuSans-64" d="M 2906 2969 
L 2906 4863 
L 3481 4863 
L 3481 0 
L 2906 0 
L 2906 525 
Q 2725 213 2448 61 
Q 2172 -91 1784 -91 
Q 1150 -91 751 415 
Q 353 922 353 1747 
Q 353 2572 751 3078 
Q 1150 3584 1784 3584 
Q 2172 3584 2448 3432 
Q 2725 3281 2906 2969 
z
M 947 1747 
Q 947 1113 1208 752 
Q 1469 391 1925 391 
Q 2381 391 2643 752 
Q 2906 1113 2906 1747 
Q 2906 2381 2643 2742 
Q 2381 3103 1925 3103 
Q 1469 3103 1208 2742 
Q 947 2381 947 1747 
z
" transform="scale(0.015625)"/>
       <path id="DejaVuSans-29" d="M 513 4856 
L 1013 4856 
Q 1481 4119 1714 3412 
Q 1947 2706 1947 2009 
Q 1947 1309 1714 600 
Q 1481 -109 1013 -844 
L 513 -844 
Q 928 -128 1133 580 
Q 1338 1288 1338 2009 
Q 1338 2731 1133 3434 
Q 928 4138 513 4856 
z
" transform="scale(0.015625)"/>
      </defs>
      <use xlink:href="#DejaVuSans-55"/>
      <use xlink:href="#DejaVuSans-6c" transform="translate(73.193359 0)"/>
      <use xlink:href="#DejaVuSans-61" transform="translate(100.976562 0)"/>
      <use xlink:href="#DejaVuSans-7a" transform="translate(162.255859 0)"/>
      <use xlink:href="#DejaVuSans-20" transform="translate(214.746094 0)"/>
      <use xlink:href="#DejaVuSans-41" transform="translate(246.533203 0)"/>
      <use xlink:href="#DejaVuSans-20" transform="translate(314.941406 0)"/>
      <use xlink:href="#DejaVuSans-28" transform="translate(346.728516 0)"/>
      <use xlink:href="#DejaVuSans-50" transform="translate(385.742188 0)"/>
      <use xlink:href="#DejaVuSans-6f" transform="translate(442.419922 0)"/>
      <use xlink:href="#DejaVuSans-62" transform="translate(503.601562 0)"/>
      <use xlink:href="#DejaVuSans-75" transform="translate(567.078125 0)"/>
      <use xlink:href="#DejaVuSans-64" transform="translate(630.457031 0)"/>
      <use xlink:href="#DejaVuSans-61" transform="translate(693.933594 0)"/>
      <use xlink:href="#DejaVuSans-29" transform="translate(755.212891 0)"/>
     </g>
    </g>
    <g id="line2d_36">
     <path d="M 706.336875 63.394219 
L 717.336875 63.394219 
L 728.336875 63.394219 
" style="fill: none; stroke: #2ca02c; stroke-width: 3; stroke-linecap: square"/>
    </g>
    <g id="text_20">
     <!-- Izlaz F (Odziv) -->
     <g transform="translate(737.136875 67.244219) scale(0.11 -0.11)">
      <defs>
       <path id="DejaVuSans-49" d="M 628 4666 
L 1259 4666 
L 1259 0 
L 628 0 
L 628 4666 
z
" transform="scale(0.015625)"/>
       <path id="DejaVuSans-46" d="M 628 4666 
L 3309 4666 
L 3309 4134 
L 1259 4134 
L 1259 2759 
L 3109 2759 
L 3109 2228 
L 1259 2228 
L 1259 0 
L 628 0 
L 628 4666 
z
" transform="scale(0.015625)"/>
       <path id="DejaVuSans-4f" d="M 2522 4238 
Q 1834 4238 1429 3725 
Q 1025 3213 1025 2328 
Q 1025 1447 1429 934 
Q 1834 422 2522 422 
Q 3209 422 3611 934 
Q 4013 1447 4013 2328 
Q 4013 3213 3611 3725 
Q 3209 4238 2522 4238 
z
M 2522 4750 
Q 3503 4750 4090 4092 
Q 4678 3434 4678 2328 
Q 4678 1225 4090 567 
Q 3503 -91 2522 -91 
Q 1538 -91 948 565 
Q 359 1222 359 2328 
Q 359 3434 948 4092 
Q 1538 4750 2522 4750 
z
" transform="scale(0.015625)"/>
       <path id="DejaVuSans-69" d="M 603 3500 
L 1178 3500 
L 1178 0 
L 603 0 
L 603 3500 
z
M 603 4863 
L 1178 4863 
L 1178 4134 
L 603 4134 
L 603 4863 
z
" transform="scale(0.015625)"/>
       <path id="DejaVuSans-76" d="M 191 3500 
L 800 3500 
L 1894 563 
L 2988 3500 
L 3597 3500 
L 2284 0 
L 1503 0 
L 191 3500 
z
" transform="scale(0.015625)"/>
      </defs>
      <use xlink:href="#DejaVuSans-49"/>
      <use xlink:href="#DejaVuSans-7a" transform="translate(29.492188 0)"/>
      <use xlink:href="#DejaVuSans-6c" transform="translate(81.982422 0)"/>
      <use xlink:href="#DejaVuSans-61" transform="translate(109.765625 0)"/>
      <use xlink:href="#DejaVuSans-7a" transform="translate(171.044922 0)"/>
      <use xlink:href="#DejaVuSans-20" transform="translate(223.535156 0)"/>
      <use xlink:href="#DejaVuSans-46" transform="translate(255.322266 0)"/>
      <use xlink:href="#DejaVuSans-20" transform="translate(312.841797 0)"/>
      <use xlink:href="#DejaVuSans-28" transform="translate(344.628906 0)"/>
      <use xlink:href="#DejaVuSans-4f" transform="translate(383.642578 0)"/>
      <use xlink:href="#DejaVuSans-64" transform="translate(462.353516 0)"/>
      <use xlink:href="#DejaVuSans-7a" transform="translate(525.830078 0)"/>
      <use xlink:href="#DejaVuSans-69" transform="translate(578.320312 0)"/>
      <use xlink:href="#DejaVuSans-76" transform="translate(606.103516 0)"/>
      <use xlink:href="#DejaVuSans-29" transform="translate(665.283203 0)"/>
     </g>
    </g>
    <g id="line2d_37">
     <path d="M 706.336875 79.540156 
L 717.336875 79.540156 
L 728.336875 79.540156 
" style="fill: none; stroke-dasharray: 5.55,2.4; stroke-dashoffset: 0; stroke: #0000ff; stroke-opacity: 0.7; stroke-width: 1.5"/>
    </g>
    <g id="text_21">
     <!-- 10% $V_{DD}$ (0.15V) -->
     <g transform="translate(737.136875 83.390156) scale(0.11 -0.11)">
      <defs>
       <path id="DejaVuSans-25" d="M 4653 2053 
Q 4381 2053 4226 1822 
Q 4072 1591 4072 1178 
Q 4072 772 4226 539 
Q 4381 306 4653 306 
Q 4919 306 5073 539 
Q 5228 772 5228 1178 
Q 5228 1588 5073 1820 
Q 4919 2053 4653 2053 
z
M 4653 2450 
Q 5147 2450 5437 2106 
Q 5728 1763 5728 1178 
Q 5728 594 5436 251 
Q 5144 -91 4653 -91 
Q 4153 -91 3862 251 
Q 3572 594 3572 1178 
Q 3572 1766 3864 2108 
Q 4156 2450 4653 2450 
z
M 1428 4353 
Q 1159 4353 1004 4120 
Q 850 3888 850 3481 
Q 850 3069 1003 2837 
Q 1156 2606 1428 2606 
Q 1700 2606 1854 2837 
Q 2009 3069 2009 3481 
Q 2009 3884 1853 4118 
Q 1697 4353 1428 4353 
z
M 4250 4750 
L 4750 4750 
L 1831 -91 
L 1331 -91 
L 4250 4750 
z
M 1428 4750 
Q 1922 4750 2215 4408 
Q 2509 4066 2509 3481 
Q 2509 2891 2217 2550 
Q 1925 2209 1428 2209 
Q 931 2209 642 2551 
Q 353 2894 353 3481 
Q 353 4063 643 4406 
Q 934 4750 1428 4750 
z
" transform="scale(0.015625)"/>
       <path id="DejaVuSans-Oblique-56" d="M 1319 0 
L 500 4666 
L 1119 4666 
L 1797 653 
L 4063 4666 
L 4750 4666 
L 2053 0 
L 1319 0 
z
" transform="scale(0.015625)"/>
       <path id="DejaVuSans-Oblique-44" d="M 1081 4666 
L 2438 4666 
Q 3519 4666 4070 4208 
Q 4622 3750 4622 2847 
Q 4622 2250 4412 1698 
Q 4203 1147 3834 769 
Q 3463 381 2891 190 
Q 2319 0 1538 0 
L 172 0 
L 1081 4666 
z
M 1613 4147 
L 909 519 
L 1734 519 
Q 2794 519 3375 1128 
Q 3956 1738 3956 2847 
Q 3956 3519 3581 3833 
Q 3206 4147 2406 4147 
L 1613 4147 
z
" transform="scale(0.015625)"/>
      </defs>
      <use xlink:href="#DejaVuSans-31" transform="translate(0 0.125)"/>
      <use xlink:href="#DejaVuSans-30" transform="translate(63.623047 0.125)"/>
      <use xlink:href="#DejaVuSans-25" transform="translate(127.246094 0.125)"/>
      <use xlink:href="#DejaVuSans-20" transform="translate(222.265625 0.125)"/>
      <use xlink:href="#DejaVuSans-Oblique-56" transform="translate(254.052734 0.125)"/>
      <use xlink:href="#DejaVuSans-Oblique-44" transform="translate(322.460938 -16.28125) scale(0.7)"/>
      <use xlink:href="#DejaVuSans-Oblique-44" transform="translate(376.362305 -16.28125) scale(0.7)"/>
      <use xlink:href="#DejaVuSans-20" transform="translate(432.998047 0.125)"/>
      <use xlink:href="#DejaVuSans-28" transform="translate(464.785156 0.125)"/>
      <use xlink:href="#DejaVuSans-30" transform="translate(503.798828 0.125)"/>
      <use xlink:href="#DejaVuSans-2e" transform="translate(567.421875 0.125)"/>
      <use xlink:href="#DejaVuSans-31" transform="translate(599.208984 0.125)"/>
      <use xlink:href="#DejaVuSans-35" transform="translate(662.832031 0.125)"/>
      <use xlink:href="#DejaVuSans-56" transform="translate(726.455078 0.125)"/>
      <use xlink:href="#DejaVuSans-29" transform="translate(794.863281 0.125)"/>
     </g>
    </g>
    <g id="line2d_38">
     <path d="M 706.336875 95.686094 
L 717.336875 95.686094 
L 728.336875 95.686094 
" style="fill: none; stroke-dasharray: 5.55,2.4; stroke-dashoffset: 0; stroke: #0000ff; stroke-opacity: 0.7; stroke-width: 1.5"/>
    </g>
    <g id="text_22">
     <!-- 90% $V_{DD}$ (1.35V) -->
     <g transform="translate(737.136875 99.536094) scale(0.11 -0.11)">
      <use xlink:href="#DejaVuSans-39" transform="translate(0 0.125)"/>
      <use xlink:href="#DejaVuSans-30" transform="translate(63.623047 0.125)"/>
      <use xlink:href="#DejaVuSans-25" transform="translate(127.246094 0.125)"/>
      <use xlink:href="#DejaVuSans-20" transform="translate(222.265625 0.125)"/>
      <use xlink:href="#DejaVuSans-Oblique-56" transform="translate(254.052734 0.125)"/>
      <use xlink:href="#DejaVuSans-Oblique-44" transform="translate(322.460938 -16.28125) scale(0.7)"/>
      <use xlink:href="#DejaVuSans-Oblique-44" transform="translate(376.362305 -16.28125) scale(0.7)"/>
      <use xlink:href="#DejaVuSans-20" transform="translate(432.998047 0.125)"/>
      <use xlink:href="#DejaVuSans-28" transform="translate(464.785156 0.125)"/>
      <use xlink:href="#DejaVuSans-31" transform="translate(503.798828 0.125)"/>
      <use xlink:href="#DejaVuSans-2e" transform="translate(567.421875 0.125)"/>
      <use xlink:href="#DejaVuSans-33" transform="translate(599.208984 0.125)"/>
      <use xlink:href="#DejaVuSans-35" transform="translate(662.832031 0.125)"/>
      <use xlink:href="#DejaVuSans-56" transform="translate(726.455078 0.125)"/>
      <use xlink:href="#DejaVuSans-29" transform="translate(794.863281 0.125)"/>
     </g>
    </g>
   </g>
  </g>
 </g>
 <defs>
  <clipPath id="pe8f8215c19">
   <rect x="45.716875" y="32.84" width="793.06" height="348.976"/>
  </clipPath>
 </defs>
</svg>
