<?xml version="1.0" encoding="utf-8" standalone="no"?>
<!DOCTYPE svg PUBLIC "-//W3C//DTD SVG 1.1//EN"
  "http://www.w3.org/Graphics/SVG/1.1/DTD/svg11.dtd">
<svg xmlns:xlink="http://www.w3.org/1999/xlink" width="856.870625pt" height="423.38925pt" viewBox="0 0 856.870625 423.38925" xmlns="http://www.w3.org/2000/svg" version="1.1">
 <metadata>
  <rdf:RDF xmlns:dc="http://purl.org/dc/elements/1.1/" xmlns:cc="http://creativecommons.org/ns#" xmlns:rdf="http://www.w3.org/1999/02/22-rdf-syntax-ns#">
   <cc:Work>
    <dc:type rdf:resource="http://purl.org/dc/dcmitype/StillImage"/>
    <dc:date>2026-05-09T17:46:33.083834</dc:date>
    <dc:format>image/svg+xml</dc:format>
    <dc:creator>
     <cc:Agent>
      <dc:title>Matplotlib v3.10.8, https://matplotlib.org/</dc:title>
     </cc:Agent>
    </dc:creator>
   </cc:Work>
  </rdf:RDF>
 </metadata>
 <defs>
  <style type="text/css">*{stroke-linejoin: round; stroke-linecap: butt}</style>
 </defs>
 <g id="figure_1">
  <g id="patch_1">
   <path d="M 0 423.38925 
L 856.870625 423.38925 
L 856.870625 0 
L 0 0 
z
" style="fill: #ffffff"/>
  </g>
  <g id="axes_1">
   <g id="patch_2">
    <path d="M 45.716875 383.897375 
L 840.126875 383.897375 
L 840.126875 49.945375 
L 45.716875 49.945375 
z
" style="fill: #ffffff"/>
   </g>
   <g id="matplotlib.axis_1">
    <g id="xtick_1">
     <g id="line2d_1">
      <path d="M 45.716875 383.897375 
L 45.716875 49.945375 
" clip-path="url(#p32551cf4df)" style="fill: none; stroke-dasharray: 0.8,1.32; stroke-dashoffset: 0; stroke: #b0b0b0; stroke-opacity: 0.6; stroke-width: 0.8"/>
     </g>
     <g id="line2d_2">
      <defs>
       <path id="m518e223198" d="M 0 0 
L 0 3.5 
" style="stroke: #000000; stroke-width: 0.8"/>
      </defs>
      <g>
       <use xlink:href="#m518e223198" x="45.716875" y="383.897375" style="stroke: #000000; stroke-width: 0.8"/>
      </g>
     </g>
     <g id="text_1">
      <!-- 0 -->
      <g transform="translate(42.535625 398.495812) scale(0.1 -0.1)">
       <defs>
        <path id="DejaVuSans-30" d="M 2034 4250 
Q 1547 4250 1301 3770 
Q 1056 3291 1056 2328 
Q 1056 1369 1301 889 
Q 1547 409 2034 409 
Q 2525 409 2770 889 
Q 3016 1369 3016 2328 
Q 3016 3291 2770 3770 
Q 2525 4250 2034 4250 
z
M 2034 4750 
Q 2819 4750 3233 4129 
Q 3647 3509 3647 2328 
Q 3647 1150 3233 529 
Q 2819 -91 2034 -91 
Q 1250 -91 836 529 
Q 422 1150 422 2328 
Q 422 3509 836 4129 
Q 1250 4750 2034 4750 
z
" transform="scale(0.015625)"/>
       </defs>
       <use xlink:href="#DejaVuSans-30"/>
      </g>
     </g>
    </g>
    <g id="xtick_2">
     <g id="line2d_3">
      <path d="M 204.598875 383.897375 
L 204.598875 49.945375 
" clip-path="url(#p32551cf4df)" style="fill: none; stroke-dasharray: 0.8,1.32; stroke-dashoffset: 0; stroke: #b0b0b0; stroke-opacity: 0.6; stroke-width: 0.8"/>
     </g>
     <g id="line2d_4">
      <g>
       <use xlink:href="#m518e223198" x="204.598875" y="383.897375" style="stroke: #000000; stroke-width: 0.8"/>
      </g>
     </g>
     <g id="text_2">
      <!-- 100 -->
      <g transform="translate(195.055125 398.495812) scale(0.1 -0.1)">
       <defs>
        <path id="DejaVuSans-31" d="M 794 531 
L 1825 531 
L 1825 4091 
L 703 3866 
L 703 4441 
L 1819 4666 
L 2450 4666 
L 2450 531 
L 3481 531 
L 3481 0 
L 794 0 
L 794 531 
z
" transform="scale(0.015625)"/>
       </defs>
       <use xlink:href="#DejaVuSans-31"/>
       <use xlink:href="#DejaVuSans-30" transform="translate(63.623047 0)"/>
       <use xlink:href="#DejaVuSans-30" transform="translate(127.246094 0)"/>
      </g>
     </g>
    </g>
    <g id="xtick_3">
     <g id="line2d_5">
      <path d="M 363.480875 383.897375 
L 363.480875 49.945375 
" clip-path="url(#p32551cf4df)" style="fill: none; stroke-dasharray: 0.8,1.32; stroke-dashoffset: 0; stroke: #b0b0b0; stroke-opacity: 0.6; stroke-width: 0.8"/>
     </g>
     <g id="line2d_6">
      <g>
       <use xlink:href="#m518e223198" x="363.480875" y="383.897375" style="stroke: #000000; stroke-width: 0.8"/>
      </g>
     </g>
     <g id="text_3">
      <!-- 200 -->
      <g transform="translate(353.937125 398.495812) scale(0.1 -0.1)">
       <defs>
        <path id="DejaVuSans-32" d="M 1228 531 
L 3431 531 
L 3431 0 
L 469 0 
L 469 531 
Q 828 903 1448 1529 
Q 2069 2156 2228 2338 
Q 2531 2678 2651 2914 
Q 2772 3150 2772 3378 
Q 2772 3750 2511 3984 
Q 2250 4219 1831 4219 
Q 1534 4219 1204 4116 
Q 875 4013 500 3803 
L 500 4441 
Q 881 4594 1212 4672 
Q 1544 4750 1819 4750 
Q 2544 4750 2975 4387 
Q 3406 4025 3406 3419 
Q 3406 3131 3298 2873 
Q 3191 2616 2906 2266 
Q 2828 2175 2409 1742 
Q 1991 1309 1228 531 
z
" transform="scale(0.015625)"/>
       </defs>
       <use xlink:href="#DejaVuSans-32"/>
       <use xlink:href="#DejaVuSans-30" transform="translate(63.623047 0)"/>
       <use xlink:href="#DejaVuSans-30" transform="translate(127.246094 0)"/>
      </g>
     </g>
    </g>
    <g id="xtick_4">
     <g id="line2d_7">
      <path d="M 522.362875 383.897375 
L 522.362875 49.945375 
" clip-path="url(#p32551cf4df)" style="fill: none; stroke-dasharray: 0.8,1.32; stroke-dashoffset: 0; stroke: #b0b0b0; stroke-opacity: 0.6; stroke-width: 0.8"/>
     </g>
     <g id="line2d_8">
      <g>
       <use xlink:href="#m518e223198" x="522.362875" y="383.897375" style="stroke: #000000; stroke-width: 0.8"/>
      </g>
     </g>
     <g id="text_4">
      <!-- 300 -->
      <g transform="translate(512.819125 398.495812) scale(0.1 -0.1)">
       <defs>
        <path id="DejaVuSans-33" d="M 2597 2516 
Q 3050 2419 3304 2112 
Q 3559 1806 3559 1356 
Q 3559 666 3084 287 
Q 2609 -91 1734 -91 
Q 1441 -91 1130 -33 
Q 819 25 488 141 
L 488 750 
Q 750 597 1062 519 
Q 1375 441 1716 441 
Q 2309 441 2620 675 
Q 2931 909 2931 1356 
Q 2931 1769 2642 2001 
Q 2353 2234 1838 2234 
L 1294 2234 
L 1294 2753 
L 1863 2753 
Q 2328 2753 2575 2939 
Q 2822 3125 2822 3475 
Q 2822 3834 2567 4026 
Q 2313 4219 1838 4219 
Q 1578 4219 1281 4162 
Q 984 4106 628 3988 
L 628 4550 
Q 988 4650 1302 4700 
Q 1616 4750 1894 4750 
Q 2613 4750 3031 4423 
Q 3450 4097 3450 3541 
Q 3450 3153 3228 2886 
Q 3006 2619 2597 2516 
z
" transform="scale(0.015625)"/>
       </defs>
       <use xlink:href="#DejaVuSans-33"/>
       <use xlink:href="#DejaVuSans-30" transform="translate(63.623047 0)"/>
       <use xlink:href="#DejaVuSans-30" transform="translate(127.246094 0)"/>
      </g>
     </g>
    </g>
    <g id="xtick_5">
     <g id="line2d_9">
      <path d="M 681.244875 383.897375 
L 681.244875 49.945375 
" clip-path="url(#p32551cf4df)" style="fill: none; stroke-dasharray: 0.8,1.32; stroke-dashoffset: 0; stroke: #b0b0b0; stroke-opacity: 0.6; stroke-width: 0.8"/>
     </g>
     <g id="line2d_10">
      <g>
       <use xlink:href="#m518e223198" x="681.244875" y="383.897375" style="stroke: #000000; stroke-width: 0.8"/>
      </g>
     </g>
     <g id="text_5">
      <!-- 400 -->
      <g transform="translate(671.701125 398.495812) scale(0.1 -0.1)">
       <defs>
        <path id="DejaVuSans-34" d="M 2419 4116 
L 825 1625 
L 2419 1625 
L 2419 4116 
z
M 2253 4666 
L 3047 4666 
L 3047 1625 
L 3713 1625 
L 3713 1100 
L 3047 1100 
L 3047 0 
L 2419 0 
L 2419 1100 
L 313 1100 
L 313 1709 
L 2253 4666 
z
" transform="scale(0.015625)"/>
       </defs>
       <use xlink:href="#DejaVuSans-34"/>
       <use xlink:href="#DejaVuSans-30" transform="translate(63.623047 0)"/>
       <use xlink:href="#DejaVuSans-30" transform="translate(127.246094 0)"/>
      </g>
     </g>
    </g>
    <g id="xtick_6">
     <g id="line2d_11">
      <path d="M 840.126875 383.897375 
L 840.126875 49.945375 
" clip-path="url(#p32551cf4df)" style="fill: none; stroke-dasharray: 0.8,1.32; stroke-dashoffset: 0; stroke: #b0b0b0; stroke-opacity: 0.6; stroke-width: 0.8"/>
     </g>
     <g id="line2d_12">
      <g>
       <use xlink:href="#m518e223198" x="840.126875" y="383.897375" style="stroke: #000000; stroke-width: 0.8"/>
      </g>
     </g>
     <g id="text_6">
      <!-- 500 -->
      <g transform="translate(830.583125 398.495812) scale(0.1 -0.1)">
       <defs>
        <path id="DejaVuSans-35" d="M 691 4666 
L 3169 4666 
L 3169 4134 
L 1269 4134 
L 1269 2991 
Q 1406 3038 1543 3061 
Q 1681 3084 1819 3084 
Q 2600 3084 3056 2656 
Q 3513 2228 3513 1497 
Q 3513 744 3044 326 
Q 2575 -91 1722 -91 
Q 1428 -91 1123 -41 
Q 819 9 494 109 
L 494 744 
Q 775 591 1075 516 
Q 1375 441 1709 441 
Q 2250 441 2565 725 
Q 2881 1009 2881 1497 
Q 2881 1984 2565 2268 
Q 2250 2553 1709 2553 
Q 1456 2553 1204 2497 
Q 953 2441 691 2322 
L 691 4666 
z
" transform="scale(0.015625)"/>
       </defs>
       <use xlink:href="#DejaVuSans-35"/>
       <use xlink:href="#DejaVuSans-30" transform="translate(63.623047 0)"/>
       <use xlink:href="#DejaVuSans-30" transform="translate(127.246094 0)"/>
      </g>
     </g>
    </g>
    <g id="text_7">
     <!-- Vreme [ps] -->
     <g transform="translate(409.734375 413.693625) scale(0.12 -0.12)">
      <defs>
       <path id="DejaVuSans-56" d="M 1831 0 
L 50 4666 
L 709 4666 
L 2188 738 
L 3669 4666 
L 4325 4666 
L 2547 0 
L 1831 0 
z
" transform="scale(0.015625)"/>
       <path id="DejaVuSans-72" d="M 2631 2963 
Q 2534 3019 2420 3045 
Q 2306 3072 2169 3072 
Q 1681 3072 1420 2755 
Q 1159 2438 1159 1844 
L 1159 0 
L 581 0 
L 581 3500 
L 1159 3500 
L 1159 2956 
Q 1341 3275 1631 3429 
Q 1922 3584 2338 3584 
Q 2397 3584 2469 3576 
Q 2541 3569 2628 3553 
L 2631 2963 
z
" transform="scale(0.015625)"/>
       <path id="DejaVuSans-65" d="M 3597 1894 
L 3597 1613 
L 953 1613 
Q 991 1019 1311 708 
Q 1631 397 2203 397 
Q 2534 397 2845 478 
Q 3156 559 3463 722 
L 3463 178 
Q 3153 47 2828 -22 
Q 2503 -91 2169 -91 
Q 1331 -91 842 396 
Q 353 884 353 1716 
Q 353 2575 817 3079 
Q 1281 3584 2069 3584 
Q 2775 3584 3186 3129 
Q 3597 2675 3597 1894 
z
M 3022 2063 
Q 3016 2534 2758 2815 
Q 2500 3097 2075 3097 
Q 1594 3097 1305 2825 
Q 1016 2553 972 2059 
L 3022 2063 
z
" transform="scale(0.015625)"/>
       <path id="DejaVuSans-6d" d="M 3328 2828 
Q 3544 3216 3844 3400 
Q 4144 3584 4550 3584 
Q 5097 3584 5394 3201 
Q 5691 2819 5691 2113 
L 5691 0 
L 5113 0 
L 5113 2094 
Q 5113 2597 4934 2840 
Q 4756 3084 4391 3084 
Q 3944 3084 3684 2787 
Q 3425 2491 3425 1978 
L 3425 0 
L 2847 0 
L 2847 2094 
Q 2847 2600 2669 2842 
Q 2491 3084 2119 3084 
Q 1678 3084 1418 2786 
Q 1159 2488 1159 1978 
L 1159 0 
L 581 0 
L 581 3500 
L 1159 3500 
L 1159 2956 
Q 1356 3278 1631 3431 
Q 1906 3584 2284 3584 
Q 2666 3584 2933 3390 
Q 3200 3197 3328 2828 
z
" transform="scale(0.015625)"/>
       <path id="DejaVuSans-20" transform="scale(0.015625)"/>
       <path id="DejaVuSans-5b" d="M 550 4863 
L 1875 4863 
L 1875 4416 
L 1125 4416 
L 1125 -397 
L 1875 -397 
L 1875 -844 
L 550 -844 
L 550 4863 
z
" transform="scale(0.015625)"/>
       <path id="DejaVuSans-70" d="M 1159 525 
L 1159 -1331 
L 581 -1331 
L 581 3500 
L 1159 3500 
L 1159 2969 
Q 1341 3281 1617 3432 
Q 1894 3584 2278 3584 
Q 2916 3584 3314 3078 
Q 3713 2572 3713 1747 
Q 3713 922 3314 415 
Q 2916 -91 2278 -91 
Q 1894 -91 1617 61 
Q 1341 213 1159 525 
z
M 3116 1747 
Q 3116 2381 2855 2742 
Q 2594 3103 2138 3103 
Q 1681 3103 1420 2742 
Q 1159 2381 1159 1747 
Q 1159 1113 1420 752 
Q 1681 391 2138 391 
Q 2594 391 2855 752 
Q 3116 1113 3116 1747 
z
" transform="scale(0.015625)"/>
       <path id="DejaVuSans-73" d="M 2834 3397 
L 2834 2853 
Q 2591 2978 2328 3040 
Q 2066 3103 1784 3103 
Q 1356 3103 1142 2972 
Q 928 2841 928 2578 
Q 928 2378 1081 2264 
Q 1234 2150 1697 2047 
L 1894 2003 
Q 2506 1872 2764 1633 
Q 3022 1394 3022 966 
Q 3022 478 2636 193 
Q 2250 -91 1575 -91 
Q 1294 -91 989 -36 
Q 684 19 347 128 
L 347 722 
Q 666 556 975 473 
Q 1284 391 1588 391 
Q 1994 391 2212 530 
Q 2431 669 2431 922 
Q 2431 1156 2273 1281 
Q 2116 1406 1581 1522 
L 1381 1569 
Q 847 1681 609 1914 
Q 372 2147 372 2553 
Q 372 3047 722 3315 
Q 1072 3584 1716 3584 
Q 2034 3584 2315 3537 
Q 2597 3491 2834 3397 
z
" transform="scale(0.015625)"/>
       <path id="DejaVuSans-5d" d="M 1947 4863 
L 1947 -844 
L 622 -844 
L 622 -397 
L 1369 -397 
L 1369 4416 
L 622 4416 
L 622 4863 
L 1947 4863 
z
" transform="scale(0.015625)"/>
      </defs>
      <use xlink:href="#DejaVuSans-56"/>
      <use xlink:href="#DejaVuSans-72" transform="translate(68.408203 0)"/>
      <use xlink:href="#DejaVuSans-65" transform="translate(107.271484 0)"/>
      <use xlink:href="#DejaVuSans-6d" transform="translate(168.794922 0)"/>
      <use xlink:href="#DejaVuSans-65" transform="translate(266.207031 0)"/>
      <use xlink:href="#DejaVuSans-20" transform="translate(327.730469 0)"/>
      <use xlink:href="#DejaVuSans-5b" transform="translate(359.517578 0)"/>
      <use xlink:href="#DejaVuSans-70" transform="translate(398.53125 0)"/>
      <use xlink:href="#DejaVuSans-73" transform="translate(462.007812 0)"/>
      <use xlink:href="#DejaVuSans-5d" transform="translate(514.107422 0)"/>
     </g>
    </g>
   </g>
   <g id="matplotlib.axis_2">
    <g id="ytick_1">
     <g id="line2d_13">
      <path d="M 45.716875 350.502175 
L 840.126875 350.502175 
" clip-path="url(#p32551cf4df)" style="fill: none; stroke-dasharray: 0.8,1.32; stroke-dashoffset: 0; stroke: #b0b0b0; stroke-opacity: 0.6; stroke-width: 0.8"/>
     </g>
     <g id="line2d_14">
      <defs>
       <path id="m3b1cce9936" d="M 0 0 
L -3.5 0 
" style="stroke: #000000; stroke-width: 0.8"/>
      </defs>
      <g>
       <use xlink:href="#m3b1cce9936" x="45.716875" y="350.502175" style="stroke: #000000; stroke-width: 0.8"/>
      </g>
     </g>
     <g id="text_8">
      <!-- 0.0 -->
      <g transform="translate(22.81375 354.301394) scale(0.1 -0.1)">
       <defs>
        <path id="DejaVuSans-2e" d="M 684 794 
L 1344 794 
L 1344 0 
L 684 0 
L 684 794 
z
" transform="scale(0.015625)"/>
       </defs>
       <use xlink:href="#DejaVuSans-30"/>
       <use xlink:href="#DejaVuSans-2e" transform="translate(63.623047 0)"/>
       <use xlink:href="#DejaVuSans-30" transform="translate(95.410156 0)"/>
      </g>
     </g>
    </g>
    <g id="ytick_2">
     <g id="line2d_15">
      <path d="M 45.716875 300.409375 
L 840.126875 300.409375 
" clip-path="url(#p32551cf4df)" style="fill: none; stroke-dasharray: 0.8,1.32; stroke-dashoffset: 0; stroke: #b0b0b0; stroke-opacity: 0.6; stroke-width: 0.8"/>
     </g>
     <g id="line2d_16">
      <g>
       <use xlink:href="#m3b1cce9936" x="45.716875" y="300.409375" style="stroke: #000000; stroke-width: 0.8"/>
      </g>
     </g>
     <g id="text_9">
      <!-- 0.3 -->
      <g transform="translate(22.81375 304.208594) scale(0.1 -0.1)">
       <use xlink:href="#DejaVuSans-30"/>
       <use xlink:href="#DejaVuSans-2e" transform="translate(63.623047 0)"/>
       <use xlink:href="#DejaVuSans-33" transform="translate(95.410156 0)"/>
      </g>
     </g>
    </g>
    <g id="ytick_3">
     <g id="line2d_17">
      <path d="M 45.716875 250.316575 
L 840.126875 250.316575 
" clip-path="url(#p32551cf4df)" style="fill: none; stroke-dasharray: 0.8,1.32; stroke-dashoffset: 0; stroke: #b0b0b0; stroke-opacity: 0.6; stroke-width: 0.8"/>
     </g>
     <g id="line2d_18">
      <g>
       <use xlink:href="#m3b1cce9936" x="45.716875" y="250.316575" style="stroke: #000000; stroke-width: 0.8"/>
      </g>
     </g>
     <g id="text_10">
      <!-- 0.6 -->
      <g transform="translate(22.81375 254.115794) scale(0.1 -0.1)">
       <defs>
        <path id="DejaVuSans-36" d="M 2113 2584 
Q 1688 2584 1439 2293 
Q 1191 2003 1191 1497 
Q 1191 994 1439 701 
Q 1688 409 2113 409 
Q 2538 409 2786 701 
Q 3034 994 3034 1497 
Q 3034 2003 2786 2293 
Q 2538 2584 2113 2584 
z
M 3366 4563 
L 3366 3988 
Q 3128 4100 2886 4159 
Q 2644 4219 2406 4219 
Q 1781 4219 1451 3797 
Q 1122 3375 1075 2522 
Q 1259 2794 1537 2939 
Q 1816 3084 2150 3084 
Q 2853 3084 3261 2657 
Q 3669 2231 3669 1497 
Q 3669 778 3244 343 
Q 2819 -91 2113 -91 
Q 1303 -91 875 529 
Q 447 1150 447 2328 
Q 447 3434 972 4092 
Q 1497 4750 2381 4750 
Q 2619 4750 2861 4703 
Q 3103 4656 3366 4563 
z
" transform="scale(0.015625)"/>
       </defs>
       <use xlink:href="#DejaVuSans-30"/>
       <use xlink:href="#DejaVuSans-2e" transform="translate(63.623047 0)"/>
       <use xlink:href="#DejaVuSans-36" transform="translate(95.410156 0)"/>
      </g>
     </g>
    </g>
    <g id="ytick_4">
     <g id="line2d_19">
      <path d="M 45.716875 200.223775 
L 840.126875 200.223775 
" clip-path="url(#p32551cf4df)" style="fill: none; stroke-dasharray: 0.8,1.32; stroke-dashoffset: 0; stroke: #b0b0b0; stroke-opacity: 0.6; stroke-width: 0.8"/>
     </g>
     <g id="line2d_20">
      <g>
       <use xlink:href="#m3b1cce9936" x="45.716875" y="200.223775" style="stroke: #000000; stroke-width: 0.8"/>
      </g>
     </g>
     <g id="text_11">
      <!-- 0.9 -->
      <g transform="translate(22.81375 204.022994) scale(0.1 -0.1)">
       <defs>
        <path id="DejaVuSans-39" d="M 703 97 
L 703 672 
Q 941 559 1184 500 
Q 1428 441 1663 441 
Q 2288 441 2617 861 
Q 2947 1281 2994 2138 
Q 2813 1869 2534 1725 
Q 2256 1581 1919 1581 
Q 1219 1581 811 2004 
Q 403 2428 403 3163 
Q 403 3881 828 4315 
Q 1253 4750 1959 4750 
Q 2769 4750 3195 4129 
Q 3622 3509 3622 2328 
Q 3622 1225 3098 567 
Q 2575 -91 1691 -91 
Q 1453 -91 1209 -44 
Q 966 3 703 97 
z
M 1959 2075 
Q 2384 2075 2632 2365 
Q 2881 2656 2881 3163 
Q 2881 3666 2632 3958 
Q 2384 4250 1959 4250 
Q 1534 4250 1286 3958 
Q 1038 3666 1038 3163 
Q 1038 2656 1286 2365 
Q 1534 2075 1959 2075 
z
" transform="scale(0.015625)"/>
       </defs>
       <use xlink:href="#DejaVuSans-30"/>
       <use xlink:href="#DejaVuSans-2e" transform="translate(63.623047 0)"/>
       <use xlink:href="#DejaVuSans-39" transform="translate(95.410156 0)"/>
      </g>
     </g>
    </g>
    <g id="ytick_5">
     <g id="line2d_21">
      <path d="M 45.716875 150.130975 
L 840.126875 150.130975 
" clip-path="url(#p32551cf4df)" style="fill: none; stroke-dasharray: 0.8,1.32; stroke-dashoffset: 0; stroke: #b0b0b0; stroke-opacity: 0.6; stroke-width: 0.8"/>
     </g>
     <g id="line2d_22">
      <g>
       <use xlink:href="#m3b1cce9936" x="45.716875" y="150.130975" style="stroke: #000000; stroke-width: 0.8"/>
      </g>
     </g>
     <g id="text_12">
      <!-- 1.2 -->
      <g transform="translate(22.81375 153.930194) scale(0.1 -0.1)">
       <use xlink:href="#DejaVuSans-31"/>
       <use xlink:href="#DejaVuSans-2e" transform="translate(63.623047 0)"/>
       <use xlink:href="#DejaVuSans-32" transform="translate(95.410156 0)"/>
      </g>
     </g>
    </g>
    <g id="ytick_6">
     <g id="line2d_23">
      <path d="M 45.716875 100.038175 
L 840.126875 100.038175 
" clip-path="url(#p32551cf4df)" style="fill: none; stroke-dasharray: 0.8,1.32; stroke-dashoffset: 0; stroke: #b0b0b0; stroke-opacity: 0.6; stroke-width: 0.8"/>
     </g>
     <g id="line2d_24">
      <g>
       <use xlink:href="#m3b1cce9936" x="45.716875" y="100.038175" style="stroke: #000000; stroke-width: 0.8"/>
      </g>
     </g>
     <g id="text_13">
      <!-- 1.5 -->
      <g transform="translate(22.81375 103.837394) scale(0.1 -0.1)">
       <use xlink:href="#DejaVuSans-31"/>
       <use xlink:href="#DejaVuSans-2e" transform="translate(63.623047 0)"/>
       <use xlink:href="#DejaVuSans-35" transform="translate(95.410156 0)"/>
      </g>
     </g>
    </g>
    <g id="ytick_7">
     <g id="line2d_25">
      <path d="M 45.716875 49.945375 
L 840.126875 49.945375 
" clip-path="url(#p32551cf4df)" style="fill: none; stroke-dasharray: 0.8,1.32; stroke-dashoffset: 0; stroke: #b0b0b0; stroke-opacity: 0.6; stroke-width: 0.8"/>
     </g>
     <g id="line2d_26">
      <g>
       <use xlink:href="#m3b1cce9936" x="45.716875" y="49.945375" style="stroke: #000000; stroke-width: 0.8"/>
      </g>
     </g>
     <g id="text_14">
      <!-- 1.8 -->
      <g transform="translate(22.81375 53.744594) scale(0.1 -0.1)">
       <defs>
        <path id="DejaVuSans-38" d="M 2034 2216 
Q 1584 2216 1326 1975 
Q 1069 1734 1069 1313 
Q 1069 891 1326 650 
Q 1584 409 2034 409 
Q 2484 409 2743 651 
Q 3003 894 3003 1313 
Q 3003 1734 2745 1975 
Q 2488 2216 2034 2216 
z
M 1403 2484 
Q 997 2584 770 2862 
Q 544 3141 544 3541 
Q 544 4100 942 4425 
Q 1341 4750 2034 4750 
Q 2731 4750 3128 4425 
Q 3525 4100 3525 3541 
Q 3525 3141 3298 2862 
Q 3072 2584 2669 2484 
Q 3125 2378 3379 2068 
Q 3634 1759 3634 1313 
Q 3634 634 3220 271 
Q 2806 -91 2034 -91 
Q 1263 -91 848 271 
Q 434 634 434 1313 
Q 434 1759 690 2068 
Q 947 2378 1403 2484 
z
M 1172 3481 
Q 1172 3119 1398 2916 
Q 1625 2713 2034 2713 
Q 2441 2713 2670 2916 
Q 2900 3119 2900 3481 
Q 2900 3844 2670 4047 
Q 2441 4250 2034 4250 
Q 1625 4250 1398 4047 
Q 1172 3844 1172 3481 
z
" transform="scale(0.015625)"/>
       </defs>
       <use xlink:href="#DejaVuSans-31"/>
       <use xlink:href="#DejaVuSans-2e" transform="translate(63.623047 0)"/>
       <use xlink:href="#DejaVuSans-38" transform="translate(95.410156 0)"/>
      </g>
     </g>
    </g>
    <g id="text_15">
     <!-- Napon [V] -->
     <g transform="translate(16.318125 247.062937) rotate(-90) scale(0.12 -0.12)">
      <defs>
       <path id="DejaVuSans-4e" d="M 628 4666 
L 1478 4666 
L 3547 763 
L 3547 4666 
L 4159 4666 
L 4159 0 
L 3309 0 
L 1241 3903 
L 1241 0 
L 628 0 
L 628 4666 
z
" transform="scale(0.015625)"/>
       <path id="DejaVuSans-61" d="M 2194 1759 
Q 1497 1759 1228 1600 
Q 959 1441 959 1056 
Q 959 750 1161 570 
Q 1363 391 1709 391 
Q 2188 391 2477 730 
Q 2766 1069 2766 1631 
L 2766 1759 
L 2194 1759 
z
M 3341 1997 
L 3341 0 
L 2766 0 
L 2766 531 
Q 2569 213 2275 61 
Q 1981 -91 1556 -91 
Q 1019 -91 701 211 
Q 384 513 384 1019 
Q 384 1609 779 1909 
Q 1175 2209 1959 2209 
L 2766 2209 
L 2766 2266 
Q 2766 2663 2505 2880 
Q 2244 3097 1772 3097 
Q 1472 3097 1187 3025 
Q 903 2953 641 2809 
L 641 3341 
Q 956 3463 1253 3523 
Q 1550 3584 1831 3584 
Q 2591 3584 2966 3190 
Q 3341 2797 3341 1997 
z
" transform="scale(0.015625)"/>
       <path id="DejaVuSans-6f" d="M 1959 3097 
Q 1497 3097 1228 2736 
Q 959 2375 959 1747 
Q 959 1119 1226 758 
Q 1494 397 1959 397 
Q 2419 397 2687 759 
Q 2956 1122 2956 1747 
Q 2956 2369 2687 2733 
Q 2419 3097 1959 3097 
z
M 1959 3584 
Q 2709 3584 3137 3096 
Q 3566 2609 3566 1747 
Q 3566 888 3137 398 
Q 2709 -91 1959 -91 
Q 1206 -91 779 398 
Q 353 888 353 1747 
Q 353 2609 779 3096 
Q 1206 3584 1959 3584 
z
" transform="scale(0.015625)"/>
       <path id="DejaVuSans-6e" d="M 3513 2113 
L 3513 0 
L 2938 0 
L 2938 2094 
Q 2938 2591 2744 2837 
Q 2550 3084 2163 3084 
Q 1697 3084 1428 2787 
Q 1159 2491 1159 1978 
L 1159 0 
L 581 0 
L 581 3500 
L 1159 3500 
L 1159 2956 
Q 1366 3272 1645 3428 
Q 1925 3584 2291 3584 
Q 2894 3584 3203 3211 
Q 3513 2838 3513 2113 
z
" transform="scale(0.015625)"/>
      </defs>
      <use xlink:href="#DejaVuSans-4e"/>
      <use xlink:href="#DejaVuSans-61" transform="translate(74.804688 0)"/>
      <use xlink:href="#DejaVuSans-70" transform="translate(136.083984 0)"/>
      <use xlink:href="#DejaVuSans-6f" transform="translate(199.560547 0)"/>
      <use xlink:href="#DejaVuSans-6e" transform="translate(260.742188 0)"/>
      <use xlink:href="#DejaVuSans-20" transform="translate(324.121094 0)"/>
      <use xlink:href="#DejaVuSans-5b" transform="translate(355.908203 0)"/>
      <use xlink:href="#DejaVuSans-56" transform="translate(394.921875 0)"/>
      <use xlink:href="#DejaVuSans-5d" transform="translate(463.330078 0)"/>
     </g>
    </g>
   </g>
   <g id="line2d_27">
    <path d="M 45.716875 350.502175 
L 45.946936 100.038175 
L 284.198757 100.038175 
L 284.428818 350.502175 
L 522.362875 350.502175 
L 522.592936 100.038175 
L 760.844757 100.038175 
L 761.074818 350.502175 
L 840.279402 350.502175 
L 840.279402 350.502175 
" clip-path="url(#p32551cf4df)" style="fill: none; stroke-dasharray: 7.4,3.2; stroke-dashoffset: 0; stroke: #d62728; stroke-width: 2"/>
   </g>
   <g id="line2d_28">
    <path d="M 45.716875 100.038217 
L 45.875757 81.434235 
L 45.906262 83.222049 
L 46.028284 84.221671 
L 46.346048 84.362542 
L 46.663812 84.286614 
L 47.140458 83.900733 
L 48.09375 82.790446 
L 52.86021 76.965931 
L 54.607912 75.320943 
L 55.720086 74.543543 
L 56.673378 74.111204 
L 57.62667 73.920176 
L 58.579962 73.97869 
L 59.533254 74.280624 
L 60.486546 74.808996 
L 61.59872 75.679684 
L 62.869776 76.956956 
L 64.458596 78.883456 
L 66.524062 81.768002 
L 69.54282 86.414229 
L 91.150772 120.535539 
L 131.347918 182.297631 
L 141.198602 198.039148 
L 149.619348 211.911089 
L 157.245684 224.906027 
L 164.87202 238.35351 
L 175.358232 257.363637 
L 183.93786 272.751235 
L 189.180966 281.715912 
L 193.629662 288.900423 
L 197.760594 295.148958 
L 201.573762 300.516918 
L 205.228048 305.283299 
L 208.723452 309.491627 
L 212.218856 313.360323 
L 215.71426 316.898686 
L 219.209664 320.120447 
L 222.705068 323.042504 
L 226.200472 325.683828 
L 229.854758 328.166904 
L 233.667926 330.479652 
L 237.481094 332.53422 
L 241.453144 334.427316 
L 245.742958 336.219598 
L 250.191654 337.834594 
L 254.958114 339.3256 
L 260.042338 340.681715 
L 265.603208 341.930936 
L 271.640724 343.057252 
L 278.313768 344.075374 
L 284.198757 344.81342 
L 284.357639 364.788489 
L 284.388144 363.648886 
L 284.510166 363.042116 
L 284.82793 362.232841 
L 285.145694 361.937896 
L 285.463458 362.023384 
L 287.687806 363.454992 
L 288.79998 363.728993 
L 290.229918 363.799997 
L 291.659856 363.651923 
L 293.725322 363.189077 
L 296.108552 362.43157 
L 298.650664 361.39703 
L 300.71613 360.330102 
L 302.622714 359.096082 
L 304.370416 357.704929 
L 306.118118 356.033528 
L 307.86582 354.068227 
L 309.772404 351.592238 
L 311.83787 348.542765 
L 314.2211 344.602936 
L 316.922094 339.681927 
L 320.099734 333.409009 
L 324.071784 325.040307 
L 329.156008 313.776286 
L 336.305698 297.355819 
L 348.38073 268.985503 
L 366.969924 225.338595 
L 373.484086 210.641026 
L 378.409428 200.054373 
L 382.699242 191.345691 
L 386.671292 183.78114 
L 390.48446 177.002249 
L 394.138746 170.954487 
L 397.793032 165.33497 
L 401.447318 160.124312 
L 405.101604 155.299221 
L 408.75589 150.835448 
L 412.410176 146.709306 
L 416.223344 142.739427 
L 420.036512 139.088693 
L 424.008562 135.600977 
L 427.980612 132.411292 
L 432.111544 129.386062 
L 436.242476 126.635176 
L 440.53229 124.044967 
L 444.980986 121.620915 
L 449.588564 119.366001 
L 454.355024 117.280833 
L 459.439248 115.305732 
L 464.682354 113.509017 
L 470.243224 111.839027 
L 476.121858 110.304962 
L 482.477138 108.878663 
L 489.309064 107.576079 
L 496.776518 106.383403 
L 504.8795 105.316325 
L 513.935774 104.351828 
L 522.362875 103.628994 
L 522.521757 84.987413 
L 522.552262 86.756892 
L 522.674284 87.746294 
L 522.992048 87.878478 
L 523.309812 87.78037 
L 523.94534 87.17393 
L 525.375278 85.270218 
L 528.076272 81.672121 
L 529.188446 80.577157 
L 530.141738 79.92254 
L 531.09503 79.549235 
L 532.048322 79.456085 
L 533.001614 79.627585 
L 533.954906 80.039144 
L 535.06708 80.783884 
L 536.338136 81.924842 
L 537.926956 83.688633 
L 539.83354 86.155979 
L 542.534534 90.047445 
L 547.300994 97.390034 
L 562.235902 120.545254 
L 600.685346 179.546142 
L 610.853794 195.724671 
L 619.433422 209.786732 
L 627.059758 222.707905 
L 634.527212 235.798569 
L 643.742368 252.443842 
L 654.705226 272.19319 
L 660.107214 281.450697 
L 664.55591 288.650844 
L 668.686842 294.91607 
L 672.50001 300.30057 
L 676.154296 305.083261 
L 679.6497 309.307205 
L 683.145104 313.191222 
L 686.640508 316.744375 
L 690.135912 319.980222 
L 693.631316 322.915543 
L 697.12672 325.569234 
L 700.781006 328.064241 
L 704.435292 330.296869 
L 708.24846 332.371994 
L 712.22051 334.284293 
L 716.351442 336.032234 
L 720.800138 337.672285 
L 725.566598 339.186503 
L 730.650822 340.563725 
L 736.211692 341.832304 
L 742.249208 342.975914 
L 748.922252 344.009438 
L 756.389706 344.937784 
L 760.844757 345.398946 
L 761.003639 365.400027 
L 761.034144 364.264432 
L 761.156166 363.65473 
L 761.47393 362.836184 
L 761.791694 362.534873 
L 762.109458 362.613795 
L 764.333806 364.009229 
L 765.44598 364.26938 
L 766.875918 364.329026 
L 768.305856 364.174854 
L 770.371322 363.708941 
L 772.913434 362.897745 
L 775.455546 361.860156 
L 777.521012 360.791355 
L 779.427596 359.554376 
L 781.175298 358.159232 
L 782.923 356.48288 
L 784.670702 354.511899 
L 786.577286 352.029454 
L 788.642752 348.973181 
L 791.025982 345.026248 
L 793.726976 340.098515 
L 796.904616 333.819531 
L 800.876666 325.445625 
L 805.96089 314.177664 
L 813.11058 297.754562 
L 825.185612 269.382405 
L 840.279402 233.821842 
L 840.279402 233.821842 
" clip-path="url(#p32551cf4df)" style="fill: none; stroke: #2ca02c; stroke-width: 3; stroke-linecap: square"/>
   </g>
   <g id="line2d_29">
    <path d="M 45.716875 325.455775 
L 840.126875 325.455775 
" clip-path="url(#p32551cf4df)" style="fill: none; stroke-dasharray: 5.55,2.4; stroke-dashoffset: 0; stroke: #0000ff; stroke-opacity: 0.7; stroke-width: 1.5"/>
   </g>
   <g id="line2d_30">
    <path d="M 45.716875 125.084575 
L 840.126875 125.084575 
" clip-path="url(#p32551cf4df)" style="fill: none; stroke-dasharray: 5.55,2.4; stroke-dashoffset: 0; stroke: #0000ff; stroke-opacity: 0.7; stroke-width: 1.5"/>
   </g>
   <g id="line2d_31">
    <path d="M 323.879517 325.455775 
L 323.879517 225.270175 
" clip-path="url(#p32551cf4df)" style="fill: none; stroke-dasharray: 1.5,2.475; stroke-dashoffset: 0; stroke: #000000; stroke-width: 1.5"/>
   </g>
   <g id="line2d_32">
    <path d="M 438.758528 225.270175 
L 438.758528 125.084575 
" clip-path="url(#p32551cf4df)" style="fill: none; stroke-dasharray: 1.5,2.475; stroke-dashoffset: 0; stroke: #000000; stroke-width: 1.5"/>
   </g>
   <g id="line2d_33">
    <path d="M 565.208816 225.270175 
L 565.208816 125.084575 
" clip-path="url(#p32551cf4df)" style="fill: none; stroke-dasharray: 1.5,2.475; stroke-dashoffset: 0; stroke: #000000; stroke-width: 1.5"/>
   </g>
   <g id="line2d_34">
    <path d="M 696.969686 325.455775 
L 696.969686 225.270175 
" clip-path="url(#p32551cf4df)" style="fill: none; stroke-dasharray: 1.5,2.475; stroke-dashoffset: 0; stroke: #000000; stroke-width: 1.5"/>
   </g>
   <g id="patch_3">
    <path d="M 45.716875 383.897375 
L 45.716875 49.945375 
" style="fill: none; stroke: #000000; stroke-width: 0.8; stroke-linejoin: miter; stroke-linecap: square"/>
   </g>
   <g id="patch_4">
    <path d="M 840.126875 383.897375 
L 840.126875 49.945375 
" style="fill: none; stroke: #000000; stroke-width: 0.8; stroke-linejoin: miter; stroke-linecap: square"/>
   </g>
   <g id="patch_5">
    <path d="M 45.716875 383.897375 
L 840.126875 383.897375 
" style="fill: none; stroke: #000000; stroke-width: 0.8; stroke-linejoin: miter; stroke-linecap: square"/>
   </g>
   <g id="patch_6">
    <path d="M 45.716875 49.945375 
L 840.126875 49.945375 
" style="fill: none; stroke: #000000; stroke-width: 0.8; stroke-linejoin: miter; stroke-linecap: square"/>
   </g>
   <g id="patch_7">
    <path d="M 435.079649 225.270175 
Q 381.318805 225.270175 327.557961 225.270175 
" style="fill: none; stroke: #000000; stroke-width: 1.5; stroke-linecap: round"/>
    <path d="M 431.079649 223.270175 
L 435.079649 225.270175 
L 431.079649 227.270175 
z
" style="stroke: #000000; stroke-width: 1.5; stroke-linecap: round"/>
    <path d="M 331.557961 227.270175 
L 327.557961 225.270175 
L 331.557961 223.270175 
z
" style="stroke: #000000; stroke-width: 1.5; stroke-linecap: round"/>
   </g>
   <g id="text_16">
    <g id="patch_8">
     <path d="M 342.379023 215.872095 
L 420.259023 215.872095 
L 420.259023 196.338345 
L 342.379023 196.338345 
z
" style="fill: #ffffff; opacity: 0.8"/>
    </g>
    <!-- $t_r = 72.3$ ps -->
    <g transform="translate(346.339023 209.392095) scale(0.12 -0.12)">
     <defs>
      <path id="DejaVuSans-Oblique-74" d="M 2706 3500 
L 2619 3053 
L 1472 3053 
L 1100 1153 
Q 1081 1047 1072 975 
Q 1063 903 1063 863 
Q 1063 663 1183 572 
Q 1303 481 1569 481 
L 2150 481 
L 2053 0 
L 1503 0 
Q 991 0 739 200 
Q 488 400 488 806 
Q 488 878 497 964 
Q 506 1050 525 1153 
L 897 3053 
L 409 3053 
L 500 3500 
L 978 3500 
L 1172 4494 
L 1747 4494 
L 1556 3500 
L 2706 3500 
z
" transform="scale(0.015625)"/>
      <path id="DejaVuSans-Oblique-72" d="M 2853 2969 
Q 2766 3016 2653 3041 
Q 2541 3066 2413 3066 
Q 1953 3066 1609 2717 
Q 1266 2369 1153 1784 
L 800 0 
L 225 0 
L 909 3500 
L 1484 3500 
L 1375 2956 
Q 1603 3259 1920 3421 
Q 2238 3584 2597 3584 
Q 2691 3584 2781 3573 
Q 2872 3563 2963 3538 
L 2853 2969 
z
" transform="scale(0.015625)"/>
      <path id="DejaVuSans-3d" d="M 678 2906 
L 4684 2906 
L 4684 2381 
L 678 2381 
L 678 2906 
z
M 678 1631 
L 4684 1631 
L 4684 1100 
L 678 1100 
L 678 1631 
z
" transform="scale(0.015625)"/>
      <path id="DejaVuSans-37" d="M 525 4666 
L 3525 4666 
L 3525 4397 
L 1831 0 
L 1172 0 
L 2766 4134 
L 525 4134 
L 525 4666 
z
" transform="scale(0.015625)"/>
      <path id="DejaVuSans-Bold-20" transform="scale(0.015625)"/>
      <path id="DejaVuSans-Bold-70" d="M 1656 506 
L 1656 -1331 
L 538 -1331 
L 538 3500 
L 1656 3500 
L 1656 2988 
Q 1888 3294 2169 3439 
Q 2450 3584 2816 3584 
Q 3463 3584 3878 3070 
Q 4294 2556 4294 1747 
Q 4294 938 3878 423 
Q 3463 -91 2816 -91 
Q 2450 -91 2169 54 
Q 1888 200 1656 506 
z
M 2400 2772 
Q 2041 2772 1848 2508 
Q 1656 2244 1656 1747 
Q 1656 1250 1848 986 
Q 2041 722 2400 722 
Q 2759 722 2948 984 
Q 3138 1247 3138 1747 
Q 3138 2247 2948 2509 
Q 2759 2772 2400 2772 
z
" transform="scale(0.015625)"/>
      <path id="DejaVuSans-Bold-73" d="M 3272 3391 
L 3272 2541 
Q 2913 2691 2578 2766 
Q 2244 2841 1947 2841 
Q 1628 2841 1473 2761 
Q 1319 2681 1319 2516 
Q 1319 2381 1436 2309 
Q 1553 2238 1856 2203 
L 2053 2175 
Q 2913 2066 3209 1816 
Q 3506 1566 3506 1031 
Q 3506 472 3093 190 
Q 2681 -91 1863 -91 
Q 1516 -91 1145 -36 
Q 775 19 384 128 
L 384 978 
Q 719 816 1070 734 
Q 1422 653 1784 653 
Q 2113 653 2278 743 
Q 2444 834 2444 1013 
Q 2444 1163 2330 1236 
Q 2216 1309 1875 1350 
L 1678 1375 
Q 931 1469 631 1722 
Q 331 1975 331 2491 
Q 331 3047 712 3315 
Q 1094 3584 1881 3584 
Q 2191 3584 2531 3537 
Q 2872 3491 3272 3391 
z
" transform="scale(0.015625)"/>
     </defs>
     <use xlink:href="#DejaVuSans-Oblique-74" transform="translate(0 0.78125)"/>
     <use xlink:href="#DejaVuSans-Oblique-72" transform="translate(39.208984 -15.625) scale(0.7)"/>
     <use xlink:href="#DejaVuSans-3d" transform="translate(90.205078 0.78125)"/>
     <use xlink:href="#DejaVuSans-37" transform="translate(193.476562 0.78125)"/>
     <use xlink:href="#DejaVuSans-32" transform="translate(257.099609 0.78125)"/>
     <use xlink:href="#DejaVuSans-2e" transform="translate(320.722656 0.78125)"/>
     <use xlink:href="#DejaVuSans-33" transform="translate(352.509766 0.78125)"/>
     <use xlink:href="#DejaVuSans-Bold-20" transform="translate(416.132812 0.78125)"/>
     <use xlink:href="#DejaVuSans-Bold-70" transform="translate(450.947266 0.78125)"/>
     <use xlink:href="#DejaVuSans-Bold-73" transform="translate(522.529297 0.78125)"/>
    </g>
   </g>
   <g id="patch_9">
    <path d="M 693.294187 225.270175 
Q 631.089936 225.270175 568.885685 225.270175 
" style="fill: none; stroke: #000000; stroke-width: 1.5; stroke-linecap: round"/>
    <path d="M 689.294187 223.270175 
L 693.294187 225.270175 
L 689.294187 227.270175 
z
" style="stroke: #000000; stroke-width: 1.5; stroke-linecap: round"/>
    <path d="M 572.885685 227.270175 
L 568.885685 225.270175 
L 572.885685 223.270175 
z
" style="stroke: #000000; stroke-width: 1.5; stroke-linecap: round"/>
   </g>
   <g id="text_17">
    <g id="patch_10">
     <path d="M 592.449251 215.872095 
L 669.729251 215.872095 
L 669.729251 196.338345 
L 592.449251 196.338345 
z
" style="fill: #ffffff; opacity: 0.8"/>
    </g>
    <!-- $t_f = 82.9$ ps -->
    <g transform="translate(596.409251 209.392095) scale(0.12 -0.12)">
     <defs>
      <path id="DejaVuSans-Oblique-66" d="M 3059 4863 
L 2969 4384 
L 2419 4384 
Q 2106 4384 1964 4261 
Q 1822 4138 1753 3809 
L 1691 3500 
L 2638 3500 
L 2553 3053 
L 1606 3053 
L 1013 0 
L 434 0 
L 1031 3053 
L 481 3053 
L 563 3500 
L 1113 3500 
L 1159 3744 
Q 1278 4363 1576 4613 
Q 1875 4863 2516 4863 
L 3059 4863 
z
" transform="scale(0.015625)"/>
     </defs>
     <use xlink:href="#DejaVuSans-Oblique-74" transform="translate(0 0.78125)"/>
     <use xlink:href="#DejaVuSans-Oblique-66" transform="translate(39.208984 -15.625) scale(0.7)"/>
     <use xlink:href="#DejaVuSans-3d" transform="translate(86.069336 0.78125)"/>
     <use xlink:href="#DejaVuSans-38" transform="translate(189.34082 0.78125)"/>
     <use xlink:href="#DejaVuSans-32" transform="translate(252.963867 0.78125)"/>
     <use xlink:href="#DejaVuSans-2e" transform="translate(316.586914 0.78125)"/>
     <use xlink:href="#DejaVuSans-39" transform="translate(348.374023 0.78125)"/>
     <use xlink:href="#DejaVuSans-Bold-20" transform="translate(411.99707 0.78125)"/>
     <use xlink:href="#DejaVuSans-Bold-70" transform="translate(446.811523 0.78125)"/>
     <use xlink:href="#DejaVuSans-Bold-73" transform="translate(518.393555 0.78125)"/>
    </g>
   </g>
   <g id="text_18">
    <!-- Tranzijentna analiza: Vremena rasta i pada (Odnos $W_p / W_n = 2$) -->
    <g transform="translate(200.581875 17.84) scale(0.14 -0.14)">
     <defs>
      <path id="DejaVuSans-Bold-54" d="M 31 4666 
L 4331 4666 
L 4331 3756 
L 2784 3756 
L 2784 0 
L 1581 0 
L 1581 3756 
L 31 3756 
L 31 4666 
z
" transform="scale(0.015625)"/>
      <path id="DejaVuSans-Bold-72" d="M 3138 2547 
Q 2991 2616 2845 2648 
Q 2700 2681 2553 2681 
Q 2122 2681 1889 2404 
Q 1656 2128 1656 1613 
L 1656 0 
L 538 0 
L 538 3500 
L 1656 3500 
L 1656 2925 
Q 1872 3269 2151 3426 
Q 2431 3584 2822 3584 
Q 2878 3584 2943 3579 
Q 3009 3575 3134 3559 
L 3138 2547 
z
" transform="scale(0.015625)"/>
      <path id="DejaVuSans-Bold-61" d="M 2106 1575 
Q 1756 1575 1579 1456 
Q 1403 1338 1403 1106 
Q 1403 894 1545 773 
Q 1688 653 1941 653 
Q 2256 653 2472 879 
Q 2688 1106 2688 1447 
L 2688 1575 
L 2106 1575 
z
M 3816 1997 
L 3816 0 
L 2688 0 
L 2688 519 
Q 2463 200 2181 54 
Q 1900 -91 1497 -91 
Q 953 -91 614 226 
Q 275 544 275 1050 
Q 275 1666 698 1953 
Q 1122 2241 2028 2241 
L 2688 2241 
L 2688 2328 
Q 2688 2594 2478 2717 
Q 2269 2841 1825 2841 
Q 1466 2841 1156 2769 
Q 847 2697 581 2553 
L 581 3406 
Q 941 3494 1303 3539 
Q 1666 3584 2028 3584 
Q 2975 3584 3395 3211 
Q 3816 2838 3816 1997 
z
" transform="scale(0.015625)"/>
      <path id="DejaVuSans-Bold-6e" d="M 4056 2131 
L 4056 0 
L 2931 0 
L 2931 347 
L 2931 1631 
Q 2931 2084 2911 2256 
Q 2891 2428 2841 2509 
Q 2775 2619 2662 2680 
Q 2550 2741 2406 2741 
Q 2056 2741 1856 2470 
Q 1656 2200 1656 1722 
L 1656 0 
L 538 0 
L 538 3500 
L 1656 3500 
L 1656 2988 
Q 1909 3294 2193 3439 
Q 2478 3584 2822 3584 
Q 3428 3584 3742 3212 
Q 4056 2841 4056 2131 
z
" transform="scale(0.015625)"/>
      <path id="DejaVuSans-Bold-7a" d="M 366 3500 
L 3419 3500 
L 3419 2719 
L 1575 800 
L 3419 800 
L 3419 0 
L 288 0 
L 288 781 
L 2131 2700 
L 366 2700 
L 366 3500 
z
" transform="scale(0.015625)"/>
      <path id="DejaVuSans-Bold-69" d="M 538 3500 
L 1656 3500 
L 1656 0 
L 538 0 
L 538 3500 
z
M 538 4863 
L 1656 4863 
L 1656 3950 
L 538 3950 
L 538 4863 
z
" transform="scale(0.015625)"/>
      <path id="DejaVuSans-Bold-6a" d="M 538 3500 
L 1656 3500 
L 1656 63 
Q 1656 -641 1318 -1011 
Q 981 -1381 341 -1381 
L -213 -1381 
L -213 -647 
L -19 -647 
Q 300 -647 419 -503 
Q 538 -359 538 63 
L 538 3500 
z
M 538 4863 
L 1656 4863 
L 1656 3950 
L 538 3950 
L 538 4863 
z
" transform="scale(0.015625)"/>
      <path id="DejaVuSans-Bold-65" d="M 4031 1759 
L 4031 1441 
L 1416 1441 
Q 1456 1047 1700 850 
Q 1944 653 2381 653 
Q 2734 653 3104 758 
Q 3475 863 3866 1075 
L 3866 213 
Q 3469 63 3072 -14 
Q 2675 -91 2278 -91 
Q 1328 -91 801 392 
Q 275 875 275 1747 
Q 275 2603 792 3093 
Q 1309 3584 2216 3584 
Q 3041 3584 3536 3087 
Q 4031 2591 4031 1759 
z
M 2881 2131 
Q 2881 2450 2695 2645 
Q 2509 2841 2209 2841 
Q 1884 2841 1681 2658 
Q 1478 2475 1428 2131 
L 2881 2131 
z
" transform="scale(0.015625)"/>
      <path id="DejaVuSans-Bold-74" d="M 1759 4494 
L 1759 3500 
L 2913 3500 
L 2913 2700 
L 1759 2700 
L 1759 1216 
Q 1759 972 1856 886 
Q 1953 800 2241 800 
L 2816 800 
L 2816 0 
L 1856 0 
Q 1194 0 917 276 
Q 641 553 641 1216 
L 641 2700 
L 84 2700 
L 84 3500 
L 641 3500 
L 641 4494 
L 1759 4494 
z
" transform="scale(0.015625)"/>
      <path id="DejaVuSans-Bold-6c" d="M 538 4863 
L 1656 4863 
L 1656 0 
L 538 0 
L 538 4863 
z
" transform="scale(0.015625)"/>
      <path id="DejaVuSans-Bold-3a" d="M 716 3500 
L 1844 3500 
L 1844 2291 
L 716 2291 
L 716 3500 
z
M 716 1209 
L 1844 1209 
L 1844 0 
L 716 0 
L 716 1209 
z
" transform="scale(0.015625)"/>
      <path id="DejaVuSans-Bold-56" d="M 31 4666 
L 1241 4666 
L 2478 1222 
L 3713 4666 
L 4922 4666 
L 3194 0 
L 1759 0 
L 31 4666 
z
" transform="scale(0.015625)"/>
      <path id="DejaVuSans-Bold-6d" d="M 3781 2919 
Q 3994 3244 4286 3414 
Q 4578 3584 4928 3584 
Q 5531 3584 5847 3212 
Q 6163 2841 6163 2131 
L 6163 0 
L 5038 0 
L 5038 1825 
Q 5041 1866 5042 1909 
Q 5044 1953 5044 2034 
Q 5044 2406 4934 2573 
Q 4825 2741 4581 2741 
Q 4263 2741 4089 2478 
Q 3916 2216 3909 1719 
L 3909 0 
L 2784 0 
L 2784 1825 
Q 2784 2406 2684 2573 
Q 2584 2741 2328 2741 
Q 2006 2741 1831 2477 
Q 1656 2213 1656 1722 
L 1656 0 
L 531 0 
L 531 3500 
L 1656 3500 
L 1656 2988 
Q 1863 3284 2130 3434 
Q 2397 3584 2719 3584 
Q 3081 3584 3359 3409 
Q 3638 3234 3781 2919 
z
" transform="scale(0.015625)"/>
      <path id="DejaVuSans-Bold-64" d="M 2919 2988 
L 2919 4863 
L 4044 4863 
L 4044 0 
L 2919 0 
L 2919 506 
Q 2688 197 2409 53 
Q 2131 -91 1766 -91 
Q 1119 -91 703 423 
Q 288 938 288 1747 
Q 288 2556 703 3070 
Q 1119 3584 1766 3584 
Q 2128 3584 2408 3439 
Q 2688 3294 2919 2988 
z
M 2181 722 
Q 2541 722 2730 984 
Q 2919 1247 2919 1747 
Q 2919 2247 2730 2509 
Q 2541 2772 2181 2772 
Q 1825 2772 1636 2509 
Q 1447 2247 1447 1747 
Q 1447 1247 1636 984 
Q 1825 722 2181 722 
z
" transform="scale(0.015625)"/>
      <path id="DejaVuSans-Bold-28" d="M 2413 -844 
L 1484 -844 
Q 1006 -72 778 623 
Q 550 1319 550 2003 
Q 550 2688 779 3389 
Q 1009 4091 1484 4856 
L 2413 4856 
Q 2013 4116 1813 3408 
Q 1613 2700 1613 2009 
Q 1613 1319 1811 609 
Q 2009 -100 2413 -844 
z
" transform="scale(0.015625)"/>
      <path id="DejaVuSans-Bold-4f" d="M 2719 3878 
Q 2169 3878 1866 3472 
Q 1563 3066 1563 2328 
Q 1563 1594 1866 1187 
Q 2169 781 2719 781 
Q 3272 781 3575 1187 
Q 3878 1594 3878 2328 
Q 3878 3066 3575 3472 
Q 3272 3878 2719 3878 
z
M 2719 4750 
Q 3844 4750 4481 4106 
Q 5119 3463 5119 2328 
Q 5119 1197 4481 553 
Q 3844 -91 2719 -91 
Q 1597 -91 958 553 
Q 319 1197 319 2328 
Q 319 3463 958 4106 
Q 1597 4750 2719 4750 
z
" transform="scale(0.015625)"/>
      <path id="DejaVuSans-Bold-6f" d="M 2203 2784 
Q 1831 2784 1636 2517 
Q 1441 2250 1441 1747 
Q 1441 1244 1636 976 
Q 1831 709 2203 709 
Q 2569 709 2762 976 
Q 2956 1244 2956 1747 
Q 2956 2250 2762 2517 
Q 2569 2784 2203 2784 
z
M 2203 3584 
Q 3106 3584 3614 3096 
Q 4122 2609 4122 1747 
Q 4122 884 3614 396 
Q 3106 -91 2203 -91 
Q 1297 -91 786 396 
Q 275 884 275 1747 
Q 275 2609 786 3096 
Q 1297 3584 2203 3584 
z
" transform="scale(0.015625)"/>
      <path id="DejaVuSans-Oblique-57" d="M 616 4666 
L 1228 4666 
L 1453 697 
L 3213 4666 
L 3916 4666 
L 4147 697 
L 5888 4666 
L 6528 4666 
L 4453 0 
L 3659 0 
L 3444 3891 
L 1697 0 
L 903 0 
L 616 4666 
z
" transform="scale(0.015625)"/>
      <path id="DejaVuSans-Oblique-70" d="M 3175 2156 
Q 3175 2616 2975 2859 
Q 2775 3103 2400 3103 
Q 2144 3103 1911 2972 
Q 1678 2841 1497 2591 
Q 1319 2344 1212 1994 
Q 1106 1644 1106 1300 
Q 1106 863 1306 627 
Q 1506 391 1875 391 
Q 2147 391 2380 519 
Q 2613 647 2778 891 
Q 2956 1147 3065 1494 
Q 3175 1841 3175 2156 
z
M 1394 2969 
Q 1625 3272 1939 3428 
Q 2253 3584 2638 3584 
Q 3175 3584 3472 3232 
Q 3769 2881 3769 2247 
Q 3769 1728 3584 1258 
Q 3400 788 3053 416 
Q 2822 169 2531 39 
Q 2241 -91 1919 -91 
Q 1547 -91 1294 64 
Q 1041 219 916 525 
L 556 -1331 
L -19 -1331 
L 922 3500 
L 1497 3500 
L 1394 2969 
z
" transform="scale(0.015625)"/>
      <path id="DejaVuSans-2f" d="M 1625 4666 
L 2156 4666 
L 531 -594 
L 0 -594 
L 1625 4666 
z
" transform="scale(0.015625)"/>
      <path id="DejaVuSans-Oblique-6e" d="M 3566 2113 
L 3156 0 
L 2578 0 
L 2988 2091 
Q 3016 2238 3031 2350 
Q 3047 2463 3047 2528 
Q 3047 2791 2881 2937 
Q 2716 3084 2419 3084 
Q 1956 3084 1622 2776 
Q 1288 2469 1184 1941 
L 800 0 
L 225 0 
L 903 3500 
L 1478 3500 
L 1363 2950 
Q 1603 3253 1940 3418 
Q 2278 3584 2650 3584 
Q 3113 3584 3367 3334 
Q 3622 3084 3622 2631 
Q 3622 2519 3608 2391 
Q 3594 2263 3566 2113 
z
" transform="scale(0.015625)"/>
      <path id="DejaVuSans-Bold-29" d="M 513 -844 
Q 913 -100 1113 609 
Q 1313 1319 1313 2009 
Q 1313 2700 1113 3408 
Q 913 4116 513 4856 
L 1441 4856 
Q 1916 4091 2145 3389 
Q 2375 2688 2375 2003 
Q 2375 1319 2147 623 
Q 1919 -72 1441 -844 
L 513 -844 
z
" transform="scale(0.015625)"/>
     </defs>
     <use xlink:href="#DejaVuSans-Bold-54" transform="translate(0 0.015625)"/>
     <use xlink:href="#DejaVuSans-Bold-72" transform="translate(68.212891 0.015625)"/>
     <use xlink:href="#DejaVuSans-Bold-61" transform="translate(117.529297 0.015625)"/>
     <use xlink:href="#DejaVuSans-Bold-6e" transform="translate(185.009766 0.015625)"/>
     <use xlink:href="#DejaVuSans-Bold-7a" transform="translate(256.201172 0.015625)"/>
     <use xlink:href="#DejaVuSans-Bold-69" transform="translate(314.404297 0.015625)"/>
     <use xlink:href="#DejaVuSans-Bold-6a" transform="translate(348.681641 0.015625)"/>
     <use xlink:href="#DejaVuSans-Bold-65" transform="translate(382.958984 0.015625)"/>
     <use xlink:href="#DejaVuSans-Bold-6e" transform="translate(450.78125 0.015625)"/>
     <use xlink:href="#DejaVuSans-Bold-74" transform="translate(521.972656 0.015625)"/>
     <use xlink:href="#DejaVuSans-Bold-6e" transform="translate(569.775391 0.015625)"/>
     <use xlink:href="#DejaVuSans-Bold-61" transform="translate(640.966797 0.015625)"/>
     <use xlink:href="#DejaVuSans-Bold-20" transform="translate(708.447266 0.015625)"/>
     <use xlink:href="#DejaVuSans-Bold-61" transform="translate(743.261719 0.015625)"/>
     <use xlink:href="#DejaVuSans-Bold-6e" transform="translate(810.742188 0.015625)"/>
     <use xlink:href="#DejaVuSans-Bold-61" transform="translate(881.933594 0.015625)"/>
     <use xlink:href="#DejaVuSans-Bold-6c" transform="translate(949.414062 0.015625)"/>
     <use xlink:href="#DejaVuSans-Bold-69" transform="translate(983.691406 0.015625)"/>
     <use xlink:href="#DejaVuSans-Bold-7a" transform="translate(1017.96875 0.015625)"/>
     <use xlink:href="#DejaVuSans-Bold-61" transform="translate(1076.171875 0.015625)"/>
     <use xlink:href="#DejaVuSans-Bold-3a" transform="translate(1143.652344 0.015625)"/>
     <use xlink:href="#DejaVuSans-Bold-20" transform="translate(1183.642578 0.015625)"/>
     <use xlink:href="#DejaVuSans-Bold-56" transform="translate(1218.457031 0.015625)"/>
     <use xlink:href="#DejaVuSans-Bold-72" transform="translate(1295.849609 0.015625)"/>
     <use xlink:href="#DejaVuSans-Bold-65" transform="translate(1345.166016 0.015625)"/>
     <use xlink:href="#DejaVuSans-Bold-6d" transform="translate(1412.988281 0.015625)"/>
     <use xlink:href="#DejaVuSans-Bold-65" transform="translate(1517.1875 0.015625)"/>
     <use xlink:href="#DejaVuSans-Bold-6e" transform="translate(1585.009766 0.015625)"/>
     <use xlink:href="#DejaVuSans-Bold-61" transform="translate(1656.201172 0.015625)"/>
     <use xlink:href="#DejaVuSans-Bold-20" transform="translate(1723.681641 0.015625)"/>
     <use xlink:href="#DejaVuSans-Bold-72" transform="translate(1758.496094 0.015625)"/>
     <use xlink:href="#DejaVuSans-Bold-61" transform="translate(1807.8125 0.015625)"/>
     <use xlink:href="#DejaVuSans-Bold-73" transform="translate(1875.292969 0.015625)"/>
     <use xlink:href="#DejaVuSans-Bold-74" transform="translate(1934.814453 0.015625)"/>
     <use xlink:href="#DejaVuSans-Bold-61" transform="translate(1982.617188 0.015625)"/>
     <use xlink:href="#DejaVuSans-Bold-20" transform="translate(2050.097656 0.015625)"/>
     <use xlink:href="#DejaVuSans-Bold-69" transform="translate(2084.912109 0.015625)"/>
     <use xlink:href="#DejaVuSans-Bold-20" transform="translate(2119.189453 0.015625)"/>
     <use xlink:href="#DejaVuSans-Bold-70" transform="translate(2154.003906 0.015625)"/>
     <use xlink:href="#DejaVuSans-Bold-61" transform="translate(2225.585938 0.015625)"/>
     <use xlink:href="#DejaVuSans-Bold-64" transform="translate(2293.066406 0.015625)"/>
     <use xlink:href="#DejaVuSans-Bold-61" transform="translate(2364.648438 0.015625)"/>
     <use xlink:href="#DejaVuSans-Bold-20" transform="translate(2432.128906 0.015625)"/>
     <use xlink:href="#DejaVuSans-Bold-28" transform="translate(2466.943359 0.015625)"/>
     <use xlink:href="#DejaVuSans-Bold-4f" transform="translate(2512.646484 0.015625)"/>
     <use xlink:href="#DejaVuSans-Bold-64" transform="translate(2597.65625 0.015625)"/>
     <use xlink:href="#DejaVuSans-Bold-6e" transform="translate(2669.238281 0.015625)"/>
     <use xlink:href="#DejaVuSans-Bold-6f" transform="translate(2740.429688 0.015625)"/>
     <use xlink:href="#DejaVuSans-Bold-73" transform="translate(2809.130859 0.015625)"/>
     <use xlink:href="#DejaVuSans-Bold-20" transform="translate(2868.652344 0.015625)"/>
     <use xlink:href="#DejaVuSans-Oblique-57" transform="translate(2903.466797 0.015625)"/>
     <use xlink:href="#DejaVuSans-Oblique-70" transform="translate(3002.34375 -16.390625) scale(0.7)"/>
     <use xlink:href="#DejaVuSans-2f" transform="translate(3049.511719 0.015625)"/>
     <use xlink:href="#DejaVuSans-Oblique-57" transform="translate(3083.203125 0.015625)"/>
     <use xlink:href="#DejaVuSans-Oblique-6e" transform="translate(3182.080078 -16.390625) scale(0.7)"/>
     <use xlink:href="#DejaVuSans-3d" transform="translate(3248.662109 0.015625)"/>
     <use xlink:href="#DejaVuSans-32" transform="translate(3351.933594 0.015625)"/>
     <use xlink:href="#DejaVuSans-Bold-29" transform="translate(3415.556641 0.015625)"/>
    </g>
    <!--  Postlayout-PEX  with matching -->
    <g transform="translate(318.81625 34.945375) scale(0.14 -0.14)">
     <defs>
      <path id="DejaVuSans-Bold-50" d="M 588 4666 
L 2584 4666 
Q 3475 4666 3951 4270 
Q 4428 3875 4428 3144 
Q 4428 2409 3951 2014 
Q 3475 1619 2584 1619 
L 1791 1619 
L 1791 0 
L 588 0 
L 588 4666 
z
M 1791 3794 
L 1791 2491 
L 2456 2491 
Q 2806 2491 2997 2661 
Q 3188 2831 3188 3144 
Q 3188 3456 2997 3625 
Q 2806 3794 2456 3794 
L 1791 3794 
z
" transform="scale(0.015625)"/>
      <path id="DejaVuSans-Bold-79" d="M 78 3500 
L 1197 3500 
L 2138 1125 
L 2938 3500 
L 4056 3500 
L 2584 -331 
Q 2363 -916 2067 -1148 
Q 1772 -1381 1288 -1381 
L 641 -1381 
L 641 -647 
L 991 -647 
Q 1275 -647 1404 -556 
Q 1534 -466 1606 -231 
L 1638 -134 
L 78 3500 
z
" transform="scale(0.015625)"/>
      <path id="DejaVuSans-Bold-75" d="M 500 1363 
L 500 3500 
L 1625 3500 
L 1625 3150 
Q 1625 2866 1622 2436 
Q 1619 2006 1619 1863 
Q 1619 1441 1641 1255 
Q 1663 1069 1716 984 
Q 1784 875 1895 815 
Q 2006 756 2150 756 
Q 2500 756 2700 1025 
Q 2900 1294 2900 1772 
L 2900 3500 
L 4019 3500 
L 4019 0 
L 2900 0 
L 2900 506 
Q 2647 200 2364 54 
Q 2081 -91 1741 -91 
Q 1134 -91 817 281 
Q 500 653 500 1363 
z
" transform="scale(0.015625)"/>
      <path id="DejaVuSans-Bold-2d" d="M 347 2297 
L 2309 2297 
L 2309 1388 
L 347 1388 
L 347 2297 
z
" transform="scale(0.015625)"/>
      <path id="DejaVuSans-Bold-45" d="M 588 4666 
L 3834 4666 
L 3834 3756 
L 1791 3756 
L 1791 2888 
L 3713 2888 
L 3713 1978 
L 1791 1978 
L 1791 909 
L 3903 909 
L 3903 0 
L 588 0 
L 588 4666 
z
" transform="scale(0.015625)"/>
      <path id="DejaVuSans-Bold-58" d="M 3188 2381 
L 4806 0 
L 3553 0 
L 2463 1594 
L 1381 0 
L 122 0 
L 1741 2381 
L 184 4666 
L 1441 4666 
L 2463 3163 
L 3481 4666 
L 4744 4666 
L 3188 2381 
z
" transform="scale(0.015625)"/>
      <path id="DejaVuSans-Bold-77" d="M 225 3500 
L 1313 3500 
L 1900 1088 
L 2491 3500 
L 3425 3500 
L 4013 1113 
L 4603 3500 
L 5691 3500 
L 4769 0 
L 3547 0 
L 2956 2406 
L 2369 0 
L 1147 0 
L 225 3500 
z
" transform="scale(0.015625)"/>
      <path id="DejaVuSans-Bold-68" d="M 4056 2131 
L 4056 0 
L 2931 0 
L 2931 347 
L 2931 1625 
Q 2931 2084 2911 2256 
Q 2891 2428 2841 2509 
Q 2775 2619 2662 2680 
Q 2550 2741 2406 2741 
Q 2056 2741 1856 2470 
Q 1656 2200 1656 1722 
L 1656 0 
L 538 0 
L 538 4863 
L 1656 4863 
L 1656 2988 
Q 1909 3294 2193 3439 
Q 2478 3584 2822 3584 
Q 3428 3584 3742 3212 
Q 4056 2841 4056 2131 
z
" transform="scale(0.015625)"/>
      <path id="DejaVuSans-Bold-63" d="M 3366 3391 
L 3366 2478 
Q 3138 2634 2908 2709 
Q 2678 2784 2431 2784 
Q 1963 2784 1702 2511 
Q 1441 2238 1441 1747 
Q 1441 1256 1702 982 
Q 1963 709 2431 709 
Q 2694 709 2930 787 
Q 3166 866 3366 1019 
L 3366 103 
Q 3103 6 2833 -42 
Q 2563 -91 2291 -91 
Q 1344 -91 809 395 
Q 275 881 275 1747 
Q 275 2613 809 3098 
Q 1344 3584 2291 3584 
Q 2566 3584 2833 3536 
Q 3100 3488 3366 3391 
z
" transform="scale(0.015625)"/>
      <path id="DejaVuSans-Bold-67" d="M 2919 594 
Q 2688 288 2409 144 
Q 2131 0 1766 0 
Q 1125 0 706 504 
Q 288 1009 288 1791 
Q 288 2575 706 3076 
Q 1125 3578 1766 3578 
Q 2131 3578 2409 3434 
Q 2688 3291 2919 2981 
L 2919 3500 
L 4044 3500 
L 4044 353 
Q 4044 -491 3511 -936 
Q 2978 -1381 1966 -1381 
Q 1638 -1381 1331 -1331 
Q 1025 -1281 716 -1178 
L 716 -306 
Q 1009 -475 1290 -558 
Q 1572 -641 1856 -641 
Q 2406 -641 2662 -400 
Q 2919 -159 2919 353 
L 2919 594 
z
M 2181 2772 
Q 1834 2772 1640 2515 
Q 1447 2259 1447 1791 
Q 1447 1309 1634 1061 
Q 1822 813 2181 813 
Q 2531 813 2725 1069 
Q 2919 1325 2919 1791 
Q 2919 2259 2725 2515 
Q 2531 2772 2181 2772 
z
" transform="scale(0.015625)"/>
     </defs>
     <use xlink:href="#DejaVuSans-Bold-20"/>
     <use xlink:href="#DejaVuSans-Bold-50" transform="translate(34.814453 0)"/>
     <use xlink:href="#DejaVuSans-Bold-6f" transform="translate(108.105469 0)"/>
     <use xlink:href="#DejaVuSans-Bold-73" transform="translate(176.806641 0)"/>
     <use xlink:href="#DejaVuSans-Bold-74" transform="translate(236.328125 0)"/>
     <use xlink:href="#DejaVuSans-Bold-6c" transform="translate(284.130859 0)"/>
     <use xlink:href="#DejaVuSans-Bold-61" transform="translate(318.408203 0)"/>
     <use xlink:href="#DejaVuSans-Bold-79" transform="translate(382.763672 0)"/>
     <use xlink:href="#DejaVuSans-Bold-6f" transform="translate(447.949219 0)"/>
     <use xlink:href="#DejaVuSans-Bold-75" transform="translate(516.650391 0)"/>
     <use xlink:href="#DejaVuSans-Bold-74" transform="translate(587.841797 0)"/>
     <use xlink:href="#DejaVuSans-Bold-2d" transform="translate(635.644531 0)"/>
     <use xlink:href="#DejaVuSans-Bold-50" transform="translate(677.148438 0)"/>
     <use xlink:href="#DejaVuSans-Bold-45" transform="translate(750.439453 0)"/>
     <use xlink:href="#DejaVuSans-Bold-58" transform="translate(818.75 0)"/>
     <use xlink:href="#DejaVuSans-Bold-20" transform="translate(895.849609 0)"/>
     <use xlink:href="#DejaVuSans-Bold-20" transform="translate(930.664062 0)"/>
     <use xlink:href="#DejaVuSans-Bold-77" transform="translate(965.478516 0)"/>
     <use xlink:href="#DejaVuSans-Bold-69" transform="translate(1057.861328 0)"/>
     <use xlink:href="#DejaVuSans-Bold-74" transform="translate(1092.138672 0)"/>
     <use xlink:href="#DejaVuSans-Bold-68" transform="translate(1139.941406 0)"/>
     <use xlink:href="#DejaVuSans-Bold-20" transform="translate(1211.132812 0)"/>
     <use xlink:href="#DejaVuSans-Bold-6d" transform="translate(1245.947266 0)"/>
     <use xlink:href="#DejaVuSans-Bold-61" transform="translate(1350.146484 0)"/>
     <use xlink:href="#DejaVuSans-Bold-74" transform="translate(1417.626953 0)"/>
     <use xlink:href="#DejaVuSans-Bold-63" transform="translate(1465.429688 0)"/>
     <use xlink:href="#DejaVuSans-Bold-68" transform="translate(1524.707031 0)"/>
     <use xlink:href="#DejaVuSans-Bold-69" transform="translate(1595.898438 0)"/>
     <use xlink:href="#DejaVuSans-Bold-6e" transform="translate(1630.175781 0)"/>
     <use xlink:href="#DejaVuSans-Bold-67" transform="translate(1701.367188 0)"/>
    </g>
   </g>
   <g id="legend_1">
    <g id="patch_11">
     <path d="M 705.486875 123.329125 
L 832.426875 123.329125 
Q 834.626875 123.329125 834.626875 121.129125 
L 834.626875 57.645375 
Q 834.626875 55.445375 832.426875 55.445375 
L 705.486875 55.445375 
Q 703.286875 55.445375 703.286875 57.645375 
L 703.286875 121.129125 
Q 703.286875 123.329125 705.486875 123.329125 
z
" style="fill: #ffffff; opacity: 0.9; stroke: #000000; stroke-linejoin: miter"/>
    </g>
    <g id="line2d_35">
     <path d="M 707.686875 64.353656 
L 718.686875 64.353656 
L 729.686875 64.353656 
" style="fill: none; stroke-dasharray: 7.4,3.2; stroke-dashoffset: 0; stroke: #d62728; stroke-width: 2"/>
    </g>
    <g id="text_19">
     <!-- Ulaz A (Pobuda) -->
     <g transform="translate(738.486875 68.203656) scale(0.11 -0.11)">
      <defs>
       <path id="DejaVuSans-55" d="M 556 4666 
L 1191 4666 
L 1191 1831 
Q 1191 1081 1462 751 
Q 1734 422 2344 422 
Q 2950 422 3222 751 
Q 3494 1081 3494 1831 
L 3494 4666 
L 4128 4666 
L 4128 1753 
Q 4128 841 3676 375 
Q 3225 -91 2344 -91 
Q 1459 -91 1007 375 
Q 556 841 556 1753 
L 556 4666 
z
" transform="scale(0.015625)"/>
       <path id="DejaVuSans-6c" d="M 603 4863 
L 1178 4863 
L 1178 0 
L 603 0 
L 603 4863 
z
" transform="scale(0.015625)"/>
       <path id="DejaVuSans-7a" d="M 353 3500 
L 3084 3500 
L 3084 2975 
L 922 459 
L 3084 459 
L 3084 0 
L 275 0 
L 275 525 
L 2438 3041 
L 353 3041 
L 353 3500 
z
" transform="scale(0.015625)"/>
       <path id="DejaVuSans-41" d="M 2188 4044 
L 1331 1722 
L 3047 1722 
L 2188 4044 
z
M 1831 4666 
L 2547 4666 
L 4325 0 
L 3669 0 
L 3244 1197 
L 1141 1197 
L 716 0 
L 50 0 
L 1831 4666 
z
" transform="scale(0.015625)"/>
       <path id="DejaVuSans-28" d="M 1984 4856 
Q 1566 4138 1362 3434 
Q 1159 2731 1159 2009 
Q 1159 1288 1364 580 
Q 1569 -128 1984 -844 
L 1484 -844 
Q 1016 -109 783 600 
Q 550 1309 550 2009 
Q 550 2706 781 3412 
Q 1013 4119 1484 4856 
L 1984 4856 
z
" transform="scale(0.015625)"/>
       <path id="DejaVuSans-50" d="M 1259 4147 
L 1259 2394 
L 2053 2394 
Q 2494 2394 2734 2622 
Q 2975 2850 2975 3272 
Q 2975 3691 2734 3919 
Q 2494 4147 2053 4147 
L 1259 4147 
z
M 628 4666 
L 2053 4666 
Q 2838 4666 3239 4311 
Q 3641 3956 3641 3272 
Q 3641 2581 3239 2228 
Q 2838 1875 2053 1875 
L 1259 1875 
L 1259 0 
L 628 0 
L 628 4666 
z
" transform="scale(0.015625)"/>
       <path id="DejaVuSans-62" d="M 3116 1747 
Q 3116 2381 2855 2742 
Q 2594 3103 2138 3103 
Q 1681 3103 1420 2742 
Q 1159 2381 1159 1747 
Q 1159 1113 1420 752 
Q 1681 391 2138 391 
Q 2594 391 2855 752 
Q 3116 1113 3116 1747 
z
M 1159 2969 
Q 1341 3281 1617 3432 
Q 1894 3584 2278 3584 
Q 2916 3584 3314 3078 
Q 3713 2572 3713 1747 
Q 3713 922 3314 415 
Q 2916 -91 2278 -91 
Q 1894 -91 1617 61 
Q 1341 213 1159 525 
L 1159 0 
L 581 0 
L 581 4863 
L 1159 4863 
L 1159 2969 
z
" transform="scale(0.015625)"/>
       <path id="DejaVuSans-75" d="M 544 1381 
L 544 3500 
L 1119 3500 
L 1119 1403 
Q 1119 906 1312 657 
Q 1506 409 1894 409 
Q 2359 409 2629 706 
Q 2900 1003 2900 1516 
L 2900 3500 
L 3475 3500 
L 3475 0 
L 2900 0 
L 2900 538 
Q 2691 219 2414 64 
Q 2138 -91 1772 -91 
Q 1169 -91 856 284 
Q 544 659 544 1381 
z
M 1991 3584 
L 1991 3584 
z
" transform="scale(0.015625)"/>
       <path id="DejaVuSans-64" d="M 2906 2969 
L 2906 4863 
L 3481 4863 
L 3481 0 
L 2906 0 
L 2906 525 
Q 2725 213 2448 61 
Q 2172 -91 1784 -91 
Q 1150 -91 751 415 
Q 353 922 353 1747 
Q 353 2572 751 3078 
Q 1150 3584 1784 3584 
Q 2172 3584 2448 3432 
Q 2725 3281 2906 2969 
z
M 947 1747 
Q 947 1113 1208 752 
Q 1469 391 1925 391 
Q 2381 391 2643 752 
Q 2906 1113 2906 1747 
Q 2906 2381 2643 2742 
Q 2381 3103 1925 3103 
Q 1469 3103 1208 2742 
Q 947 2381 947 1747 
z
" transform="scale(0.015625)"/>
       <path id="DejaVuSans-29" d="M 513 4856 
L 1013 4856 
Q 1481 4119 1714 3412 
Q 1947 2706 1947 2009 
Q 1947 1309 1714 600 
Q 1481 -109 1013 -844 
L 513 -844 
Q 928 -128 1133 580 
Q 1338 1288 1338 2009 
Q 1338 2731 1133 3434 
Q 928 4138 513 4856 
z
" transform="scale(0.015625)"/>
      </defs>
      <use xlink:href="#DejaVuSans-55"/>
      <use xlink:href="#DejaVuSans-6c" transform="translate(73.193359 0)"/>
      <use xlink:href="#DejaVuSans-61" transform="translate(100.976562 0)"/>
      <use xlink:href="#DejaVuSans-7a" transform="translate(162.255859 0)"/>
      <use xlink:href="#DejaVuSans-20" transform="translate(214.746094 0)"/>
      <use xlink:href="#DejaVuSans-41" transform="translate(246.533203 0)"/>
      <use xlink:href="#DejaVuSans-20" transform="translate(314.941406 0)"/>
      <use xlink:href="#DejaVuSans-28" transform="translate(346.728516 0)"/>
      <use xlink:href="#DejaVuSans-50" transform="translate(385.742188 0)"/>
      <use xlink:href="#DejaVuSans-6f" transform="translate(442.419922 0)"/>
      <use xlink:href="#DejaVuSans-62" transform="translate(503.601562 0)"/>
      <use xlink:href="#DejaVuSans-75" transform="translate(567.078125 0)"/>
      <use xlink:href="#DejaVuSans-64" transform="translate(630.457031 0)"/>
      <use xlink:href="#DejaVuSans-61" transform="translate(693.933594 0)"/>
      <use xlink:href="#DejaVuSans-29" transform="translate(755.212891 0)"/>
     </g>
    </g>
    <g id="line2d_36">
     <path d="M 707.686875 80.499594 
L 718.686875 80.499594 
L 729.686875 80.499594 
" style="fill: none; stroke: #2ca02c; stroke-width: 3; stroke-linecap: square"/>
    </g>
    <g id="text_20">
     <!-- Izlaz F (Odziv) -->
     <g transform="translate(738.486875 84.349594) scale(0.11 -0.11)">
      <defs>
       <path id="DejaVuSans-49" d="M 628 4666 
L 1259 4666 
L 1259 0 
L 628 0 
L 628 4666 
z
" transform="scale(0.015625)"/>
       <path id="DejaVuSans-46" d="M 628 4666 
L 3309 4666 
L 3309 4134 
L 1259 4134 
L 1259 2759 
L 3109 2759 
L 3109 2228 
L 1259 2228 
L 1259 0 
L 628 0 
L 628 4666 
z
" transform="scale(0.015625)"/>
       <path id="DejaVuSans-4f" d="M 2522 4238 
Q 1834 4238 1429 3725 
Q 1025 3213 1025 2328 
Q 1025 1447 1429 934 
Q 1834 422 2522 422 
Q 3209 422 3611 934 
Q 4013 1447 4013 2328 
Q 4013 3213 3611 3725 
Q 3209 4238 2522 4238 
z
M 2522 4750 
Q 3503 4750 4090 4092 
Q 4678 3434 4678 2328 
Q 4678 1225 4090 567 
Q 3503 -91 2522 -91 
Q 1538 -91 948 565 
Q 359 1222 359 2328 
Q 359 3434 948 4092 
Q 1538 4750 2522 4750 
z
" transform="scale(0.015625)"/>
       <path id="DejaVuSans-69" d="M 603 3500 
L 1178 3500 
L 1178 0 
L 603 0 
L 603 3500 
z
M 603 4863 
L 1178 4863 
L 1178 4134 
L 603 4134 
L 603 4863 
z
" transform="scale(0.015625)"/>
       <path id="DejaVuSans-76" d="M 191 3500 
L 800 3500 
L 1894 563 
L 2988 3500 
L 3597 3500 
L 2284 0 
L 1503 0 
L 191 3500 
z
" transform="scale(0.015625)"/>
      </defs>
      <use xlink:href="#DejaVuSans-49"/>
      <use xlink:href="#DejaVuSans-7a" transform="translate(29.492188 0)"/>
      <use xlink:href="#DejaVuSans-6c" transform="translate(81.982422 0)"/>
      <use xlink:href="#DejaVuSans-61" transform="translate(109.765625 0)"/>
      <use xlink:href="#DejaVuSans-7a" transform="translate(171.044922 0)"/>
      <use xlink:href="#DejaVuSans-20" transform="translate(223.535156 0)"/>
      <use xlink:href="#DejaVuSans-46" transform="translate(255.322266 0)"/>
      <use xlink:href="#DejaVuSans-20" transform="translate(312.841797 0)"/>
      <use xlink:href="#DejaVuSans-28" transform="translate(344.628906 0)"/>
      <use xlink:href="#DejaVuSans-4f" transform="translate(383.642578 0)"/>
      <use xlink:href="#DejaVuSans-64" transform="translate(462.353516 0)"/>
      <use xlink:href="#DejaVuSans-7a" transform="translate(525.830078 0)"/>
      <use xlink:href="#DejaVuSans-69" transform="translate(578.320312 0)"/>
      <use xlink:href="#DejaVuSans-76" transform="translate(606.103516 0)"/>
      <use xlink:href="#DejaVuSans-29" transform="translate(665.283203 0)"/>
     </g>
    </g>
    <g id="line2d_37">
     <path d="M 707.686875 96.645531 
L 718.686875 96.645531 
L 729.686875 96.645531 
" style="fill: none; stroke-dasharray: 5.55,2.4; stroke-dashoffset: 0; stroke: #0000ff; stroke-opacity: 0.7; stroke-width: 1.5"/>
    </g>
    <g id="text_21">
     <!-- 10% $V_{DD}$ (0.15V) -->
     <g transform="translate(738.486875 100.495531) scale(0.11 -0.11)">
      <defs>
       <path id="DejaVuSans-25" d="M 4653 2053 
Q 4381 2053 4226 1822 
Q 4072 1591 4072 1178 
Q 4072 772 4226 539 
Q 4381 306 4653 306 
Q 4919 306 5073 539 
Q 5228 772 5228 1178 
Q 5228 1588 5073 1820 
Q 4919 2053 4653 2053 
z
M 4653 2450 
Q 5147 2450 5437 2106 
Q 5728 1763 5728 1178 
Q 5728 594 5436 251 
Q 5144 -91 4653 -91 
Q 4153 -91 3862 251 
Q 3572 594 3572 1178 
Q 3572 1766 3864 2108 
Q 4156 2450 4653 2450 
z
M 1428 4353 
Q 1159 4353 1004 4120 
Q 850 3888 850 3481 
Q 850 3069 1003 2837 
Q 1156 2606 1428 2606 
Q 1700 2606 1854 2837 
Q 2009 3069 2009 3481 
Q 2009 3884 1853 4118 
Q 1697 4353 1428 4353 
z
M 4250 4750 
L 4750 4750 
L 1831 -91 
L 1331 -91 
L 4250 4750 
z
M 1428 4750 
Q 1922 4750 2215 4408 
Q 2509 4066 2509 3481 
Q 2509 2891 2217 2550 
Q 1925 2209 1428 2209 
Q 931 2209 642 2551 
Q 353 2894 353 3481 
Q 353 4063 643 4406 
Q 934 4750 1428 4750 
z
" transform="scale(0.015625)"/>
       <path id="DejaVuSans-Oblique-56" d="M 1319 0 
L 500 4666 
L 1119 4666 
L 1797 653 
L 4063 4666 
L 4750 4666 
L 2053 0 
L 1319 0 
z
" transform="scale(0.015625)"/>
       <path id="DejaVuSans-Oblique-44" d="M 1081 4666 
L 2438 4666 
Q 3519 4666 4070 4208 
Q 4622 3750 4622 2847 
Q 4622 2250 4412 1698 
Q 4203 1147 3834 769 
Q 3463 381 2891 190 
Q 2319 0 1538 0 
L 172 0 
L 1081 4666 
z
M 1613 4147 
L 909 519 
L 1734 519 
Q 2794 519 3375 1128 
Q 3956 1738 3956 2847 
Q 3956 3519 3581 3833 
Q 3206 4147 2406 4147 
L 1613 4147 
z
" transform="scale(0.015625)"/>
      </defs>
      <use xlink:href="#DejaVuSans-31" transform="translate(0 0.125)"/>
      <use xlink:href="#DejaVuSans-30" transform="translate(63.623047 0.125)"/>
      <use xlink:href="#DejaVuSans-25" transform="translate(127.246094 0.125)"/>
      <use xlink:href="#DejaVuSans-20" transform="translate(222.265625 0.125)"/>
      <use xlink:href="#DejaVuSans-Oblique-56" transform="translate(254.052734 0.125)"/>
      <use xlink:href="#DejaVuSans-Oblique-44" transform="translate(322.460938 -16.28125) scale(0.7)"/>
      <use xlink:href="#DejaVuSans-Oblique-44" transform="translate(376.362305 -16.28125) scale(0.7)"/>
      <use xlink:href="#DejaVuSans-20" transform="translate(432.998047 0.125)"/>
      <use xlink:href="#DejaVuSans-28" transform="translate(464.785156 0.125)"/>
      <use xlink:href="#DejaVuSans-30" transform="translate(503.798828 0.125)"/>
      <use xlink:href="#DejaVuSans-2e" transform="translate(567.421875 0.125)"/>
      <use xlink:href="#DejaVuSans-31" transform="translate(599.208984 0.125)"/>
      <use xlink:href="#DejaVuSans-35" transform="translate(662.832031 0.125)"/>
      <use xlink:href="#DejaVuSans-56" transform="translate(726.455078 0.125)"/>
      <use xlink:href="#DejaVuSans-29" transform="translate(794.863281 0.125)"/>
     </g>
    </g>
    <g id="line2d_38">
     <path d="M 707.686875 112.791469 
L 718.686875 112.791469 
L 729.686875 112.791469 
" style="fill: none; stroke-dasharray: 5.55,2.4; stroke-dashoffset: 0; stroke: #0000ff; stroke-opacity: 0.7; stroke-width: 1.5"/>
    </g>
    <g id="text_22">
     <!-- 90% $V_{DD}$ (1.35V) -->
     <g transform="translate(738.486875 116.641469) scale(0.11 -0.11)">
      <use xlink:href="#DejaVuSans-39" transform="translate(0 0.125)"/>
      <use xlink:href="#DejaVuSans-30" transform="translate(63.623047 0.125)"/>
      <use xlink:href="#DejaVuSans-25" transform="translate(127.246094 0.125)"/>
      <use xlink:href="#DejaVuSans-20" transform="translate(222.265625 0.125)"/>
      <use xlink:href="#DejaVuSans-Oblique-56" transform="translate(254.052734 0.125)"/>
      <use xlink:href="#DejaVuSans-Oblique-44" transform="translate(322.460938 -16.28125) scale(0.7)"/>
      <use xlink:href="#DejaVuSans-Oblique-44" transform="translate(376.362305 -16.28125) scale(0.7)"/>
      <use xlink:href="#DejaVuSans-20" transform="translate(432.998047 0.125)"/>
      <use xlink:href="#DejaVuSans-28" transform="translate(464.785156 0.125)"/>
      <use xlink:href="#DejaVuSans-31" transform="translate(503.798828 0.125)"/>
      <use xlink:href="#DejaVuSans-2e" transform="translate(567.421875 0.125)"/>
      <use xlink:href="#DejaVuSans-33" transform="translate(599.208984 0.125)"/>
      <use xlink:href="#DejaVuSans-35" transform="translate(662.832031 0.125)"/>
      <use xlink:href="#DejaVuSans-56" transform="translate(726.455078 0.125)"/>
      <use xlink:href="#DejaVuSans-29" transform="translate(794.863281 0.125)"/>
     </g>
    </g>
   </g>
  </g>
 </g>
 <defs>
  <clipPath id="p32551cf4df">
   <rect x="45.716875" y="49.945375" width="794.41" height="333.952"/>
  </clipPath>
 </defs>
</svg>
