<?xml version="1.0" encoding="utf-8" standalone="no"?>
<!DOCTYPE svg PUBLIC "-//W3C//DTD SVG 1.1//EN"
  "http://www.w3.org/Graphics/SVG/1.1/DTD/svg11.dtd">
<svg xmlns:xlink="http://www.w3.org/1999/xlink" width="855.520625pt" height="490.23096pt" viewBox="0 0 855.520625 490.23096" xmlns="http://www.w3.org/2000/svg" version="1.1">
 <metadata>
  <rdf:RDF xmlns:dc="http://purl.org/dc/elements/1.1/" xmlns:cc="http://creativecommons.org/ns#" xmlns:rdf="http://www.w3.org/1999/02/22-rdf-syntax-ns#">
   <cc:Work>
    <dc:type rdf:resource="http://purl.org/dc/dcmitype/StillImage"/>
    <dc:date>2026-05-10T03:51:43.621641</dc:date>
    <dc:format>image/svg+xml</dc:format>
    <dc:creator>
     <cc:Agent>
      <dc:title>Matplotlib v3.10.8, https://matplotlib.org/</dc:title>
     </cc:Agent>
    </dc:creator>
   </cc:Work>
  </rdf:RDF>
 </metadata>
 <defs>
  <style type="text/css">*{stroke-linejoin: round; stroke-linecap: butt}</style>
 </defs>
 <g id="figure_1">
  <g id="patch_1">
   <path d="M 0 490.23096 
L 855.520625 490.23096 
L 855.520625 0 
L 0 0 
z
" style="fill: #ffffff"/>
  </g>
  <g id="axes_1">
   <g id="patch_2">
    <path d="M 45.716875 414.355775 
L 838.776875 414.355775 
L 838.776875 49.945375 
L 45.716875 49.945375 
z
" style="fill: #ffffff"/>
   </g>
   <g id="matplotlib.axis_1">
    <g id="xtick_1">
     <g id="line2d_1">
      <path d="M 45.716875 414.355775 
L 45.716875 49.945375 
" clip-path="url(#p4b7af91228)" style="fill: none; stroke-dasharray: 0.8,1.32; stroke-dashoffset: 0; stroke: #b0b0b0; stroke-opacity: 0.6; stroke-width: 0.8"/>
     </g>
     <g id="line2d_2">
      <defs>
       <path id="m2ec8a9ec0a" d="M 0 0 
L 0 3.5 
" style="stroke: #000000; stroke-width: 0.8"/>
      </defs>
      <g>
       <use xlink:href="#m2ec8a9ec0a" x="45.716875" y="414.355775" style="stroke: #000000; stroke-width: 0.8"/>
      </g>
     </g>
     <g id="text_1">
      <!-- 0 -->
      <g transform="translate(42.535625 428.954212) scale(0.1 -0.1)">
       <defs>
        <path id="DejaVuSans-30" d="M 2034 4250 
Q 1547 4250 1301 3770 
Q 1056 3291 1056 2328 
Q 1056 1369 1301 889 
Q 1547 409 2034 409 
Q 2525 409 2770 889 
Q 3016 1369 3016 2328 
Q 3016 3291 2770 3770 
Q 2525 4250 2034 4250 
z
M 2034 4750 
Q 2819 4750 3233 4129 
Q 3647 3509 3647 2328 
Q 3647 1150 3233 529 
Q 2819 -91 2034 -91 
Q 1250 -91 836 529 
Q 422 1150 422 2328 
Q 422 3509 836 4129 
Q 1250 4750 2034 4750 
z
" transform="scale(0.015625)"/>
       </defs>
       <use xlink:href="#DejaVuSans-30"/>
      </g>
     </g>
    </g>
    <g id="xtick_2">
     <g id="line2d_3">
      <path d="M 204.328875 414.355775 
L 204.328875 49.945375 
" clip-path="url(#p4b7af91228)" style="fill: none; stroke-dasharray: 0.8,1.32; stroke-dashoffset: 0; stroke: #b0b0b0; stroke-opacity: 0.6; stroke-width: 0.8"/>
     </g>
     <g id="line2d_4">
      <g>
       <use xlink:href="#m2ec8a9ec0a" x="204.328875" y="414.355775" style="stroke: #000000; stroke-width: 0.8"/>
      </g>
     </g>
     <g id="text_2">
      <!-- 100 -->
      <g transform="translate(194.785125 428.954212) scale(0.1 -0.1)">
       <defs>
        <path id="DejaVuSans-31" d="M 794 531 
L 1825 531 
L 1825 4091 
L 703 3866 
L 703 4441 
L 1819 4666 
L 2450 4666 
L 2450 531 
L 3481 531 
L 3481 0 
L 794 0 
L 794 531 
z
" transform="scale(0.015625)"/>
       </defs>
       <use xlink:href="#DejaVuSans-31"/>
       <use xlink:href="#DejaVuSans-30" transform="translate(63.623047 0)"/>
       <use xlink:href="#DejaVuSans-30" transform="translate(127.246094 0)"/>
      </g>
     </g>
    </g>
    <g id="xtick_3">
     <g id="line2d_5">
      <path d="M 362.940875 414.355775 
L 362.940875 49.945375 
" clip-path="url(#p4b7af91228)" style="fill: none; stroke-dasharray: 0.8,1.32; stroke-dashoffset: 0; stroke: #b0b0b0; stroke-opacity: 0.6; stroke-width: 0.8"/>
     </g>
     <g id="line2d_6">
      <g>
       <use xlink:href="#m2ec8a9ec0a" x="362.940875" y="414.355775" style="stroke: #000000; stroke-width: 0.8"/>
      </g>
     </g>
     <g id="text_3">
      <!-- 200 -->
      <g transform="translate(353.397125 428.954212) scale(0.1 -0.1)">
       <defs>
        <path id="DejaVuSans-32" d="M 1228 531 
L 3431 531 
L 3431 0 
L 469 0 
L 469 531 
Q 828 903 1448 1529 
Q 2069 2156 2228 2338 
Q 2531 2678 2651 2914 
Q 2772 3150 2772 3378 
Q 2772 3750 2511 3984 
Q 2250 4219 1831 4219 
Q 1534 4219 1204 4116 
Q 875 4013 500 3803 
L 500 4441 
Q 881 4594 1212 4672 
Q 1544 4750 1819 4750 
Q 2544 4750 2975 4387 
Q 3406 4025 3406 3419 
Q 3406 3131 3298 2873 
Q 3191 2616 2906 2266 
Q 2828 2175 2409 1742 
Q 1991 1309 1228 531 
z
" transform="scale(0.015625)"/>
       </defs>
       <use xlink:href="#DejaVuSans-32"/>
       <use xlink:href="#DejaVuSans-30" transform="translate(63.623047 0)"/>
       <use xlink:href="#DejaVuSans-30" transform="translate(127.246094 0)"/>
      </g>
     </g>
    </g>
    <g id="xtick_4">
     <g id="line2d_7">
      <path d="M 521.552875 414.355775 
L 521.552875 49.945375 
" clip-path="url(#p4b7af91228)" style="fill: none; stroke-dasharray: 0.8,1.32; stroke-dashoffset: 0; stroke: #b0b0b0; stroke-opacity: 0.6; stroke-width: 0.8"/>
     </g>
     <g id="line2d_8">
      <g>
       <use xlink:href="#m2ec8a9ec0a" x="521.552875" y="414.355775" style="stroke: #000000; stroke-width: 0.8"/>
      </g>
     </g>
     <g id="text_4">
      <!-- 300 -->
      <g transform="translate(512.009125 428.954212) scale(0.1 -0.1)">
       <defs>
        <path id="DejaVuSans-33" d="M 2597 2516 
Q 3050 2419 3304 2112 
Q 3559 1806 3559 1356 
Q 3559 666 3084 287 
Q 2609 -91 1734 -91 
Q 1441 -91 1130 -33 
Q 819 25 488 141 
L 488 750 
Q 750 597 1062 519 
Q 1375 441 1716 441 
Q 2309 441 2620 675 
Q 2931 909 2931 1356 
Q 2931 1769 2642 2001 
Q 2353 2234 1838 2234 
L 1294 2234 
L 1294 2753 
L 1863 2753 
Q 2328 2753 2575 2939 
Q 2822 3125 2822 3475 
Q 2822 3834 2567 4026 
Q 2313 4219 1838 4219 
Q 1578 4219 1281 4162 
Q 984 4106 628 3988 
L 628 4550 
Q 988 4650 1302 4700 
Q 1616 4750 1894 4750 
Q 2613 4750 3031 4423 
Q 3450 4097 3450 3541 
Q 3450 3153 3228 2886 
Q 3006 2619 2597 2516 
z
" transform="scale(0.015625)"/>
       </defs>
       <use xlink:href="#DejaVuSans-33"/>
       <use xlink:href="#DejaVuSans-30" transform="translate(63.623047 0)"/>
       <use xlink:href="#DejaVuSans-30" transform="translate(127.246094 0)"/>
      </g>
     </g>
    </g>
    <g id="xtick_5">
     <g id="line2d_9">
      <path d="M 680.164875 414.355775 
L 680.164875 49.945375 
" clip-path="url(#p4b7af91228)" style="fill: none; stroke-dasharray: 0.8,1.32; stroke-dashoffset: 0; stroke: #b0b0b0; stroke-opacity: 0.6; stroke-width: 0.8"/>
     </g>
     <g id="line2d_10">
      <g>
       <use xlink:href="#m2ec8a9ec0a" x="680.164875" y="414.355775" style="stroke: #000000; stroke-width: 0.8"/>
      </g>
     </g>
     <g id="text_5">
      <!-- 400 -->
      <g transform="translate(670.621125 428.954212) scale(0.1 -0.1)">
       <defs>
        <path id="DejaVuSans-34" d="M 2419 4116 
L 825 1625 
L 2419 1625 
L 2419 4116 
z
M 2253 4666 
L 3047 4666 
L 3047 1625 
L 3713 1625 
L 3713 1100 
L 3047 1100 
L 3047 0 
L 2419 0 
L 2419 1100 
L 313 1100 
L 313 1709 
L 2253 4666 
z
" transform="scale(0.015625)"/>
       </defs>
       <use xlink:href="#DejaVuSans-34"/>
       <use xlink:href="#DejaVuSans-30" transform="translate(63.623047 0)"/>
       <use xlink:href="#DejaVuSans-30" transform="translate(127.246094 0)"/>
      </g>
     </g>
    </g>
    <g id="xtick_6">
     <g id="line2d_11">
      <path d="M 838.776875 414.355775 
L 838.776875 49.945375 
" clip-path="url(#p4b7af91228)" style="fill: none; stroke-dasharray: 0.8,1.32; stroke-dashoffset: 0; stroke: #b0b0b0; stroke-opacity: 0.6; stroke-width: 0.8"/>
     </g>
     <g id="line2d_12">
      <g>
       <use xlink:href="#m2ec8a9ec0a" x="838.776875" y="414.355775" style="stroke: #000000; stroke-width: 0.8"/>
      </g>
     </g>
     <g id="text_6">
      <!-- 500 -->
      <g transform="translate(829.233125 428.954212) scale(0.1 -0.1)">
       <defs>
        <path id="DejaVuSans-35" d="M 691 4666 
L 3169 4666 
L 3169 4134 
L 1269 4134 
L 1269 2991 
Q 1406 3038 1543 3061 
Q 1681 3084 1819 3084 
Q 2600 3084 3056 2656 
Q 3513 2228 3513 1497 
Q 3513 744 3044 326 
Q 2575 -91 1722 -91 
Q 1428 -91 1123 -41 
Q 819 9 494 109 
L 494 744 
Q 775 591 1075 516 
Q 1375 441 1709 441 
Q 2250 441 2565 725 
Q 2881 1009 2881 1497 
Q 2881 1984 2565 2268 
Q 2250 2553 1709 2553 
Q 1456 2553 1204 2497 
Q 953 2441 691 2322 
L 691 4666 
z
" transform="scale(0.015625)"/>
       </defs>
       <use xlink:href="#DejaVuSans-35"/>
       <use xlink:href="#DejaVuSans-30" transform="translate(63.623047 0)"/>
       <use xlink:href="#DejaVuSans-30" transform="translate(127.246094 0)"/>
      </g>
     </g>
    </g>
    <g id="text_7">
     <!-- Vreme [ps] -->
     <g transform="translate(409.059375 444.152025) scale(0.12 -0.12)">
      <defs>
       <path id="DejaVuSans-56" d="M 1831 0 
L 50 4666 
L 709 4666 
L 2188 738 
L 3669 4666 
L 4325 4666 
L 2547 0 
L 1831 0 
z
" transform="scale(0.015625)"/>
       <path id="DejaVuSans-72" d="M 2631 2963 
Q 2534 3019 2420 3045 
Q 2306 3072 2169 3072 
Q 1681 3072 1420 2755 
Q 1159 2438 1159 1844 
L 1159 0 
L 581 0 
L 581 3500 
L 1159 3500 
L 1159 2956 
Q 1341 3275 1631 3429 
Q 1922 3584 2338 3584 
Q 2397 3584 2469 3576 
Q 2541 3569 2628 3553 
L 2631 2963 
z
" transform="scale(0.015625)"/>
       <path id="DejaVuSans-65" d="M 3597 1894 
L 3597 1613 
L 953 1613 
Q 991 1019 1311 708 
Q 1631 397 2203 397 
Q 2534 397 2845 478 
Q 3156 559 3463 722 
L 3463 178 
Q 3153 47 2828 -22 
Q 2503 -91 2169 -91 
Q 1331 -91 842 396 
Q 353 884 353 1716 
Q 353 2575 817 3079 
Q 1281 3584 2069 3584 
Q 2775 3584 3186 3129 
Q 3597 2675 3597 1894 
z
M 3022 2063 
Q 3016 2534 2758 2815 
Q 2500 3097 2075 3097 
Q 1594 3097 1305 2825 
Q 1016 2553 972 2059 
L 3022 2063 
z
" transform="scale(0.015625)"/>
       <path id="DejaVuSans-6d" d="M 3328 2828 
Q 3544 3216 3844 3400 
Q 4144 3584 4550 3584 
Q 5097 3584 5394 3201 
Q 5691 2819 5691 2113 
L 5691 0 
L 5113 0 
L 5113 2094 
Q 5113 2597 4934 2840 
Q 4756 3084 4391 3084 
Q 3944 3084 3684 2787 
Q 3425 2491 3425 1978 
L 3425 0 
L 2847 0 
L 2847 2094 
Q 2847 2600 2669 2842 
Q 2491 3084 2119 3084 
Q 1678 3084 1418 2786 
Q 1159 2488 1159 1978 
L 1159 0 
L 581 0 
L 581 3500 
L 1159 3500 
L 1159 2956 
Q 1356 3278 1631 3431 
Q 1906 3584 2284 3584 
Q 2666 3584 2933 3390 
Q 3200 3197 3328 2828 
z
" transform="scale(0.015625)"/>
       <path id="DejaVuSans-20" transform="scale(0.015625)"/>
       <path id="DejaVuSans-5b" d="M 550 4863 
L 1875 4863 
L 1875 4416 
L 1125 4416 
L 1125 -397 
L 1875 -397 
L 1875 -844 
L 550 -844 
L 550 4863 
z
" transform="scale(0.015625)"/>
       <path id="DejaVuSans-70" d="M 1159 525 
L 1159 -1331 
L 581 -1331 
L 581 3500 
L 1159 3500 
L 1159 2969 
Q 1341 3281 1617 3432 
Q 1894 3584 2278 3584 
Q 2916 3584 3314 3078 
Q 3713 2572 3713 1747 
Q 3713 922 3314 415 
Q 2916 -91 2278 -91 
Q 1894 -91 1617 61 
Q 1341 213 1159 525 
z
M 3116 1747 
Q 3116 2381 2855 2742 
Q 2594 3103 2138 3103 
Q 1681 3103 1420 2742 
Q 1159 2381 1159 1747 
Q 1159 1113 1420 752 
Q 1681 391 2138 391 
Q 2594 391 2855 752 
Q 3116 1113 3116 1747 
z
" transform="scale(0.015625)"/>
       <path id="DejaVuSans-73" d="M 2834 3397 
L 2834 2853 
Q 2591 2978 2328 3040 
Q 2066 3103 1784 3103 
Q 1356 3103 1142 2972 
Q 928 2841 928 2578 
Q 928 2378 1081 2264 
Q 1234 2150 1697 2047 
L 1894 2003 
Q 2506 1872 2764 1633 
Q 3022 1394 3022 966 
Q 3022 478 2636 193 
Q 2250 -91 1575 -91 
Q 1294 -91 989 -36 
Q 684 19 347 128 
L 347 722 
Q 666 556 975 473 
Q 1284 391 1588 391 
Q 1994 391 2212 530 
Q 2431 669 2431 922 
Q 2431 1156 2273 1281 
Q 2116 1406 1581 1522 
L 1381 1569 
Q 847 1681 609 1914 
Q 372 2147 372 2553 
Q 372 3047 722 3315 
Q 1072 3584 1716 3584 
Q 2034 3584 2315 3537 
Q 2597 3491 2834 3397 
z
" transform="scale(0.015625)"/>
       <path id="DejaVuSans-5d" d="M 1947 4863 
L 1947 -844 
L 622 -844 
L 622 -397 
L 1369 -397 
L 1369 4416 
L 622 4416 
L 622 4863 
L 1947 4863 
z
" transform="scale(0.015625)"/>
      </defs>
      <use xlink:href="#DejaVuSans-56"/>
      <use xlink:href="#DejaVuSans-72" transform="translate(68.408203 0)"/>
      <use xlink:href="#DejaVuSans-65" transform="translate(107.271484 0)"/>
      <use xlink:href="#DejaVuSans-6d" transform="translate(168.794922 0)"/>
      <use xlink:href="#DejaVuSans-65" transform="translate(266.207031 0)"/>
      <use xlink:href="#DejaVuSans-20" transform="translate(327.730469 0)"/>
      <use xlink:href="#DejaVuSans-5b" transform="translate(359.517578 0)"/>
      <use xlink:href="#DejaVuSans-70" transform="translate(398.53125 0)"/>
      <use xlink:href="#DejaVuSans-73" transform="translate(462.007812 0)"/>
      <use xlink:href="#DejaVuSans-5d" transform="translate(514.107422 0)"/>
     </g>
    </g>
   </g>
   <g id="matplotlib.axis_2">
    <g id="ytick_1">
     <g id="line2d_13">
      <path d="M 45.716875 377.914735 
L 838.776875 377.914735 
" clip-path="url(#p4b7af91228)" style="fill: none; stroke-dasharray: 0.8,1.32; stroke-dashoffset: 0; stroke: #b0b0b0; stroke-opacity: 0.6; stroke-width: 0.8"/>
     </g>
     <g id="line2d_14">
      <defs>
       <path id="me013ea59e1" d="M 0 0 
L -3.5 0 
" style="stroke: #000000; stroke-width: 0.8"/>
      </defs>
      <g>
       <use xlink:href="#me013ea59e1" x="45.716875" y="377.914735" style="stroke: #000000; stroke-width: 0.8"/>
      </g>
     </g>
     <g id="text_8">
      <!-- 0.0 -->
      <g transform="translate(22.81375 381.713954) scale(0.1 -0.1)">
       <defs>
        <path id="DejaVuSans-2e" d="M 684 794 
L 1344 794 
L 1344 0 
L 684 0 
L 684 794 
z
" transform="scale(0.015625)"/>
       </defs>
       <use xlink:href="#DejaVuSans-30"/>
       <use xlink:href="#DejaVuSans-2e" transform="translate(63.623047 0)"/>
       <use xlink:href="#DejaVuSans-30" transform="translate(95.410156 0)"/>
      </g>
     </g>
    </g>
    <g id="ytick_2">
     <g id="line2d_15">
      <path d="M 45.716875 323.253175 
L 838.776875 323.253175 
" clip-path="url(#p4b7af91228)" style="fill: none; stroke-dasharray: 0.8,1.32; stroke-dashoffset: 0; stroke: #b0b0b0; stroke-opacity: 0.6; stroke-width: 0.8"/>
     </g>
     <g id="line2d_16">
      <g>
       <use xlink:href="#me013ea59e1" x="45.716875" y="323.253175" style="stroke: #000000; stroke-width: 0.8"/>
      </g>
     </g>
     <g id="text_9">
      <!-- 0.3 -->
      <g transform="translate(22.81375 327.052394) scale(0.1 -0.1)">
       <use xlink:href="#DejaVuSans-30"/>
       <use xlink:href="#DejaVuSans-2e" transform="translate(63.623047 0)"/>
       <use xlink:href="#DejaVuSans-33" transform="translate(95.410156 0)"/>
      </g>
     </g>
    </g>
    <g id="ytick_3">
     <g id="line2d_17">
      <path d="M 45.716875 268.591615 
L 838.776875 268.591615 
" clip-path="url(#p4b7af91228)" style="fill: none; stroke-dasharray: 0.8,1.32; stroke-dashoffset: 0; stroke: #b0b0b0; stroke-opacity: 0.6; stroke-width: 0.8"/>
     </g>
     <g id="line2d_18">
      <g>
       <use xlink:href="#me013ea59e1" x="45.716875" y="268.591615" style="stroke: #000000; stroke-width: 0.8"/>
      </g>
     </g>
     <g id="text_10">
      <!-- 0.6 -->
      <g transform="translate(22.81375 272.390834) scale(0.1 -0.1)">
       <defs>
        <path id="DejaVuSans-36" d="M 2113 2584 
Q 1688 2584 1439 2293 
Q 1191 2003 1191 1497 
Q 1191 994 1439 701 
Q 1688 409 2113 409 
Q 2538 409 2786 701 
Q 3034 994 3034 1497 
Q 3034 2003 2786 2293 
Q 2538 2584 2113 2584 
z
M 3366 4563 
L 3366 3988 
Q 3128 4100 2886 4159 
Q 2644 4219 2406 4219 
Q 1781 4219 1451 3797 
Q 1122 3375 1075 2522 
Q 1259 2794 1537 2939 
Q 1816 3084 2150 3084 
Q 2853 3084 3261 2657 
Q 3669 2231 3669 1497 
Q 3669 778 3244 343 
Q 2819 -91 2113 -91 
Q 1303 -91 875 529 
Q 447 1150 447 2328 
Q 447 3434 972 4092 
Q 1497 4750 2381 4750 
Q 2619 4750 2861 4703 
Q 3103 4656 3366 4563 
z
" transform="scale(0.015625)"/>
       </defs>
       <use xlink:href="#DejaVuSans-30"/>
       <use xlink:href="#DejaVuSans-2e" transform="translate(63.623047 0)"/>
       <use xlink:href="#DejaVuSans-36" transform="translate(95.410156 0)"/>
      </g>
     </g>
    </g>
    <g id="ytick_4">
     <g id="line2d_19">
      <path d="M 45.716875 213.930055 
L 838.776875 213.930055 
" clip-path="url(#p4b7af91228)" style="fill: none; stroke-dasharray: 0.8,1.32; stroke-dashoffset: 0; stroke: #b0b0b0; stroke-opacity: 0.6; stroke-width: 0.8"/>
     </g>
     <g id="line2d_20">
      <g>
       <use xlink:href="#me013ea59e1" x="45.716875" y="213.930055" style="stroke: #000000; stroke-width: 0.8"/>
      </g>
     </g>
     <g id="text_11">
      <!-- 0.9 -->
      <g transform="translate(22.81375 217.729274) scale(0.1 -0.1)">
       <defs>
        <path id="DejaVuSans-39" d="M 703 97 
L 703 672 
Q 941 559 1184 500 
Q 1428 441 1663 441 
Q 2288 441 2617 861 
Q 2947 1281 2994 2138 
Q 2813 1869 2534 1725 
Q 2256 1581 1919 1581 
Q 1219 1581 811 2004 
Q 403 2428 403 3163 
Q 403 3881 828 4315 
Q 1253 4750 1959 4750 
Q 2769 4750 3195 4129 
Q 3622 3509 3622 2328 
Q 3622 1225 3098 567 
Q 2575 -91 1691 -91 
Q 1453 -91 1209 -44 
Q 966 3 703 97 
z
M 1959 2075 
Q 2384 2075 2632 2365 
Q 2881 2656 2881 3163 
Q 2881 3666 2632 3958 
Q 2384 4250 1959 4250 
Q 1534 4250 1286 3958 
Q 1038 3666 1038 3163 
Q 1038 2656 1286 2365 
Q 1534 2075 1959 2075 
z
" transform="scale(0.015625)"/>
       </defs>
       <use xlink:href="#DejaVuSans-30"/>
       <use xlink:href="#DejaVuSans-2e" transform="translate(63.623047 0)"/>
       <use xlink:href="#DejaVuSans-39" transform="translate(95.410156 0)"/>
      </g>
     </g>
    </g>
    <g id="ytick_5">
     <g id="line2d_21">
      <path d="M 45.716875 159.268495 
L 838.776875 159.268495 
" clip-path="url(#p4b7af91228)" style="fill: none; stroke-dasharray: 0.8,1.32; stroke-dashoffset: 0; stroke: #b0b0b0; stroke-opacity: 0.6; stroke-width: 0.8"/>
     </g>
     <g id="line2d_22">
      <g>
       <use xlink:href="#me013ea59e1" x="45.716875" y="159.268495" style="stroke: #000000; stroke-width: 0.8"/>
      </g>
     </g>
     <g id="text_12">
      <!-- 1.2 -->
      <g transform="translate(22.81375 163.067714) scale(0.1 -0.1)">
       <use xlink:href="#DejaVuSans-31"/>
       <use xlink:href="#DejaVuSans-2e" transform="translate(63.623047 0)"/>
       <use xlink:href="#DejaVuSans-32" transform="translate(95.410156 0)"/>
      </g>
     </g>
    </g>
    <g id="ytick_6">
     <g id="line2d_23">
      <path d="M 45.716875 104.606935 
L 838.776875 104.606935 
" clip-path="url(#p4b7af91228)" style="fill: none; stroke-dasharray: 0.8,1.32; stroke-dashoffset: 0; stroke: #b0b0b0; stroke-opacity: 0.6; stroke-width: 0.8"/>
     </g>
     <g id="line2d_24">
      <g>
       <use xlink:href="#me013ea59e1" x="45.716875" y="104.606935" style="stroke: #000000; stroke-width: 0.8"/>
      </g>
     </g>
     <g id="text_13">
      <!-- 1.5 -->
      <g transform="translate(22.81375 108.406154) scale(0.1 -0.1)">
       <use xlink:href="#DejaVuSans-31"/>
       <use xlink:href="#DejaVuSans-2e" transform="translate(63.623047 0)"/>
       <use xlink:href="#DejaVuSans-35" transform="translate(95.410156 0)"/>
      </g>
     </g>
    </g>
    <g id="ytick_7">
     <g id="line2d_25">
      <path d="M 45.716875 49.945375 
L 838.776875 49.945375 
" clip-path="url(#p4b7af91228)" style="fill: none; stroke-dasharray: 0.8,1.32; stroke-dashoffset: 0; stroke: #b0b0b0; stroke-opacity: 0.6; stroke-width: 0.8"/>
     </g>
     <g id="line2d_26">
      <g>
       <use xlink:href="#me013ea59e1" x="45.716875" y="49.945375" style="stroke: #000000; stroke-width: 0.8"/>
      </g>
     </g>
     <g id="text_14">
      <!-- 1.8 -->
      <g transform="translate(22.81375 53.744594) scale(0.1 -0.1)">
       <defs>
        <path id="DejaVuSans-38" d="M 2034 2216 
Q 1584 2216 1326 1975 
Q 1069 1734 1069 1313 
Q 1069 891 1326 650 
Q 1584 409 2034 409 
Q 2484 409 2743 651 
Q 3003 894 3003 1313 
Q 3003 1734 2745 1975 
Q 2488 2216 2034 2216 
z
M 1403 2484 
Q 997 2584 770 2862 
Q 544 3141 544 3541 
Q 544 4100 942 4425 
Q 1341 4750 2034 4750 
Q 2731 4750 3128 4425 
Q 3525 4100 3525 3541 
Q 3525 3141 3298 2862 
Q 3072 2584 2669 2484 
Q 3125 2378 3379 2068 
Q 3634 1759 3634 1313 
Q 3634 634 3220 271 
Q 2806 -91 2034 -91 
Q 1263 -91 848 271 
Q 434 634 434 1313 
Q 434 1759 690 2068 
Q 947 2378 1403 2484 
z
M 1172 3481 
Q 1172 3119 1398 2916 
Q 1625 2713 2034 2713 
Q 2441 2713 2670 2916 
Q 2900 3119 2900 3481 
Q 2900 3844 2670 4047 
Q 2441 4250 2034 4250 
Q 1625 4250 1398 4047 
Q 1172 3844 1172 3481 
z
" transform="scale(0.015625)"/>
       </defs>
       <use xlink:href="#DejaVuSans-31"/>
       <use xlink:href="#DejaVuSans-2e" transform="translate(63.623047 0)"/>
       <use xlink:href="#DejaVuSans-38" transform="translate(95.410156 0)"/>
      </g>
     </g>
    </g>
    <g id="text_15">
     <!-- Napon [V] -->
     <g transform="translate(16.318125 262.292137) rotate(-90) scale(0.12 -0.12)">
      <defs>
       <path id="DejaVuSans-4e" d="M 628 4666 
L 1478 4666 
L 3547 763 
L 3547 4666 
L 4159 4666 
L 4159 0 
L 3309 0 
L 1241 3903 
L 1241 0 
L 628 0 
L 628 4666 
z
" transform="scale(0.015625)"/>
       <path id="DejaVuSans-61" d="M 2194 1759 
Q 1497 1759 1228 1600 
Q 959 1441 959 1056 
Q 959 750 1161 570 
Q 1363 391 1709 391 
Q 2188 391 2477 730 
Q 2766 1069 2766 1631 
L 2766 1759 
L 2194 1759 
z
M 3341 1997 
L 3341 0 
L 2766 0 
L 2766 531 
Q 2569 213 2275 61 
Q 1981 -91 1556 -91 
Q 1019 -91 701 211 
Q 384 513 384 1019 
Q 384 1609 779 1909 
Q 1175 2209 1959 2209 
L 2766 2209 
L 2766 2266 
Q 2766 2663 2505 2880 
Q 2244 3097 1772 3097 
Q 1472 3097 1187 3025 
Q 903 2953 641 2809 
L 641 3341 
Q 956 3463 1253 3523 
Q 1550 3584 1831 3584 
Q 2591 3584 2966 3190 
Q 3341 2797 3341 1997 
z
" transform="scale(0.015625)"/>
       <path id="DejaVuSans-6f" d="M 1959 3097 
Q 1497 3097 1228 2736 
Q 959 2375 959 1747 
Q 959 1119 1226 758 
Q 1494 397 1959 397 
Q 2419 397 2687 759 
Q 2956 1122 2956 1747 
Q 2956 2369 2687 2733 
Q 2419 3097 1959 3097 
z
M 1959 3584 
Q 2709 3584 3137 3096 
Q 3566 2609 3566 1747 
Q 3566 888 3137 398 
Q 2709 -91 1959 -91 
Q 1206 -91 779 398 
Q 353 888 353 1747 
Q 353 2609 779 3096 
Q 1206 3584 1959 3584 
z
" transform="scale(0.015625)"/>
       <path id="DejaVuSans-6e" d="M 3513 2113 
L 3513 0 
L 2938 0 
L 2938 2094 
Q 2938 2591 2744 2837 
Q 2550 3084 2163 3084 
Q 1697 3084 1428 2787 
Q 1159 2491 1159 1978 
L 1159 0 
L 581 0 
L 581 3500 
L 1159 3500 
L 1159 2956 
Q 1366 3272 1645 3428 
Q 1925 3584 2291 3584 
Q 2894 3584 3203 3211 
Q 3513 2838 3513 2113 
z
" transform="scale(0.015625)"/>
      </defs>
      <use xlink:href="#DejaVuSans-4e"/>
      <use xlink:href="#DejaVuSans-61" transform="translate(74.804688 0)"/>
      <use xlink:href="#DejaVuSans-70" transform="translate(136.083984 0)"/>
      <use xlink:href="#DejaVuSans-6f" transform="translate(199.560547 0)"/>
      <use xlink:href="#DejaVuSans-6e" transform="translate(260.742188 0)"/>
      <use xlink:href="#DejaVuSans-20" transform="translate(324.121094 0)"/>
      <use xlink:href="#DejaVuSans-5b" transform="translate(355.908203 0)"/>
      <use xlink:href="#DejaVuSans-56" transform="translate(394.921875 0)"/>
      <use xlink:href="#DejaVuSans-5d" transform="translate(463.330078 0)"/>
     </g>
    </g>
   </g>
   <g id="line2d_27">
    <path d="M 45.716875 377.914735 
L 45.946545 104.606935 
L 283.793487 104.606935 
L 284.023157 377.914735 
L 521.552875 377.914735 
L 521.782545 104.606935 
L 759.629487 104.606935 
L 759.859157 377.914735 
L 838.929143 377.914735 
L 838.929143 377.914735 
" clip-path="url(#p4b7af91228)" style="fill: none; stroke-dasharray: 7.4,3.2; stroke-dashoffset: 0; stroke: #d62728; stroke-width: 2"/>
   </g>
   <g id="line2d_28">
    <path d="M 45.716875 104.606995 
L 45.875487 101.740459 
L 45.885638 102.066421 
L 45.946545 102.993348 
L 46.027755 102.651988 
L 46.186367 102.4754 
L 46.503591 102.519246 
L 46.820815 102.235452 
L 47.455263 101.040064 
L 48.565547 98.088814 
L 51.103339 91.172403 
L 52.372235 88.382074 
L 53.641131 86.10319 
L 54.751415 84.511957 
L 55.703087 83.491801 
L 56.496147 82.915885 
L 57.289207 82.604573 
L 58.082267 82.561607 
L 58.875327 82.783544 
L 59.668387 83.258212 
L 60.620059 84.136075 
L 61.730343 85.535535 
L 62.999239 87.546071 
L 64.585359 90.530197 
L 66.647315 94.932495 
L 69.978167 102.662388 
L 81.239619 129.115032 
L 90.597727 150.264656 
L 106.934763 187.196788 
L 115.341199 206.78369 
L 122.161515 223.221845 
L 128.188771 238.317193 
L 134.057415 253.62472 
L 141.194955 272.925884 
L 149.284167 294.696625 
L 153.408079 305.126162 
L 156.897543 313.33997 
L 160.069783 320.231258 
L 163.083411 326.235288 
L 165.938427 331.429335 
L 168.793443 336.151844 
L 171.489847 340.195742 
L 174.186251 343.856535 
L 176.882655 347.158304 
L 179.579059 350.126944 
L 182.434075 352.936742 
L 185.289091 355.434514 
L 188.302719 357.766401 
L 191.316347 359.819024 
L 194.488587 361.712997 
L 197.819439 363.443818 
L 201.308903 365.011588 
L 205.115591 366.476795 
L 209.239503 367.82076 
L 213.680639 369.033362 
L 218.597611 370.144565 
L 224.149031 371.166236 
L 230.493511 372.099154 
L 237.789663 372.93931 
L 246.354711 373.695279 
L 256.664491 374.375959 
L 269.512063 374.992648 
L 283.793487 375.486235 
L 283.952099 378.496237 
L 283.96225 378.289987 
L 284.023157 377.912476 
L 284.262979 378.951961 
L 284.897427 380.887518 
L 286.166323 385.598485 
L 286.959383 387.754261 
L 287.911055 389.619378 
L 288.862727 390.912008 
L 289.814399 391.790336 
L 290.766071 392.366595 
L 291.876355 392.758326 
L 292.986639 392.923545 
L 294.255535 392.881095 
L 295.524431 392.591437 
L 296.634715 392.107034 
L 297.744999 391.374635 
L 298.855283 390.370846 
L 299.965567 389.085192 
L 301.234463 387.274547 
L 302.661971 384.830601 
L 304.248091 381.670569 
L 306.151435 377.371412 
L 308.530615 371.409243 
L 311.544243 363.215787 
L 315.668155 351.304895 
L 321.695411 333.15883 
L 332.005191 301.326841 
L 352.941975 236.560181 
L 357.858947 222.223237 
L 361.824247 211.323978 
L 365.472323 201.94845 
L 368.803175 193.982397 
L 372.134027 186.590952 
L 375.306267 180.070939 
L 378.478507 174.032806 
L 381.650747 168.447867 
L 384.981599 163.039394 
L 388.312451 158.065615 
L 391.643303 153.495779 
L 394.974155 149.301089 
L 398.305007 145.454528 
L 401.794471 141.770482 
L 405.283935 138.413036 
L 408.773399 135.356236 
L 412.421475 132.455475 
L 416.228163 129.722273 
L 420.034851 127.261779 
L 424.000151 124.961204 
L 428.124063 122.824503 
L 432.406587 120.852903 
L 437.006335 118.984678 
L 441.764695 117.29185 
L 446.840279 115.72121 
L 452.233087 114.282811 
L 458.101731 112.948531 
L 464.446211 111.735036 
L 471.425139 110.628718 
L 479.197127 109.62661 
L 487.920787 108.731869 
L 497.913343 107.938546 
L 509.492019 107.250372 
L 521.552875 106.724606 
L 521.711487 103.875039 
L 521.721638 104.182995 
L 521.782545 105.094361 
L 521.863755 104.751832 
L 522.022367 104.579881 
L 522.339591 104.618028 
L 522.656815 104.315928 
L 523.291263 103.073041 
L 524.560159 99.568582 
L 526.463503 94.162097 
L 527.573787 91.628165 
L 528.525459 89.994732 
L 529.318519 89.039297 
L 530.111579 88.450454 
L 530.746027 88.233358 
L 531.380475 88.228258 
L 532.014923 88.420179 
L 532.807983 88.912065 
L 533.759655 89.827178 
L 534.869939 91.270602 
L 536.138835 93.313204 
L 537.724955 96.298079 
L 539.945523 100.990745 
L 543.593599 109.301235 
L 556.123947 138.11911 
L 582.770763 198.571415 
L 590.225527 216.260578 
L 596.570007 231.880185 
L 602.438651 246.922771 
L 608.624519 263.416595 
L 621.789315 298.780628 
L 625.596003 308.178384 
L 628.926855 315.810922 
L 631.940483 322.179496 
L 634.795499 327.720946 
L 637.650515 332.783086 
L 640.505531 337.378051 
L 643.201935 341.307332 
L 645.898339 344.860304 
L 648.594743 348.061704 
L 651.291147 350.937751 
L 654.146163 353.658046 
L 657.001179 356.074921 
L 660.014807 358.330351 
L 663.028435 360.315123 
L 666.200675 362.146229 
L 669.531527 363.819581 
L 673.179603 365.399194 
L 676.986291 366.806868 
L 681.110203 368.098739 
L 685.709951 369.303091 
L 690.785535 370.397309 
L 696.495567 371.395279 
L 702.998659 372.300191 
L 710.612035 373.125758 
L 719.652919 373.871146 
L 730.597147 374.539727 
L 744.237779 375.140208 
L 759.629487 375.623663 
L 759.788099 378.638345 
L 759.79825 378.432191 
L 759.859157 378.054804 
L 760.098979 379.091633 
L 760.733427 381.026487 
L 762.002323 385.735855 
L 762.795383 387.891292 
L 763.747055 389.756861 
L 764.698727 391.050941 
L 765.650399 391.930949 
L 766.602071 392.508994 
L 767.712355 392.903303 
L 768.822639 393.072451 
L 770.091535 393.037271 
L 771.360431 392.75841 
L 772.470715 392.286071 
L 773.580999 391.567429 
L 774.691283 390.578243 
L 775.801567 389.307197 
L 777.070463 387.512371 
L 778.497971 385.084323 
L 780.084091 381.939141 
L 781.987435 377.653973 
L 784.366615 371.704386 
L 787.380243 363.521299 
L 791.504155 351.618543 
L 797.531411 333.478216 
L 807.841191 301.650028 
L 828.936587 236.396461 
L 833.853559 222.068105 
L 837.818859 211.178316 
L 838.929143 208.257948 
L 838.929143 208.257948 
" clip-path="url(#p4b7af91228)" style="fill: none; stroke: #1f77b4; stroke-width: 2.5; stroke-linecap: square"/>
   </g>
   <g id="line2d_29">
    <path d="M 45.716875 104.606981 
L 45.875487 84.306206 
L 45.905941 86.257078 
L 46.027755 87.347872 
L 46.344979 87.501591 
L 46.662203 87.418739 
L 47.138039 86.997662 
L 48.089711 85.786111 
L 52.848071 79.430365 
L 54.434191 77.778276 
L 55.544475 76.890172 
L 56.496147 76.376373 
L 57.447819 76.122893 
L 58.240879 76.119258 
L 59.192551 76.361755 
L 60.144223 76.858563 
L 61.254507 77.727368 
L 62.523403 79.044956 
L 63.950911 80.856797 
L 65.854255 83.663606 
L 68.550659 88.101549 
L 73.626243 96.997887 
L 82.508515 112.490571 
L 91.866623 128.300715 
L 129.457667 191.367341 
L 139.450223 208.741662 
L 147.856659 223.788699 
L 155.470035 237.868539 
L 162.924799 252.133149 
L 171.807071 269.650795 
L 183.544359 292.76862 
L 188.778555 302.56622 
L 193.219691 310.423012 
L 197.184991 317.005513 
L 200.991679 322.899015 
L 204.639755 328.135597 
L 208.129219 332.761735 
L 211.618683 337.016636 
L 215.108147 340.909931 
L 218.438999 344.30231 
L 221.928463 347.534293 
L 225.417927 350.45702 
L 228.907391 353.092337 
L 232.555467 355.564451 
L 236.203543 357.772376 
L 240.010231 359.821362 
L 243.975531 361.707248 
L 248.258055 363.491253 
L 252.699191 365.09796 
L 257.457551 366.581023 
L 262.533135 367.930101 
L 268.084555 369.173482 
L 274.111811 370.295597 
L 280.932127 371.333113 
L 283.793487 371.707132 
L 283.952099 393.504045 
L 283.982553 392.260503 
L 284.104367 391.598393 
L 284.421591 390.715307 
L 284.738815 390.393462 
L 285.056039 390.486746 
L 287.276607 392.048926 
L 288.228279 392.31845 
L 289.338563 392.431745 
L 290.766071 392.338505 
L 292.510803 391.982096 
L 294.889983 391.231344 
L 297.269163 390.260096 
L 299.489731 389.118657 
L 301.393075 387.889789 
L 303.137807 386.500743 
L 304.882539 384.8189 
L 306.627271 382.820792 
L 308.530615 380.27488 
L 310.592571 377.103274 
L 312.813139 373.251548 
L 315.350931 368.375677 
L 318.364559 362.059111 
L 322.012635 353.845768 
L 326.612383 342.894529 
L 332.798251 327.548555 
L 342.314971 303.277758 
L 369.279011 234.211298 
L 374.989043 220.379429 
L 379.588791 209.804358 
L 383.712703 200.874698 
L 387.519391 193.152502 
L 391.167467 186.241153 
L 394.815543 179.806284 
L 398.463619 173.832122 
L 402.111695 168.295549 
L 405.759771 163.170512 
L 409.407847 158.430637 
L 413.055923 154.050488 
L 416.703999 150.006028 
L 420.510687 146.119207 
L 424.317375 142.54922 
L 428.282675 139.142967 
L 432.247975 136.03178 
L 436.371887 133.084731 
L 440.495799 130.408204 
L 444.778323 127.890908 
L 449.219459 125.537648 
L 453.819207 123.350787 
L 458.577567 121.330391 
L 463.653151 119.418215 
L 469.045959 117.630735 
L 474.755991 115.979617 
L 480.783247 114.471882 
L 487.286339 113.078888 
L 494.265267 111.814229 
L 501.878643 110.663181 
L 510.285079 109.621251 
L 519.643187 108.690201 
L 521.552875 108.525258 
L 521.711487 88.183454 
L 521.741941 90.114321 
L 521.863755 91.193961 
L 522.180979 91.338202 
L 522.498203 91.231146 
L 522.974039 90.764008 
L 523.925711 89.453165 
L 527.732399 84.008828 
L 528.842683 82.97686 
L 529.794355 82.414799 
L 530.587415 82.182003 
L 531.380475 82.159777 
L 532.173535 82.334778 
L 533.125207 82.783874 
L 534.235491 83.596538 
L 535.504387 84.841559 
L 536.931895 86.558517 
L 538.835239 89.222069 
L 541.373031 93.188015 
L 545.655555 100.363053 
L 562.785651 129.368833 
L 597.204455 187.020759 
L 607.831459 205.394089 
L 616.555119 220.912105 
L 624.327107 235.190875 
L 631.623259 249.057871 
L 639.871083 265.235415 
L 654.780611 294.584935 
L 659.856195 304.002504 
L 664.138719 311.504322 
L 668.104019 318.016761 
L 671.910707 323.838278 
L 675.558783 329.003917 
L 679.048247 333.562166 
L 682.537711 337.750488 
L 685.868563 341.413075 
L 689.199415 344.761558 
L 692.688879 347.950167 
L 696.178343 350.832436 
L 699.667807 353.430329 
L 703.315883 355.866586 
L 706.963959 358.041929 
L 710.770647 360.060263 
L 714.735947 361.917644 
L 719.018471 363.674483 
L 723.459607 365.256624 
L 728.217967 366.71699 
L 733.452163 368.083586 
L 739.003583 369.301896 
L 745.189451 370.427849 
L 752.009767 371.44003 
L 759.629487 372.346061 
L 759.788099 394.171359 
L 759.818553 392.932192 
L 759.940367 392.266881 
L 760.257591 391.373679 
L 760.574815 391.044887 
L 760.892039 391.131006 
L 763.112607 392.653712 
L 764.064279 392.910007 
L 765.174563 393.012355 
L 766.602071 392.910878 
L 768.346803 392.549914 
L 770.725983 391.800211 
L 773.263775 390.766451 
L 775.484343 389.622785 
L 777.387687 388.39132 
L 779.132419 386.998642 
L 780.877151 385.311796 
L 782.621883 383.307818 
L 784.525227 380.754925 
L 786.587183 377.57574 
L 788.807751 373.716436 
L 791.345543 368.833085 
L 794.359171 362.509474 
L 798.007247 354.290026 
L 802.606995 343.333949 
L 808.792863 327.984577 
L 818.309583 303.71168 
L 838.929143 250.592465 
L 838.929143 250.592465 
" clip-path="url(#p4b7af91228)" style="fill: none; stroke-dasharray: 16,4,2.5,4; stroke-dashoffset: 0; stroke: #2ca02c; stroke-width: 2.5"/>
   </g>
   <g id="line2d_30">
    <path d="M 45.716875 350.583955 
L 838.776875 350.583955 
" clip-path="url(#p4b7af91228)" style="fill: none; stroke-dasharray: 4.44,1.92; stroke-dashoffset: 0; stroke: #808080; stroke-opacity: 0.7; stroke-width: 1.2"/>
   </g>
   <g id="line2d_31">
    <path d="M 45.716875 131.937715 
L 838.776875 131.937715 
" clip-path="url(#p4b7af91228)" style="fill: none; stroke-dasharray: 4.44,1.92; stroke-dashoffset: 0; stroke: #808080; stroke-opacity: 0.7; stroke-width: 1.2"/>
   </g>
   <g id="line2d_32">
    <path d="M 315.911957 350.583955 
L 315.911957 268.591615 
" clip-path="url(#p4b7af91228)" style="fill: none; stroke-dasharray: 1.2,1.98; stroke-dashoffset: 0; stroke: #1f77b4; stroke-opacity: 0.7; stroke-width: 1.2"/>
   </g>
   <g id="line2d_33">
    <path d="M 413.112753 268.591615 
L 413.112753 131.937715 
" clip-path="url(#p4b7af91228)" style="fill: none; stroke-dasharray: 1.2,1.98; stroke-dashoffset: 0; stroke: #1f77b4; stroke-opacity: 0.7; stroke-width: 1.2"/>
   </g>
   <g id="line2d_34">
    <path d="M 323.406815 350.583955 
L 323.406815 213.930055 
" clip-path="url(#p4b7af91228)" style="fill: none; stroke-dasharray: 1.2,1.98; stroke-dashoffset: 0; stroke: #2ca02c; stroke-opacity: 0.7; stroke-width: 1.2"/>
   </g>
   <g id="line2d_35">
    <path d="M 438.090603 213.930055 
L 438.090603 131.937715 
" clip-path="url(#p4b7af91228)" style="fill: none; stroke-dasharray: 1.2,1.98; stroke-dashoffset: 0; stroke: #2ca02c; stroke-opacity: 0.7; stroke-width: 1.2"/>
   </g>
   <g id="line2d_36">
    <path d="M 553.39648 268.591615 
L 553.39648 131.937715 
" clip-path="url(#p4b7af91228)" style="fill: none; stroke-dasharray: 1.2,1.98; stroke-dashoffset: 0; stroke: #1f77b4; stroke-opacity: 0.7; stroke-width: 1.2"/>
   </g>
   <g id="line2d_37">
    <path d="M 650.943265 350.583955 
L 650.943265 268.591615 
" clip-path="url(#p4b7af91228)" style="fill: none; stroke-dasharray: 1.2,1.98; stroke-dashoffset: 0; stroke: #1f77b4; stroke-opacity: 0.7; stroke-width: 1.2"/>
   </g>
   <g id="line2d_38">
    <path d="M 564.326005 213.930055 
L 564.326005 131.937715 
" clip-path="url(#p4b7af91228)" style="fill: none; stroke-dasharray: 1.2,1.98; stroke-dashoffset: 0; stroke: #2ca02c; stroke-opacity: 0.7; stroke-width: 1.2"/>
   </g>
   <g id="line2d_39">
    <path d="M 695.862964 350.583955 
L 695.862964 213.930055 
" clip-path="url(#p4b7af91228)" style="fill: none; stroke-dasharray: 1.2,1.98; stroke-dashoffset: 0; stroke: #2ca02c; stroke-opacity: 0.7; stroke-width: 1.2"/>
   </g>
   <g id="patch_3">
    <path d="M 45.716875 414.355775 
L 45.716875 49.945375 
" style="fill: none; stroke: #000000; stroke-width: 0.8; stroke-linejoin: miter; stroke-linecap: square"/>
   </g>
   <g id="patch_4">
    <path d="M 838.776875 414.355775 
L 838.776875 49.945375 
" style="fill: none; stroke: #000000; stroke-width: 0.8; stroke-linejoin: miter; stroke-linecap: square"/>
   </g>
   <g id="patch_5">
    <path d="M 45.716875 414.355775 
L 838.776875 414.355775 
" style="fill: none; stroke: #000000; stroke-width: 0.8; stroke-linejoin: miter; stroke-linecap: square"/>
   </g>
   <g id="patch_6">
    <path d="M 45.716875 49.945375 
L 838.776875 49.945375 
" style="fill: none; stroke: #000000; stroke-width: 0.8; stroke-linejoin: miter; stroke-linecap: square"/>
   </g>
   <g id="patch_7">
    <path d="M 409.433428 268.591615 
Q 364.512069 268.591615 319.590711 268.591615 
" style="fill: none; stroke: #1f77b4; stroke-width: 1.5; stroke-linecap: round"/>
    <path d="M 405.433428 266.591615 
L 409.433428 268.591615 
L 405.433428 270.591615 
z
" style="fill: #1f77b4; stroke: #1f77b4; stroke-width: 1.5; stroke-linecap: round"/>
    <path d="M 323.590711 270.591615 
L 319.590711 268.591615 
L 323.590711 266.591615 
z
" style="fill: #1f77b4; stroke: #1f77b4; stroke-width: 1.5; stroke-linecap: round"/>
   </g>
   <g id="text_16">
    <g id="patch_8">
     <path d="M 331.457355 289.337812 
L 397.567355 289.337812 
L 397.567355 276.711875 
L 331.457355 276.711875 
z
" style="fill: #ffffff; opacity: 0.8"/>
    </g>
    <!-- $t_r = 61.3$ ps -->
    <g style="fill: #1f77b4" transform="translate(332.447355 286.037812) scale(0.11 -0.11)">
     <defs>
      <path id="DejaVuSans-Oblique-74" d="M 2706 3500 
L 2619 3053 
L 1472 3053 
L 1100 1153 
Q 1081 1047 1072 975 
Q 1063 903 1063 863 
Q 1063 663 1183 572 
Q 1303 481 1569 481 
L 2150 481 
L 2053 0 
L 1503 0 
Q 991 0 739 200 
Q 488 400 488 806 
Q 488 878 497 964 
Q 506 1050 525 1153 
L 897 3053 
L 409 3053 
L 500 3500 
L 978 3500 
L 1172 4494 
L 1747 4494 
L 1556 3500 
L 2706 3500 
z
" transform="scale(0.015625)"/>
      <path id="DejaVuSans-Oblique-72" d="M 2853 2969 
Q 2766 3016 2653 3041 
Q 2541 3066 2413 3066 
Q 1953 3066 1609 2717 
Q 1266 2369 1153 1784 
L 800 0 
L 225 0 
L 909 3500 
L 1484 3500 
L 1375 2956 
Q 1603 3259 1920 3421 
Q 2238 3584 2597 3584 
Q 2691 3584 2781 3573 
Q 2872 3563 2963 3538 
L 2853 2969 
z
" transform="scale(0.015625)"/>
      <path id="DejaVuSans-3d" d="M 678 2906 
L 4684 2906 
L 4684 2381 
L 678 2381 
L 678 2906 
z
M 678 1631 
L 4684 1631 
L 4684 1100 
L 678 1100 
L 678 1631 
z
" transform="scale(0.015625)"/>
      <path id="DejaVuSans-Bold-20" transform="scale(0.015625)"/>
      <path id="DejaVuSans-Bold-70" d="M 1656 506 
L 1656 -1331 
L 538 -1331 
L 538 3500 
L 1656 3500 
L 1656 2988 
Q 1888 3294 2169 3439 
Q 2450 3584 2816 3584 
Q 3463 3584 3878 3070 
Q 4294 2556 4294 1747 
Q 4294 938 3878 423 
Q 3463 -91 2816 -91 
Q 2450 -91 2169 54 
Q 1888 200 1656 506 
z
M 2400 2772 
Q 2041 2772 1848 2508 
Q 1656 2244 1656 1747 
Q 1656 1250 1848 986 
Q 2041 722 2400 722 
Q 2759 722 2948 984 
Q 3138 1247 3138 1747 
Q 3138 2247 2948 2509 
Q 2759 2772 2400 2772 
z
" transform="scale(0.015625)"/>
      <path id="DejaVuSans-Bold-73" d="M 3272 3391 
L 3272 2541 
Q 2913 2691 2578 2766 
Q 2244 2841 1947 2841 
Q 1628 2841 1473 2761 
Q 1319 2681 1319 2516 
Q 1319 2381 1436 2309 
Q 1553 2238 1856 2203 
L 2053 2175 
Q 2913 2066 3209 1816 
Q 3506 1566 3506 1031 
Q 3506 472 3093 190 
Q 2681 -91 1863 -91 
Q 1516 -91 1145 -36 
Q 775 19 384 128 
L 384 978 
Q 719 816 1070 734 
Q 1422 653 1784 653 
Q 2113 653 2278 743 
Q 2444 834 2444 1013 
Q 2444 1163 2330 1236 
Q 2216 1309 1875 1350 
L 1678 1375 
Q 931 1469 631 1722 
Q 331 1975 331 2491 
Q 331 3047 712 3315 
Q 1094 3584 1881 3584 
Q 2191 3584 2531 3537 
Q 2872 3491 3272 3391 
z
" transform="scale(0.015625)"/>
     </defs>
     <use xlink:href="#DejaVuSans-Oblique-74" transform="translate(0 0.78125)"/>
     <use xlink:href="#DejaVuSans-Oblique-72" transform="translate(39.208984 -15.625) scale(0.7)"/>
     <use xlink:href="#DejaVuSans-3d" transform="translate(90.205078 0.78125)"/>
     <use xlink:href="#DejaVuSans-36" transform="translate(193.476562 0.78125)"/>
     <use xlink:href="#DejaVuSans-31" transform="translate(257.099609 0.78125)"/>
     <use xlink:href="#DejaVuSans-2e" transform="translate(320.722656 0.78125)"/>
     <use xlink:href="#DejaVuSans-33" transform="translate(352.509766 0.78125)"/>
     <use xlink:href="#DejaVuSans-Bold-20" transform="translate(416.132812 0.78125)"/>
     <use xlink:href="#DejaVuSans-Bold-70" transform="translate(450.947266 0.78125)"/>
     <use xlink:href="#DejaVuSans-Bold-73" transform="translate(522.529297 0.78125)"/>
    </g>
   </g>
   <g id="patch_9">
    <path d="M 434.415126 213.930055 
Q 380.748492 213.930055 327.081858 213.930055 
" style="fill: none; stroke: #2ca02c; stroke-width: 1.5; stroke-linecap: round"/>
    <path d="M 430.415126 211.930055 
L 434.415126 213.930055 
L 430.415126 215.930055 
z
" style="fill: #2ca02c; stroke: #2ca02c; stroke-width: 1.5; stroke-linecap: round"/>
    <path d="M 331.081858 215.930055 
L 327.081858 213.930055 
L 331.081858 211.930055 
z
" style="fill: #2ca02c; stroke: #2ca02c; stroke-width: 1.5; stroke-linecap: round"/>
   </g>
   <g id="text_17">
    <g id="patch_10">
     <path d="M 347.693709 205.809795 
L 413.803709 205.809795 
L 413.803709 193.183857 
L 347.693709 193.183857 
z
" style="fill: #ffffff; opacity: 0.8"/>
    </g>
    <!-- $t_r = 72.3$ ps -->
    <g style="fill: #2ca02c" transform="translate(348.683709 202.509795) scale(0.11 -0.11)">
     <defs>
      <path id="DejaVuSans-37" d="M 525 4666 
L 3525 4666 
L 3525 4397 
L 1831 0 
L 1172 0 
L 2766 4134 
L 525 4134 
L 525 4666 
z
" transform="scale(0.015625)"/>
     </defs>
     <use xlink:href="#DejaVuSans-Oblique-74" transform="translate(0 0.78125)"/>
     <use xlink:href="#DejaVuSans-Oblique-72" transform="translate(39.208984 -15.625) scale(0.7)"/>
     <use xlink:href="#DejaVuSans-3d" transform="translate(90.205078 0.78125)"/>
     <use xlink:href="#DejaVuSans-37" transform="translate(193.476562 0.78125)"/>
     <use xlink:href="#DejaVuSans-32" transform="translate(257.099609 0.78125)"/>
     <use xlink:href="#DejaVuSans-2e" transform="translate(320.722656 0.78125)"/>
     <use xlink:href="#DejaVuSans-33" transform="translate(352.509766 0.78125)"/>
     <use xlink:href="#DejaVuSans-Bold-20" transform="translate(416.132812 0.78125)"/>
     <use xlink:href="#DejaVuSans-Bold-70" transform="translate(450.947266 0.78125)"/>
     <use xlink:href="#DejaVuSans-Bold-73" transform="translate(522.529297 0.78125)"/>
    </g>
   </g>
   <g id="patch_11">
    <path d="M 647.26872 268.591615 
Q 602.169832 268.591615 557.070945 268.591615 
" style="fill: none; stroke: #1f77b4; stroke-width: 1.5; stroke-linecap: round"/>
    <path d="M 643.26872 266.591615 
L 647.26872 268.591615 
L 643.26872 270.591615 
z
" style="fill: #1f77b4; stroke: #1f77b4; stroke-width: 1.5; stroke-linecap: round"/>
    <path d="M 561.070945 270.591615 
L 557.070945 268.591615 
L 561.070945 266.591615 
z
" style="fill: #1f77b4; stroke: #1f77b4; stroke-width: 1.5; stroke-linecap: round"/>
   </g>
   <g id="text_18">
    <g id="patch_12">
     <path d="M 569.389873 289.337812 
L 634.949873 289.337812 
L 634.949873 276.711875 
L 569.389873 276.711875 
z
" style="fill: #ffffff; opacity: 0.8"/>
    </g>
    <!-- $t_f = 61.5$ ps -->
    <g style="fill: #1f77b4" transform="translate(570.379873 286.037812) scale(0.11 -0.11)">
     <defs>
      <path id="DejaVuSans-Oblique-66" d="M 3059 4863 
L 2969 4384 
L 2419 4384 
Q 2106 4384 1964 4261 
Q 1822 4138 1753 3809 
L 1691 3500 
L 2638 3500 
L 2553 3053 
L 1606 3053 
L 1013 0 
L 434 0 
L 1031 3053 
L 481 3053 
L 563 3500 
L 1113 3500 
L 1159 3744 
Q 1278 4363 1576 4613 
Q 1875 4863 2516 4863 
L 3059 4863 
z
" transform="scale(0.015625)"/>
     </defs>
     <use xlink:href="#DejaVuSans-Oblique-74" transform="translate(0 0.78125)"/>
     <use xlink:href="#DejaVuSans-Oblique-66" transform="translate(39.208984 -15.625) scale(0.7)"/>
     <use xlink:href="#DejaVuSans-3d" transform="translate(86.069336 0.78125)"/>
     <use xlink:href="#DejaVuSans-36" transform="translate(189.34082 0.78125)"/>
     <use xlink:href="#DejaVuSans-31" transform="translate(252.963867 0.78125)"/>
     <use xlink:href="#DejaVuSans-2e" transform="translate(316.586914 0.78125)"/>
     <use xlink:href="#DejaVuSans-35" transform="translate(348.374023 0.78125)"/>
     <use xlink:href="#DejaVuSans-Bold-20" transform="translate(411.99707 0.78125)"/>
     <use xlink:href="#DejaVuSans-Bold-70" transform="translate(446.811523 0.78125)"/>
     <use xlink:href="#DejaVuSans-Bold-73" transform="translate(518.393555 0.78125)"/>
    </g>
   </g>
   <g id="patch_13">
    <path d="M 692.182832 213.930055 
Q 630.091092 213.930055 567.999351 213.930055 
" style="fill: none; stroke: #2ca02c; stroke-width: 1.5; stroke-linecap: round"/>
    <path d="M 688.182832 211.930055 
L 692.182832 213.930055 
L 688.182832 215.930055 
z
" style="fill: #2ca02c; stroke: #2ca02c; stroke-width: 1.5; stroke-linecap: round"/>
    <path d="M 571.999351 215.930055 
L 567.999351 213.930055 
L 571.999351 211.930055 
z
" style="fill: #2ca02c; stroke: #2ca02c; stroke-width: 1.5; stroke-linecap: round"/>
   </g>
   <g id="text_19">
    <g id="patch_14">
     <path d="M 597.314484 205.809795 
L 662.874484 205.809795 
L 662.874484 193.183857 
L 597.314484 193.183857 
z
" style="fill: #ffffff; opacity: 0.8"/>
    </g>
    <!-- $t_f = 82.9$ ps -->
    <g style="fill: #2ca02c" transform="translate(598.304484 202.509795) scale(0.11 -0.11)">
     <use xlink:href="#DejaVuSans-Oblique-74" transform="translate(0 0.78125)"/>
     <use xlink:href="#DejaVuSans-Oblique-66" transform="translate(39.208984 -15.625) scale(0.7)"/>
     <use xlink:href="#DejaVuSans-3d" transform="translate(86.069336 0.78125)"/>
     <use xlink:href="#DejaVuSans-38" transform="translate(189.34082 0.78125)"/>
     <use xlink:href="#DejaVuSans-32" transform="translate(252.963867 0.78125)"/>
     <use xlink:href="#DejaVuSans-2e" transform="translate(316.586914 0.78125)"/>
     <use xlink:href="#DejaVuSans-39" transform="translate(348.374023 0.78125)"/>
     <use xlink:href="#DejaVuSans-Bold-20" transform="translate(411.99707 0.78125)"/>
     <use xlink:href="#DejaVuSans-Bold-70" transform="translate(446.811523 0.78125)"/>
     <use xlink:href="#DejaVuSans-Bold-73" transform="translate(518.393555 0.78125)"/>
    </g>
   </g>
   <g id="text_20">
    <!-- Tranzijentna analiza: Poređenje odziva (Odnos $W_p / W_n = 2$) -->
    <g transform="translate(216.846875 17.84) scale(0.14 -0.14)">
     <defs>
      <path id="DejaVuSans-Bold-54" d="M 31 4666 
L 4331 4666 
L 4331 3756 
L 2784 3756 
L 2784 0 
L 1581 0 
L 1581 3756 
L 31 3756 
L 31 4666 
z
" transform="scale(0.015625)"/>
      <path id="DejaVuSans-Bold-72" d="M 3138 2547 
Q 2991 2616 2845 2648 
Q 2700 2681 2553 2681 
Q 2122 2681 1889 2404 
Q 1656 2128 1656 1613 
L 1656 0 
L 538 0 
L 538 3500 
L 1656 3500 
L 1656 2925 
Q 1872 3269 2151 3426 
Q 2431 3584 2822 3584 
Q 2878 3584 2943 3579 
Q 3009 3575 3134 3559 
L 3138 2547 
z
" transform="scale(0.015625)"/>
      <path id="DejaVuSans-Bold-61" d="M 2106 1575 
Q 1756 1575 1579 1456 
Q 1403 1338 1403 1106 
Q 1403 894 1545 773 
Q 1688 653 1941 653 
Q 2256 653 2472 879 
Q 2688 1106 2688 1447 
L 2688 1575 
L 2106 1575 
z
M 3816 1997 
L 3816 0 
L 2688 0 
L 2688 519 
Q 2463 200 2181 54 
Q 1900 -91 1497 -91 
Q 953 -91 614 226 
Q 275 544 275 1050 
Q 275 1666 698 1953 
Q 1122 2241 2028 2241 
L 2688 2241 
L 2688 2328 
Q 2688 2594 2478 2717 
Q 2269 2841 1825 2841 
Q 1466 2841 1156 2769 
Q 847 2697 581 2553 
L 581 3406 
Q 941 3494 1303 3539 
Q 1666 3584 2028 3584 
Q 2975 3584 3395 3211 
Q 3816 2838 3816 1997 
z
" transform="scale(0.015625)"/>
      <path id="DejaVuSans-Bold-6e" d="M 4056 2131 
L 4056 0 
L 2931 0 
L 2931 347 
L 2931 1631 
Q 2931 2084 2911 2256 
Q 2891 2428 2841 2509 
Q 2775 2619 2662 2680 
Q 2550 2741 2406 2741 
Q 2056 2741 1856 2470 
Q 1656 2200 1656 1722 
L 1656 0 
L 538 0 
L 538 3500 
L 1656 3500 
L 1656 2988 
Q 1909 3294 2193 3439 
Q 2478 3584 2822 3584 
Q 3428 3584 3742 3212 
Q 4056 2841 4056 2131 
z
" transform="scale(0.015625)"/>
      <path id="DejaVuSans-Bold-7a" d="M 366 3500 
L 3419 3500 
L 3419 2719 
L 1575 800 
L 3419 800 
L 3419 0 
L 288 0 
L 288 781 
L 2131 2700 
L 366 2700 
L 366 3500 
z
" transform="scale(0.015625)"/>
      <path id="DejaVuSans-Bold-69" d="M 538 3500 
L 1656 3500 
L 1656 0 
L 538 0 
L 538 3500 
z
M 538 4863 
L 1656 4863 
L 1656 3950 
L 538 3950 
L 538 4863 
z
" transform="scale(0.015625)"/>
      <path id="DejaVuSans-Bold-6a" d="M 538 3500 
L 1656 3500 
L 1656 63 
Q 1656 -641 1318 -1011 
Q 981 -1381 341 -1381 
L -213 -1381 
L -213 -647 
L -19 -647 
Q 300 -647 419 -503 
Q 538 -359 538 63 
L 538 3500 
z
M 538 4863 
L 1656 4863 
L 1656 3950 
L 538 3950 
L 538 4863 
z
" transform="scale(0.015625)"/>
      <path id="DejaVuSans-Bold-65" d="M 4031 1759 
L 4031 1441 
L 1416 1441 
Q 1456 1047 1700 850 
Q 1944 653 2381 653 
Q 2734 653 3104 758 
Q 3475 863 3866 1075 
L 3866 213 
Q 3469 63 3072 -14 
Q 2675 -91 2278 -91 
Q 1328 -91 801 392 
Q 275 875 275 1747 
Q 275 2603 792 3093 
Q 1309 3584 2216 3584 
Q 3041 3584 3536 3087 
Q 4031 2591 4031 1759 
z
M 2881 2131 
Q 2881 2450 2695 2645 
Q 2509 2841 2209 2841 
Q 1884 2841 1681 2658 
Q 1478 2475 1428 2131 
L 2881 2131 
z
" transform="scale(0.015625)"/>
      <path id="DejaVuSans-Bold-74" d="M 1759 4494 
L 1759 3500 
L 2913 3500 
L 2913 2700 
L 1759 2700 
L 1759 1216 
Q 1759 972 1856 886 
Q 1953 800 2241 800 
L 2816 800 
L 2816 0 
L 1856 0 
Q 1194 0 917 276 
Q 641 553 641 1216 
L 641 2700 
L 84 2700 
L 84 3500 
L 641 3500 
L 641 4494 
L 1759 4494 
z
" transform="scale(0.015625)"/>
      <path id="DejaVuSans-Bold-6c" d="M 538 4863 
L 1656 4863 
L 1656 0 
L 538 0 
L 538 4863 
z
" transform="scale(0.015625)"/>
      <path id="DejaVuSans-Bold-3a" d="M 716 3500 
L 1844 3500 
L 1844 2291 
L 716 2291 
L 716 3500 
z
M 716 1209 
L 1844 1209 
L 1844 0 
L 716 0 
L 716 1209 
z
" transform="scale(0.015625)"/>
      <path id="DejaVuSans-Bold-50" d="M 588 4666 
L 2584 4666 
Q 3475 4666 3951 4270 
Q 4428 3875 4428 3144 
Q 4428 2409 3951 2014 
Q 3475 1619 2584 1619 
L 1791 1619 
L 1791 0 
L 588 0 
L 588 4666 
z
M 1791 3794 
L 1791 2491 
L 2456 2491 
Q 2806 2491 2997 2661 
Q 3188 2831 3188 3144 
Q 3188 3456 2997 3625 
Q 2806 3794 2456 3794 
L 1791 3794 
z
" transform="scale(0.015625)"/>
      <path id="DejaVuSans-Bold-6f" d="M 2203 2784 
Q 1831 2784 1636 2517 
Q 1441 2250 1441 1747 
Q 1441 1244 1636 976 
Q 1831 709 2203 709 
Q 2569 709 2762 976 
Q 2956 1244 2956 1747 
Q 2956 2250 2762 2517 
Q 2569 2784 2203 2784 
z
M 2203 3584 
Q 3106 3584 3614 3096 
Q 4122 2609 4122 1747 
Q 4122 884 3614 396 
Q 3106 -91 2203 -91 
Q 1297 -91 786 396 
Q 275 884 275 1747 
Q 275 2609 786 3096 
Q 1297 3584 2203 3584 
z
" transform="scale(0.015625)"/>
      <path id="DejaVuSans-Bold-111" d="M 2919 2988 
L 2919 3866 
L 1900 3866 
L 1900 4506 
L 2919 4506 
L 2919 4863 
L 4044 4863 
L 4044 4506 
L 4525 4506 
L 4525 3866 
L 4044 3866 
L 4044 0 
L 2919 0 
L 2919 506 
Q 2688 197 2409 53 
Q 2131 -91 1766 -91 
Q 1119 -91 703 423 
Q 288 938 288 1747 
Q 288 2556 703 3070 
Q 1119 3584 1766 3584 
Q 2128 3584 2408 3439 
Q 2688 3294 2919 2988 
z
M 2181 722 
Q 2541 722 2730 984 
Q 2919 1247 2919 1747 
Q 2919 2247 2730 2509 
Q 2541 2772 2181 2772 
Q 1825 2772 1636 2509 
Q 1447 2247 1447 1747 
Q 1447 1247 1636 984 
Q 1825 722 2181 722 
z
" transform="scale(0.015625)"/>
      <path id="DejaVuSans-Bold-64" d="M 2919 2988 
L 2919 4863 
L 4044 4863 
L 4044 0 
L 2919 0 
L 2919 506 
Q 2688 197 2409 53 
Q 2131 -91 1766 -91 
Q 1119 -91 703 423 
Q 288 938 288 1747 
Q 288 2556 703 3070 
Q 1119 3584 1766 3584 
Q 2128 3584 2408 3439 
Q 2688 3294 2919 2988 
z
M 2181 722 
Q 2541 722 2730 984 
Q 2919 1247 2919 1747 
Q 2919 2247 2730 2509 
Q 2541 2772 2181 2772 
Q 1825 2772 1636 2509 
Q 1447 2247 1447 1747 
Q 1447 1247 1636 984 
Q 1825 722 2181 722 
z
" transform="scale(0.015625)"/>
      <path id="DejaVuSans-Bold-76" d="M 97 3500 
L 1216 3500 
L 2088 1081 
L 2956 3500 
L 4078 3500 
L 2700 0 
L 1472 0 
L 97 3500 
z
" transform="scale(0.015625)"/>
      <path id="DejaVuSans-Bold-28" d="M 2413 -844 
L 1484 -844 
Q 1006 -72 778 623 
Q 550 1319 550 2003 
Q 550 2688 779 3389 
Q 1009 4091 1484 4856 
L 2413 4856 
Q 2013 4116 1813 3408 
Q 1613 2700 1613 2009 
Q 1613 1319 1811 609 
Q 2009 -100 2413 -844 
z
" transform="scale(0.015625)"/>
      <path id="DejaVuSans-Bold-4f" d="M 2719 3878 
Q 2169 3878 1866 3472 
Q 1563 3066 1563 2328 
Q 1563 1594 1866 1187 
Q 2169 781 2719 781 
Q 3272 781 3575 1187 
Q 3878 1594 3878 2328 
Q 3878 3066 3575 3472 
Q 3272 3878 2719 3878 
z
M 2719 4750 
Q 3844 4750 4481 4106 
Q 5119 3463 5119 2328 
Q 5119 1197 4481 553 
Q 3844 -91 2719 -91 
Q 1597 -91 958 553 
Q 319 1197 319 2328 
Q 319 3463 958 4106 
Q 1597 4750 2719 4750 
z
" transform="scale(0.015625)"/>
      <path id="DejaVuSans-Oblique-57" d="M 616 4666 
L 1228 4666 
L 1453 697 
L 3213 4666 
L 3916 4666 
L 4147 697 
L 5888 4666 
L 6528 4666 
L 4453 0 
L 3659 0 
L 3444 3891 
L 1697 0 
L 903 0 
L 616 4666 
z
" transform="scale(0.015625)"/>
      <path id="DejaVuSans-Oblique-70" d="M 3175 2156 
Q 3175 2616 2975 2859 
Q 2775 3103 2400 3103 
Q 2144 3103 1911 2972 
Q 1678 2841 1497 2591 
Q 1319 2344 1212 1994 
Q 1106 1644 1106 1300 
Q 1106 863 1306 627 
Q 1506 391 1875 391 
Q 2147 391 2380 519 
Q 2613 647 2778 891 
Q 2956 1147 3065 1494 
Q 3175 1841 3175 2156 
z
M 1394 2969 
Q 1625 3272 1939 3428 
Q 2253 3584 2638 3584 
Q 3175 3584 3472 3232 
Q 3769 2881 3769 2247 
Q 3769 1728 3584 1258 
Q 3400 788 3053 416 
Q 2822 169 2531 39 
Q 2241 -91 1919 -91 
Q 1547 -91 1294 64 
Q 1041 219 916 525 
L 556 -1331 
L -19 -1331 
L 922 3500 
L 1497 3500 
L 1394 2969 
z
" transform="scale(0.015625)"/>
      <path id="DejaVuSans-2f" d="M 1625 4666 
L 2156 4666 
L 531 -594 
L 0 -594 
L 1625 4666 
z
" transform="scale(0.015625)"/>
      <path id="DejaVuSans-Oblique-6e" d="M 3566 2113 
L 3156 0 
L 2578 0 
L 2988 2091 
Q 3016 2238 3031 2350 
Q 3047 2463 3047 2528 
Q 3047 2791 2881 2937 
Q 2716 3084 2419 3084 
Q 1956 3084 1622 2776 
Q 1288 2469 1184 1941 
L 800 0 
L 225 0 
L 903 3500 
L 1478 3500 
L 1363 2950 
Q 1603 3253 1940 3418 
Q 2278 3584 2650 3584 
Q 3113 3584 3367 3334 
Q 3622 3084 3622 2631 
Q 3622 2519 3608 2391 
Q 3594 2263 3566 2113 
z
" transform="scale(0.015625)"/>
      <path id="DejaVuSans-Bold-29" d="M 513 -844 
Q 913 -100 1113 609 
Q 1313 1319 1313 2009 
Q 1313 2700 1113 3408 
Q 913 4116 513 4856 
L 1441 4856 
Q 1916 4091 2145 3389 
Q 2375 2688 2375 2003 
Q 2375 1319 2147 623 
Q 1919 -72 1441 -844 
L 513 -844 
z
" transform="scale(0.015625)"/>
     </defs>
     <use xlink:href="#DejaVuSans-Bold-54" transform="translate(0 0.015625)"/>
     <use xlink:href="#DejaVuSans-Bold-72" transform="translate(68.212891 0.015625)"/>
     <use xlink:href="#DejaVuSans-Bold-61" transform="translate(117.529297 0.015625)"/>
     <use xlink:href="#DejaVuSans-Bold-6e" transform="translate(185.009766 0.015625)"/>
     <use xlink:href="#DejaVuSans-Bold-7a" transform="translate(256.201172 0.015625)"/>
     <use xlink:href="#DejaVuSans-Bold-69" transform="translate(314.404297 0.015625)"/>
     <use xlink:href="#DejaVuSans-Bold-6a" transform="translate(348.681641 0.015625)"/>
     <use xlink:href="#DejaVuSans-Bold-65" transform="translate(382.958984 0.015625)"/>
     <use xlink:href="#DejaVuSans-Bold-6e" transform="translate(450.78125 0.015625)"/>
     <use xlink:href="#DejaVuSans-Bold-74" transform="translate(521.972656 0.015625)"/>
     <use xlink:href="#DejaVuSans-Bold-6e" transform="translate(569.775391 0.015625)"/>
     <use xlink:href="#DejaVuSans-Bold-61" transform="translate(640.966797 0.015625)"/>
     <use xlink:href="#DejaVuSans-Bold-20" transform="translate(708.447266 0.015625)"/>
     <use xlink:href="#DejaVuSans-Bold-61" transform="translate(743.261719 0.015625)"/>
     <use xlink:href="#DejaVuSans-Bold-6e" transform="translate(810.742188 0.015625)"/>
     <use xlink:href="#DejaVuSans-Bold-61" transform="translate(881.933594 0.015625)"/>
     <use xlink:href="#DejaVuSans-Bold-6c" transform="translate(949.414062 0.015625)"/>
     <use xlink:href="#DejaVuSans-Bold-69" transform="translate(983.691406 0.015625)"/>
     <use xlink:href="#DejaVuSans-Bold-7a" transform="translate(1017.96875 0.015625)"/>
     <use xlink:href="#DejaVuSans-Bold-61" transform="translate(1076.171875 0.015625)"/>
     <use xlink:href="#DejaVuSans-Bold-3a" transform="translate(1143.652344 0.015625)"/>
     <use xlink:href="#DejaVuSans-Bold-20" transform="translate(1183.642578 0.015625)"/>
     <use xlink:href="#DejaVuSans-Bold-50" transform="translate(1218.457031 0.015625)"/>
     <use xlink:href="#DejaVuSans-Bold-6f" transform="translate(1291.748047 0.015625)"/>
     <use xlink:href="#DejaVuSans-Bold-72" transform="translate(1360.449219 0.015625)"/>
     <use xlink:href="#DejaVuSans-Bold-65" transform="translate(1409.765625 0.015625)"/>
     <use xlink:href="#DejaVuSans-Bold-111" transform="translate(1477.587891 0.015625)"/>
     <use xlink:href="#DejaVuSans-Bold-65" transform="translate(1549.169922 0.015625)"/>
     <use xlink:href="#DejaVuSans-Bold-6e" transform="translate(1616.992188 0.015625)"/>
     <use xlink:href="#DejaVuSans-Bold-6a" transform="translate(1688.183594 0.015625)"/>
     <use xlink:href="#DejaVuSans-Bold-65" transform="translate(1722.460938 0.015625)"/>
     <use xlink:href="#DejaVuSans-Bold-20" transform="translate(1790.283203 0.015625)"/>
     <use xlink:href="#DejaVuSans-Bold-6f" transform="translate(1825.097656 0.015625)"/>
     <use xlink:href="#DejaVuSans-Bold-64" transform="translate(1893.798828 0.015625)"/>
     <use xlink:href="#DejaVuSans-Bold-7a" transform="translate(1965.380859 0.015625)"/>
     <use xlink:href="#DejaVuSans-Bold-69" transform="translate(2023.583984 0.015625)"/>
     <use xlink:href="#DejaVuSans-Bold-76" transform="translate(2057.861328 0.015625)"/>
     <use xlink:href="#DejaVuSans-Bold-61" transform="translate(2123.046875 0.015625)"/>
     <use xlink:href="#DejaVuSans-Bold-20" transform="translate(2190.527344 0.015625)"/>
     <use xlink:href="#DejaVuSans-Bold-28" transform="translate(2225.341797 0.015625)"/>
     <use xlink:href="#DejaVuSans-Bold-4f" transform="translate(2271.044922 0.015625)"/>
     <use xlink:href="#DejaVuSans-Bold-64" transform="translate(2356.054688 0.015625)"/>
     <use xlink:href="#DejaVuSans-Bold-6e" transform="translate(2427.636719 0.015625)"/>
     <use xlink:href="#DejaVuSans-Bold-6f" transform="translate(2498.828125 0.015625)"/>
     <use xlink:href="#DejaVuSans-Bold-73" transform="translate(2567.529297 0.015625)"/>
     <use xlink:href="#DejaVuSans-Bold-20" transform="translate(2627.050781 0.015625)"/>
     <use xlink:href="#DejaVuSans-Oblique-57" transform="translate(2661.865234 0.015625)"/>
     <use xlink:href="#DejaVuSans-Oblique-70" transform="translate(2760.742188 -16.390625) scale(0.7)"/>
     <use xlink:href="#DejaVuSans-2f" transform="translate(2807.910156 0.015625)"/>
     <use xlink:href="#DejaVuSans-Oblique-57" transform="translate(2841.601562 0.015625)"/>
     <use xlink:href="#DejaVuSans-Oblique-6e" transform="translate(2940.478516 -16.390625) scale(0.7)"/>
     <use xlink:href="#DejaVuSans-3d" transform="translate(3007.060547 0.015625)"/>
     <use xlink:href="#DejaVuSans-32" transform="translate(3110.332031 0.015625)"/>
     <use xlink:href="#DejaVuSans-Bold-29" transform="translate(3173.955078 0.015625)"/>
    </g>
    <!-- Postlayout-PEX -->
    <g transform="translate(381.974688 34.945375) scale(0.14 -0.14)">
     <defs>
      <path id="DejaVuSans-Bold-79" d="M 78 3500 
L 1197 3500 
L 2138 1125 
L 2938 3500 
L 4056 3500 
L 2584 -331 
Q 2363 -916 2067 -1148 
Q 1772 -1381 1288 -1381 
L 641 -1381 
L 641 -647 
L 991 -647 
Q 1275 -647 1404 -556 
Q 1534 -466 1606 -231 
L 1638 -134 
L 78 3500 
z
" transform="scale(0.015625)"/>
      <path id="DejaVuSans-Bold-75" d="M 500 1363 
L 500 3500 
L 1625 3500 
L 1625 3150 
Q 1625 2866 1622 2436 
Q 1619 2006 1619 1863 
Q 1619 1441 1641 1255 
Q 1663 1069 1716 984 
Q 1784 875 1895 815 
Q 2006 756 2150 756 
Q 2500 756 2700 1025 
Q 2900 1294 2900 1772 
L 2900 3500 
L 4019 3500 
L 4019 0 
L 2900 0 
L 2900 506 
Q 2647 200 2364 54 
Q 2081 -91 1741 -91 
Q 1134 -91 817 281 
Q 500 653 500 1363 
z
" transform="scale(0.015625)"/>
      <path id="DejaVuSans-Bold-2d" d="M 347 2297 
L 2309 2297 
L 2309 1388 
L 347 1388 
L 347 2297 
z
" transform="scale(0.015625)"/>
      <path id="DejaVuSans-Bold-45" d="M 588 4666 
L 3834 4666 
L 3834 3756 
L 1791 3756 
L 1791 2888 
L 3713 2888 
L 3713 1978 
L 1791 1978 
L 1791 909 
L 3903 909 
L 3903 0 
L 588 0 
L 588 4666 
z
" transform="scale(0.015625)"/>
      <path id="DejaVuSans-Bold-58" d="M 3188 2381 
L 4806 0 
L 3553 0 
L 2463 1594 
L 1381 0 
L 122 0 
L 1741 2381 
L 184 4666 
L 1441 4666 
L 2463 3163 
L 3481 4666 
L 4744 4666 
L 3188 2381 
z
" transform="scale(0.015625)"/>
     </defs>
     <use xlink:href="#DejaVuSans-Bold-50"/>
     <use xlink:href="#DejaVuSans-Bold-6f" transform="translate(73.291016 0)"/>
     <use xlink:href="#DejaVuSans-Bold-73" transform="translate(141.992188 0)"/>
     <use xlink:href="#DejaVuSans-Bold-74" transform="translate(201.513672 0)"/>
     <use xlink:href="#DejaVuSans-Bold-6c" transform="translate(249.316406 0)"/>
     <use xlink:href="#DejaVuSans-Bold-61" transform="translate(283.59375 0)"/>
     <use xlink:href="#DejaVuSans-Bold-79" transform="translate(347.949219 0)"/>
     <use xlink:href="#DejaVuSans-Bold-6f" transform="translate(413.134766 0)"/>
     <use xlink:href="#DejaVuSans-Bold-75" transform="translate(481.835938 0)"/>
     <use xlink:href="#DejaVuSans-Bold-74" transform="translate(553.027344 0)"/>
     <use xlink:href="#DejaVuSans-Bold-2d" transform="translate(600.830078 0)"/>
     <use xlink:href="#DejaVuSans-Bold-50" transform="translate(642.333984 0)"/>
     <use xlink:href="#DejaVuSans-Bold-45" transform="translate(715.625 0)"/>
     <use xlink:href="#DejaVuSans-Bold-58" transform="translate(783.935547 0)"/>
    </g>
   </g>
   <g id="legend_1">
    <g id="patch_15">
     <path d="M 193.628828 483.03096 
L 690.864922 483.03096 
Q 693.064922 483.03096 693.064922 480.830961 
L 693.064922 465.785023 
Q 693.064922 463.585023 690.864922 463.585023 
L 193.628828 463.585023 
Q 191.428828 463.585023 191.428828 465.785023 
L 191.428828 480.830961 
Q 191.428828 483.03096 193.628828 483.03096 
z
" style="fill: #ffffff; opacity: 0.9; stroke: #000000; stroke-linejoin: miter"/>
    </g>
    <g id="line2d_40">
     <path d="M 195.828828 472.493304 
L 206.828828 472.493304 
L 217.828828 472.493304 
" style="fill: none; stroke-dasharray: 7.4,3.2; stroke-dashoffset: 0; stroke: #d62728; stroke-width: 2"/>
    </g>
    <g id="text_21">
     <!-- Ulaz A (Pobuda) -->
     <g transform="translate(226.628828 476.343304) scale(0.11 -0.11)">
      <defs>
       <path id="DejaVuSans-55" d="M 556 4666 
L 1191 4666 
L 1191 1831 
Q 1191 1081 1462 751 
Q 1734 422 2344 422 
Q 2950 422 3222 751 
Q 3494 1081 3494 1831 
L 3494 4666 
L 4128 4666 
L 4128 1753 
Q 4128 841 3676 375 
Q 3225 -91 2344 -91 
Q 1459 -91 1007 375 
Q 556 841 556 1753 
L 556 4666 
z
" transform="scale(0.015625)"/>
       <path id="DejaVuSans-6c" d="M 603 4863 
L 1178 4863 
L 1178 0 
L 603 0 
L 603 4863 
z
" transform="scale(0.015625)"/>
       <path id="DejaVuSans-7a" d="M 353 3500 
L 3084 3500 
L 3084 2975 
L 922 459 
L 3084 459 
L 3084 0 
L 275 0 
L 275 525 
L 2438 3041 
L 353 3041 
L 353 3500 
z
" transform="scale(0.015625)"/>
       <path id="DejaVuSans-41" d="M 2188 4044 
L 1331 1722 
L 3047 1722 
L 2188 4044 
z
M 1831 4666 
L 2547 4666 
L 4325 0 
L 3669 0 
L 3244 1197 
L 1141 1197 
L 716 0 
L 50 0 
L 1831 4666 
z
" transform="scale(0.015625)"/>
       <path id="DejaVuSans-28" d="M 1984 4856 
Q 1566 4138 1362 3434 
Q 1159 2731 1159 2009 
Q 1159 1288 1364 580 
Q 1569 -128 1984 -844 
L 1484 -844 
Q 1016 -109 783 600 
Q 550 1309 550 2009 
Q 550 2706 781 3412 
Q 1013 4119 1484 4856 
L 1984 4856 
z
" transform="scale(0.015625)"/>
       <path id="DejaVuSans-50" d="M 1259 4147 
L 1259 2394 
L 2053 2394 
Q 2494 2394 2734 2622 
Q 2975 2850 2975 3272 
Q 2975 3691 2734 3919 
Q 2494 4147 2053 4147 
L 1259 4147 
z
M 628 4666 
L 2053 4666 
Q 2838 4666 3239 4311 
Q 3641 3956 3641 3272 
Q 3641 2581 3239 2228 
Q 2838 1875 2053 1875 
L 1259 1875 
L 1259 0 
L 628 0 
L 628 4666 
z
" transform="scale(0.015625)"/>
       <path id="DejaVuSans-62" d="M 3116 1747 
Q 3116 2381 2855 2742 
Q 2594 3103 2138 3103 
Q 1681 3103 1420 2742 
Q 1159 2381 1159 1747 
Q 1159 1113 1420 752 
Q 1681 391 2138 391 
Q 2594 391 2855 752 
Q 3116 1113 3116 1747 
z
M 1159 2969 
Q 1341 3281 1617 3432 
Q 1894 3584 2278 3584 
Q 2916 3584 3314 3078 
Q 3713 2572 3713 1747 
Q 3713 922 3314 415 
Q 2916 -91 2278 -91 
Q 1894 -91 1617 61 
Q 1341 213 1159 525 
L 1159 0 
L 581 0 
L 581 4863 
L 1159 4863 
L 1159 2969 
z
" transform="scale(0.015625)"/>
       <path id="DejaVuSans-75" d="M 544 1381 
L 544 3500 
L 1119 3500 
L 1119 1403 
Q 1119 906 1312 657 
Q 1506 409 1894 409 
Q 2359 409 2629 706 
Q 2900 1003 2900 1516 
L 2900 3500 
L 3475 3500 
L 3475 0 
L 2900 0 
L 2900 538 
Q 2691 219 2414 64 
Q 2138 -91 1772 -91 
Q 1169 -91 856 284 
Q 544 659 544 1381 
z
M 1991 3584 
L 1991 3584 
z
" transform="scale(0.015625)"/>
       <path id="DejaVuSans-64" d="M 2906 2969 
L 2906 4863 
L 3481 4863 
L 3481 0 
L 2906 0 
L 2906 525 
Q 2725 213 2448 61 
Q 2172 -91 1784 -91 
Q 1150 -91 751 415 
Q 353 922 353 1747 
Q 353 2572 751 3078 
Q 1150 3584 1784 3584 
Q 2172 3584 2448 3432 
Q 2725 3281 2906 2969 
z
M 947 1747 
Q 947 1113 1208 752 
Q 1469 391 1925 391 
Q 2381 391 2643 752 
Q 2906 1113 2906 1747 
Q 2906 2381 2643 2742 
Q 2381 3103 1925 3103 
Q 1469 3103 1208 2742 
Q 947 2381 947 1747 
z
" transform="scale(0.015625)"/>
       <path id="DejaVuSans-29" d="M 513 4856 
L 1013 4856 
Q 1481 4119 1714 3412 
Q 1947 2706 1947 2009 
Q 1947 1309 1714 600 
Q 1481 -109 1013 -844 
L 513 -844 
Q 928 -128 1133 580 
Q 1338 1288 1338 2009 
Q 1338 2731 1133 3434 
Q 928 4138 513 4856 
z
" transform="scale(0.015625)"/>
      </defs>
      <use xlink:href="#DejaVuSans-55"/>
      <use xlink:href="#DejaVuSans-6c" transform="translate(73.193359 0)"/>
      <use xlink:href="#DejaVuSans-61" transform="translate(100.976562 0)"/>
      <use xlink:href="#DejaVuSans-7a" transform="translate(162.255859 0)"/>
      <use xlink:href="#DejaVuSans-20" transform="translate(214.746094 0)"/>
      <use xlink:href="#DejaVuSans-41" transform="translate(246.533203 0)"/>
      <use xlink:href="#DejaVuSans-20" transform="translate(314.941406 0)"/>
      <use xlink:href="#DejaVuSans-28" transform="translate(346.728516 0)"/>
      <use xlink:href="#DejaVuSans-50" transform="translate(385.742188 0)"/>
      <use xlink:href="#DejaVuSans-6f" transform="translate(442.419922 0)"/>
      <use xlink:href="#DejaVuSans-62" transform="translate(503.601562 0)"/>
      <use xlink:href="#DejaVuSans-75" transform="translate(567.078125 0)"/>
      <use xlink:href="#DejaVuSans-64" transform="translate(630.457031 0)"/>
      <use xlink:href="#DejaVuSans-61" transform="translate(693.933594 0)"/>
      <use xlink:href="#DejaVuSans-29" transform="translate(755.212891 0)"/>
     </g>
    </g>
    <g id="line2d_41">
     <path d="M 335.992891 472.493304 
L 346.992891 472.493304 
L 357.992891 472.493304 
" style="fill: none; stroke: #1f77b4; stroke-width: 2.5; stroke-linecap: square"/>
    </g>
    <g id="text_22">
     <!-- Izlaz F (Without Matching) -->
     <g transform="translate(366.792891 476.343304) scale(0.11 -0.11)">
      <defs>
       <path id="DejaVuSans-49" d="M 628 4666 
L 1259 4666 
L 1259 0 
L 628 0 
L 628 4666 
z
" transform="scale(0.015625)"/>
       <path id="DejaVuSans-46" d="M 628 4666 
L 3309 4666 
L 3309 4134 
L 1259 4134 
L 1259 2759 
L 3109 2759 
L 3109 2228 
L 1259 2228 
L 1259 0 
L 628 0 
L 628 4666 
z
" transform="scale(0.015625)"/>
       <path id="DejaVuSans-57" d="M 213 4666 
L 850 4666 
L 1831 722 
L 2809 4666 
L 3519 4666 
L 4500 722 
L 5478 4666 
L 6119 4666 
L 4947 0 
L 4153 0 
L 3169 4050 
L 2175 0 
L 1381 0 
L 213 4666 
z
" transform="scale(0.015625)"/>
       <path id="DejaVuSans-69" d="M 603 3500 
L 1178 3500 
L 1178 0 
L 603 0 
L 603 3500 
z
M 603 4863 
L 1178 4863 
L 1178 4134 
L 603 4134 
L 603 4863 
z
" transform="scale(0.015625)"/>
       <path id="DejaVuSans-74" d="M 1172 4494 
L 1172 3500 
L 2356 3500 
L 2356 3053 
L 1172 3053 
L 1172 1153 
Q 1172 725 1289 603 
Q 1406 481 1766 481 
L 2356 481 
L 2356 0 
L 1766 0 
Q 1100 0 847 248 
Q 594 497 594 1153 
L 594 3053 
L 172 3053 
L 172 3500 
L 594 3500 
L 594 4494 
L 1172 4494 
z
" transform="scale(0.015625)"/>
       <path id="DejaVuSans-68" d="M 3513 2113 
L 3513 0 
L 2938 0 
L 2938 2094 
Q 2938 2591 2744 2837 
Q 2550 3084 2163 3084 
Q 1697 3084 1428 2787 
Q 1159 2491 1159 1978 
L 1159 0 
L 581 0 
L 581 4863 
L 1159 4863 
L 1159 2956 
Q 1366 3272 1645 3428 
Q 1925 3584 2291 3584 
Q 2894 3584 3203 3211 
Q 3513 2838 3513 2113 
z
" transform="scale(0.015625)"/>
       <path id="DejaVuSans-4d" d="M 628 4666 
L 1569 4666 
L 2759 1491 
L 3956 4666 
L 4897 4666 
L 4897 0 
L 4281 0 
L 4281 4097 
L 3078 897 
L 2444 897 
L 1241 4097 
L 1241 0 
L 628 0 
L 628 4666 
z
" transform="scale(0.015625)"/>
       <path id="DejaVuSans-63" d="M 3122 3366 
L 3122 2828 
Q 2878 2963 2633 3030 
Q 2388 3097 2138 3097 
Q 1578 3097 1268 2742 
Q 959 2388 959 1747 
Q 959 1106 1268 751 
Q 1578 397 2138 397 
Q 2388 397 2633 464 
Q 2878 531 3122 666 
L 3122 134 
Q 2881 22 2623 -34 
Q 2366 -91 2075 -91 
Q 1284 -91 818 406 
Q 353 903 353 1747 
Q 353 2603 823 3093 
Q 1294 3584 2113 3584 
Q 2378 3584 2631 3529 
Q 2884 3475 3122 3366 
z
" transform="scale(0.015625)"/>
       <path id="DejaVuSans-67" d="M 2906 1791 
Q 2906 2416 2648 2759 
Q 2391 3103 1925 3103 
Q 1463 3103 1205 2759 
Q 947 2416 947 1791 
Q 947 1169 1205 825 
Q 1463 481 1925 481 
Q 2391 481 2648 825 
Q 2906 1169 2906 1791 
z
M 3481 434 
Q 3481 -459 3084 -895 
Q 2688 -1331 1869 -1331 
Q 1566 -1331 1297 -1286 
Q 1028 -1241 775 -1147 
L 775 -588 
Q 1028 -725 1275 -790 
Q 1522 -856 1778 -856 
Q 2344 -856 2625 -561 
Q 2906 -266 2906 331 
L 2906 616 
Q 2728 306 2450 153 
Q 2172 0 1784 0 
Q 1141 0 747 490 
Q 353 981 353 1791 
Q 353 2603 747 3093 
Q 1141 3584 1784 3584 
Q 2172 3584 2450 3431 
Q 2728 3278 2906 2969 
L 2906 3500 
L 3481 3500 
L 3481 434 
z
" transform="scale(0.015625)"/>
      </defs>
      <use xlink:href="#DejaVuSans-49"/>
      <use xlink:href="#DejaVuSans-7a" transform="translate(29.492188 0)"/>
      <use xlink:href="#DejaVuSans-6c" transform="translate(81.982422 0)"/>
      <use xlink:href="#DejaVuSans-61" transform="translate(109.765625 0)"/>
      <use xlink:href="#DejaVuSans-7a" transform="translate(171.044922 0)"/>
      <use xlink:href="#DejaVuSans-20" transform="translate(223.535156 0)"/>
      <use xlink:href="#DejaVuSans-46" transform="translate(255.322266 0)"/>
      <use xlink:href="#DejaVuSans-20" transform="translate(312.841797 0)"/>
      <use xlink:href="#DejaVuSans-28" transform="translate(344.628906 0)"/>
      <use xlink:href="#DejaVuSans-57" transform="translate(383.642578 0)"/>
      <use xlink:href="#DejaVuSans-69" transform="translate(480.269531 0)"/>
      <use xlink:href="#DejaVuSans-74" transform="translate(508.052734 0)"/>
      <use xlink:href="#DejaVuSans-68" transform="translate(547.261719 0)"/>
      <use xlink:href="#DejaVuSans-6f" transform="translate(610.640625 0)"/>
      <use xlink:href="#DejaVuSans-75" transform="translate(671.822266 0)"/>
      <use xlink:href="#DejaVuSans-74" transform="translate(735.201172 0)"/>
      <use xlink:href="#DejaVuSans-20" transform="translate(774.410156 0)"/>
      <use xlink:href="#DejaVuSans-4d" transform="translate(806.197266 0)"/>
      <use xlink:href="#DejaVuSans-61" transform="translate(892.476562 0)"/>
      <use xlink:href="#DejaVuSans-74" transform="translate(953.755859 0)"/>
      <use xlink:href="#DejaVuSans-63" transform="translate(992.964844 0)"/>
      <use xlink:href="#DejaVuSans-68" transform="translate(1047.945312 0)"/>
      <use xlink:href="#DejaVuSans-69" transform="translate(1111.324219 0)"/>
      <use xlink:href="#DejaVuSans-6e" transform="translate(1139.107422 0)"/>
      <use xlink:href="#DejaVuSans-67" transform="translate(1202.486328 0)"/>
      <use xlink:href="#DejaVuSans-29" transform="translate(1265.962891 0)"/>
     </g>
    </g>
    <g id="line2d_42">
     <path d="M 532.336016 472.493304 
L 543.336016 472.493304 
L 554.336016 472.493304 
" style="fill: none; stroke-dasharray: 16,4,2.5,4; stroke-dashoffset: 0; stroke: #2ca02c; stroke-width: 2.5"/>
    </g>
    <g id="text_23">
     <!-- Izlaz F (With Matching) -->
     <g transform="translate(563.136016 476.343304) scale(0.11 -0.11)">
      <use xlink:href="#DejaVuSans-49"/>
      <use xlink:href="#DejaVuSans-7a" transform="translate(29.492188 0)"/>
      <use xlink:href="#DejaVuSans-6c" transform="translate(81.982422 0)"/>
      <use xlink:href="#DejaVuSans-61" transform="translate(109.765625 0)"/>
      <use xlink:href="#DejaVuSans-7a" transform="translate(171.044922 0)"/>
      <use xlink:href="#DejaVuSans-20" transform="translate(223.535156 0)"/>
      <use xlink:href="#DejaVuSans-46" transform="translate(255.322266 0)"/>
      <use xlink:href="#DejaVuSans-20" transform="translate(312.841797 0)"/>
      <use xlink:href="#DejaVuSans-28" transform="translate(344.628906 0)"/>
      <use xlink:href="#DejaVuSans-57" transform="translate(383.642578 0)"/>
      <use xlink:href="#DejaVuSans-69" transform="translate(480.269531 0)"/>
      <use xlink:href="#DejaVuSans-74" transform="translate(508.052734 0)"/>
      <use xlink:href="#DejaVuSans-68" transform="translate(547.261719 0)"/>
      <use xlink:href="#DejaVuSans-20" transform="translate(610.640625 0)"/>
      <use xlink:href="#DejaVuSans-4d" transform="translate(642.427734 0)"/>
      <use xlink:href="#DejaVuSans-61" transform="translate(728.707031 0)"/>
      <use xlink:href="#DejaVuSans-74" transform="translate(789.986328 0)"/>
      <use xlink:href="#DejaVuSans-63" transform="translate(829.195312 0)"/>
      <use xlink:href="#DejaVuSans-68" transform="translate(884.175781 0)"/>
      <use xlink:href="#DejaVuSans-69" transform="translate(947.554688 0)"/>
      <use xlink:href="#DejaVuSans-6e" transform="translate(975.337891 0)"/>
      <use xlink:href="#DejaVuSans-67" transform="translate(1038.716797 0)"/>
      <use xlink:href="#DejaVuSans-29" transform="translate(1102.193359 0)"/>
     </g>
    </g>
   </g>
  </g>
 </g>
 <defs>
  <clipPath id="p4b7af91228">
   <rect x="45.716875" y="49.945375" width="793.06" height="364.4104"/>
  </clipPath>
 </defs>
</svg>
